<svg width="29" height="20" fill="none" xmlns="http://www.w3.org/2000/svg"><path d="M25.714 8.892c1.629-.135 2.734-.876 3.159-1.882-.588.361-2.411.755-3.419.38a12.226 12.226 0 00-.158-.665c-.768-2.821-3.395-5.094-6.149-4.82.223-.09.449-.173.674-.249.303-.108 2.081-.398 1.801-1.026-.236-.553-2.408.417-2.817.544.54-.203 1.433-.553 1.528-1.174a4.311 4.311 0 00-2.266 1.075c.226-.245.398-.542.434-.862-2.206 1.41-3.495 4.256-4.538 7.016-.82-.795-1.545-1.42-2.196-1.768-1.827-.981-4.012-2.004-7.44-3.279-.106 1.136.56 2.646 2.48 3.65-.416-.055-1.176.07-1.785.215C5.27 7.348 6.08 8.42 8.27 8.939c-1.001.066-1.519.294-1.988.785.456.905 1.569 1.97 3.57 1.752-2.225.96-.907 2.738.904 2.473-3.09 3.194-7.96 2.96-10.756.288 7.302 9.96 23.174 5.89 25.54-3.704 1.772.016 2.814-.614 3.46-1.308-1.021.173-2.501-.006-3.286-.333z" fill="#fff"/></svg>