<svg width="10" height="21" viewBox="0 0 10 21" fill="none" xmlns="http://www.w3.org/2000/svg">
<path d="M2.16145 4.06608C2.16145 4.59517 2.16145 6.9567 2.16145 6.9567H0V10.4914H2.16145V20.9951H6.60152V10.4916H9.58101C9.58101 10.4916 9.86005 8.79681 9.99532 6.94367C9.60752 6.94367 6.61831 6.94367 6.61831 6.94367C6.61831 6.94367 6.61831 4.88732 6.61831 4.52688C6.61831 4.16566 7.10241 3.67978 7.58088 3.67978C8.05846 3.67978 9.06642 3.67978 10 3.67978C10 3.19853 10 1.53571 10 1.26263e-08C8.7537 1.26263e-08 7.33582 1.26263e-08 6.71082 1.26263e-08C2.05169 -0.000244053 2.16145 3.53793 2.16145 4.06608Z" fill="white"/>
</svg>
