<svg width="25" height="15" fill="none" xmlns="http://www.w3.org/2000/svg"><path d="M24.777 13.38c-.067-.12-.483-1.069-2.483-3.021-2.094-2.044-1.813-1.712.71-5.247 1.536-2.152 2.15-3.467 1.958-4.029-.183-.536-1.313-.394-1.313-.394l-3.757.023s-.278-.04-.485.09c-.202.128-.332.424-.332.424s-.595 1.666-1.389 3.083c-1.674 2.989-2.344 3.146-2.617 2.96-.636-.432-.477-1.738-.477-2.665 0-2.897.417-4.104-.814-4.417-.41-.103-.71-.172-1.755-.184-1.34-.014-2.477.005-3.119.336-.428.22-.758.711-.556.74.248.034.81.158 1.11.586.385.55.371 1.79.371 1.79s.222 3.409-.517 3.833c-.508.29-1.203-.303-2.696-3.016a25.897 25.897 0 01-1.342-2.924s-.11-.286-.31-.44c-.24-.185-.577-.244-.577-.244L.814.687S.278.703.082.948c-.175.219-.014.67-.014.67 0-.001 2.797 6.88 5.962 10.348 2.905 3.18 6.202 2.97 6.202 2.97h1.494s.452-.052.682-.313c.212-.24.204-.69.204-.69s-.03-2.108.902-2.419c.917-.306 2.096 2.038 3.344 2.94.944.682 1.661.532 1.661.532l3.34-.05s1.746-.113.918-1.557z" fill="#fff"/></svg>