<svg width="581" height="42" fill="none" xmlns="http://www.w3.org/2000/svg"><path d="M2.715 32.035c-.87 0-1.425-.12-1.665-.36s-.36-.57-.36-.99c.09-.27.21-.57.36-.9.3-.81.495-1.395.585-1.755.12-.57.315-1.29.585-2.16 1.38-4.44 2.31-7.245 2.79-8.415l1.71-4.77 1.575-4.59c.75-1.62 1.275-2.97 1.575-4.05.03-.06.045-.15.045-.27 0-.09-.045-.225-.135-.405a1.695 1.695 0 01-.135-.675c-.03-.36.06-.615.27-.765.24-.18.54-.225.9-.135.75.21 2.01.315 3.78.315.66 0 1.05-.03 1.17-.09.24-.12 1.665-.36 4.275-.72 2.61-.36 5.07-.675 7.38-.945l.405-.045c.24 0 .51.03.81.09.33.06.555.105.675.135.45.09.84.33 1.17.72.36.36.495.765.405 1.215-.12.36-.45.54-.99.54-.18 0-.63-.06-1.35-.18-.06 0-.165.285-.315.855-.12.57-.255 1.035-.405 1.395-.33.42-.765 1.47-1.305 3.15-.54 1.68-.81 2.775-.81 3.285-.42.63-.765 1.575-1.035 2.835-.15.63-.3 1.14-.45 1.53-.36 1.23-.93 3.27-1.71 6.12-.75 2.85-1.11 4.275-1.08 4.275l-.18 1.62c-.12.99-.195 1.68-.225 2.07a.56.56 0 010 .315c0 .09-.045.15-.135.18-.21.21-.6.315-1.17.315-.24 0-.48-.03-.72-.09-.21-.06-.345-.135-.405-.225-.03-.09-.12-.255-.27-.495-.15-.27-.195-.54-.135-.81.09-.96.33-2.61.72-4.95.15-.75.33-1.44.54-2.07.21-.66.36-1.02.45-1.08l.855-3.195c.33-.93.585-1.905.765-2.925.03-.12.105-.435.225-.945.12-.54.3-1.14.54-1.8.33-.84.615-1.74.855-2.7.27-.99.435-1.605.495-1.845.09-.33.345-1.095.765-2.295.06-.15.165-.465.315-.945.18-.51.255-.915.225-1.215l-2.97.405-2.7.36-3.105.45c-1.62.24-2.475.36-2.565.36-.51.09-.765.27-.765.54a51.247 51.247 0 00-1.935 4.14c-.57 1.35-.96 2.475-1.17 3.375-.12.27-.615 1.59-1.485 3.96-.54 1.38-.795 2.04-.765 1.98-.6 2.01-1.245 3.9-1.935 5.67-.15.33-.285.645-.405.945-.09.3-.18.735-.27 1.305-.24.63-.51 1.635-.81 3.015-.12.39-.195.69-.225.9 0 .18-.03.42-.09.72-.24.48-.585.72-1.035.72zm29.048-1.71c-.36 0-.645-.06-.855-.18-.21-.12-.51-.345-.9-.675-.99-1.05-1.485-2.01-1.485-2.88 0-.21.015-.36.045-.45.09-.21.12-.42.09-.63v-.405c-.12-.12-.18-.195-.18-.225 0-.06.03-.105.09-.135.06-.06.105-.12.135-.18.18 0 .24-.165.18-.495-.06-.24.06-.765.36-1.575.3-.84.675-1.605 1.125-2.295.33-.54.81-1.215 1.44-2.025.66-.81 1.245-1.425 1.755-1.845.72-.63 1.365-1.095 1.935-1.395.57-.3 1.2-.525 1.89-.675.6-.15 1.005-.225 1.215-.225.21 0 .39.06.54.18.18.09.405.27.675.54.81.36 1.365.825 1.665 1.395.33.54.495 1.395.495 2.565 0 1.95-.795 4.065-2.385 6.345-.69.99-1.335 1.755-1.935 2.295-.6.51-1.395 1.065-2.385 1.665-.63.45-1.215.78-1.755.99-.51.18-1.095.285-1.755.315zm4.32-4.77c.72-.81 1.29-1.575 1.71-2.295.45-.72.87-1.635 1.26-2.745.15-.51.225-1.125.225-1.845 0-.9-.12-1.41-.36-1.53-.3-.15-.6-.225-.9-.225-.66 0-1.35.3-2.07.9-.87.75-1.65 1.68-2.34 2.79-.69 1.08-1.395 2.43-2.115 4.05-.3.63-.45 1.245-.45 1.845 0 .45.105.81.315 1.08.24.27.555.405.945.405.99 0 2.25-.81 3.78-2.43zm16.044 4.77c-.69-.3-1.155-.66-1.395-1.08-.27-.39-.404-.99-.404-1.8 0-.57.014-1.02.044-1.35.03-.18.196-.765.495-1.755.33-.99.57-1.68.72-2.07-.27.06-.525.165-.765.315l-.63.45c-.3.3-.705.6-1.215.9-.51.3-.974.525-1.394.675a.893.893 0 01-.405.09c-.33 0-.706-.105-1.125-.315-.39-.24-.675-.54-.855-.9a4.8 4.8 0 01-.316-1.215 3.728 3.728 0 01-.044-.675c0-.75.18-1.485.54-2.205l1.124-2.295c.27-.51.645-1.275 1.125-2.295.09-.18.225-.405.405-.675.18-.27.3-.51.36-.72.03-.12.12-.255.27-.405.18-.18.346-.27.495-.27.78.06 1.336.345 1.666.855.18.21.27.435.27.675 0 .3-.12.585-.36.855-.93 1.26-1.89 2.955-2.88 5.085-.27.48-.406.96-.406 1.44 0 .15.015.27.045.36.48 0 1.17-.33 2.07-.99.9-.66 2.056-1.575 3.466-2.745l1.08-.9c.69-.57 1.29-1.26 1.8-2.07.27-.51.734-.78 1.395-.81.45.21.735.345.855.405.12.24.24.495.36.765.15.24.224.435.224.585 0 .27-.21.63-.63 1.08-.21.03-.63.495-1.26 1.395-.6.87-1.064 1.62-1.394 2.25-.09.15-.21.315-.36.495-.12.15-.24.33-.36.54l-1.71 4.14a4.214 4.214 0 00-.135 1.125c0 .24.03.405.09.495.15 0 .27-.015.36-.045.12-.03.24-.045.36-.045.18 0 .3.075.36.225.15.51.224.825.224.945 0 .3-.21.675-.63 1.125-.33.33-.644.495-.944.495-.15 0-.346-.045-.586-.135zm20.164-16.02c.24.48.36 1.005.36 1.575 0 .9-.24 1.71-.72 2.43-.3.42-.57 1.05-.81 1.89-.21.84-.42 1.965-.63 3.375-.27 1.14-.6 2.895-.99 5.265-.48 1.26-.78 2.205-.9 2.835-.03.18-.18.555-.45 1.125-.24.57-.435 1.02-.585 1.35-1.17 2.43-2.505 4.29-4.005 5.58s-3.135 1.995-4.905 2.115c-.48.06-.765.09-.855.09a2.16 2.16 0 01-.765-.135 8.01 8.01 0 01-.72-.36 4.057 4.057 0 01-.495-.315c-.21-.15-.36-.27-.45-.36a.305.305 0 01-.09-.225c0-.15.09-.3.27-.45.18-.15.465-.225.855-.225.21.12.57.18 1.08.18.51 0 .81-.06.9-.18.06-.06.24-.165.54-.315.3-.12.645-.225 1.035-.315a9.044 9.044 0 002.475-1.755c.75-.69 1.44-1.575 2.07-2.655.75-1.14 1.245-2.175 1.485-3.105.27-.63.57-1.53.9-2.7.36-1.2.645-2.28.855-3.24l-.585.54c-.15.18-.525.45-1.125.81-.6.33-.96.495-1.08.495a.345.345 0 00-.135.045c-.06.03-.09.09-.09.18 0 .12-.39.315-1.17.585-.78.24-1.275.36-1.485.36-.3 0-.63-.15-.99-.45-.33-.33-.57-.645-.72-.945a8.01 8.01 0 00-.36-.72c-.15-.27-.27-.525-.36-.765-.09-.27-.135-.57-.135-.9 0-.39.03-.69.09-.9.36-1.35.96-3.255 1.8-5.715.87-2.46 1.53-4.035 1.98-4.725.24-.33.525-.495.855-.495.45 0 .81.24 1.08.72.27.36.405.66.405.9 0 .18-.075.435-.225.765-.15.33-.345.72-.585 1.17-.12.33-.27.69-.45 1.08-.18.39-.27.63-.27.72-.03.12-.12.495-.27 1.125-.15.6-.285.9-.405.9-.21.18-.435.87-.675 2.07-.24 1.2-.36 2.13-.36 2.79 0 .33.045.495.135.495 1.77 0 3.69-1.32 5.76-3.96.27-1.32.51-2.43.72-3.33.39-1.53.69-2.895.9-4.095.18-.42.315-.66.405-.72.09-.09.285-.135.585-.135.36 0 .615.03.765.09.15.06.33.24.54.54zm6.337 16.29c-.27-.24-.45-.39-.54-.45-.09-.06-.36-.15-.81-.27-.06-.21-.24-.6-.54-1.17-.39-.54-.6-1.005-.63-1.395v-.45c0-.33-.075-.57-.225-.72.15-.12.18-.3.09-.54-.09-.27-.075-.465.045-.585l.045-.315c-.09-.15-.135-.36-.135-.63 0-.48.15-1.44.45-2.88.3-1.38.42-2.205.36-2.475l-.855-.765c.06-.45.135-.78.225-.99.09-.24.3-.435.63-.585l.315.135c.12-.03.21-.06.27-.09.09-.06.165-.105.225-.135.51-.96.99-2.16 1.44-3.6.18-.57.405-1.17.675-1.8.3-.66.6-1.185.9-1.575.18-.21.345-.465.495-.765l.315-.63c.39-.81 1.02-1.725 1.89-2.745.9-1.02 1.725-1.755 2.475-2.205.45-.3.84-.48 1.17-.54.33-.06.84-.105 1.53-.135.39.24.78.57 1.17.99.39.39.585.75.585 1.08v.675c0 .51-.075.915-.225 1.215.03.27-.045.705-.225 1.305-.12.27-.21.57-.27.9-.75 1.56-1.425 2.79-2.025 3.69-.6.87-1.26 1.65-1.98 2.34-.69.66-1.83 1.635-3.42 2.925 1.29.39 1.95 1.11 1.98 2.16 0 .09-.015.255-.045.495 0 .21.015.39.045.54l.09 1.08c0 .24.03.6.09 1.08.09.66.03 1.53-.18 2.61a.565.565 0 01-.135.225.5.5 0 00-.045.225c0 .33-.06.63-.18.9-.09.24-.225.51-.405.81-.15.27-.285.525-.405.765-.06.12-.18.255-.36.405-.18.12-.315.24-.405.36-.36.42-.72.705-1.08.855-.36.15-.825.285-1.395.405-.42.06-.72.12-.9.18l-.09.09zm2.61-15.795l2.25-1.845c.12-.06.42-.42.9-1.08.48-.66.765-1.08.855-1.26.33-.27.69-.84 1.08-1.71.39-.9.705-1.815.945-2.745.24-.96.33-1.665.27-2.115l-.315.135c-.45.57-1.095 1.335-1.935 2.295-.99 1.11-1.89 2.37-2.7 3.78a23.003 23.003 0 00-1.845 4.275l.495.27zm-1.53 12.96c.75-.75 1.245-1.53 1.485-2.34.24-.84.36-1.86.36-3.06v-1.575c0-.09-.03-.225-.09-.405a.727.727 0 01.045-.45c-.06-.18-.18-.51-.36-.99-.15-.48-.375-.87-.675-1.17a2.23 2.23 0 00-.585.405c-.15.15-.345.405-.585.765-.18.36-.36 1.125-.54 2.295-.15 1.14-.225 2.25-.225 3.33 0 1.65.195 2.715.585 3.195h.585zm14.449 2.07c-.36.15-.735.225-1.125.225-.63 0-1.395-.165-2.295-.495-.15 0-.39-.135-.72-.405-.33-.27-.57-.57-.72-.9-.42-.6-.63-1.41-.63-2.43 0-1.53.435-3.36 1.305-5.49.33-.69.87-1.59 1.62-2.7.78-1.14 1.305-1.785 1.575-1.935.09-.03.3-.105.63-.225.33-.15.705-.33 1.125-.54.42-.21.915-.315 1.485-.315.57 0 1.2.21 1.89.63.72.39 1.29.855 1.71 1.395.42.54.57 1.005.45 1.395-.03.09-.21.285-.54.585l-.72.72a.736.736 0 01-.54.225.991.991 0 01-.72-.315c-.21-.24-.33-.555-.36-.945-.06-.18-.255-.375-.585-.585-.3-.21-.51-.345-.63-.405-.24 0-.585.21-1.035.63-.42.42-.84.945-1.26 1.575-.69.72-1.275 1.605-1.755 2.655-.48 1.05-.825 1.95-1.035 2.7-.06.12-.09.33-.09.63 0 .33.03.66.09.99.09.33.18.54.27.63.06.03.21.045.45.045.69 0 1.665-.105 2.925-.315 1.29-.24 2.28-.495 2.97-.765.69-.45 1.35-.675 1.98-.675.21 0 .36.015.45.045.39.18.585.39.585.63 0 .42-.435.87-1.305 1.35-.51.27-.945.54-1.305.81s-.54.48-.54.63c-.06 0-.18.045-.36.135-.18.06-.3.075-.36.045-.33.03-.84.135-1.53.315-.69.18-1.14.33-1.35.45zm30.962-2.745c.12.09.18.225.18.405 0 .21-.075.42-.225.63-.12.18-.24.27-.36.27-.57 0-1.125-.15-1.665-.45-.51-.33-.765-.84-.765-1.53v-2.79c0-1.41-.105-2.205-.315-2.385-.45-.24-1.23.255-2.34 1.485-1.08 1.23-2.13 2.685-3.15 4.365-.33.54-.6.96-.81 1.26-.21.3-.375.45-.495.45-.09 0-.24-.075-.45-.225-.93-.27-1.395-.795-1.395-1.575 0-.09.03-.285.09-.585.3-.99.6-2.085.9-3.285.3-1.23.54-2.265.72-3.105a.465.465 0 00-.45-.27c-.3 0-.645.15-1.035.45-.75.51-1.71 1.725-2.88 3.645-1.47 2.25-2.49 3.615-3.06 4.095-.21.36-.405.645-.585.855-.15.18-.3.27-.45.27-.12 0-.345-.09-.675-.27-.87-.51-1.305-1.23-1.305-2.16 0-.45.135-1.35.405-2.7s.57-2.61.9-3.78c.27-.51.51-1.035.72-1.575.24-.57.36-.915.36-1.035.12-.63.27-1.305.45-2.025s.315-1.125.405-1.215c.21-.21.45-.315.72-.315.45 0 .78.24.99.72.33.33.495.75.495 1.26 0 .57-.165 1.305-.495 2.205-.51 1.11-1.065 2.73-1.665 4.86.63-.69 1.08-1.23 1.35-1.62.72-1.02 1.65-2.16 2.79-3.42.93-1.02 1.98-1.53 3.15-1.53 1.38.24 2.175 1.395 2.385 3.465 0 .36-.03.81-.09 1.35-.06.51-.105.84-.135.99.12-.18.42-.57.9-1.17.51-.6 1.125-1.215 1.845-1.845.66-.51 1.275-.765 1.845-.765.48 0 .9.195 1.26.585.63.36 1.08.87 1.35 1.53.27.63.405 1.44.405 2.43 0 .51-.015.915-.045 1.215-.06.6-.09.975-.09 1.125 0 .57.105 1.14.315 1.71zm6.155 3.51c-.27-.24-.45-.39-.54-.45-.09-.06-.36-.15-.81-.27-.06-.21-.24-.6-.54-1.17-.39-.54-.6-1.005-.63-1.395v-.45c0-.33-.075-.57-.225-.72.15-.12.18-.3.09-.54-.09-.27-.075-.465.045-.585l.045-.315c-.09-.15-.135-.36-.135-.63 0-.48.15-1.44.45-2.88.3-1.38.42-2.205.36-2.475l-.855-.765c.06-.45.135-.78.225-.99.09-.24.3-.435.63-.585l.315.135c.12-.03.21-.06.27-.09.09-.06.165-.105.225-.135.51-.96.99-2.16 1.44-3.6.18-.57.405-1.17.675-1.8.3-.66.6-1.185.9-1.575.18-.21.345-.465.495-.765l.315-.63c.39-.81 1.02-1.725 1.89-2.745.9-1.02 1.725-1.755 2.475-2.205.45-.3.84-.48 1.17-.54.33-.06.84-.105 1.53-.135.39.24.78.57 1.17.99.39.39.585.75.585 1.08v.675c0 .51-.075.915-.225 1.215.03.27-.045.705-.225 1.305-.12.27-.21.57-.27.9-.75 1.56-1.425 2.79-2.025 3.69-.6.87-1.26 1.65-1.98 2.34-.69.66-1.83 1.635-3.42 2.925 1.29.39 1.95 1.11 1.98 2.16 0 .09-.015.255-.045.495 0 .21.015.39.045.54l.09 1.08c0 .24.03.6.09 1.08.09.66.03 1.53-.18 2.61a.565.565 0 01-.135.225.5.5 0 00-.045.225c0 .33-.06.63-.18.9-.09.24-.225.51-.405.81-.15.27-.285.525-.405.765-.06.12-.18.255-.36.405-.18.12-.315.24-.405.36-.36.42-.72.705-1.08.855-.36.15-.825.285-1.395.405-.42.06-.72.12-.9.18l-.09.09zm2.61-15.795l2.25-1.845c.12-.06.42-.42.9-1.08.48-.66.765-1.08.855-1.26.33-.27.69-.84 1.08-1.71.39-.9.705-1.815.945-2.745.24-.96.33-1.665.27-2.115l-.315.135c-.45.57-1.095 1.335-1.935 2.295-.99 1.11-1.89 2.37-2.7 3.78a23.003 23.003 0 00-1.845 4.275l.495.27zm-1.53 12.96c.75-.75 1.245-1.53 1.485-2.34.24-.84.36-1.86.36-3.06v-1.575c0-.09-.03-.225-.09-.405a.727.727 0 01.045-.45c-.06-.18-.18-.51-.36-.99-.15-.48-.375-.87-.675-1.17a2.23 2.23 0 00-.585.405c-.15.15-.345.405-.585.765-.18.36-.36 1.125-.54 2.295-.15 1.14-.225 2.25-.225 3.33 0 1.65.195 2.715.585 3.195h.585zm11.119 13.59c-.03.06-.165 0-.405-.18a3.592 3.592 0 01-.675-.675c-.18-.27-.255-.48-.225-.63-.06-.24-.09-.45-.09-.63 0-.72.42-1.935 1.26-3.645.18-.33.48-.96.9-1.89.27-.69.54-1.29.81-1.8.06-.12.585-1.05 1.575-2.79s1.83-3.495 2.52-5.265c-.51.54-1.14 1.245-1.89 2.115-.87 1.08-1.59 1.875-2.16 2.385-.54.48-1.035.705-1.485.675-.54-.12-.99-.285-1.35-.495-.36-.21-.615-.54-.765-.99a9.596 9.596 0 01-.135-1.665c0-1.35.195-3.18.585-5.49.3-1.29.45-2.235.45-2.835 0-.36-.045-.645-.135-.855-.09-.21-.24-.42-.45-.63-.42-.36-.63-.69-.63-.99 0-.24.21-.48.63-.72.39-.12.75-.18 1.08-.18.24 0 .45.06.63.18.18.09.39.285.63.585l.405.675a3 3 0 01.405.945c.09.33.135.75.135 1.26l-.36 2.835c-.15.69-.225 1.155-.225 1.395-.39 1.44-.585 2.625-.585 3.555 0 .36.045.54.135.54.81-.66 1.605-1.47 2.385-2.43.81-.96 1.86-2.31 3.15-4.05.12-.21.345-.615.675-1.215.36-.63.63-1.215.81-1.755.39-.87.72-1.32.99-1.35.18-.06.465 0 .855.18.39.18.6.315.63.405 0 .03.135.075.405.135.27.03.405.09.405.18 0 .06-.165.51-.495 1.35-.51 1.23-.75 1.89-.72 1.98.09.12-.075.63-.495 1.53-.39.9-.615 1.425-.675 1.575-.75 2.4-1.56 4.35-2.43 5.85-.3.54-1.02 2.115-2.16 4.725l-.36.855c-.3.66-.63 1.41-.99 2.25-.36.87-.675 1.635-.945 2.295-.18.36-.315.645-.405.855-.06.24-.12.42-.18.54-.06.57-.195.99-.405 1.26l-.63.045zm22.942-10.44c-.21.12-.495.075-.855-.135-.33-.21-.66-.525-.99-.945-.24-.39-.39-.795-.45-1.215-.03-.42-.045-1.29-.045-2.61 0-.3-.06-.45-.18-.45-.09 0-.3.15-.63.45-.33.27-.735.645-1.215 1.125-.78.75-1.5 1.335-2.16 1.755-.66.42-1.2.615-1.62.585-.33 0-.69-.225-1.08-.675a5.298 5.298 0 01-.855-1.575c-.09-.36-.135-.78-.135-1.26 0-1.26.255-2.79.765-4.59.54-1.8 1.155-3.345 1.845-4.635.72-1.32 1.35-1.98 1.89-1.98.45 0 .87.495 1.26 1.485.09.18.135.33.135.45 0 .21-.12.42-.36.63-.45.57-.975 1.59-1.575 3.06s-1.08 2.835-1.44 4.095c-.33 1.26-.39 1.89-.18 1.89.42 0 .915-.165 1.485-.495.57-.33 1.14-.765 1.71-1.305a14.3 14.3 0 001.53-1.8c.45-.66 1.005-1.545 1.665-2.655 1.26-2.01 1.95-3.18 2.07-3.51.45-.84.765-1.38.945-1.62.21-.27.465-.45.765-.54h.63c.18.03.39.165.63.405.21.09.33.195.36.315.06.09.09.225.09.405l-.72 1.665-.405.945c-.03.12-.195.465-.495 1.035-.69 1.53-1.215 2.76-1.575 3.69-.36.93-.63 1.89-.81 2.88-.03.15-.045.405-.045.765 0 .9.09 1.53.27 1.89.27.54.54.93.81 1.17.15.12.225.24.225.36 0 .21-.18.42-.54.63-.33.21-.57.315-.72.315zm-.585-18.675c-1.83.21-3.09-1.035-3.78-3.735-.06-.24-.09-.405-.09-.495 0-.21.06-.435.18-.675.06-.12.18-.21.36-.27.18-.06.33-.075.45-.045.39.15.69.345.9.585.21.21.345.48.405.81.09.21.135.42.135.63.24.75.57 1.125.99 1.125.09 0 .315-.06.675-.18 1.26-.51 2.205-1.08 2.835-1.71l1.89-1.755.045-.045c.12-.06.225-.09.315-.09.21 0 .36.045.45.135.15.18.24.345.27.495.03.15.045.3.045.45v.36l-.045.09c.06.18-.09.54-.45 1.08-.36.51-.765.93-1.215 1.26-.57.45-1.515 1.005-2.835 1.665-.21.12-.48.195-.81.225-.33.03-.57.06-.72.09zm17.378 28.89c-.24 0-.435-.135-.585-.405a1.282 1.282 0 01-.225-.765c0-.21.075-.72.225-1.53.33-1.26.495-2.13.495-2.61 0-.15.03-.375.09-.675.06-.27.105-.525.135-.765.12-.21.225-.54.315-.99.12-.42.18-.795.18-1.125 0-.15.045-.33.135-.54.12-.18.255-.33.405-.45 0-.18.045-.45.135-.81.09-.39.15-.66.18-.81.15-.81.735-2.73 1.755-5.76s1.89-5.475 2.61-7.335c.33-.75.57-1.44.72-2.07.15-.63.225-1.125.225-1.485 0-.12.03-.225.09-.315.09-.12.225-.27.405-.45.21-.21.405-.315.585-.315.15 0 .315.06.495.18s.36.255.54.405c.18.27.315.525.405.765.12.24.18.495.18.765 0 .09-.03.375-.09.855 0 .63-.135 1.155-.405 1.575-.27.39-.375.57-.315.54 1.35-.63 2.55-.945 3.6-.945 1.26 0 2.235.405 2.925 1.215.72.81 1.08 1.86 1.08 3.15 0 .54-.165 1.2-.495 1.98-.3.75-.6 1.26-.9 1.53-.18 0-.42.315-.72.945-.39.48-1.035.99-1.935 1.53-.9.51-1.53.705-1.89.585a.345.345 0 00-.135.045c-.06.03-.09.105-.09.225 0 .12-.51.345-1.53.675-1.02.33-1.86.495-2.52.495-.36 0-.63-.015-.81-.045-.18-.06-.36-.165-.54-.315-.21.21-.315.405-.315.585 0 .33-.15.93-.45 1.8-.3.87-.54 1.305-.72 1.305-.03.03-.075.09-.135.18-.03.09.015.195.135.315 0 .09-.015.3-.045.63s-.105.585-.225.765c0 .27-.045.63-.135 1.08-.09.48-.195.84-.315 1.08 0 .36-.06.705-.18 1.035-.09.36-.195.54-.315.54-.18.06-.27.495-.27 1.305-.03.75-.18 1.335-.45 1.755-.27.42-.585.63-.945.63l-.36.045zm5.805-15.075c.45 0 1.35-.225 2.7-.675 1.38-.48 2.34-.945 2.88-1.395.63-.54 1.14-1.11 1.53-1.71.39-.63.585-1.26.585-1.89 0-.48-.135-.915-.405-1.305-.21-.33-.57-.495-1.08-.495-.6 0-1.32.21-2.16.63-.81.42-1.56.975-2.25 1.665-.54.54-1.02 1.32-1.44 2.34-.42.99-.63 1.77-.63 2.34 0 .33.09.495.27.495zm13.632 3.33c-.09-.18-.24-.36-.45-.54-.18-.21-.27-.345-.27-.405 0-.33-.075-.585-.225-.765-.06-.06-.09-.195-.09-.405 0-.48.225-1.29.675-2.43a35.97 35.97 0 011.845-3.78c.18-.18.405-.495.675-.945.3-.45.495-.705.585-.765 0-.12.045-.225.135-.315.09-.12.195-.18.315-.18v-.27c0-.27.495-.915 1.485-1.935.99-1.05 1.8-1.77 2.43-2.16.75-.51 1.515-.765 2.295-.765.54 0 1.005.15 1.395.45.15.18.84.825 2.07 1.935l1.665 1.485-.81 2.25c-.27.81-.405 1.545-.405 2.205 0 1.14.33 2.235.99 3.285.15.33.45.645.9.945.45.3.9.48 1.35.54.66.12.99.45.99.99 0 .6-.27.96-.81 1.08-.12.03-.3.045-.54.045-1.77 0-3.3-1.245-4.59-3.735-.12-.18-.285-.51-.495-.99-.18-.48-.285-.81-.315-.99a26.4 26.4 0 01-.675.855c-.27.33-.525.615-.765.855-3.27 3.27-5.85 4.905-7.74 4.905-.6 0-1.14-.15-1.62-.45zm1.62-2.52c0 .15.15.195.45.135.33-.06.72-.21 1.17-.45.48-.24.96-.555 1.44-.945 2.58-2.22 4.44-4.155 5.58-5.805l.99-1.62c-.3-.63-.615-1.08-.945-1.35-.33-.3-.63-.45-.9-.45-.63 0-1.62.795-2.97 2.385-1.35 1.56-2.58 3.405-3.69 5.535-.27.51-.51 1.035-.72 1.575-.21.51-.345.84-.405.99zm22.434 3.105c-.93 0-1.545-.045-1.845-.135-.3-.12-.645-.36-1.035-.72-.3-.6-.6-1.05-.9-1.35-.12-.33-.18-.825-.18-1.485 0-.75.09-1.56.27-2.43.18-.9.42-1.74.72-2.52.12-.24.21-.465.27-.675.09-.21.15-.345.18-.405 0-.21.375-.855 1.125-1.935.78-1.11 1.395-1.875 1.845-2.295.21-.24.525-.495.945-.765.45-.27.84-.465 1.17-.585.84-.3 1.575-.45 2.205-.45.87 0 1.605.405 2.205 1.215.66.66.99 1.395.99 2.205 0 .3-.045.63-.135.99-.3 1.2-.735 1.8-1.305 1.8-.39 0-.765-.225-1.125-.675-.12-.3-.18-.495-.18-.585 0-.09.06-.345.18-.765.06-.3.09-.51.09-.63 0-.36-.06-.675-.18-.945-.12-.27-.285-.405-.495-.405-.69 0-1.59.6-2.7 1.8-.39.42-.9 1.08-1.53 1.98-.6.9-1.05 1.71-1.35 2.43-.3.9-.54 1.635-.72 2.205-.18.57-.3.93-.36 1.08 0 .06.03.165.09.315.09.15.135.27.135.36 0 .21.045.375.135.495.09.12.255.24.495.36.33.24.72.36 1.17.36.48 0 1.035-.15 1.665-.45.39-.18.945-.57 1.665-1.17l1.08-.81c.21-.15.39-.27.54-.36.18-.12.315-.195.405-.225.09-.06.135-.06.135 0 0 .12.045.18.135.18.09 0 .195-.06.315-.18.27-.36.615-.54 1.035-.54.24 0 .36.045.36.135l-.045.225c0 .15.075.3.225.45 0 .12-.045.285-.135.495-.06.18-.15.33-.27.45-.18.27-.495.6-.945.99-.42.36-.705.6-.855.72h-.045c-.15 0-.36.135-.63.405-.45.42-.84.63-1.17.63-.12.06-.255.135-.405.225-.15.06-.225.135-.225.225-.3.3-.66.51-1.08.63-.42.09-1.065.135-1.935.135zm17.531-.135c-.36.15-.735.225-1.125.225-.63 0-1.395-.165-2.295-.495-.15 0-.39-.135-.72-.405-.33-.27-.57-.57-.72-.9-.42-.6-.63-1.41-.63-2.43 0-1.53.435-3.36 1.305-5.49.33-.69.87-1.59 1.62-2.7.78-1.14 1.305-1.785 1.575-1.935.09-.03.3-.105.63-.225.33-.15.705-.33 1.125-.54.42-.21.915-.315 1.485-.315.57 0 1.2.21 1.89.63.72.39 1.29.855 1.71 1.395.42.54.57 1.005.45 1.395-.03.09-.21.285-.54.585l-.72.72a.736.736 0 01-.54.225.991.991 0 01-.72-.315c-.21-.24-.33-.555-.36-.945-.06-.18-.255-.375-.585-.585-.3-.21-.51-.345-.63-.405-.24 0-.585.21-1.035.63-.42.42-.84.945-1.26 1.575-.69.72-1.275 1.605-1.755 2.655-.48 1.05-.825 1.95-1.035 2.7-.06.12-.09.33-.09.63 0 .33.03.66.09.99.09.33.18.54.27.63.06.03.21.045.45.045.69 0 1.665-.105 2.925-.315 1.29-.24 2.28-.495 2.97-.765.69-.45 1.35-.675 1.98-.675.21 0 .36.015.45.045.39.18.585.39.585.63 0 .42-.435.87-1.305 1.35-.51.27-.945.54-1.305.81s-.54.48-.54.63c-.06 0-.18.045-.36.135-.18.06-.3.075-.36.045-.33.03-.84.135-1.53.315-.69.18-1.14.33-1.35.45zm8.372.99c-.18-.06-.435-.255-.765-.585-.3-.36-.51-.6-.63-.72 0-.21.06-.375.18-.495.15-.12.255-.21.315-.27.09-.12.285-.21.585-.27.33-.06.54-.135.63-.225.12-.09.42-.3.9-.63.48-.33.9-.66 1.26-.99.39-.36.705-.72.945-1.08.78-1.11 1.605-2.43 2.475-3.96.27-.51.615-1.2 1.035-2.07.45-.9.705-1.485.765-1.755l-1.395-.45c-.06-.06-.15-.18-.27-.36-.12-.18-.195-.33-.225-.45v-.405c0-.36.03-.615.09-.765.09-.15.255-.24.495-.27.93-.18 1.695-.315 2.295-.405.9-.12 1.575-.24 2.025-.36.36-.09.765-.135 1.215-.135.78 0 1.485.135 2.115.405.45.18.84.54 1.17 1.08.42.57.63 1.14.63 1.71 0 .21-.015.42-.045.63-.03.18-.045.375-.045.585 0 .27.045.54.135.81a44.26 44.26 0 01-1.26 3.96c-.09.24-.225.645-.405 1.215-.18.57-.315 1.065-.405 1.485-.09.45-.225.87-.405 1.26-.24.69-.39 1.245-.45 1.665-.06.33-.195.585-.405.765-.18.15-.39.285-.63.405-.21.09-.345.15-.405.18-.12.06-.33.03-.63-.09s-.555-.285-.765-.495c-.06-.18-.09-.42-.09-.72 0-.24.06-.57.18-.99.54-1.74 1.275-4.26 2.205-7.56l.495-1.71c.09-.27.135-.585.135-.945 0-.27-.045-.54-.135-.81-.48-.18-.855-.27-1.125-.27-.15 0-.315.03-.495.09a4.16 4.16 0 01-.495.135c-.3.21-.48.495-.54.855-.57 1.5-1.155 2.82-1.755 3.96-.6 1.14-1.065 2.07-1.395 2.79-.12.3-.465.87-1.035 1.71-.36.54-.615.945-.765 1.215l-.495.63c-.15.15-.405.39-.765.72-.36.33-.615.57-.765.72l-1.395 1.08c-.18.15-.51.225-.99.225-.45-.03-.75-.045-.9-.045zm21.668-1.125c-.3.06-.57.09-.81.09-.39 0-.75-.03-1.08-.09-.33-.09-.495-.195-.495-.315 0-.09-.015-.15-.045-.18s-.09-.045-.18-.045c-.03-.03-.12-.105-.27-.225-.15-.12-.33-.225-.54-.315-.27-.42-.405-.87-.405-1.35 0-.51.135-1.305.405-2.385.09-.96.54-2.16 1.35-3.6a26.958 26.958 0 012.835-4.095c1.11-1.29 2.1-2.19 2.97-2.7.45-.45 1.02-.675 1.71-.675.54 0 1.05.135 1.53.405.42.24.855.645 1.305 1.215.48.57.855 1.155 1.125 1.755.12.45.18.885.18 1.305 0 .45-.06 1.155-.18 2.115-.15.54-.285 1.2-.405 1.98-.09.78-.135 1.455-.135 2.025-.06.42-.03.765.09 1.035.12.24.285.36.495.36.15 0 .315-.045.495-.135.3-.15.63-.225.99-.225.33 0 .6.09.81.27.21.18.315.45.315.81 0 .54-.375 1.08-1.125 1.62-.72.54-1.41.81-2.07.81-.45 0-.87-.345-1.26-1.035-.36-.72-.72-1.635-1.08-2.745l-.27-1.035-1.935 1.845-1.035 1.035c-.48.48-.75.765-.81.855-.33.57-1.155 1.11-2.475 1.62zm.135-2.655c.72-.42 1.605-1.155 2.655-2.205 1.05-1.05 1.92-2.055 2.61-3.015.93-1.23 1.515-2.445 1.755-3.645a3.83 3.83 0 00-.585-1.08c-.27-.36-.51-.555-.72-.585-.6 0-1.23.345-1.89 1.035-.66.69-1.44 1.65-2.34 2.88l-1.485 2.205c-.18.24-.495.885-.945 1.935-.45 1.02-.675 1.635-.675 1.845 0 .66.195.99.585.99.3 0 .645-.12 1.035-.36zm28.727-21.69c-.12-.18-.285-.42-.495-.72-.18-.3-.375-.51-.585-.63-.21-.12-.525-.195-.945-.225-.66-.06-1.155-.09-1.485-.09-.3 0-.525.015-.675.045-.48.06-1.155.18-2.025.36-.84.18-1.38.315-1.62.405-.27.09-.675.255-1.215.495l-1.26.54a.555.555 0 00-.405.27.729.729 0 00-.135.45c0 .15.06.345.18.585.12.21.36.495.72.855-.03-.06.165.18.585.72.45.6.945 1.485 1.485 2.655.54 1.14.735 1.935.585 2.385-.24-.06-.555-.09-.945-.09-.33 0-.6.015-.81.045-.99.57-1.995 1.695-3.015 3.375a22.086 22.086 0 00-2.385 5.355c-.42 1.41-.63 2.73-.63 3.96 0 2.04.615 3.42 1.845 4.14.42.24.795.42 1.125.54.33.12.675.165 1.035.135.54.21 1.2-.135 1.98-1.035.81-.9 1.785-2.355 2.925-4.365l.945-2.835c.24-.57.405-1.035.495-1.395.09-.36.135-.84.135-1.44l.045-.36c.03-.18.09-.42.18-.72.12-.33.18-.6.18-.81l-.09-.54c.06-.18.09-.375.09-.585 0-.42-.06-.93-.18-1.53s-.24-1.035-.36-1.305c0-.42-.075-.87-.225-1.35-.12-.48-.27-.93-.45-1.35-.09-.06-.135-.165-.135-.315s-.015-.27-.045-.36c-.36-.63-.705-1.17-1.035-1.62-.6-.9-.99-1.53-1.17-1.89.12-.12.39-.21.81-.27.42-.09.69-.165.81-.225.3-.15.75-.225 1.35-.225.6 0 1.215.06 1.845.18.66.12 1.155.255 1.485.405.12.06.27.105.45.135h.405c.21-.12.36-.405.45-.855.09-.48.15-.78.18-.9zm-7.65 9.765c.51.51.765 1.395.765 2.655 0 .75-.09 1.515-.27 2.295-.15.78-.33 1.41-.54 1.89-.21.45-.36.93-.45 1.44-.24.36-.615 1.02-1.125 1.98-.24.48-.525.99-.855 1.53-.3.51-.69 1.05-1.17 1.62l-.9-.81c-.15-.57-.225-1.02-.225-1.35 0-.09.03-.435.09-1.035.15-1.17.555-2.595 1.215-4.275.66-1.68 1.35-2.88 2.07-3.6.24-.24.525-.615.855-1.125.33-.54.51-.945.54-1.215zm4.839 14.49c-.15.12-.36.18-.63.18-.42 0-.915-.105-1.485-.315l-.315-.81c-.06-.42-.12-.705-.18-.855l.495-.495h.99c.09-.03.21-.12.36-.27.15-.15.3-.225.45-.225 1.05-.66 2.085-1.89 3.105-3.69 1.05-1.83 2.13-3.96 3.24-6.39l.405-.855-.045-.225c-.18.06-.42.12-.72.18-.27.06-.495.12-.675.18l-.27.18c-.21.18-.495.27-.855.27-.33 0-.645-.075-.945-.225a1.374 1.374 0 01-.585-.585 47.7 47.7 0 00-.405-.63c.12-.27.315-.525.585-.765.27-.27.54-.435.81-.495 1.5-.36 2.82-.54 3.96-.54 1.11 0 2.19.195 3.24.585.09.03.21.06.36.09s.285.09.405.18c.48.36.825.645 1.035.855.39.36.63.795.72 1.305.09.36.135.735.135 1.125 0 .18-.03.45-.09.81-.12.51-.525 1.965-1.215 4.365l-.315.99c-.57 1.89-1.14 3.825-1.71 5.805-.24.06-.42.09-.54.09-.57 0-1.08-.27-1.53-.81-.12-.36-.18-.72-.18-1.08 0-.42.105-.84.315-1.26.09-.18.165-.42.225-.72.09-.3.15-.51.18-.63.18-.93.39-1.545.63-1.845.06-.12.09-.225.09-.315 0-.3.27-1.38.81-3.24.42-1.47.66-2.355.72-2.655.03-.06.045-.15.045-.27a.997.997 0 00-.045-.315 1.673 1.673 0 01-.045-.405c-.36-.18-.735-.27-1.125-.27s-.645.15-.765.45l-.135.405c-.15.51-.405 1.095-.765 1.755-.63 1.32-1.065 2.4-1.305 3.24-.03.18-.105.375-.225.585-.09.18-.15.315-.18.405-.18.27-.315.555-.405.855a.4.4 0 01-.045.18l-.09.09c-.09.15-.45.72-1.08 1.71-.81 1.29-2.28 2.73-4.41 4.32zm17.967.315c-.96-.39-1.635-.885-2.025-1.485-.39-.63-.585-1.5-.585-2.61 0-.54.045-1.17.135-1.89l.09-1.62c0-.27-.03-.48-.09-.63-.06-.15-.195-.315-.405-.495l-.45-.45c-.24-.24-.345-.435-.315-.585l-.045-.225c0-.21.03-.405.09-.585.09-.18.18-.27.27-.27.09 0 .21-.015.36-.045a.655.655 0 01.405-.045c.42 0 .63.09.63.27.12.24.315.27.585.09.3-.21.585-.6.855-1.17.42-.66 1.035-1.35 1.845-2.07.84-.75 1.53-1.275 2.07-1.575.21-.12.555-.225 1.035-.315.48-.12.9-.18 1.26-.18.54 0 1.005.12 1.395.36.42.24.84.585 1.26 1.035.57.42.855 1.08.855 1.98 0 .63-.15 1.275-.45 1.935-.12.45-.6 1.02-1.44 1.71-.81.69-1.56 1.17-2.25 1.44-.84.21-1.8.315-2.88.315-.72 0-1.185-.06-1.395-.18-.36-.21-.615.6-.765 2.43-.03.21-.045.495-.045.855 0 .51.075.915.225 1.215.03.03.135.15.315.36.18.18.405.345.675.495.27.12.555.18.855.18.27 0 .48-.03.63-.09.33-.09.645-.255.945-.495.3-.27.72-.675 1.26-1.215.48-.48.825-.81 1.035-.99.15-.27.45-.405.9-.405.12 0 .33.03.63.09.27.21.405.435.405.675 0 .24-.15.69-.45 1.35-.15.3-.525.72-1.125 1.26-.57.51-1.08.915-1.53 1.215-.93.51-1.86.765-2.79.765-.57 0-1.23-.135-1.98-.405zm2.655-9.135c.3-.06.735-.135 1.305-.225s1.035-.285 1.395-.585c.39-.33.84-.885 1.35-1.665.09-.24.135-.48.135-.72 0-.45-.09-.765-.27-.945a.991.991 0 00-.72-.315c-.42 0-.855.18-1.305.54-.3.09-.75.42-1.35.99-.57.57-1.065 1.14-1.485 1.71-.42.54-.555.855-.405.945-.06.09.09.165.45.225.36.03.66.045.9.045zm22.238-5.76c.33-.18.66-.27.99-.27.42 0 .78.135 1.08.405.33.24.495.555.495.945 0 .06-.03.21-.09.45.09-.39-.225.255-.945 1.935-.72 1.68-1.11 2.58-1.17 2.7v.135c.42 0 .69.135.81.405.15.24.21.57.18.99-.27.06-.525.165-.765.315s-.435.225-.585.225c-.09 0-.195.045-.315.135a.566.566 0 00-.225.315c-.06.12-.165.585-.315 1.395l-.81 3.24c-.06.21-.165.39-.315.54-.15.15-.285.24-.405.27-.12-.03-.36-.105-.72-.225-.33-.15-.555-.255-.675-.315l-.36-.27v-.27c0-.42.075-.855.225-1.305.24-.72.48-1.725.72-3.015-.24-.09-.84-.045-1.8.135-.96.15-1.485.225-1.575.225-.18.09-.54.135-1.08.135-.87 0-1.485-.075-1.845-.225l-.27.135c-.06.27-.15.57-.27.9-.33.93-.495 1.62-.495 2.07-.06.42-.12.765-.18 1.035-.06.3-.12.75-.18 1.35-.03.84-.315 1.26-.855 1.26-.33 0-.69-.12-1.08-.36-.21-.12-.495-.36-.855-.72l.72-3.465c.09-.27.18-.645.27-1.125.12-.48.24-.87.36-1.17l.495-1.395c.36-1.05.69-1.905.99-2.565l.945-2.655c.09-.21.285-.78.585-1.71.33-.96.525-1.515.585-1.665.12-.33.36-.495.72-.495.48-.03.885.09 1.215.36.36.24.555.54.585.9a3.653 3.653 0 01-.135.855l-2.34 5.715v.36c.12.09.33.135.63.135.24 0 .6-.045 1.08-.135.51-.09.825-.135.945-.135.27-.03.675-.06 1.215-.09a29.2 29.2 0 011.62-.045c.42 0 .645.015.675.045l.495-1.44c.48-1.47.99-2.655 1.53-3.555.03-.09.09-.255.18-.495.09-.27.195-.57.315-.9zm15.89 15.885c-.72-.69-1.26-1.71-1.62-3.06-.06-.18-.09-.495-.09-.945v-.945c-.18.45-.51.855-.99 1.215-.69.69-1.38 1.2-2.07 1.53-1.05.69-1.905 1.035-2.565 1.035-.6 0-1.17-.33-1.71-.99-.39-.33-.69-.66-.9-.99-.18-.33-.27-.735-.27-1.215 0-.33.045-.69.135-1.08.06-1.11.21-2.175.45-3.195.27-1.02.765-2.325 1.485-3.915.96-1.89 1.65-3.15 2.07-3.78.15-.06.345-.09.585-.09.3 0 .54.09.72.27.21.18.33.42.36.72.09.12.135.285.135.495 0 .75-.45 1.98-1.35 3.69-1.17 2.82-1.755 4.77-1.755 5.85 0 .63.18 1.005.54 1.125.15.09.315.135.495.135.75 0 1.65-.51 2.7-1.53 1.05-1.02 2.055-2.655 3.015-4.905.42-1.02.675-2.07.765-3.15a1.365 1.365 0 01-.045-.405c0-.54.27-.975.81-1.305a1.1 1.1 0 01.495-.405c.21-.12.345-.12.405 0l.72-.045c.09-.03.18.06.27.27.09.18.18.3.27.36.21.18.315.51.315.99 0 .99-.435 2.505-1.305 4.545-.57 1.2-.96 2.13-1.17 2.79a8.2 8.2 0 00-.315 1.845c0 1.14.435 2.085 1.305 2.835.3.21.48.435.54.675.06.24.075.57.045.99-.06.27-.24.495-.54.675-.27.15-.57.225-.9.225a1.76 1.76 0 01-1.035-.315zm10.221.225c-1.29 0-2.355-.48-3.195-1.44-.84-.96-1.26-2.16-1.26-3.6s.315-3.015.945-4.725c.66-1.74 1.5-3.3 2.52-4.68s2.055-2.31 3.105-2.79c.6-.33 1.275-.495 2.025-.495.57 0 1.215.165 1.935.495.51.21.9.465 1.17.765.27.3.51.765.72 1.395.09.54.135.915.135 1.125 0 .18-.075.57-.225 1.17-.36 1.11-.84 2.055-1.44 2.835-.57.75-1.32 1.395-2.25 1.935-.48.3-1.08.45-1.8.45-.63 0-1.23-.105-1.8-.315-.54-.24-.96-.585-1.26-1.035l-.315-.36-.135.36c-.63 1.62-.945 3-.945 4.14 0 .78.15 1.41.45 1.89.21.33.72.495 1.53.495.6 0 1.035-.06 1.305-.18.45-.15.84-.33 1.17-.54.36-.24.705-.48 1.035-.72l.18-.09h-.045c.36-.18.66-.345.9-.495.24-.15.405-.255.495-.315a.4.4 0 00.18-.045.51.51 0 00.18-.18c.27-.12.585-.075.945.135.36.21.54.48.54.81-.06.24-.33.63-.81 1.17-.48.54-.84.825-1.08.855-.03 0-.135.045-.315.135-.18.09-.3.165-.36.225h.045c-.27.36-.54.54-.81.54h-.36c-.12.24-.525.48-1.215.72-.66.24-1.29.36-1.89.36zm2.025-9.9c.9 0 1.725-.51 2.475-1.53.72-.96 1.08-1.92 1.08-2.88 0-.51-.105-.87-.315-1.08a1.12 1.12 0 00-.495-.135c-.15 0-.405.045-.765.135-.39.09-.99.51-1.8 1.26-.81.72-1.41 1.365-1.8 1.935l-.585.945c.24-.09.465-.135.675-.135.24-.03.375-.015.405.045 0 .42.105.765.315 1.035.21.27.48.405.81.405zm23.102 9.36c-.27-.24-.45-.39-.54-.45-.09-.06-.36-.15-.81-.27-.06-.21-.24-.6-.54-1.17-.39-.54-.6-1.005-.63-1.395v-.45c0-.33-.075-.57-.225-.72.15-.12.18-.3.09-.54-.09-.27-.075-.465.045-.585l.045-.315c-.09-.15-.135-.36-.135-.63 0-.48.15-1.44.45-2.88.3-1.38.42-2.205.36-2.475l-.855-.765c.06-.45.135-.78.225-.99.09-.24.3-.435.63-.585l.315.135c.12-.03.21-.06.27-.09.09-.06.165-.105.225-.135.51-.96.99-2.16 1.44-3.6.18-.57.405-1.17.675-1.8.3-.66.6-1.185.9-1.575.18-.21.345-.465.495-.765l.315-.63c.39-.81 1.02-1.725 1.89-2.745.9-1.02 1.725-1.755 2.475-2.205.45-.3.84-.48 1.17-.54.33-.06.84-.105 1.53-.135.39.24.78.57 1.17.99.39.39.585.75.585 1.08v.675c0 .51-.075.915-.225 1.215.03.27-.045.705-.225 1.305-.12.27-.21.57-.27.9-.75 1.56-1.425 2.79-2.025 3.69-.6.87-1.26 1.65-1.98 2.34-.69.66-1.83 1.635-3.42 2.925 1.29.39 1.95 1.11 1.98 2.16 0 .09-.015.255-.045.495 0 .21.015.39.045.54l.09 1.08c0 .24.03.6.09 1.08.09.66.03 1.53-.18 2.61a.565.565 0 01-.135.225.5.5 0 00-.045.225c0 .33-.06.63-.18.9-.09.24-.225.51-.405.81-.15.27-.285.525-.405.765-.06.12-.18.255-.36.405-.18.12-.315.24-.405.36-.36.42-.72.705-1.08.855-.36.15-.825.285-1.395.405-.42.06-.72.12-.9.18l-.09.09zm2.61-15.795l2.25-1.845c.12-.06.42-.42.9-1.08.48-.66.765-1.08.855-1.26.33-.27.69-.84 1.08-1.71.39-.9.705-1.815.945-2.745.24-.96.33-1.665.27-2.115l-.315.135c-.45.57-1.095 1.335-1.935 2.295-.99 1.11-1.89 2.37-2.7 3.78a23.003 23.003 0 00-1.845 4.275l.495.27zm-1.53 12.96c.75-.75 1.245-1.53 1.485-2.34.24-.84.36-1.86.36-3.06v-1.575c0-.09-.03-.225-.09-.405a.727.727 0 01.045-.45c-.06-.18-.18-.51-.36-.99-.15-.48-.375-.87-.675-1.17a2.23 2.23 0 00-.585.405c-.15.15-.345.405-.585.765-.18.36-.36 1.125-.54 2.295-.15 1.14-.225 2.25-.225 3.33 0 1.65.195 2.715.585 3.195h.585zm25.347 2.07c-.36.15-.735.225-1.125.225-.63 0-1.395-.165-2.295-.495-.15 0-.39-.135-.72-.405-.33-.27-.57-.57-.72-.9-.42-.6-.63-1.41-.63-2.43 0-1.53.435-3.36 1.305-5.49.33-.69.87-1.59 1.62-2.7.78-1.14 1.305-1.785 1.575-1.935.09-.03.3-.105.63-.225.33-.15.705-.33 1.125-.54.42-.21.915-.315 1.485-.315.57 0 1.2.21 1.89.63.72.39 1.29.855 1.71 1.395.42.54.57 1.005.45 1.395-.03.09-.21.285-.54.585l-.72.72a.736.736 0 01-.54.225.991.991 0 01-.72-.315c-.21-.24-.33-.555-.36-.945-.06-.18-.255-.375-.585-.585-.3-.21-.51-.345-.63-.405-.24 0-.585.21-1.035.63-.42.42-.84.945-1.26 1.575-.69.72-1.275 1.605-1.755 2.655-.48 1.05-.825 1.95-1.035 2.7-.06.12-.09.33-.09.63 0 .33.03.66.09.99.09.33.18.54.27.63.06.03.21.045.45.045.69 0 1.665-.105 2.925-.315 1.29-.24 2.28-.495 2.97-.765.69-.45 1.35-.675 1.98-.675.21 0 .36.015.45.045.39.18.585.39.585.63 0 .42-.435.87-1.305 1.35-.51.27-.945.54-1.305.81s-.54.48-.54.63c-.06 0-.18.045-.36.135-.18.06-.3.075-.36.045-.33.03-.84.135-1.53.315-.69.18-1.14.33-1.35.45zm14.222 1.035c-.09 0-.39.015-.9.045-.48 0-.945-.105-1.395-.315-.45-.24-.825-.6-1.125-1.08-.21-.39-.39-.84-.54-1.35-.15-.51-.225-.945-.225-1.305 0-.15.03-.315.09-.495.57-3.3 1.035-5.385 1.395-6.255l.72-1.755c.15-.48.195-1.02.135-1.62v-.18c0-.39.15-.72.45-.99.51-.39.915-.9 1.215-1.53.21-.51.54-1.2.99-2.07.45-.87.78-1.44.99-1.71.33-.45.63-.885.9-1.305l.63-.945c.39-.57.825-1.05 1.305-1.44.57-.96 1.695-2.115 3.375-3.465.72-.6 1.17-.99 1.35-1.17.09-.09.36-.18.81-.27.45-.12.735-.195.855-.225.24-.06.645-.165 1.215-.315.18-.09.51-.015.99.225.51.21.885.45 1.125.72.48.84.72 1.5.72 1.98 0 .39-.09.825-.27 1.305-.18.48-.525 1.26-1.035 2.34-1.08 2.16-3.045 4.215-5.895 6.165-1.08.96-2.295 1.8-3.645 2.52-.99.51-1.8.87-2.43 1.08-.48.15-.825.495-1.035 1.035-.12.27-.225.6-.315.99-.06.39-.15.645-.27.765-.18.18-.48 1.185-.9 3.015-.42 1.83-.63 3.075-.63 3.735 0 .24.03.45.09.63s.195.315.405.405c.42-.09.75-.225.99-.405.27-.21.6-.54.99-.99.84-1.05 1.44-2.055 1.8-3.015.09-.27.18-.615.27-1.035.09-.45.195-.795.315-1.035 0-1.05-.015-1.725-.045-2.025-.03-.33-.135-.72-.315-1.17.15-.09.27-.18.36-.27.12-.12.27-.165.45-.135.69.15 1.395.57 2.115 1.26.21.21.27.465.18.765-.12.96-.18 1.65-.18 2.07-.09.21-.24.675-.45 1.395-.03.39-.12.765-.27 1.125-.54 1.11-.93 1.86-1.17 2.25a9.695 9.695 0 01-2.7 3.15l-1.485.9zm2.07-16.605c.15.03.33.045.54.045.3 0 .555-.15.765-.45 2.19-1.44 4.035-2.835 5.535-4.185 1.53-1.38 2.475-2.55 2.835-3.51.12-.24.285-.54.495-.9.21-.39.345-.75.405-1.08l-.18-1.26c-.87.39-1.56.765-2.07 1.125-.48.33-1.095.87-1.845 1.62-.75.75-1.89 2.1-3.42 4.05-1.5 1.95-2.52 3.465-3.06 4.545zm12.139 16.47c-.36.03-.66.015-.9-.045-.21-.09-.525-.27-.945-.54-1.29-1.05-1.92-2.085-1.89-3.105.03-.09.045-.225.045-.405 0-.18-.015-.315-.045-.405a1.353 1.353 0 01-.045-.225c-.12-.09-.195-.15-.225-.18a.4.4 0 01.045-.18c.06-.06.105-.12.135-.18.12-.03.18-.09.18-.18s-.03-.195-.09-.315c-.09-.24-.045-.78.135-1.62.21-.87.48-1.68.81-2.43.24-.57.615-1.305 1.125-2.205.54-.9 1.035-1.59 1.485-2.07.63-.72 1.2-1.275 1.71-1.665a7.129 7.129 0 011.845-.945c.63-.27 1.065-.405 1.305-.405.3 0 .675.18 1.125.54.72.21 1.26.51 1.62.9.39.36.69.93.9 1.71.18.63.27 1.335.27 2.115 0 1.68-.525 3.525-1.575 5.535-.54 1.08-1.065 1.92-1.575 2.52-.51.57-1.215 1.245-2.115 2.025-.63.51-1.185.9-1.665 1.17-.45.27-1.005.465-1.665.585zm3.6-5.355c.63-.93 1.11-1.77 1.44-2.52.33-.78.6-1.74.81-2.88.03-.12.045-.36.045-.72 0-.6-.06-1.17-.18-1.71s-.27-.825-.45-.855a1.928 1.928 0 00-.675-.135c-.69 0-1.425.405-2.205 1.215-.72.84-1.35 1.86-1.89 3.06-.51 1.17-1.02 2.61-1.53 4.32-.15.6-.225 1.08-.225 1.44 0 .54.105.975.315 1.305.21.3.51.45.9.45.48 0 1.035-.24 1.665-.72.63-.51 1.29-1.26 1.98-2.25zm15.64 4.05c-.75.66-1.65.99-2.7.99-.75 0-1.47-.18-2.16-.54a4.925 4.925 0 01-1.665-1.485 4.672 4.672 0 01-.855-1.62c-.18-.6-.27-1.335-.27-2.205 0-.3.03-.9.09-1.8.09-1.11.45-2.265 1.08-3.465.66-1.2 1.47-2.265 2.43-3.195.96-.96 1.905-1.62 2.835-1.98.48-.3.915-.45 1.305-.45.21 0 .42.015.63.045.21.03.435.06.675.09.66.09 1.155.225 1.485.405.36.15.66.39.9.72.75.75 1.125 1.62 1.125 2.61-.12.72-.585 1.545-1.395 2.475a9.42 9.42 0 01-2.925 2.25c-.54.18-1.155.27-1.845.27-.93 0-1.68-.195-2.25-.585-.27-.09-.48-.135-.63-.135-.27 0-.48.18-.63.54-.12.36-.24 1.02-.36 1.98-.03.21-.045.51-.045.9 0 1.53.51 2.37 1.53 2.52.69.15 1.185.225 1.485.225.36 0 .765-.12 1.215-.36l.855-.495a1.9 1.9 0 00.495-.36l.405-.405.27-.27c.12-.15.225-.24.315-.27.12-.06.225-.09.315-.09.12 0 .255.075.405.225.15.12.27.21.36.27.27 0 .33.195.18.585-.15.36-.48.795-.99 1.305-.48.48-1.035.915-1.665 1.305zm-.045-9.54c.51-.21 1.02-.585 1.53-1.125.54-.54.81-.99.81-1.35 0-.36-.135-.66-.405-.9s-.645-.36-1.125-.36c-.36 0-.63.03-.81.09-.42.12-.915.45-1.485.99-.57.51-1.065 1.035-1.485 1.575-.42.54-.585.855-.495.945.15.27.735.405 1.755.405.69 0 1.26-.09 1.71-.27zM496.38 30.1c-.3.06-.51.09-.63.09-.45 0-.885-.135-1.305-.405-.06-.12-.15-.285-.27-.495-.12-.24-.21-.45-.27-.63-.03-.21-.015-.39.045-.54.06-.15.105-.375.135-.675.06-.33.105-.57.135-.72.06-.87.165-1.47.315-1.8.06-.12.09-.225.09-.315.03-.27.12-.66.27-1.17.15-.54.24-.9.27-1.08.06-.33.135-.885.225-1.665.12-.78.18-1.32.18-1.62 0-.09.045-.21.135-.36.09-.15.09-.3 0-.45-.78.75-1.74 1.785-2.88 3.105-1.11 1.29-1.905 2.34-2.385 3.15.03-.06-.12.135-.45.585-.09.12-.24.285-.45.495-.18.18-.315.375-.405.585-.3.3-.66.72-1.08 1.26-.6.72-1.095 1.245-1.485 1.575-.24.06-.48.06-.72 0a8.883 8.883 0 01-.675-.225c-.24-.12-.45-.21-.63-.27l-.45-.945.36-2.16c.18-1.05.33-2.13.45-3.24.15-1.11.21-1.92.18-2.43l-.045-.315c0-.12.045-.24.135-.36l.045-.315c-.09-.09-.135-.18-.135-.27 0-.06.015-.15.045-.27.06-.15.06-.27 0-.36l-.27-.18c-.39.63-.87 1.305-1.44 2.025-.57.69-.96 1.155-1.17 1.395l-1.755 2.205c-.15.24-.495.78-1.035 1.62-.69 1.26-1.32 2.145-1.89 2.655-.18.18-.39.42-.63.72-.24.27-.465.48-.675.63-.12.42-.435.63-.945.63-.48 0-.945-.15-1.395-.45-.45-.33-.675-.675-.675-1.035 0-.24.09-.45.27-.63l.135-.315c.51-.21 1.035-.6 1.575-1.17s1.2-1.35 1.98-2.34a59.09 59.09 0 011.35-1.665c.36-.39.72-.9 1.08-1.53l.36-.54c.12-.21.27-.42.45-.63.18-.21.705-.93 1.575-2.16.09-.12.405-.555.945-1.305a16.93 16.93 0 011.665-1.98c.54.3 1.005.45 1.395.45.3.39.6.72.9.99.72.63 1.08 1.74 1.08 3.33 0 1.02-.165 2.415-.495 4.185l-.225 1.395.045.135c.6-.54 1.32-1.395 2.16-2.565l1.215-1.53c1.44-1.68 2.4-2.76 2.88-3.24.48-.51.945-.945 1.395-1.305.93-.84 1.59-1.44 1.98-1.8h1.35c.18.15.345.27.495.36.18.06.39.12.63.18.03.12.075.345.135.675.09.33.12.555.09.675-.06.15-.105.36-.135.63 0 .24-.06.45-.18.63-.3.48-.6 1.395-.9 2.745-.27 1.32-.435 2.37-.495 3.15-.09.48-.21.855-.36 1.125s-.24.48-.27.63c-.03.12-.045.3-.045.54 0 .39-.045.69-.135.9l-.09.09v.72c0 .48-.06.825-.18 1.035.03.09.045.24.045.45v.36c0 .27.03.465.09.585l-.63.765zm37.27-3.015c.12.09.18.225.18.405 0 .21-.075.42-.225.63-.12.18-.24.27-.36.27-.57 0-1.125-.15-1.665-.45-.51-.33-.765-.84-.765-1.53v-2.79c0-1.41-.105-2.205-.315-2.385-.45-.24-1.23.255-2.34 1.485-1.08 1.23-2.13 2.685-3.15 4.365-.33.54-.6.96-.81 1.26-.21.3-.375.45-.495.45-.09 0-.24-.075-.45-.225-.93-.27-1.395-.795-1.395-1.575 0-.09.03-.285.09-.585.3-.99.6-2.085.9-3.285.3-1.23.54-2.265.72-3.105a.465.465 0 00-.45-.27c-.3 0-.645.15-1.035.45-.75.51-1.71 1.725-2.88 3.645-1.47 2.25-2.49 3.615-3.06 4.095-.21.36-.405.645-.585.855-.15.18-.3.27-.45.27-.12 0-.345-.09-.675-.27-.87-.51-1.305-1.23-1.305-2.16 0-.45.135-1.35.405-2.7s.57-2.61.9-3.78c.27-.51.51-1.035.72-1.575.24-.57.36-.915.36-1.035.12-.63.27-1.305.45-2.025s.315-1.125.405-1.215c.21-.21.45-.315.72-.315.45 0 .78.24.99.72.33.33.495.75.495 1.26 0 .57-.165 1.305-.495 2.205-.51 1.11-1.065 2.73-1.665 4.86.63-.69 1.08-1.23 1.35-1.62.72-1.02 1.65-2.16 2.79-3.42.93-1.02 1.98-1.53 3.15-1.53 1.38.24 2.175 1.395 2.385 3.465 0 .36-.03.81-.09 1.35-.06.51-.105.84-.135.99.12-.18.42-.57.9-1.17.51-.6 1.125-1.215 1.845-1.845.66-.51 1.275-.765 1.845-.765.48 0 .9.195 1.26.585.63.36 1.08.87 1.35 1.53.27.63.405 1.44.405 2.43 0 .51-.015.915-.045 1.215-.06.6-.09.975-.09 1.125 0 .57.105 1.14.315 1.71zm8.171 4.05c-1.29 0-2.355-.48-3.195-1.44-.84-.96-1.26-2.16-1.26-3.6s.315-3.015.945-4.725c.66-1.74 1.5-3.3 2.52-4.68s2.055-2.31 3.105-2.79c.6-.33 1.275-.495 2.025-.495.57 0 1.215.165 1.935.495.51.21.9.465 1.17.765.27.3.51.765.72 1.395.09.54.135.915.135 1.125 0 .18-.075.57-.225 1.17-.36 1.11-.84 2.055-1.44 2.835-.57.75-1.32 1.395-2.25 1.935-.48.3-1.08.45-1.8.45-.63 0-1.23-.105-1.8-.315-.54-.24-.96-.585-1.26-1.035l-.315-.36-.135.36c-.63 1.62-.945 3-.945 4.14 0 .78.15 1.41.45 1.89.21.33.72.495 1.53.495.6 0 1.035-.06 1.305-.18.45-.15.84-.33 1.17-.54.36-.24.705-.48 1.035-.72l.18-.09h-.045c.36-.18.66-.345.9-.495.24-.15.405-.255.495-.315a.4.4 0 00.18-.045.51.51 0 00.18-.18c.27-.12.585-.075.945.135.36.21.54.48.54.81-.06.24-.33.63-.81 1.17-.48.54-.84.825-1.08.855-.03 0-.135.045-.315.135-.18.09-.3.165-.36.225h.045c-.27.36-.54.54-.81.54h-.36c-.12.24-.525.48-1.215.72-.66.24-1.29.36-1.89.36zm2.025-9.9c.9 0 1.725-.51 2.475-1.53.72-.96 1.08-1.92 1.08-2.88 0-.51-.105-.87-.315-1.08a1.12 1.12 0 00-.495-.135c-.15 0-.405.045-.765.135-.39.09-.99.51-1.8 1.26-.81.72-1.41 1.365-1.8 1.935l-.585.945c.24-.09.465-.135.675-.135.24-.03.375-.015.405.045 0 .42.105.765.315 1.035.21.27.48.405.81.405zm6.354 9.585c-.18-.06-.435-.255-.765-.585-.3-.36-.51-.6-.63-.72 0-.21.06-.375.18-.495.15-.12.255-.21.315-.27.09-.12.285-.21.585-.27.33-.06.54-.135.63-.225.12-.09.42-.3.9-.63.48-.33.9-.66 1.26-.99.39-.36.705-.72.945-1.08.78-1.11 1.605-2.43 2.475-3.96.27-.51.615-1.2 1.035-2.07.45-.9.705-1.485.765-1.755l-1.395-.45c-.06-.06-.15-.18-.27-.36-.12-.18-.195-.33-.225-.45v-.405c0-.36.03-.615.09-.765.09-.15.255-.24.495-.27.93-.18 1.695-.315 2.295-.405.9-.12 1.575-.24 2.025-.36.36-.09.765-.135 1.215-.135.78 0 1.485.135 2.115.405.45.18.84.54 1.17 1.08.42.57.63 1.14.63 1.71 0 .21-.015.42-.045.63-.03.18-.045.375-.045.585 0 .27.045.54.135.81a44.26 44.26 0 01-1.26 3.96c-.09.24-.225.645-.405 1.215-.18.57-.315 1.065-.405 1.485-.09.45-.225.87-.405 1.26-.24.69-.39 1.245-.45 1.665-.06.33-.195.585-.405.765-.18.15-.39.285-.63.405-.21.09-.345.15-.405.18-.12.06-.33.03-.63-.09s-.555-.285-.765-.495c-.06-.18-.09-.42-.09-.72 0-.24.06-.57.18-.99.54-1.74 1.275-4.26 2.205-7.56l.495-1.71c.09-.27.135-.585.135-.945 0-.27-.045-.54-.135-.81-.48-.18-.855-.27-1.125-.27-.15 0-.315.03-.495.09a4.16 4.16 0 01-.495.135c-.3.21-.48.495-.54.855-.57 1.5-1.155 2.82-1.755 3.96-.6 1.14-1.065 2.07-1.395 2.79-.12.3-.465.87-1.035 1.71-.36.54-.615.945-.765 1.215l-.495.63c-.15.15-.405.39-.765.72-.36.33-.615.57-.765.72l-1.395 1.08c-.18.15-.51.225-.99.225-.45-.03-.75-.045-.9-.045zm20.993-.9c-.96-.39-1.635-.885-2.025-1.485-.39-.63-.585-1.5-.585-2.61 0-.54.045-1.17.135-1.89l.09-1.62c0-.27-.03-.48-.09-.63-.06-.15-.195-.315-.405-.495l-.45-.45c-.24-.24-.345-.435-.315-.585l-.045-.225c0-.21.03-.405.09-.585.09-.18.18-.27.27-.27.09 0 .21-.015.36-.045a.655.655 0 01.405-.045c.42 0 .63.09.63.27.12.24.315.27.585.09.3-.21.585-.6.855-1.17.42-.66 1.035-1.35 1.845-2.07.84-.75 1.53-1.275 2.07-1.575.21-.12.555-.225 1.035-.315.48-.12.9-.18 1.26-.18.54 0 1.005.12 1.395.36.42.24.84.585 1.26 1.035.57.42.855 1.08.855 1.98 0 .63-.15 1.275-.45 1.935-.12.45-.6 1.02-1.44 1.71-.81.69-1.56 1.17-2.25 1.44-.84.21-1.8.315-2.88.315-.72 0-1.185-.06-1.395-.18-.36-.21-.615.6-.765 2.43-.03.21-.045.495-.045.855 0 .51.075.915.225 1.215.03.03.135.15.315.36.18.18.405.345.675.495.27.12.555.18.855.18.27 0 .48-.03.63-.09.33-.09.645-.255.945-.495.3-.27.72-.675 1.26-1.215.48-.48.825-.81 1.035-.99.15-.27.45-.405.9-.405.12 0 .33.03.63.09.27.21.405.435.405.675 0 .24-.15.69-.45 1.35-.15.3-.525.72-1.125 1.26-.57.51-1.08.915-1.53 1.215-.93.51-1.86.765-2.79.765-.57 0-1.23-.135-1.98-.405zm2.655-9.135c.3-.06.735-.135 1.305-.225s1.035-.285 1.395-.585c.39-.33.84-.885 1.35-1.665.09-.24.135-.48.135-.72 0-.45-.09-.765-.27-.945a.991.991 0 00-.72-.315c-.42 0-.855.18-1.305.54-.3.09-.75.42-1.35.99-.57.57-1.065 1.14-1.485 1.71-.42.54-.555.855-.405.945-.06.09.09.165.45.225.36.03.66.045.9.045z" fill="#8E80A9"/></svg>