<svg width="310" height="23" fill="none" xmlns="http://www.w3.org/2000/svg"><path d="M1.347 16.943c-.464 0-.76-.064-.888-.192s-.192-.304-.192-.528c.048-.144.112-.304.192-.48.16-.432.264-.744.312-.936.064-.304.168-.688.312-1.152.736-2.368 1.232-3.864 1.488-4.488l.912-2.544.84-2.448c.4-.864.68-1.584.84-2.16a.334.334 0 00.024-.144.553.553 0 00-.072-.216.904.904 0 01-.072-.36c-.016-.192.032-.328.144-.408.128-.096.288-.12.48-.072.4.112 1.072.168 2.016.168.352 0 .56-.016.624-.048.128-.064.888-.192 2.28-.384s2.704-.36 3.936-.504l.216-.024c.128 0 .272.016.432.048.176.032.296.056.36.072.24.048.448.176.624.384.192.192.264.408.216.648-.064.192-.24.288-.528.288-.096 0-.336-.032-.72-.096-.032 0-.088.152-.168.456a4.26 4.26 0 01-.216.744c-.176.224-.408.784-.696 1.68-.288.896-.432 1.48-.432 1.752-.224.336-.408.84-.552 1.512-.08.336-.16.608-.24.816a219.41 219.41 0 00-.912 3.264c-.4 1.52-.592 2.28-.576 2.28l-.096.864c-.064.528-.104.896-.12 1.104a.299.299 0 010 .168c0 .048-.024.08-.072.096-.112.112-.32.168-.624.168-.128 0-.256-.016-.384-.048-.112-.032-.184-.072-.216-.12a1.583 1.583 0 00-.144-.264.599.599 0 01-.072-.432c.048-.512.176-1.392.384-2.64.08-.4.176-.768.288-1.104.112-.352.192-.544.24-.576l.456-1.704a9.694 9.694 0 00.408-1.56l.12-.504c.064-.288.16-.608.288-.96.176-.448.328-.928.456-1.44.144-.528.232-.856.264-.984.048-.176.184-.584.408-1.224.032-.08.088-.248.168-.504.096-.272.136-.488.12-.648l-1.584.216-1.44.192-1.656.24c-.864.128-1.32.192-1.368.192-.272.048-.408.144-.408.288a27.332 27.332 0 00-1.032 2.208c-.304.72-.512 1.32-.624 1.8-.064.144-.328.848-.792 2.112a44.12 44.12 0 00-.408 1.056 39.212 39.212 0 01-1.032 3.024c-.08.176-.152.344-.216.504a5.65 5.65 0 00-.144.696c-.128.336-.272.872-.432 1.608a3.42 3.42 0 00-.12.48c0 .096-.016.224-.048.384-.128.256-.312.384-.552.384zm15.492-.912a.92.92 0 01-.456-.096 3.635 3.635 0 01-.48-.36c-.528-.56-.792-1.072-.792-1.536 0-.112.008-.192.024-.24a.618.618 0 00.048-.336v-.216c-.064-.064-.096-.104-.096-.12 0-.032.016-.056.048-.072a.376.376 0 00.072-.096c.096 0 .128-.088.096-.264-.032-.128.032-.408.192-.84.16-.448.36-.856.6-1.224.176-.288.432-.648.768-1.08.352-.432.664-.76.936-.984.384-.336.728-.584 1.032-.744.304-.16.64-.28 1.008-.36.32-.08.536-.12.648-.12.112 0 .208.032.288.096.096.048.216.144.36.288.432.192.728.44.888.744.176.288.264.744.264 1.368 0 1.04-.424 2.168-1.272 3.384-.368.528-.712.936-1.032 1.224-.32.272-.744.568-1.272.888-.336.24-.648.416-.936.528a3.255 3.255 0 01-.936.168zm2.304-2.544a7.78 7.78 0 00.912-1.224c.24-.384.464-.872.672-1.464.08-.272.12-.6.12-.984 0-.48-.064-.752-.192-.816-.16-.08-.32-.12-.48-.12-.352 0-.72.16-1.104.48-.464.4-.88.896-1.248 1.488-.368.576-.744 1.296-1.128 2.16a2.28 2.28 0 00-.24.984c0 .24.056.432.168.576a.642.642 0 00.504.216c.528 0 1.2-.432 2.016-1.296zM27.7 16.03c-.368-.16-.616-.352-.744-.576-.144-.208-.216-.528-.216-.96 0-.304.008-.544.024-.72.016-.096.104-.408.264-.936.176-.528.304-.896.384-1.104-.144.032-.28.088-.408.168l-.336.24c-.16.16-.376.32-.648.48-.272.16-.52.28-.744.36a.476.476 0 01-.216.048c-.176 0-.376-.056-.6-.168a1.188 1.188 0 01-.456-.48 2.56 2.56 0 01-.168-.648 2.603 2.603 0 01.264-1.536l.6-1.224c.144-.272.344-.68.6-1.224.048-.096.12-.216.216-.36s.16-.272.192-.384a.505.505 0 01.144-.216c.096-.096.184-.144.264-.144.416.032.712.184.888.456a.544.544 0 01.144.36c0 .16-.064.312-.192.456-.496.672-1.008 1.576-1.536 2.712a1.555 1.555 0 00-.216.768c0 .08.008.144.024.192.256 0 .624-.176 1.104-.528.48-.352 1.096-.84 1.848-1.464l.576-.48c.368-.304.688-.672.96-1.104.144-.272.392-.416.744-.432.24.112.392.184.456.216.064.128.128.264.192.408.08.128.12.232.12.312 0 .144-.112.336-.336.576-.112.016-.336.264-.672.744-.32.464-.568.864-.744 1.2-.048.08-.112.168-.192.264-.064.08-.128.176-.192.288l-.912 2.208a2.247 2.247 0 00-.072.6c0 .128.016.216.048.264.08 0 .144-.008.192-.024a.789.789 0 01.192-.024c.096 0 .16.04.192.12.08.272.12.44.12.504 0 .16-.112.36-.336.6-.176.176-.344.264-.504.264a.94.94 0 01-.312-.072zm10.754-8.544c.128.256.192.536.192.84 0 .48-.128.912-.384 1.296-.16.224-.304.56-.432 1.008a19.746 19.746 0 00-.336 1.8c-.144.608-.32 1.544-.528 2.808-.256.672-.416 1.176-.48 1.512-.016.096-.096.296-.24.6a29.45 29.45 0 01-.312.72c-.624 1.296-1.336 2.288-2.136 2.976-.8.688-1.672 1.064-2.616 1.128a6.151 6.151 0 01-.456.048c-.144 0-.28-.024-.408-.072a4.272 4.272 0 01-.384-.192 2.164 2.164 0 01-.264-.168 2.042 2.042 0 01-.24-.192.163.163 0 01-.048-.12c0-.08.048-.16.144-.24.096-.08.248-.12.456-.12.112.064.304.096.576.096.272 0 .432-.032.48-.096.032-.032.128-.088.288-.168.16-.064.344-.12.552-.168.496-.24.936-.552 1.32-.936.4-.368.768-.84 1.104-1.416.4-.608.664-1.16.792-1.656.144-.336.304-.816.48-1.44.192-.64.344-1.216.456-1.728l-.312.288c-.08.096-.28.24-.6.432-.32.176-.512.264-.576.264a.184.184 0 00-.072.024c-.032.016-.048.048-.048.096 0 .064-.208.168-.624.312-.416.128-.68.192-.792.192-.16 0-.336-.08-.528-.24a2.006 2.006 0 01-.384-.504 4.272 4.272 0 00-.192-.384 3.059 3.059 0 01-.192-.408 1.512 1.512 0 01-.072-.48c0-.208.016-.368.048-.48.192-.72.512-1.736.96-3.048.464-1.312.816-2.152 1.056-2.52.128-.176.28-.264.456-.264.24 0 .432.128.576.384.144.192.216.352.216.48 0 .096-.04.232-.12.408-.08.176-.184.384-.312.624a7.517 7.517 0 01-.24.576c-.096.208-.144.336-.144.384l-.144.6c-.08.32-.152.48-.216.48-.112.096-.232.464-.36 1.104-.128.64-.192 1.136-.192 1.488 0 .176.024.264.072.264.944 0 1.968-.704 3.072-2.112a67.94 67.94 0 01.384-1.776 29.66 29.66 0 00.48-2.184c.096-.224.168-.352.216-.384.048-.048.152-.072.312-.072.192 0 .328.016.408.048.08.032.176.128.288.288zm3.38 8.688a3.535 3.535 0 00-.288-.24c-.048-.032-.192-.08-.432-.144-.032-.112-.128-.32-.288-.624-.208-.288-.32-.536-.336-.744v-.24c0-.176-.04-.304-.12-.384.08-.064.096-.16.048-.288-.048-.144-.04-.248.024-.312l.024-.168a.655.655 0 01-.072-.336c0-.256.08-.768.24-1.536.16-.736.224-1.176.192-1.32l-.456-.408c.032-.24.072-.416.12-.528.048-.128.16-.232.336-.312l.168.072a.744.744 0 00.144-.048c.048-.032.088-.056.12-.072.272-.512.528-1.152.768-1.92.096-.304.216-.624.36-.96.16-.352.32-.632.48-.84.096-.112.184-.248.264-.408l.168-.336c.208-.432.544-.92 1.008-1.464.48-.544.92-.936 1.32-1.176.24-.16.448-.256.624-.288a6.62 6.62 0 01.816-.072c.208.128.416.304.624.528.208.208.312.4.312.576v.36c0 .272-.04.488-.12.648.016.144-.024.376-.12.696a2.106 2.106 0 00-.144.48c-.4.832-.76 1.488-1.08 1.968-.32.464-.672.88-1.056 1.248-.368.352-.976.872-1.824 1.56.688.208 1.04.592 1.056 1.152 0 .048-.008.136-.024.264 0 .112.008.208.024.288l.048.576c0 .128.016.32.048.576.048.352.016.816-.096 1.392a.301.301 0 01-.072.12.267.267 0 00-.024.12c0 .176-.032.336-.096.48-.048.128-.12.272-.216.432-.08.144-.152.28-.216.408a.74.74 0 01-.192.216.872.872 0 00-.216.192c-.192.224-.384.376-.576.456a4.26 4.26 0 01-.744.216 3.07 3.07 0 00-.48.096l-.048.048zm1.392-8.424l1.2-.984c.064-.032.224-.224.48-.576s.408-.576.456-.672c.176-.144.368-.448.576-.912.208-.48.376-.968.504-1.464.128-.512.176-.888.144-1.128l-.168.072c-.24.304-.584.712-1.032 1.224a11.983 11.983 0 00-1.44 2.016 12.268 12.268 0 00-.984 2.28l.264.144zm-.816 6.912c.4-.4.664-.816.792-1.248.128-.448.192-.992.192-1.632v-.84a.762.762 0 00-.048-.216.388.388 0 01.024-.24 18.235 18.235 0 00-.192-.528c-.08-.256-.2-.464-.36-.624a1.19 1.19 0 00-.312.216c-.08.08-.184.216-.312.408-.096.192-.192.6-.288 1.224-.08.608-.12 1.2-.12 1.776 0 .88.104 1.448.312 1.704h.312zm7.706 1.104c-.192.08-.392.12-.6.12-.336 0-.744-.088-1.224-.264-.08 0-.208-.072-.384-.216a1.342 1.342 0 01-.384-.48c-.224-.32-.336-.752-.336-1.296 0-.816.232-1.792.696-2.928.176-.368.464-.848.864-1.44.416-.608.696-.952.84-1.032.048-.016.16-.056.336-.12.176-.08.376-.176.6-.288.224-.112.488-.168.792-.168.304 0 .64.112 1.008.336.384.208.688.456.912.744.224.288.304.536.24.744-.016.048-.112.152-.288.312l-.384.384a.393.393 0 01-.288.12.529.529 0 01-.384-.168.84.84 0 01-.192-.504c-.032-.096-.136-.2-.312-.312a3.273 3.273 0 00-.336-.216c-.128 0-.312.112-.552.336a5.505 5.505 0 00-.672.84 5.07 5.07 0 00-.936 1.416c-.256.56-.44 1.04-.552 1.44-.032.064-.048.176-.048.336 0 .176.016.352.048.528.048.176.096.288.144.336a.702.702 0 00.24.024c.368 0 .888-.056 1.56-.168.688-.128 1.216-.264 1.584-.408.368-.24.72-.36 1.056-.36.112 0 .192.008.24.024.208.096.312.208.312.336 0 .224-.232.464-.696.72a5.29 5.29 0 00-.696.432c-.192.144-.288.256-.288.336a.58.58 0 00-.192.072c-.096.032-.16.04-.192.024a5.647 5.647 0 00-.816.168c-.368.096-.608.176-.72.24zm16.513-1.464c.064.048.096.12.096.216 0 .112-.04.224-.12.336-.064.096-.128.144-.192.144-.304 0-.6-.08-.888-.24-.272-.176-.408-.448-.408-.816v-1.488c0-.752-.056-1.176-.168-1.272-.24-.128-.656.136-1.248.792a16.508 16.508 0 00-1.68 2.328c-.176.288-.32.512-.432.672-.112.16-.2.24-.264.24-.048 0-.128-.04-.24-.12-.496-.144-.744-.424-.744-.84 0-.048.016-.152.048-.312a37.1 37.1 0 00.48-1.752c.16-.656.288-1.208.384-1.656a.248.248 0 00-.24-.144c-.16 0-.344.08-.552.24-.4.272-.912.92-1.536 1.944-.784 1.2-1.328 1.928-1.632 2.184a3.156 3.156 0 01-.312.456c-.08.096-.16.144-.24.144-.064 0-.184-.048-.36-.144-.464-.272-.696-.656-.696-1.152 0-.24.072-.72.216-1.44.144-.72.304-1.392.48-2.016a7.96 7.96 0 00.384-.84c.128-.304.192-.488.192-.552.064-.336.144-.696.24-1.08.096-.384.168-.6.216-.648a.529.529 0 01.384-.168c.24 0 .416.128.528.384a.91.91 0 01.264.672c0 .304-.088.696-.264 1.176-.272.592-.568 1.456-.888 2.592.336-.368.576-.656.72-.864.384-.544.88-1.152 1.488-1.824.496-.544 1.056-.816 1.68-.816.736.128 1.16.744 1.272 1.848 0 .192-.016.432-.048.72a8.697 8.697 0 01-.072.528c.064-.096.224-.304.48-.624a9.5 9.5 0 01.984-.984c.352-.272.68-.408.984-.408.256 0 .48.104.672.312.336.192.576.464.72.816.144.336.216.768.216 1.296 0 .272-.008.488-.024.648-.032.32-.048.52-.048.6 0 .304.056.608.168.912zm3.283 1.872a3.535 3.535 0 00-.288-.24c-.048-.032-.192-.08-.432-.144-.032-.112-.128-.32-.288-.624-.208-.288-.32-.536-.336-.744v-.24c0-.176-.04-.304-.12-.384.08-.064.096-.16.048-.288-.048-.144-.04-.248.024-.312l.024-.168a.655.655 0 01-.072-.336c0-.256.08-.768.24-1.536.16-.736.224-1.176.192-1.32l-.456-.408c.032-.24.072-.416.12-.528.048-.128.16-.232.336-.312l.168.072a.744.744 0 00.144-.048c.048-.032.088-.056.12-.072.272-.512.528-1.152.768-1.92.096-.304.216-.624.36-.96.16-.352.32-.632.48-.84.096-.112.184-.248.264-.408l.168-.336c.208-.432.544-.92 1.008-1.464.48-.544.92-.936 1.32-1.176.24-.16.448-.256.624-.288a6.62 6.62 0 01.816-.072c.208.128.416.304.624.528.208.208.312.4.312.576v.36c0 .272-.04.488-.12.648.016.144-.024.376-.12.696a2.106 2.106 0 00-.144.48c-.4.832-.76 1.488-1.08 1.968-.32.464-.672.88-1.056 1.248-.368.352-.976.872-1.824 1.56.688.208 1.04.592 1.056 1.152 0 .048-.008.136-.024.264 0 .112.008.208.024.288l.048.576c0 .128.016.32.048.576.048.352.016.816-.096 1.392a.301.301 0 01-.072.12.267.267 0 00-.024.12c0 .176-.032.336-.096.48-.048.128-.12.272-.216.432-.08.144-.152.28-.216.408a.74.74 0 01-.192.216.872.872 0 00-.216.192c-.192.224-.384.376-.576.456a4.26 4.26 0 01-.744.216 3.07 3.07 0 00-.48.096l-.048.048zm1.392-8.424l1.2-.984c.064-.032.224-.224.48-.576s.408-.576.456-.672c.176-.144.368-.448.576-.912.208-.48.376-.968.504-1.464.128-.512.176-.888.144-1.128l-.168.072c-.24.304-.584.712-1.032 1.224a11.983 11.983 0 00-1.44 2.016 12.268 12.268 0 00-.984 2.28l.264.144zm-.816 6.912c.4-.4.664-.816.792-1.248.128-.448.192-.992.192-1.632v-.84a.762.762 0 00-.048-.216.388.388 0 01.024-.24 18.235 18.235 0 00-.192-.528c-.08-.256-.2-.464-.36-.624a1.19 1.19 0 00-.312.216c-.08.08-.184.216-.312.408-.096.192-.192.6-.288 1.224-.08.608-.12 1.2-.12 1.776 0 .88.104 1.448.312 1.704h.312zm5.93 7.248c-.016.032-.088 0-.216-.096a1.916 1.916 0 01-.36-.36c-.096-.144-.136-.256-.12-.336a1.41 1.41 0 01-.048-.336c0-.384.224-1.032.672-1.944.096-.176.256-.512.48-1.008.144-.368.288-.688.432-.96.032-.064.312-.56.84-1.488.528-.928.976-1.864 1.344-2.808-.272.288-.608.664-1.008 1.128-.464.576-.848 1-1.152 1.272-.288.256-.552.376-.792.36a2.511 2.511 0 01-.72-.264.92.92 0 01-.408-.528 5.118 5.118 0 01-.072-.888c0-.72.104-1.696.312-2.928.16-.688.24-1.192.24-1.512 0-.192-.024-.344-.072-.456a1.096 1.096 0 00-.24-.336c-.224-.192-.336-.368-.336-.528 0-.128.112-.256.336-.384.208-.064.4-.096.576-.096.128 0 .24.032.336.096.096.048.208.152.336.312l.216.36a1.6 1.6 0 01.216.504c.048.176.072.4.072.672l-.192 1.512c-.08.368-.12.616-.12.744-.208.768-.312 1.4-.312 1.896 0 .192.024.288.072.288a8.908 8.908 0 001.272-1.296c.432-.512.992-1.232 1.68-2.16.064-.112.184-.328.36-.648.192-.336.336-.648.432-.936.208-.464.384-.704.528-.72.096-.032.248 0 .456.096.208.096.32.168.336.216 0 .016.072.04.216.072.144.016.216.048.216.096 0 .032-.088.272-.264.72-.272.656-.4 1.008-.384 1.056.048.064-.04.336-.264.816-.208.48-.328.76-.36.84-.4 1.28-.832 2.32-1.296 3.12-.16.288-.544 1.128-1.152 2.52l-.192.456c-.16.352-.336.752-.528 1.2l-.504 1.224a9.117 9.117 0 00-.216.456 1.488 1.488 0 01-.096.288c-.032.304-.104.528-.216.672l-.336.024zm12.236-5.568c-.112.064-.264.04-.456-.072a2.194 2.194 0 01-.528-.504 1.683 1.683 0 01-.24-.648 24.846 24.846 0 01-.024-1.392c0-.16-.032-.24-.096-.24-.048 0-.16.08-.336.24a9.225 9.225 0 00-.648.6 7.6 7.6 0 01-1.152.936c-.352.224-.64.328-.864.312-.176 0-.368-.12-.576-.36a2.826 2.826 0 01-.456-.84 2.79 2.79 0 01-.072-.672c0-.672.136-1.488.408-2.448.288-.96.616-1.784.984-2.472.384-.704.72-1.056 1.008-1.056.24 0 .464.264.672.792a.566.566 0 01.072.24c0 .112-.064.224-.192.336-.24.304-.52.848-.84 1.632-.32.784-.576 1.512-.768 2.184-.176.672-.208 1.008-.096 1.008.224 0 .488-.088.792-.264.304-.176.608-.408.912-.696.304-.304.576-.624.816-.96.24-.352.536-.824.888-1.416.672-1.072 1.04-1.696 1.104-1.872.24-.448.408-.736.504-.864a.803.803 0 01.408-.288h.336c.096.016.208.088.336.216.112.048.176.104.192.168.032.048.048.12.048.216l-.384.888-.216.504c-.016.064-.104.248-.264.552a41.426 41.426 0 00-.84 1.968 8.415 8.415 0 00-.432 1.536c-.016.08-.024.216-.024.408 0 .48.048.816.144 1.008.144.288.288.496.432.624.08.064.12.128.12.192 0 .112-.096.224-.288.336-.176.112-.304.168-.384.168zm-.312-9.96c-.976.112-1.648-.552-2.016-1.992a1.323 1.323 0 01-.048-.264.81.81 0 01.096-.36c.032-.064.096-.112.192-.144a.438.438 0 01.24-.024c.208.08.368.184.48.312a.794.794 0 01.216.432.847.847 0 01.072.336c.128.4.304.6.528.6.048 0 .168-.032.36-.096.672-.272 1.176-.576 1.512-.912l1.008-.936.024-.024a.387.387 0 01.168-.048c.112 0 .192.024.24.072.08.096.128.184.144.264.016.08.024.16.024.24v.192l-.024.048c.032.096-.048.288-.24.576a2.887 2.887 0 01-.648.672c-.304.24-.808.536-1.512.888a1.062 1.062 0 01-.432.12 4.052 4.052 0 00-.384.048zM97.61 21.79c-.128 0-.232-.072-.312-.216a.684.684 0 01-.12-.408c0-.112.04-.384.12-.816.176-.672.264-1.136.264-1.392 0-.08.016-.2.048-.36.032-.144.056-.28.072-.408.064-.112.12-.288.168-.528.064-.224.096-.424.096-.6 0-.08.024-.176.072-.288.064-.096.136-.176.216-.24 0-.096.024-.24.072-.432.048-.208.08-.352.096-.432.08-.432.392-1.456.936-3.072a97.046 97.046 0 011.392-3.912c.176-.4.304-.768.384-1.104.08-.336.12-.6.12-.792 0-.064.016-.12.048-.168.048-.064.12-.144.216-.24.112-.112.216-.168.312-.168.08 0 .168.032.264.096s.192.136.288.216c.096.144.168.28.216.408a.9.9 0 01.096.408c0 .048-.016.2-.048.456 0 .336-.072.616-.216.84-.144.208-.2.304-.168.288.72-.336 1.36-.504 1.92-.504.672 0 1.192.216 1.56.648.384.432.576.992.576 1.68 0 .288-.088.64-.264 1.056-.16.4-.32.672-.48.816-.096 0-.224.168-.384.504-.208.256-.552.528-1.032.816-.48.272-.816.376-1.008.312a.184.184 0 00-.072.024c-.032.016-.048.056-.048.12s-.272.184-.816.36c-.544.176-.992.264-1.344.264-.192 0-.336-.008-.432-.024a.899.899 0 01-.288-.168c-.112.112-.168.216-.168.312 0 .176-.08.496-.24.96-.16.464-.288.696-.384.696a.715.715 0 00-.072.096c-.016.048.008.104.072.168 0 .048-.008.16-.024.336a.88.88 0 01-.12.408c0 .144-.024.336-.072.576a2.302 2.302 0 01-.168.576c0 .192-.032.376-.096.552-.048.192-.104.288-.168.288-.096.032-.144.264-.144.696-.016.4-.096.712-.24.936-.144.224-.312.336-.504.336l-.192.024zm3.096-8.04c.24 0 .72-.12 1.44-.36.736-.256 1.248-.504 1.536-.744.336-.288.608-.592.816-.912.208-.336.312-.672.312-1.008 0-.256-.072-.488-.216-.696-.112-.176-.304-.264-.576-.264-.32 0-.704.112-1.152.336-.432.224-.832.52-1.2.888-.288.288-.544.704-.768 1.248-.224.528-.336.944-.336 1.248 0 .176.048.264.144.264zm7.27 1.776a.956.956 0 00-.24-.288c-.096-.112-.144-.184-.144-.216 0-.176-.04-.312-.12-.408-.032-.032-.048-.104-.048-.216 0-.256.12-.688.36-1.296.256-.624.584-1.296.984-2.016.096-.096.216-.264.36-.504.16-.24.264-.376.312-.408a.23.23 0 01.072-.168c.048-.064.104-.096.168-.096v-.144c0-.144.264-.488.792-1.032.528-.56.96-.944 1.296-1.152.4-.272.808-.408 1.224-.408.288 0 .536.08.744.24.08.096.448.44 1.104 1.032l.888.792-.432 1.2a3.755 3.755 0 00-.216 1.176c0 .608.176 1.192.528 1.752.08.176.24.344.48.504.24.16.48.256.72.288.352.064.528.24.528.528 0 .32-.144.512-.432.576a1.28 1.28 0 01-.288.024c-.944 0-1.76-.664-2.448-1.992a3.887 3.887 0 01-.264-.528 3.486 3.486 0 01-.168-.528c-.096.128-.216.28-.36.456s-.28.328-.408.456c-1.744 1.744-3.12 2.616-4.128 2.616-.32 0-.608-.08-.864-.24zm.864-1.344c0 .08.08.104.24.072.176-.032.384-.112.624-.24.256-.128.512-.296.768-.504 1.376-1.184 2.368-2.216 2.976-3.096l.528-.864c-.16-.336-.328-.576-.504-.72-.176-.16-.336-.24-.48-.24-.336 0-.864.424-1.584 1.272-.72.832-1.376 1.816-1.968 2.952a7.96 7.96 0 00-.384.84l-.216.528zm11.965 1.656c-.496 0-.824-.024-.984-.072-.16-.064-.344-.192-.552-.384-.16-.32-.32-.56-.48-.72-.064-.176-.096-.44-.096-.792 0-.4.048-.832.144-1.296.096-.48.224-.928.384-1.344.064-.128.112-.248.144-.36.048-.112.08-.184.096-.216 0-.112.2-.456.6-1.032.416-.592.744-1 .984-1.224.112-.128.28-.264.504-.408a3.75 3.75 0 01.624-.312c.448-.16.84-.24 1.176-.24.464 0 .856.216 1.176.648.352.352.528.744.528 1.176 0 .16-.024.336-.072.528-.16.64-.392.96-.696.96-.208 0-.408-.12-.6-.36-.064-.16-.096-.264-.096-.312 0-.048.032-.184.096-.408.032-.16.048-.272.048-.336 0-.192-.032-.36-.096-.504-.064-.144-.152-.216-.264-.216-.368 0-.848.32-1.44.96-.208.224-.48.576-.816 1.056-.32.48-.56.912-.72 1.296-.16.48-.288.872-.384 1.176-.096.304-.16.496-.192.576a.55.55 0 00.048.168.41.41 0 01.072.192c0 .112.024.2.072.264a.747.747 0 00.264.192c.176.128.384.192.624.192.256 0 .552-.08.888-.24.208-.096.504-.304.888-.624l.576-.432a4.46 4.46 0 01.288-.192c.096-.064.168-.104.216-.12.048-.032.072-.032.072 0 0 .064.024.096.072.096.048 0 .104-.032.168-.096a.662.662 0 01.552-.288c.128 0 .192.024.192.072l-.024.12c0 .08.04.16.12.24a.728.728 0 01-.072.264.602.602 0 01-.144.24c-.096.144-.264.32-.504.528-.224.192-.376.32-.456.384h-.024c-.08 0-.192.072-.336.216-.24.224-.448.336-.624.336a3.26 3.26 0 00-.216.12c-.08.032-.12.072-.12.12-.16.16-.352.272-.576.336-.224.048-.568.072-1.032.072zm9.35-.072c-.192.08-.392.12-.6.12-.336 0-.744-.088-1.224-.264-.08 0-.208-.072-.384-.216a1.342 1.342 0 01-.384-.48c-.224-.32-.336-.752-.336-1.296 0-.816.232-1.792.696-2.928.176-.368.464-.848.864-1.44.416-.608.696-.952.84-1.032.048-.016.16-.056.336-.12.176-.08.376-.176.6-.288.224-.112.488-.168.792-.168.304 0 .64.112 1.008.336.384.208.688.456.912.744.224.288.304.536.24.744-.016.048-.112.152-.288.312l-.384.384a.393.393 0 01-.288.12.529.529 0 01-.384-.168.84.84 0 01-.192-.504c-.032-.096-.136-.2-.312-.312a3.273 3.273 0 00-.336-.216c-.128 0-.312.112-.552.336a5.505 5.505 0 00-.672.84 5.07 5.07 0 00-.936 1.416c-.256.56-.44 1.04-.552 1.44-.032.064-.048.176-.048.336 0 .176.016.352.048.528.048.176.096.288.144.336a.702.702 0 00.24.024c.368 0 .888-.056 1.56-.168.688-.128 1.216-.264 1.584-.408.368-.24.72-.36 1.056-.36.112 0 .192.008.24.024.208.096.312.208.312.336 0 .224-.232.464-.696.72a5.29 5.29 0 00-.696.432c-.192.144-.288.256-.288.336a.58.58 0 00-.192.072c-.096.032-.16.04-.192.024a5.647 5.647 0 00-.816.168c-.368.096-.608.176-.72.24zm4.465.528c-.096-.032-.232-.136-.408-.312a6.813 6.813 0 00-.336-.384c0-.112.032-.2.096-.264.08-.064.136-.112.168-.144.048-.064.152-.112.312-.144.176-.032.288-.072.336-.12.064-.048.224-.16.48-.336.256-.176.48-.352.672-.528.208-.192.376-.384.504-.576.416-.592.856-1.296 1.32-2.112.144-.272.328-.64.552-1.104.24-.48.376-.792.408-.936l-.744-.24a1.43 1.43 0 01-.144-.192.828.828 0 01-.12-.24v-.216c0-.192.016-.328.048-.408.048-.08.136-.128.264-.144.496-.096.904-.168 1.224-.216.48-.064.84-.128 1.08-.192.192-.048.408-.072.648-.072.416 0 .792.072 1.128.216.24.096.448.288.624.576.224.304.336.608.336.912 0 .112-.008.224-.024.336a1.9 1.9 0 00-.024.312c0 .144.024.288.072.432a23.605 23.605 0 01-.672 2.112c-.048.128-.12.344-.216.648a8.838 8.838 0 00-.216.792c-.048.24-.12.464-.216.672a5.038 5.038 0 00-.24.888.675.675 0 01-.216.408c-.096.08-.208.152-.336.216-.112.048-.184.08-.216.096-.064.032-.176.016-.336-.048a1.198 1.198 0 01-.408-.264 1.249 1.249 0 01-.048-.384c0-.128.032-.304.096-.528.288-.928.68-2.272 1.176-4.032l.264-.912c.048-.144.072-.312.072-.504 0-.144-.024-.288-.072-.432-.256-.096-.456-.144-.6-.144a.84.84 0 00-.264.048 2.219 2.219 0 01-.264.072.67.67 0 00-.288.456c-.304.8-.616 1.504-.936 2.112a31.78 31.78 0 00-.744 1.488c-.064.16-.248.464-.552.912-.192.288-.328.504-.408.648l-.264.336c-.08.08-.216.208-.408.384-.192.176-.328.304-.408.384l-.744.576c-.096.08-.272.12-.528.12-.24-.016-.4-.024-.48-.024zm11.557-.6c-.16.032-.304.048-.432.048-.208 0-.4-.016-.576-.048-.176-.048-.264-.104-.264-.168 0-.048-.008-.08-.024-.096s-.048-.024-.096-.024a2.567 2.567 0 00-.144-.12 1.24 1.24 0 00-.288-.168 1.308 1.308 0 01-.216-.72c0-.272.072-.696.216-1.272.048-.512.288-1.152.72-1.92s.936-1.496 1.512-2.184c.592-.688 1.12-1.168 1.584-1.44.24-.24.544-.36.912-.36.288 0 .56.072.816.216.224.128.456.344.696.648.256.304.456.616.6.936.064.24.096.472.096.696 0 .24-.032.616-.096 1.128-.08.288-.152.64-.216 1.056a9.603 9.603 0 00-.072 1.08c-.032.224-.016.408.048.552.064.128.152.192.264.192.08 0 .168-.024.264-.072.16-.08.336-.12.528-.12a.64.64 0 01.432.144c.112.096.168.24.168.432 0 .288-.2.576-.6.864-.384.288-.752.432-1.104.432-.24 0-.464-.184-.672-.552a10.756 10.756 0 01-.576-1.464l-.144-.552-1.032.984-.552.552c-.256.256-.4.408-.432.456-.176.304-.616.592-1.32.864zm.072-1.416c.384-.224.856-.616 1.416-1.176.56-.56 1.024-1.096 1.392-1.608.496-.656.808-1.304.936-1.944a2.043 2.043 0 00-.312-.576c-.144-.192-.272-.296-.384-.312-.32 0-.656.184-1.008.552-.352.368-.768.88-1.248 1.536l-.792 1.176c-.096.128-.264.472-.504 1.032-.24.544-.36.872-.36.984 0 .352.104.528.312.528.16 0 .344-.064.552-.192zm15.32-11.568a21.64 21.64 0 00-.264-.384.916.916 0 00-.312-.336c-.112-.064-.28-.104-.504-.12a9.583 9.583 0 00-.792-.048c-.16 0-.28.008-.36.024-.256.032-.616.096-1.08.192-.448.096-.736.168-.864.216a8.01 8.01 0 00-.648.264l-.672.288a.296.296 0 00-.216.144.389.389 0 00-.072.24c0 .08.032.184.096.312.064.112.192.264.384.456-.016-.032.088.096.312.384.24.32.504.792.792 1.416.288.608.392 1.032.312 1.272a2.146 2.146 0 00-.504-.048c-.176 0-.32.008-.432.024-.528.304-1.064.904-1.608 1.8a11.78 11.78 0 00-1.272 2.856c-.224.752-.336 1.456-.336 2.112 0 1.088.328 1.824.984 2.208.224.128.424.224.6.288.176.064.36.088.552.072.288.112.64-.072 1.056-.552.432-.48.952-1.256 1.56-2.328l.504-1.512c.128-.304.216-.552.264-.744.048-.192.072-.448.072-.768l.024-.192a3.31 3.31 0 01.096-.384 1.33 1.33 0 00.096-.432l-.048-.288a.98.98 0 00.048-.312c0-.224-.032-.496-.096-.816-.064-.32-.128-.552-.192-.696 0-.224-.04-.464-.12-.72a4.75 4.75 0 00-.24-.72c-.048-.032-.072-.088-.072-.168a.624.624 0 00-.024-.192 9.14 9.14 0 00-.552-.864c-.32-.48-.528-.816-.624-1.008.064-.064.208-.112.432-.144a2.28 2.28 0 00.432-.12c.16-.08.4-.12.72-.12.32 0 .648.032.984.096.352.064.616.136.792.216a.853.853 0 00.24.072h.216c.112-.064.192-.216.24-.456a11.6 11.6 0 01.096-.48zm-4.08 5.208c.272.272.408.744.408 1.416 0 .4-.048.808-.144 1.224-.08.416-.176.752-.288 1.008-.112.24-.192.496-.24.768-.128.192-.328.544-.6 1.056-.128.256-.28.528-.456.816-.16.272-.368.56-.624.864l-.48-.432a3.017 3.017 0 01-.12-.72c0-.048.016-.232.048-.552.08-.624.296-1.384.648-2.28.352-.896.72-1.536 1.104-1.92a3.8 3.8 0 00.456-.6c.176-.288.272-.504.288-.648zm2.581 7.728a.525.525 0 01-.336.096c-.224 0-.488-.056-.792-.168l-.168-.432a2.32 2.32 0 00-.096-.456l.264-.264h.528a.582.582 0 00.192-.144c.08-.08.16-.12.24-.12.56-.352 1.112-1.008 1.656-1.968a41.768 41.768 0 001.728-3.408l.216-.456-.024-.12a3.32 3.32 0 01-.384.096 3.711 3.711 0 00-.36.096l-.144.096c-.112.096-.264.144-.456.144-.176 0-.344-.04-.504-.12a.733.733 0 01-.312-.312 25.44 25.44 0 00-.216-.336 1.21 1.21 0 01.312-.408.906.906 0 01.432-.264c.8-.192 1.504-.288 2.112-.288.592 0 1.168.104 1.728.312.048.016.112.032.192.048s.152.048.216.096c.256.192.44.344.552.456.208.192.336.424.384.696.048.192.072.392.072.6 0 .096-.016.24-.048.432-.064.272-.28 1.048-.648 2.328l-.168.528c-.304 1.008-.608 2.04-.912 3.096a1.313 1.313 0 01-.288.048c-.304 0-.576-.144-.816-.432a1.812 1.812 0 01-.096-.576c0-.224.056-.448.168-.672a1.56 1.56 0 00.12-.384c.048-.16.08-.272.096-.336.096-.496.208-.824.336-.984a.387.387 0 00.048-.168c0-.16.144-.736.432-1.728.224-.784.352-1.256.384-1.416a.532.532 0 000-.312.892.892 0 01-.024-.216 1.325 1.325 0 00-.6-.144c-.208 0-.344.08-.408.24l-.072.216c-.08.272-.216.584-.408.936-.336.704-.568 1.28-.696 1.728a.956.956 0 01-.12.312 1.85 1.85 0 00-.096.216 1.699 1.699 0 00-.216.456.213.213 0 01-.024.096l-.048.048c-.048.08-.24.384-.576.912-.432.688-1.216 1.456-2.352 2.304zm9.582.168c-.512-.208-.872-.472-1.08-.792-.208-.336-.312-.8-.312-1.392 0-.288.024-.624.072-1.008l.048-.864a.935.935 0 00-.048-.336.745.745 0 00-.216-.264l-.24-.24c-.128-.128-.184-.232-.168-.312l-.024-.12a.98.98 0 01.048-.312c.048-.096.096-.144.144-.144.048 0 .112-.008.192-.024a.35.35 0 01.216-.024c.224 0 .336.048.336.144.064.128.168.144.312.048.16-.112.312-.32.456-.624.224-.352.552-.72.984-1.104.448-.4.816-.68 1.104-.84.112-.064.296-.12.552-.168a2.82 2.82 0 01.672-.096c.288 0 .536.064.744.192.224.128.448.312.672.552.304.224.456.576.456 1.056 0 .336-.08.68-.24 1.032-.064.24-.32.544-.768.912-.432.368-.832.624-1.2.768-.448.112-.96.168-1.536.168-.384 0-.632-.032-.744-.096-.192-.112-.328.32-.408 1.296a3.39 3.39 0 00-.024.456c0 .272.04.488.12.648.016.016.072.08.168.192.096.096.216.184.36.264.144.064.296.096.456.096a.935.935 0 00.336-.048c.176-.048.344-.136.504-.264.16-.144.384-.36.672-.648.256-.256.44-.432.552-.528.08-.144.24-.216.48-.216.064 0 .176.016.336.048.144.112.216.232.216.36 0 .128-.08.368-.24.72-.08.16-.28.384-.6.672a7.507 7.507 0 01-.816.648c-.496.272-.992.408-1.488.408-.304 0-.656-.072-1.056-.216zm1.416-4.872c.16-.032.392-.072.696-.12.304-.048.552-.152.744-.312.208-.176.448-.472.72-.888.048-.128.072-.256.072-.384 0-.24-.048-.408-.144-.504a.529.529 0 00-.384-.168c-.224 0-.456.096-.696.288-.16.048-.4.224-.72.528a8.054 8.054 0 00-.792.912c-.224.288-.296.456-.216.504-.032.048.048.088.24.12.192.016.352.024.48.024zm11.861-3.072c.176-.096.352-.144.528-.144.224 0 .416.072.576.216a.595.595 0 01.264.504c0 .032-.016.112-.048.24.048-.208-.12.136-.504 1.032a85.297 85.297 0 01-.624 1.44v.072c.224 0 .368.072.432.216.08.128.112.304.096.528-.144.032-.28.088-.408.168-.128.08-.232.12-.312.12-.048 0-.104.024-.168.072a.302.302 0 00-.12.168c-.032.064-.088.312-.168.744l-.432 1.728a.654.654 0 01-.168.288.505.505 0 01-.216.144 6.61 6.61 0 01-.384-.12c-.176-.08-.296-.136-.36-.168l-.192-.144v-.144c0-.224.04-.456.12-.696.128-.384.256-.92.384-1.608-.128-.048-.448-.024-.96.072-.512.08-.792.12-.84.12-.096.048-.288.072-.576.072-.464 0-.792-.04-.984-.12l-.144.072c-.032.144-.08.304-.144.48-.176.496-.264.864-.264 1.104a7.552 7.552 0 01-.096.552c-.032.16-.064.4-.096.72-.016.448-.168.672-.456.672-.176 0-.368-.064-.576-.192-.112-.064-.264-.192-.456-.384l.384-1.848c.048-.144.096-.344.144-.6.064-.256.128-.464.192-.624l.264-.744c.192-.56.368-1.016.528-1.368l.504-1.416c.048-.112.152-.416.312-.912.176-.512.28-.808.312-.888.064-.176.192-.264.384-.264a.896.896 0 01.648.192c.192.128.296.288.312.48a1.948 1.948 0 01-.072.456l-1.248 3.048v.192c.064.048.176.072.336.072.128 0 .32-.024.576-.072.272-.048.44-.072.504-.072a15.573 15.573 0 011.512-.072c.224 0 .344.008.36.024l.264-.768c.256-.784.528-1.416.816-1.896.016-.048.048-.136.096-.264.048-.144.104-.304.168-.48zm8.475 8.472c-.384-.368-.672-.912-.864-1.632-.032-.096-.048-.264-.048-.504v-.504c-.096.24-.272.456-.528.648-.368.368-.736.64-1.104.816-.56.368-1.016.552-1.368.552-.32 0-.624-.176-.912-.528a2.392 2.392 0 01-.48-.528 1.338 1.338 0 01-.144-.648c0-.176.024-.368.072-.576.032-.592.112-1.16.24-1.704.144-.544.408-1.24.792-2.088.512-1.008.88-1.68 1.104-2.016a.852.852 0 01.312-.048c.16 0 .288.048.384.144a.558.558 0 01.192.384.431.431 0 01.072.264c0 .4-.24 1.056-.72 1.968-.624 1.504-.936 2.544-.936 3.12 0 .336.096.536.288.6.08.048.168.072.264.072.4 0 .88-.272 1.44-.816.56-.544 1.096-1.416 1.608-2.616.224-.544.36-1.104.408-1.68a.728.728 0 01-.024-.216c0-.288.144-.52.432-.696a.587.587 0 01.264-.216c.112-.064.184-.064.216 0l.384-.024c.048-.016.096.032.144.144.048.096.096.16.144.192.112.096.168.272.168.528 0 .528-.232 1.336-.696 2.424-.304.64-.512 1.136-.624 1.488a4.373 4.373 0 00-.168.984c0 .608.232 1.112.696 1.512.16.112.256.232.288.36.032.128.04.304.024.528-.032.144-.128.264-.288.36a.972.972 0 01-.48.12.939.939 0 01-.552-.168zm5.451.12a2.166 2.166 0 01-1.704-.768c-.448-.512-.672-1.152-.672-1.92s.168-1.608.504-2.52c.352-.928.8-1.76 1.344-2.496s1.096-1.232 1.656-1.488c.32-.176.68-.264 1.08-.264.304 0 .648.088 1.032.264.272.112.48.248.624.408.144.16.272.408.384.744.048.288.072.488.072.6 0 .096-.04.304-.12.624a4.973 4.973 0 01-.768 1.512c-.304.4-.704.744-1.2 1.032-.256.16-.576.24-.96.24-.336 0-.656-.056-.96-.168a1.533 1.533 0 01-.672-.552l-.168-.192-.072.192c-.336.864-.504 1.6-.504 2.208 0 .416.08.752.24 1.008.112.176.384.264.816.264.32 0 .552-.032.696-.096.24-.08.448-.176.624-.288.192-.128.376-.256.552-.384l.096-.048h-.024c.192-.096.352-.184.48-.264.128-.08.216-.136.264-.168a.213.213 0 00.096-.024.272.272 0 00.096-.096c.144-.064.312-.04.504.072.192.112.288.256.288.432-.032.128-.176.336-.432.624s-.448.44-.576.456a.76.76 0 00-.168.072.808.808 0 00-.192.12h.024c-.144.192-.288.288-.432.288h-.192c-.064.128-.28.256-.648.384a2.949 2.949 0 01-1.008.192zm1.08-5.28c.48 0 .92-.272 1.32-.816.384-.512.576-1.024.576-1.536 0-.272-.056-.464-.168-.576a.597.597 0 00-.264-.072c-.08 0-.216.024-.408.072-.208.048-.528.272-.96.672-.432.384-.752.728-.96 1.032l-.312.504c.128-.048.248-.072.36-.072.128-.016.2-.008.216.024 0 .224.056.408.168.552a.523.523 0 00.432.216zm12.321 4.992a3.535 3.535 0 00-.288-.24c-.048-.032-.192-.08-.432-.144-.032-.112-.128-.32-.288-.624-.208-.288-.32-.536-.336-.744v-.24c0-.176-.04-.304-.12-.384.08-.064.096-.16.048-.288-.048-.144-.04-.248.024-.312l.024-.168a.655.655 0 01-.072-.336c0-.256.08-.768.24-1.536.16-.736.224-1.176.192-1.32l-.456-.408c.032-.24.072-.416.12-.528.048-.128.16-.232.336-.312l.168.072a.744.744 0 00.144-.048c.048-.032.088-.056.12-.072.272-.512.528-1.152.768-1.92.096-.304.216-.624.36-.96.16-.352.32-.632.48-.84.096-.112.184-.248.264-.408l.168-.336c.208-.432.544-.92 1.008-1.464.48-.544.92-.936 1.32-1.176.24-.16.448-.256.624-.288a6.62 6.62 0 01.816-.072c.208.128.416.304.624.528.208.208.312.4.312.576v.36c0 .272-.04.488-.12.648.016.144-.024.376-.12.696a2.106 2.106 0 00-.144.48c-.4.832-.76 1.488-1.08 1.968-.32.464-.672.88-1.056 1.248-.368.352-.976.872-1.824 1.56.688.208 1.04.592 1.056 1.152 0 .048-.008.136-.024.264 0 .112.008.208.024.288l.048.576c0 .128.016.32.048.576.048.352.016.816-.096 1.392a.301.301 0 01-.072.12.267.267 0 00-.024.12c0 .176-.032.336-.096.48-.048.128-.12.272-.216.432-.08.144-.152.28-.216.408a.74.74 0 01-.192.216.872.872 0 00-.216.192c-.192.224-.384.376-.576.456a4.26 4.26 0 01-.744.216 3.07 3.07 0 00-.48.096l-.048.048zm1.392-8.424l1.2-.984c.064-.032.224-.224.48-.576s.408-.576.456-.672c.176-.144.368-.448.576-.912.208-.48.376-.968.504-1.464.128-.512.176-.888.144-1.128l-.168.072c-.24.304-.584.712-1.032 1.224a11.983 11.983 0 00-1.44 2.016 12.268 12.268 0 00-.984 2.28l.264.144zm-.816 6.912c.4-.4.664-.816.792-1.248.128-.448.192-.992.192-1.632v-.84a.762.762 0 00-.048-.216.388.388 0 01.024-.24 18.235 18.235 0 00-.192-.528c-.08-.256-.2-.464-.36-.624a1.19 1.19 0 00-.312.216c-.08.08-.184.216-.312.408-.096.192-.192.6-.288 1.224-.08.608-.12 1.2-.12 1.776 0 .88.104 1.448.312 1.704h.312zm13.518 1.104c-.192.08-.392.12-.6.12-.336 0-.744-.088-1.224-.264-.08 0-.208-.072-.384-.216a1.342 1.342 0 01-.384-.48c-.224-.32-.336-.752-.336-1.296 0-.816.232-1.792.696-2.928.176-.368.464-.848.864-1.44.416-.608.696-.952.84-1.032.048-.016.16-.056.336-.12.176-.08.376-.176.6-.288.224-.112.488-.168.792-.168.304 0 .64.112 1.008.336.384.208.688.456.912.744.224.288.304.536.24.744-.016.048-.112.152-.288.312l-.384.384a.393.393 0 01-.288.12.529.529 0 01-.384-.168.84.84 0 01-.192-.504c-.032-.096-.136-.2-.312-.312a3.273 3.273 0 00-.336-.216c-.128 0-.312.112-.552.336a5.505 5.505 0 00-.672.84 5.07 5.07 0 00-.936 1.416c-.256.56-.44 1.04-.552 1.44-.032.064-.048.176-.048.336 0 .176.016.352.048.528.048.176.096.288.144.336a.702.702 0 00.24.024c.368 0 .888-.056 1.56-.168.688-.128 1.216-.264 1.584-.408.368-.24.72-.36 1.056-.36.112 0 .192.008.24.024.208.096.312.208.312.336 0 .224-.232.464-.696.72a5.29 5.29 0 00-.696.432c-.192.144-.288.256-.288.336a.58.58 0 00-.192.072c-.096.032-.16.04-.192.024a5.647 5.647 0 00-.816.168c-.368.096-.608.176-.72.24zm7.585.552c-.048 0-.208.008-.48.024a1.74 1.74 0 01-.744-.168c-.24-.128-.44-.32-.6-.576a3.75 3.75 0 01-.288-.72 2.536 2.536 0 01-.12-.696.84.84 0 01.048-.264c.304-1.76.552-2.872.744-3.336l.384-.936a2.16 2.16 0 00.072-.864v-.096c0-.208.08-.384.24-.528.272-.208.488-.48.648-.816.112-.272.288-.64.528-1.104.24-.464.416-.768.528-.912.176-.24.336-.472.48-.696l.336-.504c.208-.304.44-.56.696-.768.304-.512.904-1.128 1.8-1.848.384-.32.624-.528.72-.624.048-.048.192-.096.432-.144l.456-.12c.128-.032.344-.088.648-.168.096-.048.272-.008.528.12.272.112.472.24.6.384.256.448.384.8.384 1.056 0 .208-.048.44-.144.696-.096.256-.28.672-.552 1.248-.576 1.152-1.624 2.248-3.144 3.288a9.98 9.98 0 01-1.944 1.344c-.528.272-.96.464-1.296.576-.256.08-.44.264-.552.552-.064.144-.12.32-.168.528-.032.208-.08.344-.144.408-.096.096-.256.632-.48 1.608-.224.976-.336 1.64-.336 1.992 0 .128.016.24.048.336a.36.36 0 00.216.216c.224-.048.4-.12.528-.216a4.04 4.04 0 00.528-.528c.448-.56.768-1.096.96-1.608a5.32 5.32 0 00.144-.552c.048-.24.104-.424.168-.552 0-.56-.008-.92-.024-1.08a2.287 2.287 0 00-.168-.624.997.997 0 00.192-.144.26.26 0 01.24-.072c.368.08.744.304 1.128.672a.382.382 0 01.096.408c-.064.512-.096.88-.096 1.104-.048.112-.128.36-.24.744a1.936 1.936 0 01-.144.6c-.288.592-.496.992-.624 1.2a5.17 5.17 0 01-1.44 1.68l-.792.48zm1.104-8.856c.08.016.176.024.288.024.16 0 .296-.08.408-.24 1.168-.768 2.152-1.512 2.952-2.232.816-.736 1.32-1.36 1.512-1.872a8.82 8.82 0 01.264-.48c.112-.208.184-.4.216-.576l-.096-.672a6.72 6.72 0 00-1.104.6c-.256.176-.584.464-.984.864-.4.4-1.008 1.12-1.824 2.16-.8 1.04-1.344 1.848-1.632 2.424zm6.475 8.784a1.502 1.502 0 01-.48-.024 3.907 3.907 0 01-.504-.288c-.688-.56-1.024-1.112-1.008-1.656a.728.728 0 00.024-.216.728.728 0 00-.024-.216.722.722 0 01-.024-.12 1.452 1.452 0 01-.12-.096c0-.032.008-.064.024-.096a.376.376 0 00.072-.096c.064-.016.096-.048.096-.096a.387.387 0 00-.048-.168c-.048-.128-.024-.416.072-.864.112-.464.256-.896.432-1.296.128-.304.328-.696.6-1.176.288-.48.552-.848.792-1.104.336-.384.64-.68.912-.888.288-.208.616-.376.984-.504.336-.144.568-.216.696-.216.16 0 .36.096.6.288.384.112.672.272.864.48.208.192.368.496.48.912.096.336.144.712.144 1.128 0 .896-.28 1.88-.84 2.952-.288.576-.568 1.024-.84 1.344-.272.304-.648.664-1.128 1.08-.336.272-.632.48-.888.624-.24.144-.536.248-.888.312zm1.92-2.856c.336-.496.592-.944.768-1.344.176-.416.32-.928.432-1.536a1.94 1.94 0 00.024-.384c0-.32-.032-.624-.096-.912-.064-.288-.144-.44-.24-.456a1.028 1.028 0 00-.36-.072c-.368 0-.76.216-1.176.648a6.74 6.74 0 00-1.008 1.632 20.587 20.587 0 00-.816 2.304c-.08.32-.12.576-.12.768 0 .288.056.52.168.696a.55.55 0 00.48.24c.256 0 .552-.128.888-.384.336-.272.688-.672 1.056-1.2zm8.341 2.16c-.4.352-.88.528-1.44.528-.4 0-.784-.096-1.152-.288a2.627 2.627 0 01-.888-.792 2.492 2.492 0 01-.456-.864c-.096-.32-.144-.712-.144-1.176 0-.16.016-.48.048-.96.048-.592.24-1.208.576-1.848a7.161 7.161 0 011.296-1.704c.512-.512 1.016-.864 1.512-1.056.256-.16.488-.24.696-.24.112 0 .224.008.336.024.112.016.232.032.36.048.352.048.616.12.792.216.192.08.352.208.48.384.4.4.6.864.6 1.392-.064.384-.312.824-.744 1.32a5.024 5.024 0 01-1.56 1.2 3.106 3.106 0 01-.984.144c-.496 0-.896-.104-1.2-.312a1.151 1.151 0 00-.336-.072c-.144 0-.256.096-.336.288-.064.192-.128.544-.192 1.056a3.629 3.629 0 00-.024.48c0 .816.272 1.264.816 1.344.368.08.632.12.792.12.192 0 .408-.064.648-.192l.456-.264c.096-.048.184-.112.264-.192l.216-.216.144-.144c.064-.08.12-.128.168-.144a.387.387 0 01.168-.048c.064 0 .136.04.216.12.08.064.144.112.192.144.144 0 .176.104.096.312-.08.192-.256.424-.528.696a4.884 4.884 0 01-.888.696zm-.024-5.088c.272-.112.544-.312.816-.6.288-.288.432-.528.432-.72a.616.616 0 00-.216-.48c-.144-.128-.344-.192-.6-.192-.192 0-.336.016-.432.048-.224.064-.488.24-.792.528a6.43 6.43 0 00-.792.84c-.224.288-.312.456-.264.504.08.144.392.216.936.216.368 0 .672-.048.912-.144zm14.884 5.448c-.16.032-.272.048-.336.048a1.27 1.27 0 01-.696-.216 5.781 5.781 0 00-.144-.264 2.634 2.634 0 01-.144-.336.558.558 0 01.024-.288c.032-.08.056-.2.072-.36l.072-.384c.032-.464.088-.784.168-.96a.387.387 0 00.048-.168 3.97 3.97 0 01.144-.624c.08-.288.128-.48.144-.576.032-.176.072-.472.12-.888.064-.416.096-.704.096-.864a.41.41 0 01.072-.192.218.218 0 000-.24c-.416.4-.928.952-1.536 1.656-.592.688-1.016 1.248-1.272 1.68.016-.032-.064.072-.24.312a2.742 2.742 0 01-.24.264.997.997 0 00-.216.312c-.16.16-.352.384-.576.672-.32.384-.584.664-.792.84a.78.78 0 01-.384 0 4.738 4.738 0 01-.36-.12 2.634 2.634 0 00-.336-.144l-.24-.504.192-1.152c.096-.56.176-1.136.24-1.728.08-.592.112-1.024.096-1.296l-.024-.168a.32.32 0 01.072-.192l.024-.168c-.048-.048-.072-.096-.072-.144 0-.032.008-.08.024-.144.032-.08.032-.144 0-.192l-.144-.096c-.208.336-.464.696-.768 1.08a41.67 41.67 0 01-.624.744l-.936 1.176c-.08.128-.264.416-.552.864-.368.672-.704 1.144-1.008 1.416a4.759 4.759 0 00-.336.384 2.244 2.244 0 01-.36.336c-.064.224-.232.336-.504.336-.256 0-.504-.08-.744-.24-.24-.176-.36-.36-.36-.552a.46.46 0 01.144-.336l.072-.168c.272-.112.552-.32.84-.624.288-.304.64-.72 1.056-1.248.368-.464.608-.76.72-.888.192-.208.384-.48.576-.816l.192-.288c.064-.112.144-.224.24-.336.096-.112.376-.496.84-1.152.048-.064.216-.296.504-.696.304-.416.6-.768.888-1.056.288.16.536.24.744.24.16.208.32.384.48.528.384.336.576.928.576 1.776 0 .544-.088 1.288-.264 2.232l-.12.744.024.072c.32-.288.704-.744 1.152-1.368l.648-.816c.768-.896 1.28-1.472 1.536-1.728.256-.272.504-.504.744-.696.496-.448.848-.768 1.056-.96h.72c.096.08.184.144.264.192.096.032.208.064.336.096.016.064.04.184.072.36.048.176.064.296.048.36-.032.08-.056.192-.072.336 0 .128-.032.24-.096.336-.16.256-.32.744-.48 1.464-.144.704-.232 1.264-.264 1.68a2.033 2.033 0 01-.192.6c-.08.144-.128.256-.144.336a1.28 1.28 0 00-.024.288c0 .208-.024.368-.072.48l-.048.048v.384c0 .256-.032.44-.096.552a.842.842 0 01.024.24v.192c0 .144.016.248.048.312l-.336.408zm19.878-1.608c.064.048.096.12.096.216 0 .112-.04.224-.12.336-.064.096-.128.144-.192.144-.304 0-.6-.08-.888-.24-.272-.176-.408-.448-.408-.816v-1.488c0-.752-.056-1.176-.168-1.272-.24-.128-.656.136-1.248.792a16.508 16.508 0 00-1.68 2.328c-.176.288-.32.512-.432.672-.112.16-.2.24-.264.24-.048 0-.128-.04-.24-.12-.496-.144-.744-.424-.744-.84 0-.048.016-.152.048-.312a37.1 37.1 0 00.48-1.752c.16-.656.288-1.208.384-1.656a.248.248 0 00-.24-.144c-.16 0-.344.08-.552.24-.4.272-.912.92-1.536 1.944-.784 1.2-1.328 1.928-1.632 2.184a3.156 3.156 0 01-.312.456c-.08.096-.16.144-.24.144-.064 0-.184-.048-.36-.144-.464-.272-.696-.656-.696-1.152 0-.24.072-.72.216-1.44.144-.72.304-1.392.48-2.016a7.96 7.96 0 00.384-.84c.128-.304.192-.488.192-.552.064-.336.144-.696.24-1.08.096-.384.168-.6.216-.648a.529.529 0 01.384-.168c.24 0 .416.128.528.384a.91.91 0 01.264.672c0 .304-.088.696-.264 1.176-.272.592-.568 1.456-.888 2.592.336-.368.576-.656.72-.864.384-.544.88-1.152 1.488-1.824.496-.544 1.056-.816 1.68-.816.736.128 1.16.744 1.272 1.848 0 .192-.016.432-.048.72a8.697 8.697 0 01-.072.528c.064-.096.224-.304.48-.624a9.5 9.5 0 01.984-.984c.352-.272.68-.408.984-.408.256 0 .48.104.672.312.336.192.576.464.72.816.144.336.216.768.216 1.296 0 .272-.008.488-.024.648-.032.32-.048.52-.048.6 0 .304.056.608.168.912zm4.357 2.16a2.166 2.166 0 01-1.704-.768c-.448-.512-.672-1.152-.672-1.92s.168-1.608.504-2.52c.352-.928.8-1.76 1.344-2.496s1.096-1.232 1.656-1.488c.32-.176.68-.264 1.08-.264.304 0 .648.088 1.032.264.272.112.48.248.624.408.144.16.272.408.384.744.048.288.072.488.072.6 0 .096-.04.304-.12.624a4.973 4.973 0 01-.768 1.512c-.304.4-.704.744-1.2 1.032-.256.16-.576.24-.96.24-.336 0-.656-.056-.96-.168a1.533 1.533 0 01-.672-.552l-.168-.192-.072.192c-.336.864-.504 1.6-.504 2.208 0 .416.08.752.24 1.008.112.176.384.264.816.264.32 0 .552-.032.696-.096.24-.08.448-.176.624-.288.192-.128.376-.256.552-.384l.096-.048h-.024c.192-.096.352-.184.48-.264.128-.08.216-.136.264-.168a.213.213 0 00.096-.024.272.272 0 00.096-.096c.144-.064.312-.04.504.072.192.112.288.256.288.432-.032.128-.176.336-.432.624s-.448.44-.576.456a.76.76 0 00-.168.072.808.808 0 00-.192.12h.024c-.144.192-.288.288-.432.288h-.192c-.064.128-.28.256-.648.384a2.949 2.949 0 01-1.008.192zm1.08-5.28c.48 0 .92-.272 1.32-.816.384-.512.576-1.024.576-1.536 0-.272-.056-.464-.168-.576a.597.597 0 00-.264-.072c-.08 0-.216.024-.408.072-.208.048-.528.272-.96.672-.432.384-.752.728-.96 1.032l-.312.504c.128-.048.248-.072.36-.072.128-.016.2-.008.216.024 0 .224.056.408.168.552a.523.523 0 00.432.216zm3.389 5.112c-.096-.032-.232-.136-.408-.312a6.813 6.813 0 00-.336-.384c0-.112.032-.2.096-.264.08-.064.136-.112.168-.144.048-.064.152-.112.312-.144.176-.032.288-.072.336-.12.064-.048.224-.16.48-.336.256-.176.48-.352.672-.528.208-.192.376-.384.504-.576.416-.592.856-1.296 1.32-2.112.144-.272.328-.64.552-1.104.24-.48.376-.792.408-.936l-.744-.24a1.43 1.43 0 01-.144-.192.828.828 0 01-.12-.24v-.216c0-.192.016-.328.048-.408.048-.08.136-.128.264-.144.496-.096.904-.168 1.224-.216.48-.064.84-.128 1.08-.192.192-.048.408-.072.648-.072.416 0 .792.072 1.128.216.24.096.448.288.624.576.224.304.336.608.336.912 0 .112-.008.224-.024.336a1.9 1.9 0 00-.024.312c0 .144.024.288.072.432a23.605 23.605 0 01-.672 2.112c-.048.128-.12.344-.216.648a8.838 8.838 0 00-.216.792c-.048.24-.12.464-.216.672a5.038 5.038 0 00-.24.888.675.675 0 01-.216.408c-.096.08-.208.152-.336.216-.112.048-.184.08-.216.096-.064.032-.176.016-.336-.048a1.198 1.198 0 01-.408-.264 1.249 1.249 0 01-.048-.384c0-.128.032-.304.096-.528.288-.928.68-2.272 1.176-4.032l.264-.912c.048-.144.072-.312.072-.504 0-.144-.024-.288-.072-.432-.256-.096-.456-.144-.6-.144a.84.84 0 00-.264.048 2.219 2.219 0 01-.264.072.67.67 0 00-.288.456c-.304.8-.616 1.504-.936 2.112a31.78 31.78 0 00-.744 1.488c-.064.16-.248.464-.552.912-.192.288-.328.504-.408.648l-.264.336c-.08.08-.216.208-.408.384-.192.176-.328.304-.408.384l-.744.576c-.096.08-.272.12-.528.12-.24-.016-.4-.024-.48-.024zm11.196-.48c-.512-.208-.872-.472-1.08-.792-.208-.336-.312-.8-.312-1.392 0-.288.024-.624.072-1.008l.048-.864a.935.935 0 00-.048-.336.745.745 0 00-.216-.264l-.24-.24c-.128-.128-.184-.232-.168-.312l-.024-.12a.98.98 0 01.048-.312c.048-.096.096-.144.144-.144.048 0 .112-.008.192-.024a.35.35 0 01.216-.024c.224 0 .336.048.336.144.064.128.168.144.312.048.16-.112.312-.32.456-.624.224-.352.552-.72.984-1.104.448-.4.816-.68 1.104-.84.112-.064.296-.12.552-.168a2.82 2.82 0 01.672-.096c.288 0 .536.064.744.192.224.128.448.312.672.552.304.224.456.576.456 1.056 0 .336-.08.68-.24 1.032-.064.24-.32.544-.768.912-.432.368-.832.624-1.2.768-.448.112-.96.168-1.536.168-.384 0-.632-.032-.744-.096-.192-.112-.328.32-.408 1.296a3.39 3.39 0 00-.024.456c0 .272.04.488.12.648.016.016.072.08.168.192.096.096.216.184.36.264.144.064.296.096.456.096a.935.935 0 00.336-.048c.176-.048.344-.136.504-.264.16-.144.384-.36.672-.648.256-.256.44-.432.552-.528.08-.144.24-.216.48-.216.064 0 .176.016.336.048.144.112.216.232.216.36 0 .128-.08.368-.24.72-.08.16-.28.384-.6.672a7.507 7.507 0 01-.816.648c-.496.272-.992.408-1.488.408-.304 0-.656-.072-1.056-.216zm1.416-4.872c.16-.032.392-.072.696-.12.304-.048.552-.152.744-.312.208-.176.448-.472.72-.888.048-.128.072-.256.072-.384 0-.24-.048-.408-.144-.504a.529.529 0 00-.384-.168c-.224 0-.456.096-.696.288-.16.048-.4.224-.72.528a8.054 8.054 0 00-.792.912c-.224.288-.296.456-.216.504-.032.048.048.088.24.12.192.016.352.024.48.024z" fill="#8E80A9"/></svg>