<svg width="581" height="42" viewBox="0 0 581 42" fill="none" xmlns="http://www.w3.org/2000/svg">
<path d="M2.715 32.035C1.845 32.035 1.29 31.915 1.05 31.675C0.81 31.435 0.69 31.105 0.69 30.685C0.78 30.415 0.9 30.115 1.05 29.785C1.35 28.975 1.545 28.39 1.635 28.03C1.755 27.46 1.95 26.74 2.22 25.87C3.6 21.43 4.53 18.625 5.01 17.455L6.72 12.685L8.295 8.095C9.045 6.475 9.57 5.125 9.87 4.045C9.9 3.985 9.915 3.895 9.915 3.775C9.915 3.685 9.87 3.55 9.78 3.37C9.69 3.16 9.645 2.935 9.645 2.695C9.615 2.335 9.705 2.08 9.915 1.93C10.155 1.75 10.455 1.705 10.815 1.795C11.565 2.005 12.825 2.11 14.595 2.11C15.255 2.11 15.645 2.08 15.765 2.02C16.005 1.9 17.43 1.66 20.04 1.3C22.65 0.939998 25.11 0.624998 27.42 0.354998L27.825 0.309998C28.065 0.309998 28.335 0.339999 28.635 0.4C28.965 0.459999 29.19 0.504998 29.31 0.534998C29.76 0.624999 30.15 0.864999 30.48 1.255C30.84 1.615 30.975 2.02 30.885 2.47C30.765 2.83 30.435 3.01 29.895 3.01C29.715 3.01 29.265 2.95 28.545 2.83C28.485 2.83 28.38 3.115 28.23 3.685C28.11 4.255 27.975 4.72 27.825 5.08C27.495 5.5 27.06 6.55 26.52 8.23C25.98 9.91 25.71 11.005 25.71 11.515C25.29 12.145 24.945 13.09 24.675 14.35C24.525 14.98 24.375 15.49 24.225 15.88C23.865 17.11 23.295 19.15 22.515 22C21.765 24.85 21.405 26.275 21.435 26.275L21.255 27.895C21.135 28.885 21.06 29.575 21.03 29.965C21.06 30.085 21.06 30.19 21.03 30.28C21.03 30.37 20.985 30.43 20.895 30.46C20.685 30.67 20.295 30.775 19.725 30.775C19.485 30.775 19.245 30.745 19.005 30.685C18.795 30.625 18.66 30.55 18.6 30.46C18.57 30.37 18.48 30.205 18.33 29.965C18.18 29.695 18.135 29.425 18.195 29.155C18.285 28.195 18.525 26.545 18.915 24.205C19.065 23.455 19.245 22.765 19.455 22.135C19.665 21.475 19.815 21.115 19.905 21.055L20.76 17.86C21.09 16.93 21.345 15.955 21.525 14.935C21.555 14.815 21.63 14.5 21.75 13.99C21.87 13.45 22.05 12.85 22.29 12.19C22.62 11.35 22.905 10.45 23.145 9.49C23.415 8.5 23.58 7.885 23.64 7.645C23.73 7.315 23.985 6.55 24.405 5.35C24.465 5.2 24.57 4.885 24.72 4.405C24.9 3.895 24.975 3.49 24.945 3.19L21.975 3.595L19.275 3.955L16.17 4.405C14.55 4.645 13.695 4.765 13.605 4.765C13.095 4.855 12.84 5.035 12.84 5.305C12.12 6.685 11.475 8.065 10.905 9.445C10.335 10.795 9.945 11.92 9.735 12.82C9.615 13.09 9.12 14.41 8.25 16.78C7.71 18.16 7.455 18.82 7.485 18.76C6.885 20.77 6.24 22.66 5.55 24.43C5.4 24.76 5.265 25.075 5.145 25.375C5.055 25.675 4.965 26.11 4.875 26.68C4.635 27.31 4.365 28.315 4.065 29.695C3.945 30.085 3.87 30.385 3.84 30.595C3.84 30.775 3.81 31.015 3.75 31.315C3.51 31.795 3.165 32.035 2.715 32.035ZM31.7632 30.325C31.4032 30.325 31.1182 30.265 30.9082 30.145C30.6982 30.025 30.3982 29.8 30.0082 29.47C29.0182 28.42 28.5232 27.46 28.5232 26.59C28.5232 26.38 28.5382 26.23 28.5682 26.14C28.6582 25.93 28.6882 25.72 28.6582 25.51C28.6582 25.3 28.6582 25.165 28.6582 25.105C28.5382 24.985 28.4782 24.91 28.4782 24.88C28.4782 24.82 28.5082 24.775 28.5682 24.745C28.6282 24.685 28.6732 24.625 28.7032 24.565C28.8832 24.565 28.9432 24.4 28.8832 24.07C28.8232 23.83 28.9432 23.305 29.2432 22.495C29.5432 21.655 29.9182 20.89 30.3682 20.2C30.6982 19.66 31.1782 18.985 31.8082 18.175C32.4682 17.365 33.0532 16.75 33.5632 16.33C34.2832 15.7 34.9282 15.235 35.4982 14.935C36.0682 14.635 36.6982 14.41 37.3882 14.26C37.9882 14.11 38.3932 14.035 38.6032 14.035C38.8132 14.035 38.9932 14.095 39.1432 14.215C39.3232 14.305 39.5482 14.485 39.8182 14.755C40.6282 15.115 41.1832 15.58 41.4832 16.15C41.8132 16.69 41.9782 17.545 41.9782 18.715C41.9782 20.665 41.1832 22.78 39.5932 25.06C38.9032 26.05 38.2582 26.815 37.6582 27.355C37.0582 27.865 36.2632 28.42 35.2732 29.02C34.6432 29.47 34.0582 29.8 33.5182 30.01C33.0082 30.19 32.4232 30.295 31.7632 30.325ZM36.0832 25.555C36.8032 24.745 37.3732 23.98 37.7932 23.26C38.2432 22.54 38.6632 21.625 39.0532 20.515C39.2032 20.005 39.2782 19.39 39.2782 18.67C39.2782 17.77 39.1582 17.26 38.9182 17.14C38.6182 16.99 38.3182 16.915 38.0182 16.915C37.3582 16.915 36.6682 17.215 35.9482 17.815C35.0782 18.565 34.2982 19.495 33.6082 20.605C32.9182 21.685 32.2132 23.035 31.4932 24.655C31.1932 25.285 31.0432 25.9 31.0432 26.5C31.0432 26.95 31.1482 27.31 31.3582 27.58C31.5982 27.85 31.9132 27.985 32.3032 27.985C33.2932 27.985 34.5532 27.175 36.0832 25.555ZM52.1275 30.325C51.4375 30.025 50.9725 29.665 50.7325 29.245C50.4625 28.855 50.3275 28.255 50.3275 27.445C50.3275 26.875 50.3425 26.425 50.3725 26.095C50.4025 25.915 50.5675 25.33 50.8675 24.34C51.1975 23.35 51.4375 22.66 51.5875 22.27C51.3175 22.33 51.0625 22.435 50.8225 22.585C50.6125 22.735 50.4025 22.885 50.1925 23.035C49.8925 23.335 49.4875 23.635 48.9775 23.935C48.4675 24.235 48.0025 24.46 47.5825 24.61C47.4625 24.67 47.3275 24.7 47.1775 24.7C46.8475 24.7 46.4725 24.595 46.0525 24.385C45.6625 24.145 45.3775 23.845 45.1975 23.485C45.0475 23.125 44.9425 22.72 44.8825 22.27C44.8525 22.12 44.8375 21.895 44.8375 21.595C44.8375 20.845 45.0175 20.11 45.3775 19.39L46.5025 17.095C46.7725 16.585 47.1475 15.82 47.6275 14.8C47.7175 14.62 47.8525 14.395 48.0325 14.125C48.2125 13.855 48.3325 13.615 48.3925 13.405C48.4225 13.285 48.5125 13.15 48.6625 13C48.8425 12.82 49.0075 12.73 49.1575 12.73C49.9375 12.79 50.4925 13.075 50.8225 13.585C51.0025 13.795 51.0925 14.02 51.0925 14.26C51.0925 14.56 50.9725 14.845 50.7325 15.115C49.8025 16.375 48.8425 18.07 47.8525 20.2C47.5825 20.68 47.4475 21.16 47.4475 21.64C47.4475 21.79 47.4625 21.91 47.4925 22C47.9725 22 48.6625 21.67 49.5625 21.01C50.4625 20.35 51.6175 19.435 53.0275 18.265L54.1075 17.365C54.7975 16.795 55.3975 16.105 55.9075 15.295C56.1775 14.785 56.6425 14.515 57.3025 14.485C57.7525 14.695 58.0375 14.83 58.1575 14.89C58.2775 15.13 58.3975 15.385 58.5175 15.655C58.6675 15.895 58.7425 16.09 58.7425 16.24C58.7425 16.51 58.5325 16.87 58.1125 17.32C57.9025 17.35 57.4825 17.815 56.8525 18.715C56.2525 19.585 55.7875 20.335 55.4575 20.965C55.3675 21.115 55.2475 21.28 55.0975 21.46C54.9775 21.61 54.8575 21.79 54.7375 22L53.0275 26.14C52.9975 26.26 52.9675 26.41 52.9375 26.59C52.9075 26.77 52.8925 26.995 52.8925 27.265C52.8925 27.505 52.9225 27.67 52.9825 27.76C53.1325 27.76 53.2525 27.745 53.3425 27.715C53.4625 27.685 53.5825 27.67 53.7025 27.67C53.8825 27.67 54.0025 27.745 54.0625 27.895C54.2125 28.405 54.2875 28.72 54.2875 28.84C54.2875 29.14 54.0775 29.515 53.6575 29.965C53.3275 30.295 53.0125 30.46 52.7125 30.46C52.5625 30.46 52.3675 30.415 52.1275 30.325ZM72.291 14.305C72.531 14.785 72.651 15.31 72.651 15.88C72.651 16.78 72.411 17.59 71.931 18.31C71.631 18.73 71.361 19.36 71.121 20.2C70.911 21.04 70.701 22.165 70.491 23.575C70.221 24.715 69.891 26.47 69.501 28.84C69.021 30.1 68.721 31.045 68.601 31.675C68.571 31.855 68.421 32.23 68.151 32.8C67.911 33.37 67.716 33.82 67.566 34.15C66.396 36.58 65.061 38.44 63.561 39.73C62.061 41.02 60.426 41.725 58.656 41.845C58.176 41.905 57.891 41.935 57.801 41.935C57.531 41.935 57.276 41.89 57.036 41.8C56.826 41.71 56.586 41.59 56.316 41.44C56.196 41.38 56.031 41.275 55.821 41.125C55.611 40.975 55.461 40.855 55.371 40.765C55.311 40.705 55.281 40.63 55.281 40.54C55.281 40.39 55.371 40.24 55.551 40.09C55.731 39.94 56.016 39.865 56.406 39.865C56.616 39.985 56.976 40.045 57.486 40.045C57.996 40.045 58.296 39.985 58.386 39.865C58.446 39.805 58.626 39.7 58.926 39.55C59.226 39.43 59.571 39.325 59.961 39.235C60.891 38.785 61.716 38.2 62.436 37.48C63.186 36.79 63.876 35.905 64.506 34.825C65.256 33.685 65.751 32.65 65.991 31.72C66.261 31.09 66.561 30.19 66.891 29.02C67.251 27.82 67.536 26.74 67.746 25.78L67.161 26.32C67.011 26.5 66.636 26.77 66.036 27.13C65.436 27.46 65.076 27.625 64.956 27.625C64.926 27.625 64.881 27.64 64.821 27.67C64.761 27.7 64.731 27.76 64.731 27.85C64.731 27.97 64.341 28.165 63.561 28.435C62.781 28.675 62.286 28.795 62.076 28.795C61.776 28.795 61.446 28.645 61.086 28.345C60.756 28.015 60.516 27.7 60.366 27.4C60.276 27.19 60.156 26.95 60.006 26.68C59.856 26.41 59.736 26.155 59.646 25.915C59.556 25.645 59.511 25.345 59.511 25.015C59.511 24.625 59.541 24.325 59.601 24.115C59.961 22.765 60.561 20.86 61.401 18.4C62.271 15.94 62.931 14.365 63.381 13.675C63.621 13.345 63.906 13.18 64.236 13.18C64.686 13.18 65.046 13.42 65.316 13.9C65.586 14.26 65.721 14.56 65.721 14.8C65.721 14.98 65.646 15.235 65.496 15.565C65.346 15.895 65.151 16.285 64.911 16.735C64.791 17.065 64.641 17.425 64.461 17.815C64.281 18.205 64.191 18.445 64.191 18.535C64.161 18.655 64.071 19.03 63.921 19.66C63.771 20.26 63.636 20.56 63.516 20.56C63.306 20.74 63.081 21.43 62.841 22.63C62.601 23.83 62.481 24.76 62.481 25.42C62.481 25.75 62.526 25.915 62.616 25.915C64.386 25.915 66.306 24.595 68.376 21.955C68.646 20.635 68.886 19.525 69.096 18.625C69.486 17.095 69.786 15.73 69.996 14.53C70.176 14.11 70.311 13.87 70.401 13.81C70.491 13.72 70.686 13.675 70.986 13.675C71.346 13.675 71.601 13.705 71.751 13.765C71.901 13.825 72.081 14.005 72.291 14.305ZM78.6279 30.595C78.3579 30.355 78.1779 30.205 78.0879 30.145C77.9979 30.085 77.7279 29.995 77.2779 29.875C77.2179 29.665 77.0379 29.275 76.7379 28.705C76.3479 28.165 76.1379 27.7 76.1079 27.31V27.085V26.86C76.1079 26.53 76.0329 26.29 75.8829 26.14C76.0329 26.02 76.0629 25.84 75.9729 25.6C75.8829 25.33 75.8979 25.135 76.0179 25.015L76.0629 24.7C75.9729 24.55 75.9279 24.34 75.9279 24.07C75.9279 23.59 76.0779 22.63 76.3779 21.19C76.6779 19.81 76.7979 18.985 76.7379 18.715L75.8829 17.95C75.9429 17.5 76.0179 17.17 76.1079 16.96C76.1979 16.72 76.4079 16.525 76.7379 16.375L77.0529 16.51C77.1729 16.48 77.2629 16.45 77.3229 16.42C77.4129 16.36 77.4879 16.315 77.5479 16.285C78.0579 15.325 78.5379 14.125 78.9879 12.685C79.1679 12.115 79.3929 11.515 79.6629 10.885C79.9629 10.225 80.2629 9.7 80.5629 9.31C80.7429 9.1 80.9079 8.845 81.0579 8.545C81.2079 8.245 81.3129 8.035 81.3729 7.915C81.7629 7.105 82.3929 6.19 83.2629 5.17C84.1629 4.15 84.9879 3.415 85.7379 2.965C86.1879 2.665 86.5779 2.485 86.9079 2.425C87.2379 2.365 87.7479 2.32 88.4379 2.29C88.8279 2.53 89.2179 2.86 89.6079 3.28C89.9979 3.67 90.1929 4.03 90.1929 4.36V5.035C90.1929 5.545 90.1179 5.95 89.9679 6.25C89.9979 6.52 89.9229 6.955 89.7429 7.555C89.6229 7.825 89.5329 8.125 89.4729 8.455C88.7229 10.015 88.0479 11.245 87.4479 12.145C86.8479 13.015 86.1879 13.795 85.4679 14.485C84.7779 15.145 83.6379 16.12 82.0479 17.41C83.3379 17.8 83.9979 18.52 84.0279 19.57C84.0279 19.66 84.0129 19.825 83.9829 20.065C83.9829 20.275 83.9979 20.455 84.0279 20.605L84.1179 21.685C84.1179 21.925 84.1479 22.285 84.2079 22.765C84.2979 23.425 84.2379 24.295 84.0279 25.375C83.9979 25.465 83.9529 25.54 83.8929 25.6C83.8629 25.66 83.8479 25.735 83.8479 25.825C83.8479 26.155 83.7879 26.455 83.6679 26.725C83.5779 26.965 83.4429 27.235 83.2629 27.535C83.1129 27.805 82.9779 28.06 82.8579 28.3C82.7979 28.42 82.6779 28.555 82.4979 28.705C82.3179 28.825 82.1829 28.945 82.0929 29.065C81.7329 29.485 81.3729 29.77 81.0129 29.92C80.6529 30.07 80.1879 30.205 79.6179 30.325C79.1979 30.385 78.8979 30.445 78.7179 30.505L78.6279 30.595ZM81.2379 14.8L83.4879 12.955C83.6079 12.895 83.9079 12.535 84.3879 11.875C84.8679 11.215 85.1529 10.795 85.2429 10.615C85.5729 10.345 85.9329 9.775 86.3229 8.905C86.7129 8.005 87.0279 7.09 87.2679 6.16C87.5079 5.2 87.5979 4.495 87.5379 4.045L87.2229 4.18C86.7729 4.75 86.1279 5.515 85.2879 6.475C84.2979 7.585 83.3979 8.845 82.5879 10.255C81.8079 11.665 81.1929 13.09 80.7429 14.53L81.2379 14.8ZM79.7079 27.76C80.4579 27.01 80.9529 26.23 81.1929 25.42C81.4329 24.58 81.5529 23.56 81.5529 22.36V20.785C81.5529 20.695 81.5229 20.56 81.4629 20.38C81.4329 20.2 81.4479 20.05 81.5079 19.93C81.4479 19.75 81.3279 19.42 81.1479 18.94C80.9979 18.46 80.7729 18.07 80.4729 17.77C80.2329 17.89 80.0379 18.025 79.8879 18.175C79.7379 18.325 79.5429 18.58 79.3029 18.94C79.1229 19.3 78.9429 20.065 78.7629 21.235C78.6129 22.375 78.5379 23.485 78.5379 24.565C78.5379 26.215 78.7329 27.28 79.1229 27.76H79.7079ZM94.1568 29.83C93.7968 29.98 93.4218 30.055 93.0318 30.055C92.4018 30.055 91.6368 29.89 90.7368 29.56C90.5868 29.56 90.3468 29.425 90.0168 29.155C89.6868 28.885 89.4468 28.585 89.2968 28.255C88.8768 27.655 88.6668 26.845 88.6668 25.825C88.6668 24.295 89.1018 22.465 89.9718 20.335C90.3018 19.645 90.8418 18.745 91.5918 17.635C92.3718 16.495 92.8968 15.85 93.1668 15.7C93.2568 15.67 93.4668 15.595 93.7968 15.475C94.1268 15.325 94.5018 15.145 94.9218 14.935C95.3418 14.725 95.8368 14.62 96.4068 14.62C96.9768 14.62 97.6068 14.83 98.2968 15.25C99.0168 15.64 99.5868 16.105 100.007 16.645C100.427 17.185 100.577 17.65 100.457 18.04C100.427 18.13 100.247 18.325 99.9168 18.625C99.6168 18.925 99.3768 19.165 99.1968 19.345C99.0468 19.495 98.8668 19.57 98.6568 19.57C98.3868 19.57 98.1468 19.465 97.9368 19.255C97.7268 19.015 97.6068 18.7 97.5768 18.31C97.5168 18.13 97.3218 17.935 96.9918 17.725C96.6918 17.515 96.4818 17.38 96.3618 17.32C96.1218 17.32 95.7768 17.53 95.3268 17.95C94.9068 18.37 94.4868 18.895 94.0668 19.525C93.3768 20.245 92.7918 21.13 92.3118 22.18C91.8318 23.23 91.4868 24.13 91.2768 24.88C91.2168 25 91.1868 25.21 91.1868 25.51C91.1868 25.84 91.2168 26.17 91.2768 26.5C91.3668 26.83 91.4568 27.04 91.5468 27.13C91.6068 27.16 91.7568 27.175 91.9968 27.175C92.6868 27.175 93.6618 27.07 94.9218 26.86C96.2118 26.62 97.2018 26.365 97.8918 26.095C98.5818 25.645 99.2418 25.42 99.8718 25.42C100.082 25.42 100.232 25.435 100.322 25.465C100.712 25.645 100.907 25.855 100.907 26.095C100.907 26.515 100.472 26.965 99.6018 27.445C99.0918 27.715 98.6568 27.985 98.2968 28.255C97.9368 28.525 97.7568 28.735 97.7568 28.885C97.6968 28.885 97.5768 28.93 97.3968 29.02C97.2168 29.08 97.0968 29.095 97.0368 29.065C96.7068 29.095 96.1968 29.2 95.5068 29.38C94.8168 29.56 94.3668 29.71 94.1568 29.83ZM125.119 27.085C125.239 27.175 125.299 27.31 125.299 27.49C125.299 27.7 125.224 27.91 125.074 28.12C124.954 28.3 124.834 28.39 124.714 28.39C124.144 28.39 123.589 28.24 123.049 27.94C122.539 27.61 122.284 27.1 122.284 26.41V23.62C122.284 22.21 122.179 21.415 121.969 21.235C121.519 20.995 120.739 21.49 119.629 22.72C118.549 23.95 117.499 25.405 116.479 27.085C116.149 27.625 115.879 28.045 115.669 28.345C115.459 28.645 115.294 28.795 115.174 28.795C115.084 28.795 114.934 28.72 114.724 28.57C113.794 28.3 113.329 27.775 113.329 26.995C113.329 26.905 113.359 26.71 113.419 26.41C113.719 25.42 114.019 24.325 114.319 23.125C114.619 21.895 114.859 20.86 115.039 20.02C114.949 19.84 114.799 19.75 114.589 19.75C114.289 19.75 113.944 19.9 113.554 20.2C112.804 20.71 111.844 21.925 110.674 23.845C109.204 26.095 108.184 27.46 107.614 27.94C107.404 28.3 107.209 28.585 107.029 28.795C106.879 28.975 106.729 29.065 106.579 29.065C106.459 29.065 106.234 28.975 105.904 28.795C105.034 28.285 104.599 27.565 104.599 26.635C104.599 26.185 104.734 25.285 105.004 23.935C105.274 22.585 105.574 21.325 105.904 20.155C106.174 19.645 106.414 19.12 106.624 18.58C106.864 18.01 106.984 17.665 106.984 17.545C107.104 16.915 107.254 16.24 107.434 15.52C107.614 14.8 107.749 14.395 107.839 14.305C108.049 14.095 108.289 13.99 108.559 13.99C109.009 13.99 109.339 14.23 109.549 14.71C109.879 15.04 110.044 15.46 110.044 15.97C110.044 16.54 109.879 17.275 109.549 18.175C109.039 19.285 108.484 20.905 107.884 23.035C108.514 22.345 108.964 21.805 109.234 21.415C109.954 20.395 110.884 19.255 112.024 17.995C112.954 16.975 114.004 16.465 115.174 16.465C116.554 16.705 117.349 17.86 117.559 19.93C117.559 20.29 117.529 20.74 117.469 21.28C117.409 21.79 117.364 22.12 117.334 22.27C117.454 22.09 117.754 21.7 118.234 21.1C118.744 20.5 119.359 19.885 120.079 19.255C120.739 18.745 121.354 18.49 121.924 18.49C122.404 18.49 122.824 18.685 123.184 19.075C123.814 19.435 124.264 19.945 124.534 20.605C124.804 21.235 124.939 22.045 124.939 23.035C124.939 23.545 124.924 23.95 124.894 24.25C124.834 24.85 124.804 25.225 124.804 25.375C124.804 25.945 124.909 26.515 125.119 27.085ZM131.274 30.595C131.004 30.355 130.824 30.205 130.734 30.145C130.644 30.085 130.374 29.995 129.924 29.875C129.864 29.665 129.684 29.275 129.384 28.705C128.994 28.165 128.784 27.7 128.754 27.31V27.085V26.86C128.754 26.53 128.679 26.29 128.529 26.14C128.679 26.02 128.709 25.84 128.619 25.6C128.529 25.33 128.544 25.135 128.664 25.015L128.709 24.7C128.619 24.55 128.574 24.34 128.574 24.07C128.574 23.59 128.724 22.63 129.024 21.19C129.324 19.81 129.444 18.985 129.384 18.715L128.529 17.95C128.589 17.5 128.664 17.17 128.754 16.96C128.844 16.72 129.054 16.525 129.384 16.375L129.699 16.51C129.819 16.48 129.909 16.45 129.969 16.42C130.059 16.36 130.134 16.315 130.194 16.285C130.704 15.325 131.184 14.125 131.634 12.685C131.814 12.115 132.039 11.515 132.309 10.885C132.609 10.225 132.909 9.7 133.209 9.31C133.389 9.1 133.554 8.845 133.704 8.545C133.854 8.245 133.959 8.035 134.019 7.915C134.409 7.105 135.039 6.19 135.909 5.17C136.809 4.15 137.634 3.415 138.384 2.965C138.834 2.665 139.224 2.485 139.554 2.425C139.884 2.365 140.394 2.32 141.084 2.29C141.474 2.53 141.864 2.86 142.254 3.28C142.644 3.67 142.839 4.03 142.839 4.36V5.035C142.839 5.545 142.764 5.95 142.614 6.25C142.644 6.52 142.569 6.955 142.389 7.555C142.269 7.825 142.179 8.125 142.119 8.455C141.369 10.015 140.694 11.245 140.094 12.145C139.494 13.015 138.834 13.795 138.114 14.485C137.424 15.145 136.284 16.12 134.694 17.41C135.984 17.8 136.644 18.52 136.674 19.57C136.674 19.66 136.659 19.825 136.629 20.065C136.629 20.275 136.644 20.455 136.674 20.605L136.764 21.685C136.764 21.925 136.794 22.285 136.854 22.765C136.944 23.425 136.884 24.295 136.674 25.375C136.644 25.465 136.599 25.54 136.539 25.6C136.509 25.66 136.494 25.735 136.494 25.825C136.494 26.155 136.434 26.455 136.314 26.725C136.224 26.965 136.089 27.235 135.909 27.535C135.759 27.805 135.624 28.06 135.504 28.3C135.444 28.42 135.324 28.555 135.144 28.705C134.964 28.825 134.829 28.945 134.739 29.065C134.379 29.485 134.019 29.77 133.659 29.92C133.299 30.07 132.834 30.205 132.264 30.325C131.844 30.385 131.544 30.445 131.364 30.505L131.274 30.595ZM133.884 14.8L136.134 12.955C136.254 12.895 136.554 12.535 137.034 11.875C137.514 11.215 137.799 10.795 137.889 10.615C138.219 10.345 138.579 9.775 138.969 8.905C139.359 8.005 139.674 7.09 139.914 6.16C140.154 5.2 140.244 4.495 140.184 4.045L139.869 4.18C139.419 4.75 138.774 5.515 137.934 6.475C136.944 7.585 136.044 8.845 135.234 10.255C134.454 11.665 133.839 13.09 133.389 14.53L133.884 14.8ZM132.354 27.76C133.104 27.01 133.599 26.23 133.839 25.42C134.079 24.58 134.199 23.56 134.199 22.36V20.785C134.199 20.695 134.169 20.56 134.109 20.38C134.079 20.2 134.094 20.05 134.154 19.93C134.094 19.75 133.974 19.42 133.794 18.94C133.644 18.46 133.419 18.07 133.119 17.77C132.879 17.89 132.684 18.025 132.534 18.175C132.384 18.325 132.189 18.58 131.949 18.94C131.769 19.3 131.589 20.065 131.409 21.235C131.259 22.375 131.184 23.485 131.184 24.565C131.184 26.215 131.379 27.28 131.769 27.76H132.354ZM143.473 41.35C143.443 41.41 143.308 41.35 143.068 41.17C142.828 40.99 142.603 40.765 142.393 40.495C142.213 40.225 142.138 40.015 142.168 39.865C142.108 39.625 142.078 39.415 142.078 39.235C142.078 38.515 142.498 37.3 143.338 35.59C143.518 35.26 143.818 34.63 144.238 33.7C144.508 33.01 144.778 32.41 145.048 31.9C145.108 31.78 145.633 30.85 146.623 29.11C147.613 27.37 148.453 25.615 149.143 23.845C148.633 24.385 148.003 25.09 147.253 25.96C146.383 27.04 145.663 27.835 145.093 28.345C144.553 28.825 144.058 29.05 143.608 29.02C143.068 28.9 142.618 28.735 142.258 28.525C141.898 28.315 141.643 27.985 141.493 27.535C141.403 27.025 141.358 26.47 141.358 25.87C141.358 24.52 141.553 22.69 141.943 20.38C142.243 19.09 142.393 18.145 142.393 17.545C142.393 17.185 142.348 16.9 142.258 16.69C142.168 16.48 142.018 16.27 141.808 16.06C141.388 15.7 141.178 15.37 141.178 15.07C141.178 14.83 141.388 14.59 141.808 14.35C142.198 14.23 142.558 14.17 142.888 14.17C143.128 14.17 143.338 14.23 143.518 14.35C143.698 14.44 143.908 14.635 144.148 14.935C144.238 15.085 144.373 15.31 144.553 15.61C144.733 15.88 144.868 16.195 144.958 16.555C145.048 16.885 145.093 17.305 145.093 17.815C145.063 18.055 144.943 19 144.733 20.65C144.583 21.34 144.508 21.805 144.508 22.045C144.118 23.485 143.923 24.67 143.923 25.6C143.923 25.96 143.968 26.14 144.058 26.14C144.868 25.48 145.663 24.67 146.443 23.71C147.253 22.75 148.303 21.4 149.593 19.66C149.713 19.45 149.938 19.045 150.268 18.445C150.628 17.815 150.898 17.23 151.078 16.69C151.468 15.82 151.798 15.37 152.068 15.34C152.248 15.28 152.533 15.34 152.923 15.52C153.313 15.7 153.523 15.835 153.553 15.925C153.553 15.955 153.688 16 153.958 16.06C154.228 16.09 154.363 16.15 154.363 16.24C154.363 16.3 154.198 16.75 153.868 17.59C153.358 18.82 153.118 19.48 153.148 19.57C153.238 19.69 153.073 20.2 152.653 21.1C152.263 22 152.038 22.525 151.978 22.675C151.228 25.075 150.418 27.025 149.548 28.525C149.248 29.065 148.528 30.64 147.388 33.25L147.028 34.105C146.728 34.765 146.398 35.515 146.038 36.355C145.678 37.225 145.363 37.99 145.093 38.65C144.913 39.01 144.778 39.295 144.688 39.505C144.628 39.745 144.568 39.925 144.508 40.045C144.448 40.615 144.313 41.035 144.103 41.305L143.473 41.35ZM166.415 30.91C166.205 31.03 165.92 30.985 165.56 30.775C165.23 30.565 164.9 30.25 164.57 29.83C164.33 29.44 164.18 29.035 164.12 28.615C164.09 28.195 164.075 27.325 164.075 26.005C164.075 25.705 164.015 25.555 163.895 25.555C163.805 25.555 163.595 25.705 163.265 26.005C162.935 26.275 162.53 26.65 162.05 27.13C161.27 27.88 160.55 28.465 159.89 28.885C159.23 29.305 158.69 29.5 158.27 29.47C157.94 29.47 157.58 29.245 157.19 28.795C156.83 28.345 156.545 27.82 156.335 27.22C156.245 26.86 156.2 26.44 156.2 25.96C156.2 24.7 156.455 23.17 156.965 21.37C157.505 19.57 158.12 18.025 158.81 16.735C159.53 15.415 160.16 14.755 160.7 14.755C161.15 14.755 161.57 15.25 161.96 16.24C162.05 16.42 162.095 16.57 162.095 16.69C162.095 16.9 161.975 17.11 161.735 17.32C161.285 17.89 160.76 18.91 160.16 20.38C159.56 21.85 159.08 23.215 158.72 24.475C158.39 25.735 158.33 26.365 158.54 26.365C158.96 26.365 159.455 26.2 160.025 25.87C160.595 25.54 161.165 25.105 161.735 24.565C162.305 23.995 162.815 23.395 163.265 22.765C163.715 22.105 164.27 21.22 164.93 20.11C166.19 18.1 166.88 16.93 167 16.6C167.45 15.76 167.765 15.22 167.945 14.98C168.155 14.71 168.41 14.53 168.71 14.44H169.34C169.52 14.47 169.73 14.605 169.97 14.845C170.18 14.935 170.3 15.04 170.33 15.16C170.39 15.25 170.42 15.385 170.42 15.565L169.7 17.23L169.295 18.175C169.265 18.295 169.1 18.64 168.8 19.21C168.11 20.74 167.585 21.97 167.225 22.9C166.865 23.83 166.595 24.79 166.415 25.78C166.385 25.93 166.37 26.185 166.37 26.545C166.37 27.445 166.46 28.075 166.64 28.435C166.91 28.975 167.18 29.365 167.45 29.605C167.6 29.725 167.675 29.845 167.675 29.965C167.675 30.175 167.495 30.385 167.135 30.595C166.805 30.805 166.565 30.91 166.415 30.91ZM165.83 12.235C164 12.445 162.74 11.2 162.05 8.5C161.99 8.26 161.96 8.095 161.96 8.005C161.96 7.795 162.02 7.57 162.14 7.33C162.2 7.21 162.32 7.12 162.5 7.06C162.68 7 162.83 6.985 162.95 7.015C163.34 7.165 163.64 7.36 163.85 7.6C164.06 7.81 164.195 8.08 164.255 8.41C164.345 8.62 164.39 8.83 164.39 9.04C164.63 9.79 164.96 10.165 165.38 10.165C165.47 10.165 165.695 10.105 166.055 9.985C167.315 9.475 168.26 8.905 168.89 8.275C168.89 8.275 169.52 7.69 170.78 6.52L170.825 6.475C170.945 6.415 171.05 6.385 171.14 6.385C171.35 6.385 171.5 6.43 171.59 6.52C171.74 6.7 171.83 6.865 171.86 7.015C171.89 7.165 171.905 7.315 171.905 7.465C171.905 7.615 171.905 7.735 171.905 7.825L171.86 7.915C171.92 8.095 171.77 8.455 171.41 8.995C171.05 9.505 170.645 9.925 170.195 10.255C169.625 10.705 168.68 11.26 167.36 11.92C167.15 12.04 166.88 12.115 166.55 12.145C166.22 12.175 165.98 12.205 165.83 12.235ZM183.208 41.125C182.968 41.125 182.773 40.99 182.623 40.72C182.473 40.51 182.398 40.255 182.398 39.955C182.398 39.745 182.473 39.235 182.623 38.425C182.953 37.165 183.118 36.295 183.118 35.815C183.118 35.665 183.148 35.44 183.208 35.14C183.268 34.87 183.313 34.615 183.343 34.375C183.463 34.165 183.568 33.835 183.658 33.385C183.778 32.965 183.838 32.59 183.838 32.26C183.838 32.11 183.883 31.93 183.973 31.72C184.093 31.54 184.228 31.39 184.378 31.27C184.378 31.09 184.423 30.82 184.513 30.46C184.603 30.07 184.663 29.8 184.693 29.65C184.843 28.84 185.428 26.92 186.448 23.89C187.468 20.86 188.338 18.415 189.058 16.555C189.388 15.805 189.628 15.115 189.778 14.485C189.928 13.855 190.003 13.36 190.003 13C190.003 12.88 190.033 12.775 190.093 12.685C190.183 12.565 190.318 12.415 190.498 12.235C190.708 12.025 190.903 11.92 191.083 11.92C191.233 11.92 191.398 11.98 191.578 12.1C191.758 12.22 191.938 12.355 192.118 12.505C192.298 12.775 192.433 13.03 192.523 13.27C192.643 13.51 192.703 13.765 192.703 14.035C192.703 14.125 192.673 14.41 192.613 14.89C192.613 15.52 192.478 16.045 192.208 16.465C191.938 16.855 191.833 17.035 191.893 17.005C193.243 16.375 194.443 16.06 195.493 16.06C196.753 16.06 197.728 16.465 198.418 17.275C199.138 18.085 199.498 19.135 199.498 20.425C199.498 20.965 199.333 21.625 199.003 22.405C198.703 23.155 198.403 23.665 198.103 23.935C197.923 23.935 197.683 24.25 197.383 24.88C196.993 25.36 196.348 25.87 195.448 26.41C194.548 26.92 193.918 27.115 193.558 26.995C193.528 26.995 193.483 27.01 193.423 27.04C193.363 27.07 193.333 27.145 193.333 27.265C193.333 27.385 192.823 27.61 191.803 27.94C190.783 28.27 189.943 28.435 189.283 28.435C188.923 28.435 188.653 28.42 188.473 28.39C188.293 28.33 188.113 28.225 187.933 28.075C187.723 28.285 187.618 28.48 187.618 28.66C187.618 28.99 187.468 29.59 187.168 30.46C186.868 31.33 186.628 31.765 186.448 31.765C186.418 31.795 186.373 31.855 186.313 31.945C186.283 32.035 186.328 32.14 186.448 32.26C186.448 32.35 186.433 32.56 186.403 32.89C186.373 33.22 186.298 33.475 186.178 33.655C186.178 33.925 186.133 34.285 186.043 34.735C185.953 35.215 185.848 35.575 185.728 35.815C185.728 36.175 185.668 36.52 185.548 36.85C185.458 37.21 185.353 37.39 185.233 37.39C185.053 37.45 184.963 37.885 184.963 38.695C184.933 39.445 184.783 40.03 184.513 40.45C184.243 40.87 183.928 41.08 183.568 41.08L183.208 41.125ZM189.013 26.05C189.463 26.05 190.363 25.825 191.713 25.375C193.093 24.895 194.053 24.43 194.593 23.98C195.223 23.44 195.733 22.87 196.123 22.27C196.513 21.64 196.708 21.01 196.708 20.38C196.708 19.9 196.573 19.465 196.303 19.075C196.093 18.745 195.733 18.58 195.223 18.58C194.623 18.58 193.903 18.79 193.063 19.21C192.253 19.63 191.503 20.185 190.813 20.875C190.273 21.415 189.793 22.195 189.373 23.215C188.953 24.205 188.743 24.985 188.743 25.555C188.743 25.885 188.833 26.05 189.013 26.05ZM202.645 29.38C202.555 29.2 202.405 29.02 202.195 28.84C202.015 28.63 201.925 28.495 201.925 28.435C201.925 28.105 201.85 27.85 201.7 27.67C201.64 27.61 201.61 27.475 201.61 27.265C201.61 26.785 201.835 25.975 202.285 24.835C202.765 23.665 203.38 22.405 204.13 21.055C204.31 20.875 204.535 20.56 204.805 20.11C205.105 19.66 205.3 19.405 205.39 19.345C205.39 19.225 205.435 19.12 205.525 19.03C205.615 18.91 205.72 18.85 205.84 18.85V18.58C205.84 18.31 206.335 17.665 207.325 16.645C208.315 15.595 209.125 14.875 209.755 14.485C210.505 13.975 211.27 13.72 212.05 13.72C212.59 13.72 213.055 13.87 213.445 14.17C213.595 14.35 214.285 14.995 215.515 16.105L217.18 17.59L216.37 19.84C216.1 20.65 215.965 21.385 215.965 22.045C215.965 23.185 216.295 24.28 216.955 25.33C217.105 25.66 217.405 25.975 217.855 26.275C218.305 26.575 218.755 26.755 219.205 26.815C219.865 26.935 220.195 27.265 220.195 27.805C220.195 28.405 219.925 28.765 219.385 28.885C219.265 28.915 219.085 28.93 218.845 28.93C217.075 28.93 215.545 27.685 214.255 25.195C214.135 25.015 213.97 24.685 213.76 24.205C213.58 23.725 213.475 23.395 213.445 23.215C213.265 23.455 213.04 23.74 212.77 24.07C212.5 24.4 212.245 24.685 212.005 24.925C208.735 28.195 206.155 29.83 204.265 29.83C203.665 29.83 203.125 29.68 202.645 29.38ZM204.265 26.86C204.265 27.01 204.415 27.055 204.715 26.995C205.045 26.935 205.435 26.785 205.885 26.545C206.365 26.305 206.845 25.99 207.325 25.6C209.905 23.38 211.765 21.445 212.905 19.795L213.895 18.175C213.595 17.545 213.28 17.095 212.95 16.825C212.62 16.525 212.32 16.375 212.05 16.375C211.42 16.375 210.43 17.17 209.08 18.76C207.73 20.32 206.5 22.165 205.39 24.295C205.12 24.805 204.88 25.33 204.67 25.87C204.46 26.38 204.325 26.71 204.265 26.86ZM226.699 29.965C225.769 29.965 225.154 29.92 224.854 29.83C224.554 29.71 224.209 29.47 223.819 29.11C223.519 28.51 223.219 28.06 222.919 27.76C222.799 27.43 222.739 26.935 222.739 26.275C222.739 25.525 222.829 24.715 223.009 23.845C223.189 22.945 223.429 22.105 223.729 21.325C223.849 21.085 223.939 20.86 223.999 20.65C224.089 20.44 224.149 20.305 224.179 20.245C224.179 20.035 224.554 19.39 225.304 18.31C226.084 17.2 226.699 16.435 227.149 16.015C227.359 15.775 227.674 15.52 228.094 15.25C228.544 14.98 228.934 14.785 229.264 14.665C230.104 14.365 230.839 14.215 231.469 14.215C232.339 14.215 233.074 14.62 233.674 15.43C234.334 16.09 234.664 16.825 234.664 17.635C234.664 17.935 234.619 18.265 234.529 18.625C234.229 19.825 233.794 20.425 233.224 20.425C232.834 20.425 232.459 20.2 232.099 19.75C231.979 19.45 231.919 19.255 231.919 19.165C231.919 19.075 231.979 18.82 232.099 18.4C232.159 18.1 232.189 17.89 232.189 17.77C232.189 17.41 232.129 17.095 232.009 16.825C231.889 16.555 231.724 16.42 231.514 16.42C230.824 16.42 229.924 17.02 228.814 18.22C228.424 18.64 227.914 19.3 227.284 20.2C226.684 21.1 226.234 21.91 225.934 22.63C225.634 23.53 225.394 24.265 225.214 24.835C225.034 25.405 224.914 25.765 224.854 25.915C224.854 25.975 224.884 26.08 224.944 26.23C225.034 26.38 225.079 26.5 225.079 26.59C225.079 26.8 225.124 26.965 225.214 27.085C225.304 27.205 225.469 27.325 225.709 27.445C226.039 27.685 226.429 27.805 226.879 27.805C227.359 27.805 227.914 27.655 228.544 27.355C228.934 27.175 229.489 26.785 230.209 26.185L231.289 25.375C231.499 25.225 231.679 25.105 231.829 25.015C232.009 24.895 232.144 24.82 232.234 24.79C232.324 24.73 232.369 24.73 232.369 24.79C232.369 24.91 232.414 24.97 232.504 24.97C232.594 24.97 232.699 24.91 232.819 24.79C233.089 24.43 233.434 24.25 233.854 24.25C234.094 24.25 234.214 24.295 234.214 24.385L234.169 24.61C234.169 24.76 234.244 24.91 234.394 25.06C234.394 25.18 234.349 25.345 234.259 25.555C234.199 25.735 234.109 25.885 233.989 26.005C233.809 26.275 233.494 26.605 233.044 26.995C232.624 27.355 232.339 27.595 232.189 27.715H232.144C231.994 27.715 231.784 27.85 231.514 28.12C231.064 28.54 230.674 28.75 230.344 28.75C230.224 28.81 230.089 28.885 229.939 28.975C229.789 29.035 229.714 29.11 229.714 29.2C229.414 29.5 229.054 29.71 228.634 29.83C228.214 29.92 227.569 29.965 226.699 29.965ZM244.23 29.83C243.87 29.98 243.495 30.055 243.105 30.055C242.475 30.055 241.71 29.89 240.81 29.56C240.66 29.56 240.42 29.425 240.09 29.155C239.76 28.885 239.52 28.585 239.37 28.255C238.95 27.655 238.74 26.845 238.74 25.825C238.74 24.295 239.175 22.465 240.045 20.335C240.375 19.645 240.915 18.745 241.665 17.635C242.445 16.495 242.97 15.85 243.24 15.7C243.33 15.67 243.54 15.595 243.87 15.475C244.2 15.325 244.575 15.145 244.995 14.935C245.415 14.725 245.91 14.62 246.48 14.62C247.05 14.62 247.68 14.83 248.37 15.25C249.09 15.64 249.66 16.105 250.08 16.645C250.5 17.185 250.65 17.65 250.53 18.04C250.5 18.13 250.32 18.325 249.99 18.625C249.69 18.925 249.45 19.165 249.27 19.345C249.12 19.495 248.94 19.57 248.73 19.57C248.46 19.57 248.22 19.465 248.01 19.255C247.8 19.015 247.68 18.7 247.65 18.31C247.59 18.13 247.395 17.935 247.065 17.725C246.765 17.515 246.555 17.38 246.435 17.32C246.195 17.32 245.85 17.53 245.4 17.95C244.98 18.37 244.56 18.895 244.14 19.525C243.45 20.245 242.865 21.13 242.385 22.18C241.905 23.23 241.56 24.13 241.35 24.88C241.29 25 241.26 25.21 241.26 25.51C241.26 25.84 241.29 26.17 241.35 26.5C241.44 26.83 241.53 27.04 241.62 27.13C241.68 27.16 241.83 27.175 242.07 27.175C242.76 27.175 243.735 27.07 244.995 26.86C246.285 26.62 247.275 26.365 247.965 26.095C248.655 25.645 249.315 25.42 249.945 25.42C250.155 25.42 250.305 25.435 250.395 25.465C250.785 25.645 250.98 25.855 250.98 26.095C250.98 26.515 250.545 26.965 249.675 27.445C249.165 27.715 248.73 27.985 248.37 28.255C248.01 28.525 247.83 28.735 247.83 28.885C247.77 28.885 247.65 28.93 247.47 29.02C247.29 29.08 247.17 29.095 247.11 29.065C246.78 29.095 246.27 29.2 245.58 29.38C244.89 29.56 244.44 29.71 244.23 29.83ZM252.602 30.82C252.422 30.76 252.167 30.565 251.837 30.235C251.537 29.875 251.327 29.635 251.207 29.515C251.207 29.305 251.267 29.14 251.387 29.02C251.537 28.9 251.642 28.81 251.702 28.75C251.792 28.63 251.987 28.54 252.287 28.48C252.617 28.42 252.827 28.345 252.917 28.255C253.037 28.165 253.337 27.955 253.817 27.625C254.297 27.295 254.717 26.965 255.077 26.635C255.467 26.275 255.782 25.915 256.022 25.555C256.802 24.445 257.627 23.125 258.497 21.595C258.767 21.085 259.112 20.395 259.532 19.525C259.982 18.625 260.237 18.04 260.297 17.77L258.902 17.32C258.842 17.26 258.752 17.14 258.632 16.96C258.512 16.78 258.437 16.63 258.407 16.51C258.407 16.39 258.407 16.255 258.407 16.105C258.407 15.745 258.437 15.49 258.497 15.34C258.587 15.19 258.752 15.1 258.992 15.07C259.922 14.89 260.687 14.755 261.287 14.665C262.187 14.545 262.862 14.425 263.312 14.305C263.672 14.215 264.077 14.17 264.527 14.17C265.307 14.17 266.012 14.305 266.642 14.575C267.092 14.755 267.482 15.115 267.812 15.655C268.232 16.225 268.442 16.795 268.442 17.365C268.442 17.575 268.427 17.785 268.397 17.995C268.367 18.175 268.352 18.37 268.352 18.58C268.352 18.85 268.397 19.12 268.487 19.39C268.097 20.83 267.677 22.15 267.227 23.35C267.137 23.59 267.002 23.995 266.822 24.565C266.642 25.135 266.507 25.63 266.417 26.05C266.327 26.5 266.192 26.92 266.012 27.31C265.772 28 265.622 28.555 265.562 28.975C265.502 29.305 265.367 29.56 265.157 29.74C264.977 29.89 264.767 30.025 264.527 30.145C264.317 30.235 264.182 30.295 264.122 30.325C264.002 30.385 263.792 30.355 263.492 30.235C263.192 30.115 262.937 29.95 262.727 29.74C262.667 29.56 262.637 29.32 262.637 29.02C262.637 28.78 262.697 28.45 262.817 28.03C263.357 26.29 264.092 23.77 265.022 20.47L265.517 18.76C265.607 18.49 265.652 18.175 265.652 17.815C265.652 17.545 265.607 17.275 265.517 17.005C265.037 16.825 264.662 16.735 264.392 16.735C264.242 16.735 264.077 16.765 263.897 16.825C263.717 16.885 263.552 16.93 263.402 16.96C263.102 17.17 262.922 17.455 262.862 17.815C262.292 19.315 261.707 20.635 261.107 21.775C260.507 22.915 260.042 23.845 259.712 24.565C259.592 24.865 259.247 25.435 258.677 26.275C258.317 26.815 258.062 27.22 257.912 27.49L257.417 28.12C257.267 28.27 257.012 28.51 256.652 28.84C256.292 29.17 256.037 29.41 255.887 29.56L254.492 30.64C254.312 30.79 253.982 30.865 253.502 30.865C253.052 30.835 252.752 30.82 252.602 30.82ZM274.27 29.695C273.97 29.755 273.7 29.785 273.46 29.785C273.07 29.785 272.71 29.755 272.38 29.695C272.05 29.605 271.885 29.5 271.885 29.38C271.885 29.29 271.87 29.23 271.84 29.2C271.81 29.17 271.75 29.155 271.66 29.155C271.63 29.125 271.54 29.05 271.39 28.93C271.24 28.81 271.06 28.705 270.85 28.615C270.58 28.195 270.445 27.745 270.445 27.265C270.445 26.755 270.58 25.96 270.85 24.88C270.94 23.92 271.39 22.72 272.2 21.28C273.01 19.84 273.955 18.475 275.035 17.185C276.145 15.895 277.135 14.995 278.005 14.485C278.455 14.035 279.025 13.81 279.715 13.81C280.255 13.81 280.765 13.945 281.245 14.215C281.665 14.455 282.1 14.86 282.55 15.43C283.03 16 283.405 16.585 283.675 17.185C283.795 17.635 283.855 18.07 283.855 18.49C283.855 18.94 283.795 19.645 283.675 20.605C283.525 21.145 283.39 21.805 283.27 22.585C283.18 23.365 283.135 24.04 283.135 24.61C283.075 25.03 283.105 25.375 283.225 25.645C283.345 25.885 283.51 26.005 283.72 26.005C283.87 26.005 284.035 25.96 284.215 25.87C284.515 25.72 284.845 25.645 285.205 25.645C285.535 25.645 285.805 25.735 286.015 25.915C286.225 26.095 286.33 26.365 286.33 26.725C286.33 27.265 285.955 27.805 285.205 28.345C284.485 28.885 283.795 29.155 283.135 29.155C282.685 29.155 282.265 28.81 281.875 28.12C281.515 27.4 281.155 26.485 280.795 25.375L280.525 24.34L278.59 26.185L277.555 27.22C277.075 27.7 276.805 27.985 276.745 28.075C276.415 28.645 275.59 29.185 274.27 29.695ZM274.405 27.04C275.125 26.62 276.01 25.885 277.06 24.835C278.11 23.785 278.98 22.78 279.67 21.82C280.6 20.59 281.185 19.375 281.425 18.175C281.305 17.815 281.11 17.455 280.84 17.095C280.57 16.735 280.33 16.54 280.12 16.51C279.52 16.51 278.89 16.855 278.23 17.545C277.57 18.235 276.79 19.195 275.89 20.425L274.405 22.63C274.225 22.87 273.91 23.515 273.46 24.565C273.01 25.585 272.785 26.2 272.785 26.41C272.785 27.07 272.98 27.4 273.37 27.4C273.67 27.4 274.015 27.28 274.405 27.04ZM303.132 5.35C303.012 5.17 302.847 4.93 302.637 4.63C302.457 4.33 302.262 4.12 302.052 4C301.842 3.88 301.527 3.805 301.107 3.775C300.447 3.715 299.952 3.685 299.622 3.685C299.322 3.685 299.097 3.7 298.947 3.73C298.467 3.79 297.792 3.91 296.922 4.09C296.082 4.27 295.542 4.405 295.302 4.495C295.032 4.585 294.627 4.75 294.087 4.99L292.827 5.53C292.647 5.56 292.512 5.65 292.422 5.8C292.332 5.92 292.287 6.07 292.287 6.25C292.287 6.4 292.347 6.595 292.467 6.835C292.587 7.045 292.827 7.33 293.187 7.69C293.157 7.63 293.352 7.87 293.772 8.41C294.222 9.01 294.717 9.895 295.257 11.065C295.797 12.205 295.992 13 295.842 13.45C295.602 13.39 295.287 13.36 294.897 13.36C294.567 13.36 294.297 13.375 294.087 13.405C293.097 13.975 292.092 15.1 291.072 16.78C290.052 18.43 289.257 20.215 288.687 22.135C288.267 23.545 288.057 24.865 288.057 26.095C288.057 28.135 288.672 29.515 289.902 30.235C290.322 30.475 290.697 30.655 291.027 30.775C291.357 30.895 291.702 30.94 292.062 30.91C292.602 31.12 293.262 30.775 294.042 29.875C294.852 28.975 295.827 27.52 296.967 25.51L297.912 22.675C298.152 22.105 298.317 21.64 298.407 21.28C298.497 20.92 298.542 20.44 298.542 19.84L298.587 19.48C298.617 19.3 298.677 19.06 298.767 18.76C298.887 18.43 298.947 18.16 298.947 17.95L298.857 17.41C298.917 17.23 298.947 17.035 298.947 16.825C298.947 16.405 298.887 15.895 298.767 15.295C298.647 14.695 298.527 14.26 298.407 13.99C298.407 13.57 298.332 13.12 298.182 12.64C298.062 12.16 297.912 11.71 297.732 11.29C297.642 11.23 297.597 11.125 297.597 10.975C297.597 10.825 297.582 10.705 297.552 10.615C297.192 9.985 296.847 9.445 296.517 8.995C295.917 8.095 295.527 7.465 295.347 7.105C295.467 6.985 295.737 6.895 296.157 6.835C296.577 6.745 296.847 6.67 296.967 6.61C297.267 6.46 297.717 6.385 298.317 6.385C298.917 6.385 299.532 6.445 300.162 6.565C300.822 6.685 301.317 6.82 301.647 6.97C301.767 7.03 301.917 7.075 302.097 7.105C302.277 7.105 302.412 7.105 302.502 7.105C302.712 6.985 302.862 6.7 302.952 6.25C303.042 5.77 303.102 5.47 303.132 5.35ZM295.482 15.115C295.992 15.625 296.247 16.51 296.247 17.77C296.247 18.52 296.157 19.285 295.977 20.065C295.827 20.845 295.647 21.475 295.437 21.955C295.227 22.405 295.077 22.885 294.987 23.395C294.747 23.755 294.372 24.415 293.862 25.375C293.622 25.855 293.337 26.365 293.007 26.905C292.707 27.415 292.317 27.955 291.837 28.525L290.937 27.715C290.787 27.145 290.712 26.695 290.712 26.365C290.712 26.275 290.742 25.93 290.802 25.33C290.952 24.16 291.357 22.735 292.017 21.055C292.677 19.375 293.367 18.175 294.087 17.455C294.327 17.215 294.612 16.84 294.942 16.33C295.272 15.79 295.452 15.385 295.482 15.115ZM300.321 29.605C300.171 29.725 299.961 29.785 299.691 29.785C299.271 29.785 298.776 29.68 298.206 29.47L297.891 28.66C297.831 28.24 297.771 27.955 297.711 27.805C298.041 27.475 298.206 27.31 298.206 27.31H299.196C299.286 27.28 299.406 27.19 299.556 27.04C299.706 26.89 299.856 26.815 300.006 26.815C301.056 26.155 302.091 24.925 303.111 23.125C304.161 21.295 305.241 19.165 306.351 16.735L306.756 15.88L306.711 15.655C306.531 15.715 306.291 15.775 305.991 15.835C305.721 15.895 305.496 15.955 305.316 16.015L305.046 16.195C304.836 16.375 304.551 16.465 304.191 16.465C303.861 16.465 303.546 16.39 303.246 16.24C302.976 16.09 302.781 15.895 302.661 15.655C302.451 15.325 302.316 15.115 302.256 15.025C302.376 14.755 302.571 14.5 302.841 14.26C303.111 13.99 303.381 13.825 303.651 13.765C305.151 13.405 306.471 13.225 307.611 13.225C308.721 13.225 309.801 13.42 310.851 13.81C310.941 13.84 311.061 13.87 311.211 13.9C311.361 13.93 311.496 13.99 311.616 14.08C312.096 14.44 312.441 14.725 312.651 14.935C313.041 15.295 313.281 15.73 313.371 16.24C313.461 16.6 313.506 16.975 313.506 17.365C313.506 17.545 313.476 17.815 313.416 18.175C313.296 18.685 312.891 20.14 312.201 22.54L311.886 23.53C311.316 25.42 310.746 27.355 310.176 29.335C309.936 29.395 309.756 29.425 309.636 29.425C309.066 29.425 308.556 29.155 308.106 28.615C307.986 28.255 307.926 27.895 307.926 27.535C307.926 27.115 308.031 26.695 308.241 26.275C308.331 26.095 308.406 25.855 308.466 25.555C308.556 25.255 308.616 25.045 308.646 24.925C308.826 23.995 309.036 23.38 309.276 23.08C309.336 22.96 309.366 22.855 309.366 22.765C309.366 22.465 309.636 21.385 310.176 19.525C310.596 18.055 310.836 17.17 310.896 16.87C310.926 16.81 310.941 16.72 310.941 16.6C310.941 16.48 310.926 16.375 310.896 16.285C310.866 16.165 310.851 16.03 310.851 15.88C310.491 15.7 310.116 15.61 309.726 15.61C309.336 15.61 309.081 15.76 308.961 16.06L308.826 16.465C308.676 16.975 308.421 17.56 308.061 18.22C307.431 19.54 306.996 20.62 306.756 21.46C306.726 21.64 306.651 21.835 306.531 22.045C306.441 22.225 306.381 22.36 306.351 22.45C306.171 22.72 306.036 23.005 305.946 23.305C305.946 23.365 305.931 23.425 305.901 23.485C305.871 23.515 305.841 23.545 305.811 23.575C305.721 23.725 305.361 24.295 304.731 25.285C303.921 26.575 302.451 28.015 300.321 29.605ZM318.288 29.92C317.328 29.53 316.653 29.035 316.263 28.435C315.873 27.805 315.678 26.935 315.678 25.825C315.678 25.285 315.723 24.655 315.813 23.935L315.903 22.315C315.903 22.045 315.873 21.835 315.813 21.685C315.753 21.535 315.618 21.37 315.408 21.19C315.348 21.13 315.198 20.98 314.958 20.74C314.718 20.5 314.613 20.305 314.643 20.155L314.598 19.93C314.598 19.72 314.628 19.525 314.688 19.345C314.778 19.165 314.868 19.075 314.958 19.075C315.048 19.075 315.168 19.06 315.318 19.03C315.468 18.97 315.603 18.955 315.723 18.985C316.143 18.985 316.353 19.075 316.353 19.255C316.473 19.495 316.668 19.525 316.938 19.345C317.238 19.135 317.523 18.745 317.793 18.175C318.213 17.515 318.828 16.825 319.638 16.105C320.478 15.355 321.168 14.83 321.708 14.53C321.918 14.41 322.263 14.305 322.743 14.215C323.223 14.095 323.643 14.035 324.003 14.035C324.543 14.035 325.008 14.155 325.398 14.395C325.818 14.635 326.238 14.98 326.658 15.43C327.228 15.85 327.513 16.51 327.513 17.41C327.513 18.04 327.363 18.685 327.063 19.345C326.943 19.795 326.463 20.365 325.623 21.055C324.813 21.745 324.063 22.225 323.373 22.495C322.533 22.705 321.573 22.81 320.493 22.81C319.773 22.81 319.308 22.75 319.098 22.63C318.738 22.42 318.483 23.23 318.333 25.06C318.303 25.27 318.288 25.555 318.288 25.915C318.288 26.425 318.363 26.83 318.513 27.13C318.543 27.16 318.648 27.28 318.828 27.49C319.008 27.67 319.233 27.835 319.503 27.985C319.773 28.105 320.058 28.165 320.358 28.165C320.628 28.165 320.838 28.135 320.988 28.075C321.318 27.985 321.633 27.82 321.933 27.58C322.233 27.31 322.653 26.905 323.193 26.365C323.673 25.885 324.018 25.555 324.228 25.375C324.378 25.105 324.678 24.97 325.128 24.97C325.248 24.97 325.458 25 325.758 25.06C326.028 25.27 326.163 25.495 326.163 25.735C326.163 25.975 326.013 26.425 325.713 27.085C325.563 27.385 325.188 27.805 324.588 28.345C324.018 28.855 323.508 29.26 323.058 29.56C322.128 30.07 321.198 30.325 320.268 30.325C319.698 30.325 319.038 30.19 318.288 29.92ZM320.943 20.785C321.243 20.725 321.678 20.65 322.248 20.56C322.818 20.47 323.283 20.275 323.643 19.975C324.033 19.645 324.483 19.09 324.993 18.31C325.083 18.07 325.128 17.83 325.128 17.59C325.128 17.14 325.038 16.825 324.858 16.645C324.648 16.435 324.408 16.33 324.138 16.33C323.718 16.33 323.283 16.51 322.833 16.87C322.533 16.96 322.083 17.29 321.483 17.86C320.913 18.43 320.418 19 319.998 19.57C319.578 20.11 319.443 20.425 319.593 20.515C319.533 20.605 319.683 20.68 320.043 20.74C320.403 20.77 320.703 20.785 320.943 20.785ZM343.181 15.025C343.511 14.845 343.841 14.755 344.171 14.755C344.591 14.755 344.951 14.89 345.251 15.16C345.581 15.4 345.746 15.715 345.746 16.105C345.746 16.165 345.716 16.315 345.656 16.555C345.746 16.165 345.431 16.81 344.711 18.49C343.991 20.17 343.601 21.07 343.541 21.19V21.325C343.961 21.325 344.231 21.46 344.351 21.73C344.501 21.97 344.561 22.3 344.531 22.72C344.261 22.78 344.006 22.885 343.766 23.035C343.526 23.185 343.331 23.26 343.181 23.26C343.091 23.26 342.986 23.305 342.866 23.395C342.746 23.485 342.671 23.59 342.641 23.71C342.581 23.83 342.476 24.295 342.326 25.105L341.516 28.345C341.456 28.555 341.351 28.735 341.201 28.885C341.051 29.035 340.916 29.125 340.796 29.155C340.676 29.125 340.436 29.05 340.076 28.93C339.746 28.78 339.521 28.675 339.401 28.615C339.281 28.525 339.161 28.435 339.041 28.345V28.075C339.041 27.655 339.116 27.22 339.266 26.77C339.506 26.05 339.746 25.045 339.986 23.755C339.746 23.665 339.146 23.71 338.186 23.89C337.226 24.04 336.701 24.115 336.611 24.115C336.431 24.205 336.071 24.25 335.531 24.25C334.661 24.25 334.046 24.175 333.686 24.025L333.416 24.16C333.356 24.43 333.266 24.73 333.146 25.06C332.816 25.99 332.651 26.68 332.651 27.13C332.591 27.55 332.531 27.895 332.471 28.165C332.411 28.465 332.351 28.915 332.291 29.515C332.261 30.355 331.976 30.775 331.436 30.775C331.106 30.775 330.746 30.655 330.356 30.415C330.146 30.295 329.861 30.055 329.501 29.695L330.221 26.23C330.311 25.96 330.401 25.585 330.491 25.105C330.611 24.625 330.731 24.235 330.851 23.935L331.346 22.54C331.706 21.49 332.036 20.635 332.336 19.975C332.336 19.975 332.651 19.09 333.281 17.32C333.371 17.11 333.566 16.54 333.866 15.61C334.196 14.65 334.391 14.095 334.451 13.945C334.571 13.615 334.811 13.45 335.171 13.45C335.651 13.42 336.056 13.54 336.386 13.81C336.746 14.05 336.941 14.35 336.971 14.71C336.971 14.8 336.956 14.95 336.926 15.16C336.896 15.34 336.866 15.475 336.836 15.565L334.496 21.28V21.64C334.616 21.73 334.826 21.775 335.126 21.775C335.366 21.775 335.726 21.73 336.206 21.64C336.716 21.55 337.031 21.505 337.151 21.505C337.421 21.475 337.826 21.445 338.366 21.415C338.906 21.385 339.446 21.37 339.986 21.37C340.406 21.37 340.631 21.385 340.661 21.415L341.156 19.975C341.636 18.505 342.146 17.32 342.686 16.42C342.716 16.33 342.776 16.165 342.866 15.925C342.956 15.655 343.061 15.355 343.181 15.025ZM359.071 30.91C358.351 30.22 357.811 29.2 357.451 27.85C357.391 27.67 357.361 27.355 357.361 26.905C357.361 26.455 357.361 26.14 357.361 25.96C357.181 26.41 356.851 26.815 356.371 27.175C355.681 27.865 354.991 28.375 354.301 28.705C353.251 29.395 352.396 29.74 351.736 29.74C351.136 29.74 350.566 29.41 350.026 28.75C349.636 28.42 349.336 28.09 349.126 27.76C348.946 27.43 348.856 27.025 348.856 26.545C348.856 26.215 348.901 25.855 348.991 25.465C349.051 24.355 349.201 23.29 349.441 22.27C349.711 21.25 350.206 19.945 350.926 18.355C351.886 16.465 352.576 15.205 352.996 14.575C353.146 14.515 353.341 14.485 353.581 14.485C353.881 14.485 354.121 14.575 354.301 14.755C354.511 14.935 354.631 15.175 354.661 15.475C354.751 15.595 354.796 15.76 354.796 15.97C354.796 16.72 354.346 17.95 353.446 19.66C352.276 22.48 351.691 24.43 351.691 25.51C351.691 26.14 351.871 26.515 352.231 26.635C352.381 26.725 352.546 26.77 352.726 26.77C353.476 26.77 354.376 26.26 355.426 25.24C356.476 24.22 357.481 22.585 358.441 20.335C358.861 19.315 359.116 18.265 359.206 17.185C359.176 17.095 359.161 16.96 359.161 16.78C359.161 16.24 359.431 15.805 359.971 15.475C360.091 15.295 360.256 15.16 360.466 15.07C360.676 14.95 360.811 14.95 360.871 15.07L361.591 15.025C361.681 14.995 361.771 15.085 361.861 15.295C361.951 15.475 362.041 15.595 362.131 15.655C362.341 15.835 362.446 16.165 362.446 16.645C362.446 17.635 362.011 19.15 361.141 21.19C360.571 22.39 360.181 23.32 359.971 23.98C359.791 24.61 359.686 25.225 359.656 25.825C359.656 26.965 360.091 27.91 360.961 28.66C361.261 28.87 361.441 29.095 361.501 29.335C361.561 29.575 361.576 29.905 361.546 30.325C361.486 30.595 361.306 30.82 361.006 31C360.736 31.15 360.436 31.225 360.106 31.225C359.716 31.225 359.371 31.12 359.071 30.91ZM369.292 31.135C368.002 31.135 366.937 30.655 366.097 29.695C365.257 28.735 364.837 27.535 364.837 26.095C364.837 24.655 365.152 23.08 365.782 21.37C366.442 19.63 367.282 18.07 368.302 16.69C369.322 15.31 370.357 14.38 371.407 13.9C372.007 13.57 372.682 13.405 373.432 13.405C374.002 13.405 374.647 13.57 375.367 13.9C375.877 14.11 376.267 14.365 376.537 14.665C376.807 14.965 377.047 15.43 377.257 16.06C377.347 16.6 377.392 16.975 377.392 17.185C377.392 17.365 377.317 17.755 377.167 18.355C376.807 19.465 376.327 20.41 375.727 21.19C375.157 21.94 374.407 22.585 373.477 23.125C372.997 23.425 372.397 23.575 371.677 23.575C371.047 23.575 370.447 23.47 369.877 23.26C369.337 23.02 368.917 22.675 368.617 22.225L368.302 21.865L368.167 22.225C367.537 23.845 367.222 25.225 367.222 26.365C367.222 27.145 367.372 27.775 367.672 28.255C367.882 28.585 368.392 28.75 369.202 28.75C369.802 28.75 370.237 28.69 370.507 28.57C370.957 28.42 371.347 28.24 371.677 28.03C372.037 27.79 372.382 27.55 372.712 27.31L372.892 27.22H372.847C373.207 27.04 373.507 26.875 373.747 26.725C373.987 26.575 374.152 26.47 374.242 26.41C374.302 26.41 374.362 26.395 374.422 26.365C374.482 26.335 374.542 26.275 374.602 26.185C374.872 26.065 375.187 26.11 375.547 26.32C375.907 26.53 376.087 26.8 376.087 27.13C376.027 27.37 375.757 27.76 375.277 28.3C374.797 28.84 374.437 29.125 374.197 29.155C374.167 29.155 374.062 29.2 373.882 29.29C373.702 29.38 373.582 29.455 373.522 29.515H373.567C373.297 29.875 373.027 30.055 372.757 30.055H372.397C372.277 30.295 371.872 30.535 371.182 30.775C370.522 31.015 369.892 31.135 369.292 31.135ZM371.317 21.235C372.217 21.235 373.042 20.725 373.792 19.705C374.512 18.745 374.872 17.785 374.872 16.825C374.872 16.315 374.767 15.955 374.557 15.745C374.377 15.655 374.212 15.61 374.062 15.61C373.912 15.61 373.657 15.655 373.297 15.745C372.907 15.835 372.307 16.255 371.497 17.005C370.687 17.725 370.087 18.37 369.697 18.94L369.112 19.885C369.352 19.795 369.577 19.75 369.787 19.75C370.027 19.72 370.162 19.735 370.192 19.795C370.192 20.215 370.297 20.56 370.507 20.83C370.717 21.1 370.987 21.235 371.317 21.235ZM394.419 30.595C394.149 30.355 393.969 30.205 393.879 30.145C393.789 30.085 393.519 29.995 393.069 29.875C393.009 29.665 392.829 29.275 392.529 28.705C392.139 28.165 391.929 27.7 391.899 27.31V27.085V26.86C391.899 26.53 391.824 26.29 391.674 26.14C391.824 26.02 391.854 25.84 391.764 25.6C391.674 25.33 391.689 25.135 391.809 25.015L391.854 24.7C391.764 24.55 391.719 24.34 391.719 24.07C391.719 23.59 391.869 22.63 392.169 21.19C392.469 19.81 392.589 18.985 392.529 18.715L391.674 17.95C391.734 17.5 391.809 17.17 391.899 16.96C391.989 16.72 392.199 16.525 392.529 16.375L392.844 16.51C392.964 16.48 393.054 16.45 393.114 16.42C393.204 16.36 393.279 16.315 393.339 16.285C393.849 15.325 394.329 14.125 394.779 12.685C394.959 12.115 395.184 11.515 395.454 10.885C395.754 10.225 396.054 9.7 396.354 9.31C396.534 9.1 396.699 8.845 396.849 8.545C396.999 8.245 397.104 8.035 397.164 7.915C397.554 7.105 398.184 6.19 399.054 5.17C399.954 4.15 400.779 3.415 401.529 2.965C401.979 2.665 402.369 2.485 402.699 2.425C403.029 2.365 403.539 2.32 404.229 2.29C404.619 2.53 405.009 2.86 405.399 3.28C405.789 3.67 405.984 4.03 405.984 4.36V5.035C405.984 5.545 405.909 5.95 405.759 6.25C405.789 6.52 405.714 6.955 405.534 7.555C405.414 7.825 405.324 8.125 405.264 8.455C404.514 10.015 403.839 11.245 403.239 12.145C402.639 13.015 401.979 13.795 401.259 14.485C400.569 15.145 399.429 16.12 397.839 17.41C399.129 17.8 399.789 18.52 399.819 19.57C399.819 19.66 399.804 19.825 399.774 20.065C399.774 20.275 399.789 20.455 399.819 20.605L399.909 21.685C399.909 21.925 399.939 22.285 399.999 22.765C400.089 23.425 400.029 24.295 399.819 25.375C399.789 25.465 399.744 25.54 399.684 25.6C399.654 25.66 399.639 25.735 399.639 25.825C399.639 26.155 399.579 26.455 399.459 26.725C399.369 26.965 399.234 27.235 399.054 27.535C398.904 27.805 398.769 28.06 398.649 28.3C398.589 28.42 398.469 28.555 398.289 28.705C398.109 28.825 397.974 28.945 397.884 29.065C397.524 29.485 397.164 29.77 396.804 29.92C396.444 30.07 395.979 30.205 395.409 30.325C394.989 30.385 394.689 30.445 394.509 30.505L394.419 30.595ZM397.029 14.8L399.279 12.955C399.399 12.895 399.699 12.535 400.179 11.875C400.659 11.215 400.944 10.795 401.034 10.615C401.364 10.345 401.724 9.775 402.114 8.905C402.504 8.005 402.819 7.09 403.059 6.16C403.299 5.2 403.389 4.495 403.329 4.045L403.014 4.18C402.564 4.75 401.919 5.515 401.079 6.475C400.089 7.585 399.189 8.845 398.379 10.255C397.599 11.665 396.984 13.09 396.534 14.53L397.029 14.8ZM395.499 27.76C396.249 27.01 396.744 26.23 396.984 25.42C397.224 24.58 397.344 23.56 397.344 22.36V20.785C397.344 20.695 397.314 20.56 397.254 20.38C397.224 20.2 397.239 20.05 397.299 19.93C397.239 19.75 397.119 19.42 396.939 18.94C396.789 18.46 396.564 18.07 396.264 17.77C396.024 17.89 395.829 18.025 395.679 18.175C395.529 18.325 395.334 18.58 395.094 18.94C394.914 19.3 394.734 20.065 394.554 21.235C394.404 22.375 394.329 23.485 394.329 24.565C394.329 26.215 394.524 27.28 394.914 27.76H395.499ZM420.846 29.83C420.486 29.98 420.111 30.055 419.721 30.055C419.091 30.055 418.326 29.89 417.426 29.56C417.276 29.56 417.036 29.425 416.706 29.155C416.376 28.885 416.136 28.585 415.986 28.255C415.566 27.655 415.356 26.845 415.356 25.825C415.356 24.295 415.791 22.465 416.661 20.335C416.991 19.645 417.531 18.745 418.281 17.635C419.061 16.495 419.586 15.85 419.856 15.7C419.946 15.67 420.156 15.595 420.486 15.475C420.816 15.325 421.191 15.145 421.611 14.935C422.031 14.725 422.526 14.62 423.096 14.62C423.666 14.62 424.296 14.83 424.986 15.25C425.706 15.64 426.276 16.105 426.696 16.645C427.116 17.185 427.266 17.65 427.146 18.04C427.116 18.13 426.936 18.325 426.606 18.625C426.306 18.925 426.066 19.165 425.886 19.345C425.736 19.495 425.556 19.57 425.346 19.57C425.076 19.57 424.836 19.465 424.626 19.255C424.416 19.015 424.296 18.7 424.266 18.31C424.206 18.13 424.011 17.935 423.681 17.725C423.381 17.515 423.171 17.38 423.051 17.32C422.811 17.32 422.466 17.53 422.016 17.95C421.596 18.37 421.176 18.895 420.756 19.525C420.066 20.245 419.481 21.13 419.001 22.18C418.521 23.23 418.176 24.13 417.966 24.88C417.906 25 417.876 25.21 417.876 25.51C417.876 25.84 417.906 26.17 417.966 26.5C418.056 26.83 418.146 27.04 418.236 27.13C418.296 27.16 418.446 27.175 418.686 27.175C419.376 27.175 420.351 27.07 421.611 26.86C422.901 26.62 423.891 26.365 424.581 26.095C425.271 25.645 425.931 25.42 426.561 25.42C426.771 25.42 426.921 25.435 427.011 25.465C427.401 25.645 427.596 25.855 427.596 26.095C427.596 26.515 427.161 26.965 426.291 27.445C425.781 27.715 425.346 27.985 424.986 28.255C424.626 28.525 424.446 28.735 424.446 28.885C424.386 28.885 424.266 28.93 424.086 29.02C423.906 29.08 423.786 29.095 423.726 29.065C423.396 29.095 422.886 29.2 422.196 29.38C421.506 29.56 421.056 29.71 420.846 29.83ZM435.068 30.865C434.978 30.865 434.678 30.88 434.168 30.91C433.688 30.91 433.223 30.805 432.773 30.595C432.323 30.355 431.948 29.995 431.648 29.515C431.438 29.125 431.258 28.675 431.108 28.165C430.958 27.655 430.883 27.22 430.883 26.86C430.883 26.71 430.913 26.545 430.973 26.365C431.543 23.065 432.008 20.98 432.368 20.11L433.088 18.355C433.238 17.875 433.283 17.335 433.223 16.735V16.555C433.223 16.165 433.373 15.835 433.673 15.565C434.183 15.175 434.588 14.665 434.888 14.035C435.098 13.525 435.428 12.835 435.878 11.965C436.328 11.095 436.658 10.525 436.868 10.255C437.198 9.805 437.498 9.37 437.768 8.95C437.828 8.86 438.038 8.545 438.398 8.005C438.788 7.435 439.223 6.955 439.703 6.565C440.273 5.605 441.398 4.45 443.078 3.1C443.798 2.5 444.248 2.11 444.428 1.93C444.518 1.84 444.788 1.75 445.238 1.66C445.688 1.54 445.973 1.465 446.093 1.435C446.333 1.375 446.738 1.27 447.308 1.12C447.488 1.03 447.818 1.105 448.298 1.345C448.808 1.555 449.183 1.795 449.423 2.065C449.903 2.905 450.143 3.565 450.143 4.045C450.143 4.435 450.053 4.87 449.873 5.35C449.693 5.83 449.348 6.61 448.838 7.69C447.758 9.85 445.793 11.905 442.943 13.855C441.863 14.815 440.648 15.655 439.298 16.375C438.308 16.885 437.498 17.245 436.868 17.455C436.388 17.605 436.043 17.95 435.833 18.49C435.713 18.76 435.608 19.09 435.518 19.48C435.458 19.87 435.368 20.125 435.248 20.245C435.068 20.425 434.768 21.43 434.348 23.26C433.928 25.09 433.718 26.335 433.718 26.995C433.718 27.235 433.748 27.445 433.808 27.625C433.868 27.805 434.003 27.94 434.213 28.03C434.633 27.94 434.963 27.805 435.203 27.625C435.473 27.415 435.803 27.085 436.193 26.635C437.033 25.585 437.633 24.58 437.993 23.62C438.083 23.35 438.173 23.005 438.263 22.585C438.353 22.135 438.458 21.79 438.578 21.55C438.578 20.5 438.563 19.825 438.533 19.525C438.503 19.195 438.398 18.805 438.218 18.355C438.368 18.265 438.488 18.175 438.578 18.085C438.698 17.965 438.848 17.92 439.028 17.95C439.718 18.1 440.423 18.52 441.143 19.21C441.353 19.42 441.413 19.675 441.323 19.975C441.203 20.935 441.143 21.625 441.143 22.045C441.053 22.255 440.903 22.72 440.693 23.44C440.663 23.83 440.573 24.205 440.423 24.565C439.883 25.675 439.493 26.425 439.253 26.815C438.593 28.045 437.693 29.095 436.553 29.965L435.068 30.865ZM437.138 14.26C437.288 14.29 437.468 14.305 437.678 14.305C437.978 14.305 438.233 14.155 438.443 13.855C440.633 12.415 442.478 11.02 443.978 9.67C445.508 8.29 446.453 7.12 446.813 6.16C446.933 5.92 447.098 5.62 447.308 5.26C447.518 4.87 447.653 4.51 447.713 4.18L447.533 2.92C446.663 3.31 445.973 3.685 445.463 4.045C444.983 4.375 444.368 4.915 443.618 5.665C442.868 6.415 441.728 7.765 440.198 9.715C438.698 11.665 437.678 13.18 437.138 14.26ZM449.277 30.73C448.917 30.76 448.617 30.745 448.377 30.685C448.167 30.595 447.852 30.415 447.432 30.145C446.142 29.095 445.512 28.06 445.542 27.04C445.572 26.95 445.587 26.815 445.587 26.635C445.587 26.455 445.572 26.32 445.542 26.23C445.512 26.11 445.497 26.035 445.497 26.005C445.377 25.915 445.302 25.855 445.272 25.825C445.272 25.765 445.287 25.705 445.317 25.645C445.377 25.585 445.422 25.525 445.452 25.465C445.572 25.435 445.632 25.375 445.632 25.285C445.632 25.195 445.602 25.09 445.542 24.97C445.452 24.73 445.497 24.19 445.677 23.35C445.887 22.48 446.157 21.67 446.487 20.92C446.727 20.35 447.102 19.615 447.612 18.715C448.152 17.815 448.647 17.125 449.097 16.645C449.727 15.925 450.297 15.37 450.807 14.98C451.347 14.59 451.962 14.275 452.652 14.035C453.282 13.765 453.717 13.63 453.957 13.63C454.257 13.63 454.632 13.81 455.082 14.17C455.802 14.38 456.342 14.68 456.702 15.07C457.092 15.43 457.392 16 457.602 16.78C457.782 17.41 457.872 18.115 457.872 18.895C457.872 20.575 457.347 22.42 456.297 24.43C455.757 25.51 455.232 26.35 454.722 26.95C454.212 27.52 453.507 28.195 452.607 28.975C451.977 29.485 451.422 29.875 450.942 30.145C450.492 30.415 449.937 30.61 449.277 30.73ZM452.877 25.375C453.507 24.445 453.987 23.605 454.317 22.855C454.647 22.075 454.917 21.115 455.127 19.975C455.157 19.855 455.172 19.615 455.172 19.255C455.172 18.655 455.112 18.085 454.992 17.545C454.872 17.005 454.722 16.72 454.542 16.69C454.302 16.6 454.077 16.555 453.867 16.555C453.177 16.555 452.442 16.96 451.662 17.77C450.942 18.61 450.312 19.63 449.772 20.83C449.262 22 448.752 23.44 448.242 25.15C448.092 25.75 448.017 26.23 448.017 26.59C448.017 27.13 448.122 27.565 448.332 27.895C448.542 28.195 448.842 28.345 449.232 28.345C449.712 28.345 450.267 28.105 450.897 27.625C451.527 27.115 452.187 26.365 452.877 25.375ZM468.517 29.425C467.767 30.085 466.867 30.415 465.817 30.415C465.067 30.415 464.347 30.235 463.657 29.875C462.997 29.515 462.442 29.02 461.992 28.39C461.602 27.91 461.317 27.37 461.137 26.77C460.957 26.17 460.867 25.435 460.867 24.565C460.867 24.265 460.897 23.665 460.957 22.765C461.047 21.655 461.407 20.5 462.037 19.3C462.697 18.1 463.507 17.035 464.467 16.105C465.427 15.145 466.372 14.485 467.302 14.125C467.782 13.825 468.217 13.675 468.607 13.675C468.817 13.675 469.027 13.69 469.237 13.72C469.447 13.75 469.672 13.78 469.912 13.81C470.572 13.9 471.067 14.035 471.397 14.215C471.757 14.365 472.057 14.605 472.297 14.935C473.047 15.685 473.422 16.555 473.422 17.545C473.302 18.265 472.837 19.09 472.027 20.02C471.217 20.95 470.242 21.7 469.102 22.27C468.562 22.45 467.947 22.54 467.257 22.54C466.327 22.54 465.577 22.345 465.007 21.955C464.737 21.865 464.527 21.82 464.377 21.82C464.107 21.82 463.897 22 463.747 22.36C463.627 22.72 463.507 23.38 463.387 24.34C463.357 24.55 463.342 24.85 463.342 25.24C463.342 26.77 463.852 27.61 464.872 27.76C465.562 27.91 466.057 27.985 466.357 27.985C466.717 27.985 467.122 27.865 467.572 27.625L468.427 27.13C468.607 27.04 468.772 26.92 468.922 26.77C469.072 26.62 469.207 26.485 469.327 26.365C469.387 26.305 469.477 26.215 469.597 26.095C469.717 25.945 469.822 25.855 469.912 25.825C470.032 25.765 470.137 25.735 470.227 25.735C470.347 25.735 470.482 25.81 470.632 25.96C470.782 26.08 470.902 26.17 470.992 26.23C471.262 26.23 471.322 26.425 471.172 26.815C471.022 27.175 470.692 27.61 470.182 28.12C469.702 28.6 469.147 29.035 468.517 29.425ZM468.472 19.885C468.982 19.675 469.492 19.3 470.002 18.76C470.542 18.22 470.812 17.77 470.812 17.41C470.812 17.05 470.677 16.75 470.407 16.51C470.137 16.27 469.762 16.15 469.282 16.15C468.922 16.15 468.652 16.18 468.472 16.24C468.052 16.36 467.557 16.69 466.987 17.23C466.417 17.74 465.922 18.265 465.502 18.805C465.082 19.345 464.917 19.66 465.007 19.75C465.157 20.02 465.742 20.155 466.762 20.155C467.452 20.155 468.022 20.065 468.472 19.885ZM496.38 30.1C496.08 30.16 495.87 30.19 495.75 30.19C495.3 30.19 494.865 30.055 494.445 29.785C494.385 29.665 494.295 29.5 494.175 29.29C494.055 29.05 493.965 28.84 493.905 28.66C493.875 28.45 493.89 28.27 493.95 28.12C494.01 27.97 494.055 27.745 494.085 27.445C494.145 27.115 494.19 26.875 494.22 26.725C494.28 25.855 494.385 25.255 494.535 24.925C494.595 24.805 494.625 24.7 494.625 24.61C494.655 24.34 494.745 23.95 494.895 23.44C495.045 22.9 495.135 22.54 495.165 22.36C495.225 22.03 495.3 21.475 495.39 20.695C495.51 19.915 495.57 19.375 495.57 19.075C495.57 18.985 495.615 18.865 495.705 18.715C495.795 18.565 495.795 18.415 495.705 18.265C494.925 19.015 493.965 20.05 492.825 21.37C491.715 22.66 490.92 23.71 490.44 24.52C490.47 24.46 490.32 24.655 489.99 25.105C489.9 25.225 489.75 25.39 489.54 25.6C489.36 25.78 489.225 25.975 489.135 26.185C488.835 26.485 488.475 26.905 488.055 27.445C487.455 28.165 486.96 28.69 486.57 29.02C486.33 29.08 486.09 29.08 485.85 29.02C485.64 28.96 485.415 28.885 485.175 28.795C484.935 28.675 484.725 28.585 484.545 28.525L484.095 27.58L484.455 25.42C484.635 24.37 484.785 23.29 484.905 22.18C485.055 21.07 485.115 20.26 485.085 19.75L485.04 19.435C485.04 19.315 485.085 19.195 485.175 19.075L485.22 18.76C485.13 18.67 485.085 18.58 485.085 18.49C485.085 18.43 485.1 18.34 485.13 18.22C485.19 18.07 485.19 17.95 485.13 17.86L484.86 17.68C484.47 18.31 483.99 18.985 483.42 19.705C482.85 20.395 482.46 20.86 482.25 21.1L480.495 23.305C480.345 23.545 480 24.085 479.46 24.925C478.77 26.185 478.14 27.07 477.57 27.58C477.39 27.76 477.18 28 476.94 28.3C476.7 28.57 476.475 28.78 476.265 28.93C476.145 29.35 475.83 29.56 475.32 29.56C474.84 29.56 474.375 29.41 473.925 29.11C473.475 28.78 473.25 28.435 473.25 28.075C473.25 27.835 473.34 27.625 473.52 27.445L473.655 27.13C474.165 26.92 474.69 26.53 475.23 25.96C475.77 25.39 476.43 24.61 477.21 23.62C477.9 22.75 478.35 22.195 478.56 21.955C478.92 21.565 479.28 21.055 479.64 20.425C479.76 20.245 479.88 20.065 480 19.885C480.12 19.675 480.27 19.465 480.45 19.255C480.63 19.045 481.155 18.325 482.025 17.095C482.115 16.975 482.43 16.54 482.97 15.79C483.54 15.01 484.095 14.35 484.635 13.81C485.175 14.11 485.64 14.26 486.03 14.26C486.33 14.65 486.63 14.98 486.93 15.25C487.65 15.88 488.01 16.99 488.01 18.58C488.01 19.6 487.845 20.995 487.515 22.765L487.29 24.16L487.335 24.295C487.935 23.755 488.655 22.9 489.495 21.73L490.71 20.2C492.15 18.52 493.11 17.44 493.59 16.96C494.07 16.45 494.535 16.015 494.985 15.655C495.915 14.815 496.575 14.215 496.965 13.855H498.315C498.495 14.005 498.66 14.125 498.81 14.215C498.99 14.275 499.2 14.335 499.44 14.395C499.47 14.515 499.515 14.74 499.575 15.07C499.665 15.4 499.695 15.625 499.665 15.745C499.605 15.895 499.56 16.105 499.53 16.375C499.53 16.615 499.47 16.825 499.35 17.005C499.05 17.485 498.75 18.4 498.45 19.75C498.18 21.07 498.015 22.12 497.955 22.9C497.865 23.38 497.745 23.755 497.595 24.025C497.445 24.295 497.355 24.505 497.325 24.655C497.295 24.775 497.28 24.955 497.28 25.195C497.28 25.585 497.235 25.885 497.145 26.095C497.115 26.125 497.085 26.155 497.055 26.185V26.905C497.055 27.385 496.995 27.73 496.875 27.94C496.905 28.03 496.92 28.18 496.92 28.39V28.75C496.92 29.02 496.95 29.215 497.01 29.335L496.38 30.1ZM533.65 27.085C533.77 27.175 533.83 27.31 533.83 27.49C533.83 27.7 533.755 27.91 533.605 28.12C533.485 28.3 533.365 28.39 533.245 28.39C532.675 28.39 532.12 28.24 531.58 27.94C531.07 27.61 530.815 27.1 530.815 26.41V23.62C530.815 22.21 530.71 21.415 530.5 21.235C530.05 20.995 529.27 21.49 528.16 22.72C527.08 23.95 526.03 25.405 525.01 27.085C524.68 27.625 524.41 28.045 524.2 28.345C523.99 28.645 523.825 28.795 523.705 28.795C523.615 28.795 523.465 28.72 523.255 28.57C522.325 28.3 521.86 27.775 521.86 26.995C521.86 26.905 521.89 26.71 521.95 26.41C522.25 25.42 522.55 24.325 522.85 23.125C523.15 21.895 523.39 20.86 523.57 20.02C523.48 19.84 523.33 19.75 523.12 19.75C522.82 19.75 522.475 19.9 522.085 20.2C521.335 20.71 520.375 21.925 519.205 23.845C517.735 26.095 516.715 27.46 516.145 27.94C515.935 28.3 515.74 28.585 515.56 28.795C515.41 28.975 515.26 29.065 515.11 29.065C514.99 29.065 514.765 28.975 514.435 28.795C513.565 28.285 513.13 27.565 513.13 26.635C513.13 26.185 513.265 25.285 513.535 23.935C513.805 22.585 514.105 21.325 514.435 20.155C514.705 19.645 514.945 19.12 515.155 18.58C515.395 18.01 515.515 17.665 515.515 17.545C515.635 16.915 515.785 16.24 515.965 15.52C516.145 14.8 516.28 14.395 516.37 14.305C516.58 14.095 516.82 13.99 517.09 13.99C517.54 13.99 517.87 14.23 518.08 14.71C518.41 15.04 518.575 15.46 518.575 15.97C518.575 16.54 518.41 17.275 518.08 18.175C517.57 19.285 517.015 20.905 516.415 23.035C517.045 22.345 517.495 21.805 517.765 21.415C518.485 20.395 519.415 19.255 520.555 17.995C521.485 16.975 522.535 16.465 523.705 16.465C525.085 16.705 525.88 17.86 526.09 19.93C526.09 20.29 526.06 20.74 526 21.28C525.94 21.79 525.895 22.12 525.865 22.27C525.985 22.09 526.285 21.7 526.765 21.1C527.275 20.5 527.89 19.885 528.61 19.255C529.27 18.745 529.885 18.49 530.455 18.49C530.935 18.49 531.355 18.685 531.715 19.075C532.345 19.435 532.795 19.945 533.065 20.605C533.335 21.235 533.47 22.045 533.47 23.035C533.47 23.545 533.455 23.95 533.425 24.25C533.365 24.85 533.335 25.225 533.335 25.375C533.335 25.945 533.44 26.515 533.65 27.085ZM541.821 31.135C540.531 31.135 539.466 30.655 538.626 29.695C537.786 28.735 537.366 27.535 537.366 26.095C537.366 24.655 537.681 23.08 538.311 21.37C538.971 19.63 539.811 18.07 540.831 16.69C541.851 15.31 542.886 14.38 543.936 13.9C544.536 13.57 545.211 13.405 545.961 13.405C546.531 13.405 547.176 13.57 547.896 13.9C548.406 14.11 548.796 14.365 549.066 14.665C549.336 14.965 549.576 15.43 549.786 16.06C549.876 16.6 549.921 16.975 549.921 17.185C549.921 17.365 549.846 17.755 549.696 18.355C549.336 19.465 548.856 20.41 548.256 21.19C547.686 21.94 546.936 22.585 546.006 23.125C545.526 23.425 544.926 23.575 544.206 23.575C543.576 23.575 542.976 23.47 542.406 23.26C541.866 23.02 541.446 22.675 541.146 22.225L540.831 21.865L540.696 22.225C540.066 23.845 539.751 25.225 539.751 26.365C539.751 27.145 539.901 27.775 540.201 28.255C540.411 28.585 540.921 28.75 541.731 28.75C542.331 28.75 542.766 28.69 543.036 28.57C543.486 28.42 543.876 28.24 544.206 28.03C544.566 27.79 544.911 27.55 545.241 27.31L545.421 27.22H545.376C545.736 27.04 546.036 26.875 546.276 26.725C546.516 26.575 546.681 26.47 546.771 26.41C546.831 26.41 546.891 26.395 546.951 26.365C547.011 26.335 547.071 26.275 547.131 26.185C547.401 26.065 547.716 26.11 548.076 26.32C548.436 26.53 548.616 26.8 548.616 27.13C548.556 27.37 548.286 27.76 547.806 28.3C547.326 28.84 546.966 29.125 546.726 29.155C546.696 29.155 546.591 29.2 546.411 29.29C546.231 29.38 546.111 29.455 546.051 29.515H546.096C545.826 29.875 545.556 30.055 545.286 30.055H544.926C544.806 30.295 544.401 30.535 543.711 30.775C543.051 31.015 542.421 31.135 541.821 31.135ZM543.846 21.235C544.746 21.235 545.571 20.725 546.321 19.705C547.041 18.745 547.401 17.785 547.401 16.825C547.401 16.315 547.296 15.955 547.086 15.745C546.906 15.655 546.741 15.61 546.591 15.61C546.441 15.61 546.186 15.655 545.826 15.745C545.436 15.835 544.836 16.255 544.026 17.005C543.216 17.725 542.616 18.37 542.226 18.94L541.641 19.885C541.881 19.795 542.106 19.75 542.316 19.75C542.556 19.72 542.691 19.735 542.721 19.795C542.721 20.215 542.826 20.56 543.036 20.83C543.246 21.1 543.516 21.235 543.846 21.235ZM550.2 30.82C550.02 30.76 549.765 30.565 549.435 30.235C549.135 29.875 548.925 29.635 548.805 29.515C548.805 29.305 548.865 29.14 548.985 29.02C549.135 28.9 549.24 28.81 549.3 28.75C549.39 28.63 549.585 28.54 549.885 28.48C550.215 28.42 550.425 28.345 550.515 28.255C550.635 28.165 550.935 27.955 551.415 27.625C551.895 27.295 552.315 26.965 552.675 26.635C553.065 26.275 553.38 25.915 553.62 25.555C554.4 24.445 555.225 23.125 556.095 21.595C556.365 21.085 556.71 20.395 557.13 19.525C557.58 18.625 557.835 18.04 557.895 17.77L556.5 17.32C556.44 17.26 556.35 17.14 556.23 16.96C556.11 16.78 556.035 16.63 556.005 16.51C556.005 16.39 556.005 16.255 556.005 16.105C556.005 15.745 556.035 15.49 556.095 15.34C556.185 15.19 556.35 15.1 556.59 15.07C557.52 14.89 558.285 14.755 558.885 14.665C559.785 14.545 560.46 14.425 560.91 14.305C561.27 14.215 561.675 14.17 562.125 14.17C562.905 14.17 563.61 14.305 564.24 14.575C564.69 14.755 565.08 15.115 565.41 15.655C565.83 16.225 566.04 16.795 566.04 17.365C566.04 17.575 566.025 17.785 565.995 17.995C565.965 18.175 565.95 18.37 565.95 18.58C565.95 18.85 565.995 19.12 566.085 19.39C565.695 20.83 565.275 22.15 564.825 23.35C564.735 23.59 564.6 23.995 564.42 24.565C564.24 25.135 564.105 25.63 564.015 26.05C563.925 26.5 563.79 26.92 563.61 27.31C563.37 28 563.22 28.555 563.16 28.975C563.1 29.305 562.965 29.56 562.755 29.74C562.575 29.89 562.365 30.025 562.125 30.145C561.915 30.235 561.78 30.295 561.72 30.325C561.6 30.385 561.39 30.355 561.09 30.235C560.79 30.115 560.535 29.95 560.325 29.74C560.265 29.56 560.235 29.32 560.235 29.02C560.235 28.78 560.295 28.45 560.415 28.03C560.955 26.29 561.69 23.77 562.62 20.47L563.115 18.76C563.205 18.49 563.25 18.175 563.25 17.815C563.25 17.545 563.205 17.275 563.115 17.005C562.635 16.825 562.26 16.735 561.99 16.735C561.84 16.735 561.675 16.765 561.495 16.825C561.315 16.885 561.15 16.93 561 16.96C560.7 17.17 560.52 17.455 560.46 17.815C559.89 19.315 559.305 20.635 558.705 21.775C558.105 22.915 557.64 23.845 557.31 24.565C557.19 24.865 556.845 25.435 556.275 26.275C555.915 26.815 555.66 27.22 555.51 27.49L555.015 28.12C554.865 28.27 554.61 28.51 554.25 28.84C553.89 29.17 553.635 29.41 553.485 29.56L552.09 30.64C551.91 30.79 551.58 30.865 551.1 30.865C550.65 30.835 550.35 30.82 550.2 30.82ZM571.193 29.92C570.233 29.53 569.558 29.035 569.168 28.435C568.778 27.805 568.583 26.935 568.583 25.825C568.583 25.285 568.628 24.655 568.718 23.935L568.808 22.315C568.808 22.045 568.778 21.835 568.718 21.685C568.658 21.535 568.523 21.37 568.313 21.19C568.253 21.13 568.103 20.98 567.863 20.74C567.623 20.5 567.518 20.305 567.548 20.155L567.503 19.93C567.503 19.72 567.533 19.525 567.593 19.345C567.683 19.165 567.773 19.075 567.863 19.075C567.953 19.075 568.073 19.06 568.223 19.03C568.373 18.97 568.508 18.955 568.628 18.985C569.048 18.985 569.258 19.075 569.258 19.255C569.378 19.495 569.573 19.525 569.843 19.345C570.143 19.135 570.428 18.745 570.698 18.175C571.118 17.515 571.733 16.825 572.543 16.105C573.383 15.355 574.073 14.83 574.613 14.53C574.823 14.41 575.168 14.305 575.648 14.215C576.128 14.095 576.548 14.035 576.908 14.035C577.448 14.035 577.913 14.155 578.303 14.395C578.723 14.635 579.143 14.98 579.563 15.43C580.133 15.85 580.418 16.51 580.418 17.41C580.418 18.04 580.268 18.685 579.968 19.345C579.848 19.795 579.368 20.365 578.528 21.055C577.718 21.745 576.968 22.225 576.278 22.495C575.438 22.705 574.478 22.81 573.398 22.81C572.678 22.81 572.213 22.75 572.003 22.63C571.643 22.42 571.388 23.23 571.238 25.06C571.208 25.27 571.193 25.555 571.193 25.915C571.193 26.425 571.268 26.83 571.418 27.13C571.448 27.16 571.553 27.28 571.733 27.49C571.913 27.67 572.138 27.835 572.408 27.985C572.678 28.105 572.963 28.165 573.263 28.165C573.533 28.165 573.743 28.135 573.893 28.075C574.223 27.985 574.538 27.82 574.838 27.58C575.138 27.31 575.558 26.905 576.098 26.365C576.578 25.885 576.923 25.555 577.133 25.375C577.283 25.105 577.583 24.97 578.033 24.97C578.153 24.97 578.363 25 578.663 25.06C578.933 25.27 579.068 25.495 579.068 25.735C579.068 25.975 578.918 26.425 578.618 27.085C578.468 27.385 578.093 27.805 577.493 28.345C576.923 28.855 576.413 29.26 575.963 29.56C575.033 30.07 574.103 30.325 573.173 30.325C572.603 30.325 571.943 30.19 571.193 29.92ZM573.848 20.785C574.148 20.725 574.583 20.65 575.153 20.56C575.723 20.47 576.188 20.275 576.548 19.975C576.938 19.645 577.388 19.09 577.898 18.31C577.988 18.07 578.033 17.83 578.033 17.59C578.033 17.14 577.943 16.825 577.763 16.645C577.553 16.435 577.313 16.33 577.043 16.33C576.623 16.33 576.188 16.51 575.738 16.87C575.438 16.96 574.988 17.29 574.388 17.86C573.818 18.43 573.323 19 572.903 19.57C572.483 20.11 572.348 20.425 572.498 20.515C572.438 20.605 572.588 20.68 572.948 20.74C573.308 20.77 573.608 20.785 573.848 20.785Z" fill="#8E80A9"/>
</svg>
