<svg width="233" height="18" fill="none" xmlns="http://www.w3.org/2000/svg"><path d="M1.286 13.414c-.348 0-.57-.048-.666-.144a.535.535 0 01-.144-.396c.036-.108.084-.228.144-.36a7.7 7.7 0 00.234-.702c.048-.228.126-.516.234-.864.552-1.776.924-2.898 1.116-3.366l.684-1.908.63-1.836c.3-.648.51-1.188.63-1.62a.25.25 0 00.018-.108.414.414 0 00-.054-.162.678.678 0 01-.054-.27c-.012-.144.024-.246.108-.306.096-.072.216-.09.36-.054.3.084.804.126 1.512.126.264 0 .42-.012.468-.036.096-.048.666-.144 1.71-.288s2.028-.27 2.952-.378l.162-.018c.096 0 .204.012.324.036.132.024.222.042.27.054.18.036.336.132.468.288a.514.514 0 01.162.486c-.048.144-.18.216-.396.216-.072 0-.252-.024-.54-.072-.024 0-.066.114-.126.342a3.195 3.195 0 01-.162.558c-.132.168-.306.588-.522 1.26-.216.672-.324 1.11-.324 1.314-.168.252-.306.63-.414 1.134-.06.252-.12.456-.18.612A164.55 164.55 0 009.206 9.4c-.3 1.14-.444 1.71-.432 1.71l-.072.648c-.048.396-.078.672-.09.828a.224.224 0 010 .126c0 .036-.018.06-.054.072-.084.084-.24.126-.468.126-.096 0-.192-.012-.288-.036-.084-.024-.138-.054-.162-.09a1.187 1.187 0 00-.108-.198.45.45 0 01-.054-.324c.036-.384.132-1.044.288-1.98.06-.3.132-.576.216-.828.084-.264.144-.408.18-.432l.342-1.278a7.27 7.27 0 00.306-1.17l.09-.378c.048-.216.12-.456.216-.72.132-.336.246-.696.342-1.08.108-.396.174-.642.198-.738.036-.132.138-.438.306-.918.024-.06.066-.186.126-.378.072-.204.102-.366.09-.486l-1.188.162-1.08.144-1.242.18c-.648.096-.99.144-1.026.144-.204.036-.306.108-.306.216a20.499 20.499 0 00-.774 1.656c-.228.54-.384.99-.468 1.35-.048.108-.246.636-.594 1.584a33.09 33.09 0 00-.306.792 29.41 29.41 0 01-.774 2.268c-.06.132-.114.258-.162.378-.036.12-.072.294-.108.522-.096.252-.204.654-.324 1.206a2.566 2.566 0 00-.09.36c0 .072-.012.168-.036.288-.096.192-.234.288-.414.288zm11.62-.684a.69.69 0 01-.343-.072 2.726 2.726 0 01-.36-.27c-.396-.42-.594-.804-.594-1.152 0-.084.006-.144.018-.18a.463.463 0 00.036-.252v-.162c-.048-.048-.072-.078-.072-.09 0-.024.012-.042.036-.054a.282.282 0 00.054-.072c.072 0 .096-.066.072-.198-.024-.096.024-.306.144-.63.12-.336.27-.642.45-.918.132-.216.324-.486.576-.81.264-.324.498-.57.702-.738.288-.252.546-.438.774-.558.228-.12.48-.21.756-.27.24-.06.402-.09.486-.09.084 0 .156.024.216.072.072.036.162.108.27.216.324.144.546.33.666.558.132.216.198.558.198 1.026 0 .78-.318 1.626-.954 2.538-.276.396-.534.702-.774.918a7.49 7.49 0 01-.954.666 3.28 3.28 0 01-.702.396 2.441 2.441 0 01-.702.126zm1.727-1.908a5.579 5.579 0 001.188-2.016c.06-.204.09-.45.09-.738 0-.36-.048-.564-.144-.612a.799.799 0 00-.36-.09c-.264 0-.54.12-.828.36-.348.3-.66.672-.936 1.116-.276.432-.558.972-.846 1.62a1.71 1.71 0 00-.18.738c0 .18.042.324.126.432a.482.482 0 00.378.162c.396 0 .9-.324 1.512-.972zm6.418 1.908c-.276-.12-.462-.264-.558-.432-.108-.156-.162-.396-.162-.72 0-.228.006-.408.018-.54.012-.072.078-.306.198-.702.132-.396.228-.672.288-.828a.971.971 0 00-.306.126l-.252.18c-.12.12-.282.24-.486.36-.204.12-.39.21-.558.27a.357.357 0 01-.162.036c-.132 0-.282-.042-.45-.126a.891.891 0 01-.342-.36 1.92 1.92 0 01-.126-.486 1.952 1.952 0 01.198-1.152l.45-.918c.108-.204.258-.51.45-.918.036-.072.09-.162.162-.27.072-.108.12-.204.144-.288a.379.379 0 01.108-.162c.072-.072.138-.108.198-.108.312.024.534.138.666.342a.408.408 0 01.108.27c0 .12-.048.234-.144.342-.372.504-.756 1.182-1.152 2.034a1.166 1.166 0 00-.162.576c0 .06.006.108.018.144.192 0 .468-.132.828-.396.36-.264.822-.63 1.386-1.098l.432-.36c.276-.228.516-.504.72-.828.108-.204.294-.312.558-.324.18.084.294.138.342.162.048.096.096.198.144.306.06.096.09.174.09.234 0 .108-.084.252-.252.432-.084.012-.252.198-.504.558-.24.348-.426.648-.558.9-.036.06-.084.126-.144.198-.048.06-.096.132-.144.216l-.684 1.656a1.685 1.685 0 00-.054.45c0 .096.012.162.036.198.06 0 .108-.006.144-.018a.592.592 0 01.144-.018c.072 0 .12.03.144.09.06.204.09.33.09.378 0 .12-.084.27-.252.45-.132.132-.258.198-.378.198a.705.705 0 01-.234-.054zm8.065-6.408c.096.192.144.402.144.63 0 .36-.096.684-.288.972-.12.168-.228.42-.324.756a14.81 14.81 0 00-.252 1.35A33.96 33.96 0 0028 12.136c-.192.504-.312.882-.36 1.134-.012.072-.072.222-.18.45-.096.228-.174.408-.234.54-.468.972-1.002 1.716-1.602 2.232-.6.516-1.254.798-1.962.846a4.613 4.613 0 01-.342.036.864.864 0 01-.306-.054 3.204 3.204 0 01-.288-.144 1.623 1.623 0 01-.198-.126 1.531 1.531 0 01-.18-.144.122.122 0 01-.036-.09c0-.06.036-.12.108-.18.072-.06.186-.09.342-.09.084.048.228.072.432.072s.324-.024.36-.072a1.1 1.1 0 01.216-.126c.12-.048.258-.09.414-.126.372-.18.702-.414.99-.702.3-.276.576-.63.828-1.062.3-.456.498-.87.594-1.242a9.31 9.31 0 00.36-1.08c.144-.48.258-.912.342-1.296l-.234.216c-.06.072-.21.18-.45.324-.24.132-.384.198-.432.198a.138.138 0 00-.054.018c-.024.012-.036.036-.036.072 0 .048-.156.126-.468.234-.312.096-.51.144-.594.144-.12 0-.252-.06-.396-.18a1.504 1.504 0 01-.288-.378 3.204 3.204 0 00-.144-.288 2.294 2.294 0 01-.144-.306 1.134 1.134 0 01-.054-.36c0-.156.012-.276.036-.36.144-.54.384-1.302.72-2.286.348-.984.612-1.614.792-1.89.096-.132.21-.198.342-.198.18 0 .324.096.432.288.108.144.162.264.162.36 0 .072-.03.174-.09.306s-.138.288-.234.468a5.638 5.638 0 01-.18.432c-.072.156-.108.252-.108.288l-.108.45c-.06.24-.114.36-.162.36-.084.072-.174.348-.27.828-.096.48-.144.852-.144 1.116 0 .132.018.198.054.198.708 0 1.476-.528 2.304-1.584.108-.528.204-.972.288-1.332.156-.612.276-1.158.36-1.638.072-.168.126-.264.162-.288.036-.036.114-.054.234-.054.144 0 .246.012.306.036.06.024.132.096.216.216zm2.535 6.516a2.651 2.651 0 00-.216-.18 1.542 1.542 0 00-.324-.108 3.103 3.103 0 00-.216-.468c-.156-.216-.24-.402-.252-.558v-.18c0-.132-.03-.228-.09-.288.06-.048.072-.12.036-.216-.036-.108-.03-.186.018-.234l.018-.126a.491.491 0 01-.054-.252c0-.192.06-.576.18-1.152.12-.552.168-.882.144-.99l-.342-.306c.024-.18.054-.312.09-.396.036-.096.12-.174.252-.234l.126.054a.558.558 0 00.108-.036.88.88 0 01.09-.054c.204-.384.396-.864.576-1.44.072-.228.162-.468.27-.72.12-.264.24-.474.36-.63.072-.084.138-.186.198-.306l.126-.252c.156-.324.408-.69.756-1.098.36-.408.69-.702.99-.882.18-.12.336-.192.468-.216.132-.024.336-.042.612-.054.156.096.312.228.468.396.156.156.234.3.234.432v.27c0 .204-.03.366-.09.486.012.108-.018.282-.09.522a1.58 1.58 0 00-.108.36c-.3.624-.57 1.116-.81 1.476-.24.348-.504.66-.792.936-.276.264-.732.654-1.368 1.17.516.156.78.444.792.864 0 .036-.006.102-.018.198 0 .084.006.156.018.216l.036.432c0 .096.012.24.036.432.036.264.012.612-.072 1.044a.226.226 0 01-.054.09.2.2 0 00-.018.09.877.877 0 01-.072.36 2.03 2.03 0 01-.162.324c-.06.108-.114.21-.162.306a.555.555 0 01-.144.162.654.654 0 00-.162.144 1.201 1.201 0 01-.432.342c-.144.06-.33.114-.558.162a2.302 2.302 0 00-.36.072l-.036.036zm1.044-6.318l.9-.738c.048-.024.168-.168.36-.432.192-.264.306-.432.342-.504.132-.108.276-.336.432-.684.156-.36.282-.726.378-1.098.096-.384.132-.666.108-.846l-.126.054c-.18.228-.438.534-.774.918a8.987 8.987 0 00-1.08 1.512 9.201 9.201 0 00-.738 1.71l.198.108zm-.612 5.184c.3-.3.498-.612.594-.936.096-.336.144-.744.144-1.224v-.63a.571.571 0 00-.036-.162.29.29 0 01.018-.18 13.67 13.67 0 00-.144-.396 1.12 1.12 0 00-.27-.468.892.892 0 00-.234.162c-.06.06-.138.162-.234.306-.072.144-.144.45-.216.918-.06.456-.09.9-.09 1.332 0 .66.078 1.086.234 1.278h.234zm5.78.828c-.144.06-.294.09-.45.09-.252 0-.558-.066-.918-.198-.06 0-.156-.054-.288-.162a1.006 1.006 0 01-.288-.36c-.168-.24-.252-.564-.252-.972 0-.612.174-1.344.522-2.196.132-.276.348-.636.648-1.08.312-.456.522-.714.63-.774l.252-.09c.132-.06.282-.132.45-.216.168-.084.366-.126.594-.126.228 0 .48.084.756.252.288.156.516.342.684.558.168.216.228.402.18.558-.012.036-.084.114-.216.234l-.288.288a.295.295 0 01-.216.09.396.396 0 01-.288-.126.63.63 0 01-.144-.378c-.024-.072-.102-.15-.234-.234a2.455 2.455 0 00-.252-.162c-.096 0-.234.084-.414.252a4.13 4.13 0 00-.504.63c-.276.288-.51.642-.702 1.062-.192.42-.33.78-.414 1.08a.618.618 0 00-.036.252c0 .132.012.264.036.396.036.132.072.216.108.252a.526.526 0 00.18.018c.276 0 .666-.042 1.17-.126.516-.096.912-.198 1.188-.306.276-.18.54-.27.792-.27.084 0 .144.006.18.018.156.072.234.156.234.252 0 .168-.174.348-.522.54a3.967 3.967 0 00-.522.324c-.144.108-.216.192-.216.252a.435.435 0 00-.144.054c-.072.024-.12.03-.144.018a4.236 4.236 0 00-.612.126c-.276.072-.456.132-.54.18zm12.385-1.098c.047.036.072.09.072.162 0 .084-.03.168-.09.252-.048.072-.096.108-.144.108-.228 0-.45-.06-.666-.18-.205-.132-.306-.336-.306-.612v-1.116c0-.564-.042-.882-.127-.954-.18-.096-.492.102-.936.594a12.38 12.38 0 00-1.26 1.746c-.131.216-.24.384-.323.504-.085.12-.15.18-.199.18-.035 0-.096-.03-.18-.09-.371-.108-.557-.318-.557-.63 0-.036.012-.114.036-.234.12-.396.24-.834.36-1.314.12-.492.216-.906.288-1.242a.186.186 0 00-.18-.108c-.12 0-.258.06-.415.18-.3.204-.684.69-1.152 1.458-.587.9-.995 1.446-1.224 1.638a2.367 2.367 0 01-.233.342c-.06.072-.12.108-.18.108-.049 0-.139-.036-.27-.108-.348-.204-.523-.492-.523-.864 0-.18.054-.54.163-1.08.108-.54.227-1.044.36-1.512a5.97 5.97 0 00.288-.63c.096-.228.143-.366.143-.414.048-.252.108-.522.18-.81.072-.288.127-.45.163-.486a.396.396 0 01.288-.126c.18 0 .311.096.395.288a.68.68 0 01.199.504c0 .228-.067.522-.199.882-.203.444-.425 1.092-.666 1.944.252-.276.432-.492.54-.648.288-.408.66-.864 1.117-1.368.372-.408.791-.612 1.26-.612.551.096.87.558.953 1.386a6.523 6.523 0 01-.09.936c.048-.072.168-.228.36-.468.204-.24.45-.486.738-.738.264-.204.51-.306.738-.306a.67.67 0 01.505.234c.252.144.432.348.54.612.107.252.161.576.161.972 0 .204-.005.366-.017.486a6.08 6.08 0 00-.037.45c0 .228.042.456.127.684zm2.462 1.404a2.651 2.651 0 00-.216-.18 1.542 1.542 0 00-.324-.108 3.103 3.103 0 00-.216-.468c-.156-.216-.24-.402-.252-.558v-.18c0-.132-.03-.228-.09-.288.06-.048.072-.12.036-.216-.036-.108-.03-.186.018-.234l.018-.126a.491.491 0 01-.054-.252c0-.192.06-.576.18-1.152.12-.552.168-.882.144-.99l-.342-.306c.024-.18.054-.312.09-.396.036-.096.12-.174.252-.234l.126.054a.558.558 0 00.108-.036.88.88 0 01.09-.054c.204-.384.396-.864.576-1.44.072-.228.162-.468.27-.72.12-.264.24-.474.36-.63.072-.084.138-.186.198-.306l.126-.252c.156-.324.408-.69.756-1.098.36-.408.69-.702.99-.882.18-.12.336-.192.468-.216.132-.024.336-.042.612-.054.156.096.312.228.468.396.156.156.234.3.234.432v.27c0 .204-.03.366-.09.486.012.108-.018.282-.09.522a1.58 1.58 0 00-.108.36c-.3.624-.57 1.116-.81 1.476-.24.348-.504.66-.792.936-.276.264-.732.654-1.368 1.17.516.156.78.444.792.864 0 .036-.006.102-.018.198 0 .084.006.156.018.216l.036.432c0 .096.012.24.036.432.036.264.012.612-.072 1.044a.226.226 0 01-.054.09.2.2 0 00-.018.09.877.877 0 01-.072.36 2.03 2.03 0 01-.162.324c-.06.108-.114.21-.162.306a.555.555 0 01-.144.162.656.656 0 00-.162.144 1.2 1.2 0 01-.432.342c-.144.06-.33.114-.558.162a2.302 2.302 0 00-.36.072l-.036.036zm1.044-6.318l.9-.738c.048-.024.168-.168.36-.432.192-.264.306-.432.342-.504.132-.108.276-.336.432-.684.156-.36.282-.726.378-1.098.096-.384.132-.666.108-.846l-.126.054c-.18.228-.438.534-.774.918a8.987 8.987 0 00-1.08 1.512 9.201 9.201 0 00-.738 1.71l.198.108zm-.612 5.184c.3-.3.498-.612.594-.936.096-.336.144-.744.144-1.224v-.63a.571.571 0 00-.036-.162.29.29 0 01.018-.18 13.67 13.67 0 00-.144-.396 1.12 1.12 0 00-.27-.468.892.892 0 00-.234.162c-.06.06-.138.162-.234.306-.072.144-.144.45-.216.918-.06.456-.09.9-.09 1.332 0 .66.078 1.086.234 1.278h.234zm4.447 5.436c-.012.024-.066 0-.162-.072a1.437 1.437 0 01-.27-.27c-.072-.108-.102-.192-.09-.252a1.058 1.058 0 01-.036-.252c0-.288.168-.774.504-1.458.072-.132.192-.384.36-.756.108-.276.216-.516.324-.72.024-.048.234-.42.63-1.116a16.04 16.04 0 001.008-2.106c-.204.216-.456.498-.756.846-.348.432-.636.75-.864.954-.216.192-.414.282-.594.27a1.884 1.884 0 01-.54-.198.69.69 0 01-.306-.396 3.839 3.839 0 01-.054-.666c0-.54.078-1.272.234-2.196.12-.516.18-.894.18-1.134a.886.886 0 00-.054-.342.822.822 0 00-.18-.252c-.168-.144-.252-.276-.252-.396 0-.096.084-.192.252-.288.156-.048.3-.072.432-.072.096 0 .18.024.252.072a.857.857 0 01.252.234l.162.27a1.2 1.2 0 01.162.378c.036.132.054.3.054.504l-.144 1.134c-.06.276-.09.462-.09.558-.156.576-.234 1.05-.234 1.422 0 .144.018.216.054.216.324-.264.642-.588.954-.972.324-.384.744-.924 1.26-1.62.048-.084.138-.246.27-.486.144-.252.252-.486.324-.702.156-.348.288-.528.396-.54.072-.024.186 0 .342.072.156.072.24.126.252.162 0 .012.054.03.162.054.108.012.162.036.162.072 0 .024-.066.204-.198.54-.204.492-.3.756-.288.792.036.048-.03.252-.198.612-.156.36-.246.57-.27.63-.3.96-.624 1.74-.972 2.34-.12.216-.408.846-.864 1.89l-.144.342c-.12.264-.252.564-.396.9l-.378.918a6.838 6.838 0 00-.162.342 1.116 1.116 0 01-.072.216c-.024.228-.078.396-.162.504l-.252.018zm9.177-4.176c-.084.048-.198.03-.342-.054a1.645 1.645 0 01-.396-.378 1.262 1.262 0 01-.18-.486 18.635 18.635 0 01-.018-1.044c0-.12-.024-.18-.072-.18-.036 0-.12.06-.252.18a6.919 6.919 0 00-.486.45 5.7 5.7 0 01-.864.702c-.264.168-.48.246-.648.234-.132 0-.276-.09-.432-.27a2.12 2.12 0 01-.342-.63 2.092 2.092 0 01-.054-.504c0-.504.102-1.116.306-1.836.216-.72.462-1.338.738-1.854.288-.528.54-.792.756-.792.18 0 .348.198.504.594a.425.425 0 01.054.18c0 .084-.048.168-.144.252-.18.228-.39.636-.63 1.224s-.432 1.134-.576 1.638c-.132.504-.156.756-.072.756.168 0 .366-.066.594-.198a3.7 3.7 0 00.684-.522 5.72 5.72 0 00.612-.72c.18-.264.402-.618.666-1.062.504-.804.78-1.272.828-1.404.18-.336.306-.552.378-.648a.602.602 0 01.306-.216h.252c.072.012.156.066.252.162.084.036.132.078.144.126.024.036.036.09.036.162l-.288.666-.162.378a3.142 3.142 0 01-.198.414 31.07 31.07 0 00-.63 1.476 6.311 6.311 0 00-.324 1.152c-.012.06-.018.162-.018.306 0 .36.036.612.108.756.108.216.216.372.324.468.06.048.09.096.09.144 0 .084-.072.168-.216.252-.132.084-.228.126-.288.126zm-.234-7.47C65.8 5.578 65.296 5.08 65.02 4a.992.992 0 01-.036-.198c0-.084.024-.174.072-.27.024-.048.072-.084.144-.108a.328.328 0 01.18-.018c.156.06.276.138.36.234a.596.596 0 01.162.324.635.635 0 01.054.252c.096.3.228.45.396.45.036 0 .126-.024.27-.072.504-.204.882-.432 1.134-.684l.756-.702.018-.018a.29.29 0 01.126-.036c.084 0 .144.018.18.054.06.072.096.138.108.198.012.06.018.12.018.18v.144l-.018.036c.024.072-.036.216-.18.432a2.166 2.166 0 01-.486.504c-.228.18-.606.402-1.134.666a.797.797 0 01-.324.09 3.039 3.039 0 00-.288.036zm6.951 11.556c-.096 0-.174-.054-.234-.162a.513.513 0 01-.09-.306c0-.084.03-.288.09-.612.132-.504.198-.852.198-1.044 0-.06.012-.15.036-.27.024-.108.042-.21.054-.306.048-.084.09-.216.126-.396a1.66 1.66 0 00.072-.45c0-.06.018-.132.054-.216a.787.787 0 01.162-.18c0-.072.018-.18.054-.324.036-.156.06-.264.072-.324.06-.324.294-1.092.702-2.304.408-1.212.756-2.19 1.044-2.934.132-.3.228-.576.288-.828.06-.252.09-.45.09-.594 0-.048.012-.09.036-.126.036-.048.09-.108.162-.18.084-.084.162-.126.234-.126.06 0 .126.024.198.072.072.048.144.102.216.162.072.108.126.21.162.306a.675.675 0 01.072.306c0 .036-.012.15-.036.342 0 .252-.054.462-.162.63-.108.156-.15.228-.126.216.54-.252 1.02-.378 1.44-.378.504 0 .894.162 1.17.486.288.324.432.744.432 1.26 0 .216-.066.48-.198.792-.12.3-.24.504-.36.612-.072 0-.168.126-.288.378-.156.192-.414.396-.774.612-.36.204-.612.282-.756.234a.138.138 0 00-.054.018c-.024.012-.036.042-.036.09 0 .048-.204.138-.612.27-.408.132-.744.198-1.008.198a2.14 2.14 0 01-.324-.018.674.674 0 01-.216-.126c-.084.084-.126.162-.126.234 0 .132-.06.372-.18.72s-.216.522-.288.522a.536.536 0 00-.054.072c-.012.036.006.078.054.126 0 .036-.006.12-.018.252a.66.66 0 01-.09.306c0 .108-.018.252-.054.432a1.727 1.727 0 01-.126.432c0 .144-.024.282-.072.414-.036.144-.078.216-.126.216-.072.024-.108.198-.108.522-.012.3-.072.534-.18.702-.108.168-.234.252-.378.252l-.144.018zm2.322-6.03c.18 0 .54-.09 1.08-.27.552-.192.936-.378 1.152-.558a3.22 3.22 0 00.612-.684c.156-.252.234-.504.234-.756a.896.896 0 00-.162-.522c-.084-.132-.228-.198-.432-.198-.24 0-.528.084-.864.252-.324.168-.624.39-.9.666-.216.216-.408.528-.576.936-.168.396-.252.708-.252.936 0 .132.036.198.108.198zm5.453 1.332a.717.717 0 00-.18-.216c-.072-.084-.108-.138-.108-.162a.465.465 0 00-.09-.306c-.024-.024-.036-.078-.036-.162 0-.192.09-.516.27-.972.192-.468.438-.972.738-1.512.072-.072.162-.198.27-.378.12-.18.198-.282.234-.306 0-.048.018-.09.054-.126.036-.048.078-.072.126-.072v-.108c0-.108.198-.366.594-.774.396-.42.72-.708.972-.864.3-.204.606-.306.918-.306.216 0 .402.06.558.18.06.072.336.33.828.774l.666.594-.324.9a2.816 2.816 0 00-.162.882c0 .456.132.894.396 1.314.06.132.18.258.36.378s.36.192.54.216c.264.048.396.18.396.396 0 .24-.108.384-.324.432a.96.96 0 01-.216.018c-.708 0-1.32-.498-1.836-1.494a2.915 2.915 0 01-.198-.396 2.615 2.615 0 01-.126-.396c-.072.096-.162.21-.27.342-.108.132-.21.246-.306.342-1.308 1.308-2.34 1.962-3.096 1.962-.24 0-.456-.06-.648-.18zm.648-1.008c0 .06.06.078.18.054.132-.024.288-.084.468-.18a3.16 3.16 0 00.576-.378c1.032-.888 1.776-1.662 2.232-2.322l.396-.648c-.12-.252-.246-.432-.378-.54-.132-.12-.252-.18-.36-.18-.252 0-.648.318-1.188.954a11.46 11.46 0 00-1.476 2.214 5.97 5.97 0 00-.288.63l-.162.396zm8.973 1.242c-.372 0-.618-.018-.738-.054a1.444 1.444 0 01-.413-.288c-.12-.24-.24-.42-.36-.54-.048-.132-.072-.33-.072-.594 0-.3.035-.624.107-.972.072-.36.168-.696.288-1.008a1.58 1.58 0 00.108-.27c.036-.084.06-.138.072-.162 0-.084.15-.342.45-.774.313-.444.558-.75.739-.918.084-.096.21-.198.377-.306.18-.108.337-.186.469-.234.335-.12.63-.18.881-.18.348 0 .642.162.882.486.264.264.397.558.397.882 0 .12-.019.252-.055.396-.12.48-.293.72-.521.72-.156 0-.306-.09-.45-.27a.87.87 0 01-.073-.234c0-.036.025-.138.073-.306.023-.12.035-.204.035-.252a.924.924 0 00-.072-.378c-.047-.108-.114-.162-.198-.162-.276 0-.636.24-1.08.72-.155.168-.36.432-.611.792-.24.36-.42.684-.54.972-.12.36-.216.654-.288.882-.073.228-.12.372-.145.432 0 .024.012.066.036.126.036.06.054.108.054.144 0 .084.019.15.055.198a.56.56 0 00.198.144.774.774 0 00.468.144c.192 0 .413-.06.666-.18.156-.072.378-.228.666-.468l.431-.324c.084-.06.156-.108.216-.144a.79.79 0 01.163-.09c.035-.024.053-.024.053 0 0 .048.018.072.054.072.037 0 .079-.024.127-.072a.497.497 0 01.413-.216c.097 0 .144.018.144.054l-.017.09c0 .06.03.12.09.18a.546.546 0 01-.055.198.452.452 0 01-.108.18 2.18 2.18 0 01-.377.396c-.169.144-.283.24-.343.288h-.017c-.06 0-.145.054-.253.162-.18.168-.336.252-.468.252a2.446 2.446 0 00-.162.09c-.06.024-.09.054-.09.09a.981.981 0 01-.431.252c-.168.036-.426.054-.775.054zm7.013-.054c-.144.06-.294.09-.45.09-.252 0-.558-.066-.918-.198-.06 0-.156-.054-.288-.162a1.006 1.006 0 01-.288-.36c-.168-.24-.252-.564-.252-.972 0-.612.174-1.344.522-2.196.132-.276.348-.636.648-1.08.312-.456.522-.714.63-.774l.252-.09c.132-.06.282-.132.45-.216.168-.084.366-.126.594-.126.228 0 .48.084.756.252.288.156.516.342.684.558.168.216.228.402.18.558-.012.036-.084.114-.216.234l-.288.288a.295.295 0 01-.216.09.396.396 0 01-.288-.126.63.63 0 01-.144-.378c-.024-.072-.102-.15-.234-.234a2.455 2.455 0 00-.252-.162c-.096 0-.234.084-.414.252a4.13 4.13 0 00-.504.63c-.276.288-.51.642-.702 1.062-.192.42-.33.78-.414 1.08a.618.618 0 00-.036.252c0 .132.012.264.036.396.036.132.072.216.108.252a.526.526 0 00.18.018c.276 0 .666-.042 1.17-.126.516-.096.912-.198 1.188-.306.276-.18.54-.27.792-.27.084 0 .144.006.18.018.156.072.234.156.234.252 0 .168-.174.348-.522.54a3.967 3.967 0 00-.522.324c-.144.108-.216.192-.216.252a.435.435 0 00-.144.054c-.072.024-.12.03-.144.018a4.236 4.236 0 00-.612.126c-.276.072-.456.132-.54.18zm3.349.396c-.072-.024-.174-.102-.306-.234a5.11 5.11 0 00-.252-.288c0-.084.024-.15.072-.198.06-.048.102-.084.126-.108.036-.048.114-.084.234-.108.132-.024.216-.054.252-.09.048-.036.168-.12.36-.252.192-.132.36-.264.504-.396.156-.144.282-.288.378-.432.312-.444.642-.972.99-1.584.108-.204.246-.48.414-.828.18-.36.282-.594.306-.702l-.558-.18a1.073 1.073 0 01-.108-.144.62.62 0 01-.09-.18v-.162c0-.144.012-.246.036-.306.036-.06.102-.096.198-.108.372-.072.678-.126.918-.162.36-.048.63-.096.81-.144.144-.036.306-.054.486-.054.312 0 .594.054.846.162.18.072.336.216.468.432.168.228.252.456.252.684 0 .084-.006.168-.018.252-.012.072-.018.15-.018.234 0 .108.018.216.054.324a17.704 17.704 0 01-.504 1.584c-.036.096-.09.258-.162.486a6.629 6.629 0 00-.162.594c-.036.18-.09.348-.162.504a3.778 3.778 0 00-.18.666.507.507 0 01-.162.306 1.3 1.3 0 01-.252.162c-.084.036-.138.06-.162.072-.048.024-.132.012-.252-.036a.898.898 0 01-.306-.198.936.936 0 01-.036-.288c0-.096.024-.228.072-.396.216-.696.51-1.704.882-3.024l.198-.684c.036-.108.054-.234.054-.378a1.02 1.02 0 00-.054-.324 1.39 1.39 0 00-.45-.108.63.63 0 00-.198.036 1.664 1.664 0 01-.198.054.503.503 0 00-.216.342c-.228.6-.462 1.128-.702 1.584-.24.456-.426.828-.558 1.116-.048.12-.186.348-.414.684a7.866 7.866 0 00-.306.486l-.198.252c-.06.06-.162.156-.306.288-.144.132-.246.228-.306.288l-.558.432c-.072.06-.204.09-.396.09-.18-.012-.3-.018-.36-.018zm8.667-.45c-.12.024-.228.036-.324.036-.156 0-.3-.012-.432-.036-.132-.036-.198-.078-.198-.126 0-.036-.006-.06-.018-.072-.012-.012-.036-.018-.072-.018a1.926 1.926 0 00-.108-.09.93.93 0 00-.216-.126.98.98 0 01-.162-.54c0-.204.054-.522.162-.954.036-.384.216-.864.54-1.44.324-.576.702-1.122 1.134-1.638.444-.516.84-.876 1.188-1.08.18-.18.408-.27.684-.27.216 0 .42.054.612.162.168.096.342.258.522.486.192.228.342.462.45.702.048.18.072.354.072.522 0 .18-.024.462-.072.846-.06.216-.114.48-.162.792a7.202 7.202 0 00-.054.81.756.756 0 00.036.414c.048.096.114.144.198.144.06 0 .126-.018.198-.054.12-.06.252-.09.396-.09a.48.48 0 01.324.108c.084.072.126.18.126.324 0 .216-.15.432-.45.648-.288.216-.564.324-.828.324-.18 0-.348-.138-.504-.414a8.067 8.067 0 01-.432-1.098l-.108-.414-.774.738-.414.414c-.192.192-.3.306-.324.342-.132.228-.462.444-.99.648zm.054-1.062c.288-.168.642-.462 1.062-.882.42-.42.768-.822 1.044-1.206.372-.492.606-.978.702-1.458a1.532 1.532 0 00-.234-.432c-.108-.144-.204-.222-.288-.234-.24 0-.492.138-.756.414-.264.276-.576.66-.936 1.152l-.594.882c-.072.096-.198.354-.378.774-.18.408-.27.654-.27.738 0 .264.078.396.234.396.12 0 .258-.048.414-.144zm11.491-8.676a16.198 16.198 0 00-.198-.288.687.687 0 00-.234-.252.916.916 0 00-.378-.09 7.186 7.186 0 00-.594-.036c-.12 0-.21.006-.27.018-.192.024-.462.072-.81.144a5.922 5.922 0 00-.648.162c-.108.036-.27.102-.486.198l-.504.216a.222.222 0 00-.162.108.292.292 0 00-.054.18c0 .06.024.138.072.234.048.084.144.198.288.342-.012-.024.066.072.234.288.18.24.378.594.594 1.062.216.456.294.774.234.954a1.61 1.61 0 00-.378-.036c-.132 0-.24.006-.324.018-.396.228-.798.678-1.206 1.35a8.834 8.834 0 00-.954 2.142 5.564 5.564 0 00-.252 1.584c0 .816.246 1.368.738 1.656.168.096.318.168.45.216.132.048.27.066.414.054.216.084.48-.054.792-.414.324-.36.714-.942 1.17-1.746l.378-1.134c.096-.228.162-.414.198-.558.036-.144.054-.336.054-.576l.018-.144c.012-.072.036-.168.072-.288a.998.998 0 00.072-.324l-.036-.216a.736.736 0 00.036-.234c0-.168-.024-.372-.072-.612a2.705 2.705 0 00-.144-.522c0-.168-.03-.348-.09-.54a3.562 3.562 0 00-.18-.54c-.036-.024-.054-.066-.054-.126a.468.468 0 00-.018-.144 6.855 6.855 0 00-.414-.648 8.57 8.57 0 01-.468-.756c.048-.048.156-.084.324-.108a1.71 1.71 0 00.324-.09c.12-.06.3-.09.54-.09.24 0 .486.024.738.072.264.048.462.102.594.162a.64.64 0 00.18.054h.162c.084-.048.144-.162.18-.342.036-.192.06-.312.072-.36zm-3.06 3.906c.204.204.306.558.306 1.062 0 .3-.036.606-.108.918-.06.312-.132.564-.216.756-.084.18-.144.372-.18.576-.096.144-.246.408-.45.792-.096.192-.21.396-.342.612-.12.204-.276.42-.468.648l-.36-.324a2.263 2.263 0 01-.09-.54c0-.036.012-.174.036-.414.06-.468.222-1.038.486-1.71.264-.672.54-1.152.828-1.44a2.85 2.85 0 00.342-.45c.132-.216.204-.378.216-.486zm1.935 5.796a.394.394 0 01-.252.072 1.76 1.76 0 01-.594-.126l-.126-.324a1.74 1.74 0 00-.072-.342l.198-.198h.396a.437.437 0 00.144-.108c.06-.06.12-.09.18-.09.42-.264.834-.756 1.242-1.476.42-.732.852-1.584 1.296-2.556l.162-.342-.018-.09a2.49 2.49 0 01-.288.072 2.783 2.783 0 00-.27.072l-.108.072a.508.508 0 01-.342.108.835.835 0 01-.378-.09.55.55 0 01-.234-.234 19.08 19.08 0 00-.162-.252.908.908 0 01.234-.306.68.68 0 01.324-.198c.6-.144 1.128-.216 1.584-.216.444 0 .876.078 1.296.234.036.012.084.024.144.036.06.012.114.036.162.072.192.144.33.258.414.342a.909.909 0 01.288.522c.036.144.054.294.054.45 0 .072-.012.18-.036.324-.048.204-.21.786-.486 1.746l-.126.396c-.228.756-.456 1.53-.684 2.322a.985.985 0 01-.216.036c-.228 0-.432-.108-.612-.324a1.359 1.359 0 01-.072-.432c0-.168.042-.336.126-.504a1.17 1.17 0 00.09-.288c.036-.12.06-.204.072-.252.072-.372.156-.618.252-.738a.29.29 0 00.036-.126c0-.12.108-.552.324-1.296.168-.588.264-.942.288-1.062a.399.399 0 000-.234.67.67 0 01-.018-.162.994.994 0 00-.45-.108c-.156 0-.258.06-.306.18l-.054.162c-.06.204-.162.438-.306.702-.252.528-.426.96-.522 1.296a.717.717 0 01-.09.234c-.036.072-.06.126-.072.162a1.274 1.274 0 00-.162.342.16.16 0 01-.018.072l-.036.036c-.036.06-.18.288-.432.684-.324.516-.912 1.092-1.764 1.728zm7.187.126c-.384-.156-.654-.354-.81-.594-.156-.252-.234-.6-.234-1.044 0-.216.018-.468.054-.756l.036-.648a.701.701 0 00-.036-.252.558.558 0 00-.162-.198l-.18-.18c-.096-.096-.138-.174-.126-.234l-.018-.09c0-.084.012-.162.036-.234.036-.072.072-.108.108-.108a.774.774 0 00.144-.018.262.262 0 01.162-.018c.168 0 .252.036.252.108.048.096.126.108.234.036.12-.084.234-.24.342-.468.168-.264.414-.54.738-.828.336-.3.612-.51.828-.63a1.42 1.42 0 01.414-.126c.192-.048.36-.072.504-.072.216 0 .402.048.558.144.168.096.336.234.504.414.228.168.342.432.342.792 0 .252-.06.51-.18.774-.048.18-.24.408-.576.684-.324.276-.624.468-.9.576-.336.084-.72.126-1.152.126-.288 0-.474-.024-.558-.072-.144-.084-.246.24-.306.972a2.542 2.542 0 00-.018.342c0 .204.03.366.09.486.012.012.054.06.126.144.072.072.162.138.27.198a.833.833 0 00.342.072.701.701 0 00.252-.036c.132-.036.258-.102.378-.198.12-.108.288-.27.504-.486.192-.192.33-.324.414-.396.06-.108.18-.162.36-.162.048 0 .132.012.252.036.108.084.162.174.162.27 0 .096-.06.276-.18.54-.06.12-.21.288-.45.504a5.63 5.63 0 01-.612.486 2.303 2.303 0 01-1.116.306c-.228 0-.492-.054-.792-.162zm1.062-3.654c.12-.024.294-.054.522-.09.228-.036.414-.114.558-.234.156-.132.336-.354.54-.666a.815.815 0 00.054-.288c0-.18-.036-.306-.108-.378a.396.396 0 00-.288-.126c-.168 0-.342.072-.522.216-.12.036-.3.168-.54.396a6.04 6.04 0 00-.594.684c-.168.216-.222.342-.162.378-.024.036.036.066.18.09.144.012.264.018.36.018zm8.896-2.304a.82.82 0 01.396-.108c.168 0 .312.054.432.162a.446.446 0 01.198.378c0 .024-.012.084-.036.18.036-.156-.09.102-.378.774a63.986 63.986 0 01-.468 1.08v.054c.168 0 .276.054.324.162.06.096.084.228.072.396a.971.971 0 00-.306.126.482.482 0 01-.234.09c-.036 0-.078.018-.126.054a.227.227 0 00-.09.126c-.024.048-.066.234-.126.558l-.324 1.296a.49.49 0 01-.126.216.379.379 0 01-.162.108 4.957 4.957 0 01-.288-.09 9.666 9.666 0 01-.27-.126l-.144-.108v-.108c0-.168.03-.342.09-.522.096-.288.192-.69.288-1.206-.096-.036-.336-.018-.72.054-.384.06-.594.09-.63.09-.072.036-.216.054-.432.054-.348 0-.594-.03-.738-.09l-.108.054c-.024.108-.06.228-.108.36-.132.372-.198.648-.198.828a5.664 5.664 0 01-.072.414c-.024.12-.048.3-.072.54-.012.336-.126.504-.342.504a.837.837 0 01-.432-.144 1.86 1.86 0 01-.342-.288l.288-1.386c.036-.108.072-.258.108-.45.048-.192.096-.348.144-.468l.198-.558c.144-.42.276-.762.396-1.026l.378-1.062c.036-.084.114-.312.234-.684.132-.384.21-.606.234-.666.048-.132.144-.198.288-.198a.672.672 0 01.486.144c.144.096.222.216.234.36a1.461 1.461 0 01-.054.342l-.936 2.286v.144c.048.036.132.054.252.054.096 0 .24-.018.432-.054.204-.036.33-.054.378-.054a11.68 11.68 0 011.134-.054c.168 0 .258.006.27.018l.198-.576c.192-.588.396-1.062.612-1.422.012-.036.036-.102.072-.198.036-.108.078-.228.126-.36zm6.356 6.354c-.288-.276-.504-.684-.648-1.224a1.354 1.354 0 01-.036-.378v-.378a1.15 1.15 0 01-.396.486c-.276.276-.552.48-.828.612-.42.276-.762.414-1.026.414-.24 0-.468-.132-.684-.396a1.794 1.794 0 01-.36-.396 1.003 1.003 0 01-.108-.486c0-.132.018-.276.054-.432.024-.444.084-.87.18-1.278.108-.408.306-.93.594-1.566.384-.756.66-1.26.828-1.512a.639.639 0 01.234-.036.39.39 0 01.288.108.418.418 0 01.144.288.323.323 0 01.054.198c0 .3-.18.792-.54 1.476-.468 1.128-.702 1.908-.702 2.34 0 .252.072.402.216.45.06.036.126.054.198.054.3 0 .66-.204 1.08-.612.42-.408.822-1.062 1.206-1.962a4.21 4.21 0 00.306-1.26.546.546 0 01-.018-.162c0-.216.108-.39.324-.522a.44.44 0 01.198-.162c.084-.048.138-.048.162 0l.288-.018c.036-.012.072.024.108.108.036.072.072.12.108.144.084.072.126.204.126.396 0 .396-.174 1.002-.522 1.818-.228.48-.384.852-.468 1.116a3.28 3.28 0 00-.126.738c0 .456.174.834.522 1.134.12.084.192.174.216.27.024.096.03.228.018.396-.024.108-.096.198-.216.27a.729.729 0 01-.36.09.704.704 0 01-.414-.126zm4.088.09c-.516 0-.942-.192-1.278-.576-.336-.384-.504-.864-.504-1.44s.126-1.206.378-1.89c.264-.696.6-1.32 1.008-1.872.408-.552.822-.924 1.242-1.116.24-.132.51-.198.81-.198.228 0 .486.066.774.198.204.084.36.186.468.306.108.12.204.306.288.558.036.216.054.366.054.45 0 .072-.03.228-.09.468a3.73 3.73 0 01-.576 1.134c-.228.3-.528.558-.9.774-.192.12-.432.18-.72.18-.252 0-.492-.042-.72-.126a1.15 1.15 0 01-.504-.414l-.126-.144-.054.144c-.252.648-.378 1.2-.378 1.656 0 .312.06.564.18.756.084.132.288.198.612.198.24 0 .414-.024.522-.072.18-.06.336-.132.468-.216.144-.096.282-.192.414-.288l.072-.036h-.018a4.428 4.428 0 00.558-.324.16.16 0 00.072-.018.204.204 0 00.072-.072c.108-.048.234-.03.378.054.144.084.216.192.216.324-.024.096-.132.252-.324.468-.192.216-.336.33-.432.342a.57.57 0 00-.126.054.606.606 0 00-.144.09h.018c-.108.144-.216.216-.324.216h-.144c-.048.096-.21.192-.486.288a2.211 2.211 0 01-.756.144zm.81-3.96c.36 0 .69-.204.99-.612.288-.384.432-.768.432-1.152 0-.204-.042-.348-.126-.432a.448.448 0 00-.198-.054c-.06 0-.162.018-.306.054-.156.036-.396.204-.72.504-.324.288-.564.546-.72.774l-.234.378a.771.771 0 01.27-.054c.096-.012.15-.006.162.018 0 .168.042.306.126.414a.393.393 0 00.324.162zm9.241 3.744a2.651 2.651 0 00-.216-.18 1.542 1.542 0 00-.324-.108 3.103 3.103 0 00-.216-.468c-.156-.216-.24-.402-.252-.558v-.18c0-.132-.03-.228-.09-.288.06-.048.072-.12.036-.216-.036-.108-.03-.186.018-.234l.018-.126a.491.491 0 01-.054-.252c0-.192.06-.576.18-1.152.12-.552.168-.882.144-.99l-.342-.306c.024-.18.054-.312.09-.396.036-.096.12-.174.252-.234l.126.054a.558.558 0 00.108-.036.88.88 0 01.09-.054c.204-.384.396-.864.576-1.44.072-.228.162-.468.27-.72.12-.264.24-.474.36-.63.072-.084.138-.186.198-.306l.126-.252c.156-.324.408-.69.756-1.098.36-.408.69-.702.99-.882.18-.12.336-.192.468-.216.132-.024.336-.042.612-.054.156.096.312.228.468.396.156.156.234.3.234.432v.27c0 .204-.03.366-.09.486.012.108-.018.282-.09.522a1.58 1.58 0 00-.108.36c-.3.624-.57 1.116-.81 1.476-.24.348-.504.66-.792.936-.276.264-.732.654-1.368 1.17.516.156.78.444.792.864 0 .036-.006.102-.018.198 0 .084.006.156.018.216l.036.432c0 .096.012.24.036.432.036.264.012.612-.072 1.044a.226.226 0 01-.054.09.2.2 0 00-.018.09.877.877 0 01-.072.36 2.03 2.03 0 01-.162.324c-.06.108-.114.21-.162.306a.555.555 0 01-.144.162.654.654 0 00-.162.144 1.201 1.201 0 01-.432.342c-.144.06-.33.114-.558.162a2.302 2.302 0 00-.36.072l-.036.036zm1.044-6.318l.9-.738c.048-.024.168-.168.36-.432.192-.264.306-.432.342-.504.132-.108.276-.336.432-.684.156-.36.282-.726.378-1.098.096-.384.132-.666.108-.846l-.126.054c-.18.228-.438.534-.774.918a8.987 8.987 0 00-1.08 1.512 9.201 9.201 0 00-.738 1.71l.198.108zm-.612 5.184c.3-.3.498-.612.594-.936.096-.336.144-.744.144-1.224v-.63a.571.571 0 00-.036-.162.29.29 0 01.018-.18 13.67 13.67 0 00-.144-.396 1.12 1.12 0 00-.27-.468.892.892 0 00-.234.162c-.06.06-.138.162-.234.306-.072.144-.144.45-.216.918-.06.456-.09.9-.09 1.332 0 .66.078 1.086.234 1.278h.234zm10.138.828c-.144.06-.294.09-.45.09-.252 0-.558-.066-.918-.198-.06 0-.156-.054-.288-.162a1.006 1.006 0 01-.288-.36c-.168-.24-.252-.564-.252-.972 0-.612.174-1.344.522-2.196.132-.276.348-.636.648-1.08.312-.456.522-.714.63-.774l.252-.09c.132-.06.282-.132.45-.216.168-.084.366-.126.594-.126.228 0 .48.084.756.252.288.156.516.342.684.558.168.216.228.402.18.558-.012.036-.084.114-.216.234l-.288.288a.295.295 0 01-.216.09.396.396 0 01-.288-.126.63.63 0 01-.144-.378c-.024-.072-.102-.15-.234-.234a2.455 2.455 0 00-.252-.162c-.096 0-.234.084-.414.252a4.13 4.13 0 00-.504.63c-.276.288-.51.642-.702 1.062-.192.42-.33.78-.414 1.08a.618.618 0 00-.036.252c0 .132.012.264.036.396.036.132.072.216.108.252a.526.526 0 00.18.018c.276 0 .666-.042 1.17-.126.516-.096.912-.198 1.188-.306.276-.18.54-.27.792-.27.084 0 .144.006.18.018.156.072.234.156.234.252 0 .168-.174.348-.522.54a3.967 3.967 0 00-.522.324c-.144.108-.216.192-.216.252a.435.435 0 00-.144.054c-.072.024-.12.03-.144.018a4.236 4.236 0 00-.612.126c-.276.072-.456.132-.54.18zm5.689.414c-.036 0-.156.006-.36.018-.192 0-.378-.042-.558-.126a1.19 1.19 0 01-.45-.432 2.813 2.813 0 01-.216-.54 1.902 1.902 0 01-.09-.522.63.63 0 01.036-.198c.228-1.32.414-2.154.558-2.502l.288-.702a1.62 1.62 0 00.054-.648v-.072c0-.156.06-.288.18-.396.204-.156.366-.36.486-.612.084-.204.216-.48.396-.828.18-.348.312-.576.396-.684.132-.18.252-.354.36-.522l.252-.378c.156-.228.33-.42.522-.576.228-.384.678-.846 1.35-1.386.288-.24.468-.396.54-.468.036-.036.144-.072.324-.108l.342-.09.486-.126c.072-.036.204-.006.396.09.204.084.354.18.45.288.192.336.288.6.288.792 0 .156-.036.33-.108.522-.072.192-.21.504-.414.936-.432.864-1.218 1.686-2.358 2.466-.432.384-.918.72-1.458 1.008a7.26 7.26 0 01-.972.432c-.192.06-.33.198-.414.414-.048.108-.09.24-.126.396-.024.156-.06.258-.108.306-.072.072-.192.474-.36 1.206-.168.732-.252 1.23-.252 1.494 0 .096.012.18.036.252a.27.27 0 00.162.162c.168-.036.3-.09.396-.162a3.03 3.03 0 00.396-.396c.336-.42.576-.822.72-1.206a3.99 3.99 0 00.108-.414c.036-.18.078-.318.126-.414 0-.42-.006-.69-.018-.81a1.715 1.715 0 00-.126-.468.748.748 0 00.144-.108.195.195 0 01.18-.054c.276.06.558.228.846.504a.287.287 0 01.072.306c-.048.384-.072.66-.072.828-.036.084-.096.27-.18.558a1.452 1.452 0 01-.108.45 12.31 12.31 0 01-.468.9 3.878 3.878 0 01-1.08 1.26l-.594.36zm.828-6.642c.06.012.132.018.216.018.12 0 .222-.06.306-.18.876-.576 1.614-1.134 2.214-1.674.612-.552.99-1.02 1.134-1.404.048-.096.114-.216.198-.36.084-.156.138-.3.162-.432l-.072-.504a5.04 5.04 0 00-.828.45 5.733 5.733 0 00-.738.648c-.3.3-.756.84-1.368 1.62-.6.78-1.008 1.386-1.224 1.818zm4.856 6.588a1.126 1.126 0 01-.36-.018 2.93 2.93 0 01-.378-.216c-.516-.42-.768-.834-.756-1.242a.546.546 0 00.018-.162.546.546 0 00-.018-.162.541.541 0 01-.018-.09 1.09 1.09 0 01-.09-.072.16.16 0 01.018-.072.282.282 0 00.054-.072c.048-.012.072-.036.072-.072a.29.29 0 00-.036-.126c-.036-.096-.018-.312.054-.648.084-.348.192-.672.324-.972.096-.228.246-.522.45-.882.216-.36.414-.636.594-.828.252-.288.48-.51.684-.666.216-.156.462-.282.738-.378.252-.108.426-.162.522-.162.12 0 .27.072.45.216.288.084.504.204.648.36.156.144.276.372.36.684.072.252.108.534.108.846 0 .672-.21 1.41-.63 2.214-.216.432-.426.768-.63 1.008a9.579 9.579 0 01-.846.81c-.252.204-.474.36-.666.468-.18.108-.402.186-.666.234zm1.44-2.142c.252-.372.444-.708.576-1.008.132-.312.24-.696.324-1.152.012-.048.018-.144.018-.288 0-.24-.024-.468-.072-.684-.048-.216-.108-.33-.18-.342a.771.771 0 00-.27-.054c-.276 0-.57.162-.882.486-.288.336-.54.744-.756 1.224a15.44 15.44 0 00-.612 1.728c-.06.24-.09.432-.09.576 0 .216.042.39.126.522.084.12.204.18.36.18.192 0 .414-.096.666-.288.252-.204.516-.504.792-.9zm6.256 1.62c-.3.264-.66.396-1.08.396-.3 0-.588-.072-.864-.216a1.97 1.97 0 01-.666-.594 1.869 1.869 0 01-.342-.648 3.106 3.106 0 01-.108-.882c0-.12.012-.36.036-.72.036-.444.18-.906.432-1.386.264-.48.588-.906.972-1.278.384-.384.762-.648 1.134-.792.192-.12.366-.18.522-.18.084 0 .168.006.252.018l.27.036c.264.036.462.09.594.162.144.06.264.156.36.288.3.3.45.648.45 1.044-.048.288-.234.618-.558.99a3.768 3.768 0 01-1.17.9 2.33 2.33 0 01-.738.108c-.372 0-.672-.078-.9-.234a.863.863 0 00-.252-.054c-.108 0-.192.072-.252.216-.048.144-.096.408-.144.792a2.721 2.721 0 00-.018.36c0 .612.204.948.612 1.008.276.06.474.09.594.09.144 0 .306-.048.486-.144l.342-.198a.76.76 0 00.198-.144l.162-.162.108-.108c.048-.06.09-.096.126-.108a.29.29 0 01.126-.036c.048 0 .102.03.162.09.06.048.108.084.144.108.108 0 .132.078.072.234-.06.144-.192.318-.396.522a3.663 3.663 0 01-.666.522zm-.018-3.816c.204-.084.408-.234.612-.45.216-.216.324-.396.324-.54a.462.462 0 00-.162-.36c-.108-.096-.258-.144-.45-.144-.144 0-.252.012-.324.036-.168.048-.366.18-.594.396a4.822 4.822 0 00-.594.63c-.168.216-.234.342-.198.378.06.108.294.162.702.162.276 0 .504-.036.684-.108zm11.163 4.086c-.12.024-.204.036-.252.036a.952.952 0 01-.522-.162 4.336 4.336 0 00-.108-.198 1.975 1.975 0 01-.108-.252.419.419 0 01.018-.216c.024-.06.042-.15.054-.27l.054-.288c.024-.348.066-.588.126-.72a.29.29 0 00.036-.126c.012-.108.048-.264.108-.468.06-.216.096-.36.108-.432.024-.132.054-.354.09-.666a5.08 5.08 0 00.072-.648c0-.036.018-.084.054-.144a.163.163 0 000-.18c-.312.3-.696.714-1.152 1.242-.444.516-.762.936-.954 1.26.012-.024-.048.054-.18.234a2.057 2.057 0 01-.18.198.747.747 0 00-.162.234 5.57 5.57 0 00-.432.504c-.24.288-.438.498-.594.63a.585.585 0 01-.288 0 3.553 3.553 0 01-.27-.09 1.975 1.975 0 00-.252-.108l-.18-.378.144-.864c.072-.42.132-.852.18-1.296.06-.444.084-.768.072-.972l-.018-.126a.24.24 0 01.054-.144l.018-.126c-.036-.036-.054-.072-.054-.108 0-.024.006-.06.018-.108.024-.06.024-.108 0-.144l-.108-.072a8.69 8.69 0 01-.576.81c-.228.276-.384.462-.468.558l-.702.882c-.06.096-.198.312-.414.648-.276.504-.528.858-.756 1.062a3.569 3.569 0 00-.252.288 1.683 1.683 0 01-.27.252c-.048.168-.174.252-.378.252a.993.993 0 01-.558-.18c-.18-.132-.27-.27-.27-.414 0-.096.036-.18.108-.252l.054-.126c.204-.084.414-.24.63-.468.216-.228.48-.54.792-.936.276-.348.456-.57.54-.666.144-.156.288-.36.432-.612l.144-.216c.048-.084.108-.168.18-.252.072-.084.282-.372.63-.864.036-.048.162-.222.378-.522.228-.312.45-.576.666-.792.216.12.402.18.558.18.12.156.24.288.36.396.288.252.432.696.432 1.332 0 .408-.066.966-.198 1.674l-.09.558.018.054c.24-.216.528-.558.864-1.026l.486-.612c.576-.672.96-1.104 1.152-1.296.192-.204.378-.378.558-.522.372-.336.636-.576.792-.72h.54c.072.06.138.108.198.144.072.024.156.048.252.072.012.048.03.138.054.27.036.132.048.222.036.27-.024.06-.042.144-.054.252 0 .096-.024.18-.072.252-.12.192-.24.558-.36 1.098-.108.528-.174.948-.198 1.26a1.524 1.524 0 01-.144.45.97.97 0 00-.108.252.96.96 0 00-.018.216.946.946 0 01-.054.36l-.036.036v.288c0 .192-.024.33-.072.414a.632.632 0 01.018.18v.144c0 .108.012.186.036.234l-.252.306zm14.908-1.206c.048.036.072.09.072.162 0 .084-.03.168-.09.252-.048.072-.096.108-.144.108-.228 0-.45-.06-.666-.18-.204-.132-.306-.336-.306-.612v-1.116c0-.564-.042-.882-.126-.954-.18-.096-.492.102-.936.594a12.38 12.38 0 00-1.26 1.746c-.132.216-.24.384-.324.504-.084.12-.15.18-.198.18-.036 0-.096-.03-.18-.09-.372-.108-.558-.318-.558-.63 0-.036.012-.114.036-.234.12-.396.24-.834.36-1.314.12-.492.216-.906.288-1.242a.186.186 0 00-.18-.108c-.12 0-.258.06-.414.18-.3.204-.684.69-1.152 1.458-.588.9-.996 1.446-1.224 1.638a2.367 2.367 0 01-.234.342c-.06.072-.12.108-.18.108-.048 0-.138-.036-.27-.108-.348-.204-.522-.492-.522-.864 0-.18.054-.54.162-1.08.108-.54.228-1.044.36-1.512a5.97 5.97 0 00.288-.63c.096-.228.144-.366.144-.414.048-.252.108-.522.18-.81.072-.288.126-.45.162-.486a.396.396 0 01.288-.126c.18 0 .312.096.396.288.132.132.198.3.198.504 0 .228-.066.522-.198.882-.204.444-.426 1.092-.666 1.944.252-.276.432-.492.54-.648.288-.408.66-.864 1.116-1.368.372-.408.792-.612 1.26-.612.552.096.87.558.954 1.386 0 .144-.012.324-.036.54a6.523 6.523 0 01-.054.396c.048-.072.168-.228.36-.468.204-.24.45-.486.738-.738.264-.204.51-.306.738-.306.192 0 .36.078.504.234.252.144.432.348.54.612.108.252.162.576.162.972 0 .204-.006.366-.018.486-.024.24-.036.39-.036.45 0 .228.042.456.126.684zm3.268 1.62c-.516 0-.942-.192-1.278-.576-.336-.384-.504-.864-.504-1.44s.126-1.206.378-1.89c.264-.696.6-1.32 1.008-1.872.408-.552.822-.924 1.242-1.116.24-.132.51-.198.81-.198.228 0 .486.066.774.198.204.084.36.186.468.306.108.12.204.306.288.558.036.216.054.366.054.45 0 .072-.03.228-.09.468a3.73 3.73 0 01-.576 1.134c-.228.3-.528.558-.9.774-.192.12-.432.18-.72.18-.252 0-.492-.042-.72-.126a1.15 1.15 0 01-.504-.414l-.126-.144-.054.144c-.252.648-.378 1.2-.378 1.656 0 .312.06.564.18.756.084.132.288.198.612.198.24 0 .414-.024.522-.072.18-.06.336-.132.468-.216.144-.096.282-.192.414-.288l.072-.036h-.018a4.428 4.428 0 00.558-.324.16.16 0 00.072-.018.204.204 0 00.072-.072c.108-.048.234-.03.378.054.144.084.216.192.216.324-.024.096-.132.252-.324.468-.192.216-.336.33-.432.342a.57.57 0 00-.126.054.606.606 0 00-.144.09h.018c-.108.144-.216.216-.324.216h-.144c-.048.096-.21.192-.486.288a2.211 2.211 0 01-.756.144zm.81-3.96c.36 0 .69-.204.99-.612.288-.384.432-.768.432-1.152 0-.204-.042-.348-.126-.432a.448.448 0 00-.198-.054c-.06 0-.162.018-.306.054-.156.036-.396.204-.72.504-.324.288-.564.546-.72.774l-.234.378a.771.771 0 01.27-.054c.096-.012.15-.006.162.018 0 .168.042.306.126.414a.393.393 0 00.324.162zm2.542 3.834c-.072-.024-.174-.102-.306-.234a5.11 5.11 0 00-.252-.288c0-.084.024-.15.072-.198.06-.048.102-.084.126-.108.036-.048.114-.084.234-.108.132-.024.216-.054.252-.09.048-.036.168-.12.36-.252.192-.132.36-.264.504-.396.156-.144.282-.288.378-.432.312-.444.642-.972.99-1.584.108-.204.246-.48.414-.828.18-.36.282-.594.306-.702l-.558-.18a1.073 1.073 0 01-.108-.144.62.62 0 01-.09-.18v-.162c0-.144.012-.246.036-.306.036-.06.102-.096.198-.108.372-.072.678-.126.918-.162.36-.048.63-.096.81-.144.144-.036.306-.054.486-.054.312 0 .594.054.846.162.18.072.336.216.468.432.168.228.252.456.252.684 0 .084-.006.168-.018.252-.012.072-.018.15-.018.234 0 .108.018.216.054.324a17.704 17.704 0 01-.504 1.584c-.036.096-.09.258-.162.486a6.629 6.629 0 00-.162.594c-.036.18-.09.348-.162.504a3.778 3.778 0 00-.18.666.507.507 0 01-.162.306 1.3 1.3 0 01-.252.162c-.084.036-.138.06-.162.072-.048.024-.132.012-.252-.036a.898.898 0 01-.306-.198.936.936 0 01-.036-.288c0-.096.024-.228.072-.396.216-.696.51-1.704.882-3.024l.198-.684c.036-.108.054-.234.054-.378a1.02 1.02 0 00-.054-.324 1.39 1.39 0 00-.45-.108.63.63 0 00-.198.036 1.664 1.664 0 01-.198.054.503.503 0 00-.216.342c-.228.6-.462 1.128-.702 1.584-.24.456-.426.828-.558 1.116-.048.12-.186.348-.414.684a7.866 7.866 0 00-.306.486l-.198.252c-.06.06-.162.156-.306.288-.144.132-.246.228-.306.288l-.558.432c-.072.06-.204.09-.396.09-.18-.012-.3-.018-.36-.018zm8.397-.36c-.384-.156-.654-.354-.81-.594-.156-.252-.234-.6-.234-1.044 0-.216.018-.468.054-.756l.036-.648a.701.701 0 00-.036-.252.558.558 0 00-.162-.198l-.18-.18c-.096-.096-.138-.174-.126-.234l-.018-.09c0-.084.012-.162.036-.234.036-.072.072-.108.108-.108a.774.774 0 00.144-.018.262.262 0 01.162-.018c.168 0 .252.036.252.108.048.096.126.108.234.036.12-.084.234-.24.342-.468.168-.264.414-.54.738-.828.336-.3.612-.51.828-.63a1.42 1.42 0 01.414-.126c.192-.048.36-.072.504-.072.216 0 .402.048.558.144.168.096.336.234.504.414.228.168.342.432.342.792 0 .252-.06.51-.18.774-.048.18-.24.408-.576.684-.324.276-.624.468-.9.576-.336.084-.72.126-1.152.126-.288 0-.474-.024-.558-.072-.144-.084-.246.24-.306.972a2.542 2.542 0 00-.018.342c0 .204.03.366.09.486.012.012.054.06.126.144.072.072.162.138.27.198a.833.833 0 00.342.072.701.701 0 00.252-.036c.132-.036.258-.102.378-.198.12-.108.288-.27.504-.486.192-.192.33-.324.414-.396.06-.108.18-.162.36-.162.048 0 .132.012.252.036.108.084.162.174.162.27 0 .096-.06.276-.18.54-.06.12-.21.288-.45.504a5.63 5.63 0 01-.612.486 2.303 2.303 0 01-1.116.306c-.228 0-.492-.054-.792-.162zm1.062-3.654c.12-.024.294-.054.522-.09.228-.036.414-.114.558-.234.156-.132.336-.354.54-.666a.815.815 0 00.054-.288c0-.18-.036-.306-.108-.378a.396.396 0 00-.288-.126c-.168 0-.342.072-.522.216-.12.036-.3.168-.54.396a6.04 6.04 0 00-.594.684c-.168.216-.222.342-.162.378-.024.036.036.066.18.09.144.012.264.018.36.018z" fill="#8E80A9"/></svg>