<svg width="233" height="18" viewBox="0 0 233 18" fill="none" xmlns="http://www.w3.org/2000/svg">
<path d="M1.286 13.414C0.938 13.414 0.716 13.366 0.62 13.27C0.524 13.174 0.476 13.042 0.476 12.874C0.512 12.766 0.56 12.646 0.62 12.514C0.74 12.19 0.818 11.956 0.854 11.812C0.902 11.584 0.98 11.296 1.088 10.948C1.64 9.172 2.012 8.05 2.204 7.582L2.888 5.674L3.518 3.838C3.818 3.19 4.028 2.65 4.148 2.218C4.16 2.194 4.166 2.158 4.166 2.11C4.166 2.074 4.148 2.02 4.112 1.948C4.076 1.864 4.058 1.774 4.058 1.678C4.046 1.534 4.082 1.432 4.166 1.372C4.262 1.3 4.382 1.282 4.526 1.318C4.826 1.402 5.33 1.444 6.038 1.444C6.302 1.444 6.458 1.432 6.506 1.408C6.602 1.36 7.172 1.264 8.216 1.12C9.26 0.975999 10.244 0.849999 11.168 0.741999L11.33 0.723999C11.426 0.723999 11.534 0.735999 11.654 0.76C11.786 0.784 11.876 0.801999 11.924 0.813999C12.104 0.849999 12.26 0.946 12.392 1.102C12.536 1.246 12.59 1.408 12.554 1.588C12.506 1.732 12.374 1.804 12.158 1.804C12.086 1.804 11.906 1.78 11.618 1.732C11.594 1.732 11.552 1.846 11.492 2.074C11.444 2.302 11.39 2.488 11.33 2.632C11.198 2.8 11.024 3.22 10.808 3.892C10.592 4.564 10.484 5.002 10.484 5.206C10.316 5.458 10.178 5.836 10.07 6.34C10.01 6.592 9.95 6.796 9.89 6.952C9.746 7.444 9.518 8.26 9.206 9.4C8.906 10.54 8.762 11.11 8.774 11.11L8.702 11.758C8.654 12.154 8.624 12.43 8.612 12.586C8.624 12.634 8.624 12.676 8.612 12.712C8.612 12.748 8.594 12.772 8.558 12.784C8.474 12.868 8.318 12.91 8.09 12.91C7.994 12.91 7.898 12.898 7.802 12.874C7.718 12.85 7.664 12.82 7.64 12.784C7.628 12.748 7.592 12.682 7.532 12.586C7.472 12.478 7.454 12.37 7.478 12.262C7.514 11.878 7.61 11.218 7.766 10.282C7.826 9.982 7.898 9.706 7.982 9.454C8.066 9.19 8.126 9.046 8.162 9.022L8.504 7.744C8.636 7.372 8.738 6.982 8.81 6.574C8.822 6.526 8.852 6.4 8.9 6.196C8.948 5.98 9.02 5.74 9.116 5.476C9.248 5.14 9.362 4.78 9.458 4.396C9.566 4 9.632 3.754 9.656 3.658C9.692 3.526 9.794 3.22 9.962 2.74C9.986 2.68 10.028 2.554 10.088 2.362C10.16 2.158 10.19 1.996 10.178 1.876L8.99 2.038L7.91 2.182L6.668 2.362C6.02 2.458 5.678 2.506 5.642 2.506C5.438 2.542 5.336 2.614 5.336 2.722C5.048 3.274 4.79 3.826 4.562 4.378C4.334 4.918 4.178 5.368 4.094 5.728C4.046 5.836 3.848 6.364 3.5 7.312C3.284 7.864 3.182 8.128 3.194 8.104C2.954 8.908 2.696 9.664 2.42 10.372C2.36 10.504 2.306 10.63 2.258 10.75C2.222 10.87 2.186 11.044 2.15 11.272C2.054 11.524 1.946 11.926 1.826 12.478C1.778 12.634 1.748 12.754 1.736 12.838C1.736 12.91 1.724 13.006 1.7 13.126C1.604 13.318 1.466 13.414 1.286 13.414ZM12.9053 12.73C12.7613 12.73 12.6473 12.706 12.5633 12.658C12.4793 12.61 12.3593 12.52 12.2033 12.388C11.8073 11.968 11.6093 11.584 11.6093 11.236C11.6093 11.152 11.6153 11.092 11.6273 11.056C11.6633 10.972 11.6753 10.888 11.6633 10.804C11.6633 10.72 11.6633 10.666 11.6633 10.642C11.6153 10.594 11.5913 10.564 11.5913 10.552C11.5913 10.528 11.6033 10.51 11.6273 10.498C11.6513 10.474 11.6693 10.45 11.6813 10.426C11.7533 10.426 11.7773 10.36 11.7533 10.228C11.7293 10.132 11.7773 9.922 11.8973 9.598C12.0173 9.262 12.1673 8.956 12.3473 8.68C12.4793 8.464 12.6713 8.194 12.9233 7.87C13.1873 7.546 13.4213 7.3 13.6253 7.132C13.9133 6.88 14.1713 6.694 14.3993 6.574C14.6273 6.454 14.8793 6.364 15.1553 6.304C15.3953 6.244 15.5573 6.214 15.6413 6.214C15.7253 6.214 15.7973 6.238 15.8573 6.286C15.9293 6.322 16.0193 6.394 16.1273 6.502C16.4513 6.646 16.6733 6.832 16.7933 7.06C16.9253 7.276 16.9913 7.618 16.9913 8.086C16.9913 8.866 16.6733 9.712 16.0373 10.624C15.7613 11.02 15.5033 11.326 15.2633 11.542C15.0233 11.746 14.7053 11.968 14.3093 12.208C14.0573 12.388 13.8233 12.52 13.6073 12.604C13.4033 12.676 13.1693 12.718 12.9053 12.73ZM14.6333 10.822C14.9213 10.498 15.1493 10.192 15.3173 9.904C15.4973 9.616 15.6653 9.25 15.8213 8.806C15.8813 8.602 15.9113 8.356 15.9113 8.068C15.9113 7.708 15.8633 7.504 15.7673 7.456C15.6473 7.396 15.5273 7.366 15.4073 7.366C15.1433 7.366 14.8673 7.486 14.5793 7.726C14.2313 8.026 13.9193 8.398 13.6433 8.842C13.3673 9.274 13.0853 9.814 12.7973 10.462C12.6773 10.714 12.6173 10.96 12.6173 11.2C12.6173 11.38 12.6593 11.524 12.7433 11.632C12.8393 11.74 12.9653 11.794 13.1213 11.794C13.5173 11.794 14.0213 11.47 14.6333 10.822ZM21.051 12.73C20.775 12.61 20.589 12.466 20.493 12.298C20.385 12.142 20.331 11.902 20.331 11.578C20.331 11.35 20.337 11.17 20.349 11.038C20.361 10.966 20.427 10.732 20.547 10.336C20.679 9.94 20.775 9.664 20.835 9.508C20.727 9.532 20.625 9.574 20.529 9.634C20.445 9.694 20.361 9.754 20.277 9.814C20.157 9.934 19.995 10.054 19.791 10.174C19.587 10.294 19.401 10.384 19.233 10.444C19.185 10.468 19.131 10.48 19.071 10.48C18.939 10.48 18.789 10.438 18.621 10.354C18.465 10.258 18.351 10.138 18.279 9.994C18.219 9.85 18.177 9.688 18.153 9.508C18.141 9.448 18.135 9.358 18.135 9.238C18.135 8.938 18.207 8.644 18.351 8.356L18.801 7.438C18.909 7.234 19.059 6.928 19.251 6.52C19.287 6.448 19.341 6.358 19.413 6.25C19.485 6.142 19.533 6.046 19.557 5.962C19.569 5.914 19.605 5.86 19.665 5.8C19.737 5.728 19.803 5.692 19.863 5.692C20.175 5.716 20.397 5.83 20.529 6.034C20.601 6.118 20.637 6.208 20.637 6.304C20.637 6.424 20.589 6.538 20.493 6.646C20.121 7.15 19.737 7.828 19.341 8.68C19.233 8.872 19.179 9.064 19.179 9.256C19.179 9.316 19.185 9.364 19.197 9.4C19.389 9.4 19.665 9.268 20.025 9.004C20.385 8.74 20.847 8.374 21.411 7.906L21.843 7.546C22.119 7.318 22.359 7.042 22.563 6.718C22.671 6.514 22.857 6.406 23.121 6.394C23.301 6.478 23.415 6.532 23.463 6.556C23.511 6.652 23.559 6.754 23.607 6.862C23.667 6.958 23.697 7.036 23.697 7.096C23.697 7.204 23.613 7.348 23.445 7.528C23.361 7.54 23.193 7.726 22.941 8.086C22.701 8.434 22.515 8.734 22.383 8.986C22.347 9.046 22.299 9.112 22.239 9.184C22.191 9.244 22.143 9.316 22.095 9.4L21.411 11.056C21.399 11.104 21.387 11.164 21.375 11.236C21.363 11.308 21.357 11.398 21.357 11.506C21.357 11.602 21.369 11.668 21.393 11.704C21.453 11.704 21.501 11.698 21.537 11.686C21.585 11.674 21.633 11.668 21.681 11.668C21.753 11.668 21.801 11.698 21.825 11.758C21.885 11.962 21.915 12.088 21.915 12.136C21.915 12.256 21.831 12.406 21.663 12.586C21.531 12.718 21.405 12.784 21.285 12.784C21.225 12.784 21.147 12.766 21.051 12.73ZM29.1164 6.322C29.2124 6.514 29.2604 6.724 29.2604 6.952C29.2604 7.312 29.1644 7.636 28.9724 7.924C28.8524 8.092 28.7444 8.344 28.6484 8.68C28.5644 9.016 28.4804 9.466 28.3964 10.03C28.2884 10.486 28.1564 11.188 28.0004 12.136C27.8084 12.64 27.6884 13.018 27.6404 13.27C27.6284 13.342 27.5684 13.492 27.4604 13.72C27.3644 13.948 27.2864 14.128 27.2264 14.26C26.7584 15.232 26.2244 15.976 25.6244 16.492C25.0244 17.008 24.3704 17.29 23.6624 17.338C23.4704 17.362 23.3564 17.374 23.3204 17.374C23.2124 17.374 23.1104 17.356 23.0144 17.32C22.9304 17.284 22.8344 17.236 22.7264 17.176C22.6784 17.152 22.6124 17.11 22.5284 17.05C22.4444 16.99 22.3844 16.942 22.3484 16.906C22.3244 16.882 22.3124 16.852 22.3124 16.816C22.3124 16.756 22.3484 16.696 22.4204 16.636C22.4924 16.576 22.6064 16.546 22.7624 16.546C22.8464 16.594 22.9904 16.618 23.1944 16.618C23.3984 16.618 23.5184 16.594 23.5544 16.546C23.5784 16.522 23.6504 16.48 23.7704 16.42C23.8904 16.372 24.0284 16.33 24.1844 16.294C24.5564 16.114 24.8864 15.88 25.1744 15.592C25.4744 15.316 25.7504 14.962 26.0024 14.53C26.3024 14.074 26.5004 13.66 26.5964 13.288C26.7044 13.036 26.8244 12.676 26.9564 12.208C27.1004 11.728 27.2144 11.296 27.2984 10.912L27.0644 11.128C27.0044 11.2 26.8544 11.308 26.6144 11.452C26.3744 11.584 26.2304 11.65 26.1824 11.65C26.1704 11.65 26.1524 11.656 26.1284 11.668C26.1044 11.68 26.0924 11.704 26.0924 11.74C26.0924 11.788 25.9364 11.866 25.6244 11.974C25.3124 12.07 25.1144 12.118 25.0304 12.118C24.9104 12.118 24.7784 12.058 24.6344 11.938C24.5024 11.806 24.4064 11.68 24.3464 11.56C24.3104 11.476 24.2624 11.38 24.2024 11.272C24.1424 11.164 24.0944 11.062 24.0584 10.966C24.0224 10.858 24.0044 10.738 24.0044 10.606C24.0044 10.45 24.0164 10.33 24.0404 10.246C24.1844 9.706 24.4244 8.944 24.7604 7.96C25.1084 6.976 25.3724 6.346 25.5524 6.07C25.6484 5.938 25.7624 5.872 25.8944 5.872C26.0744 5.872 26.2184 5.968 26.3264 6.16C26.4344 6.304 26.4884 6.424 26.4884 6.52C26.4884 6.592 26.4584 6.694 26.3984 6.826C26.3384 6.958 26.2604 7.114 26.1644 7.294C26.1164 7.426 26.0564 7.57 25.9844 7.726C25.9124 7.882 25.8764 7.978 25.8764 8.014C25.8644 8.062 25.8284 8.212 25.7684 8.464C25.7084 8.704 25.6544 8.824 25.6064 8.824C25.5224 8.896 25.4324 9.172 25.3364 9.652C25.2404 10.132 25.1924 10.504 25.1924 10.768C25.1924 10.9 25.2104 10.966 25.2464 10.966C25.9544 10.966 26.7224 10.438 27.5504 9.382C27.6584 8.854 27.7544 8.41 27.8384 8.05C27.9944 7.438 28.1144 6.892 28.1984 6.412C28.2704 6.244 28.3244 6.148 28.3604 6.124C28.3964 6.088 28.4744 6.07 28.5944 6.07C28.7384 6.07 28.8404 6.082 28.9004 6.106C28.9604 6.13 29.0324 6.202 29.1164 6.322ZM31.6512 12.838C31.5432 12.742 31.4712 12.682 31.4352 12.658C31.3992 12.634 31.2912 12.598 31.1112 12.55C31.0872 12.466 31.0152 12.31 30.8952 12.082C30.7392 11.866 30.6552 11.68 30.6432 11.524V11.434V11.344C30.6432 11.212 30.6132 11.116 30.5532 11.056C30.6132 11.008 30.6252 10.936 30.5892 10.84C30.5532 10.732 30.5592 10.654 30.6072 10.606L30.6252 10.48C30.5892 10.42 30.5712 10.336 30.5712 10.228C30.5712 10.036 30.6312 9.652 30.7512 9.076C30.8712 8.524 30.9192 8.194 30.8952 8.086L30.5532 7.78C30.5772 7.6 30.6072 7.468 30.6432 7.384C30.6792 7.288 30.7632 7.21 30.8952 7.15L31.0212 7.204C31.0692 7.192 31.1052 7.18 31.1292 7.168C31.1652 7.144 31.1952 7.126 31.2192 7.114C31.4232 6.73 31.6152 6.25 31.7952 5.674C31.8672 5.446 31.9572 5.206 32.0652 4.954C32.1852 4.69 32.3052 4.48 32.4252 4.324C32.4972 4.24 32.5632 4.138 32.6232 4.018C32.6832 3.898 32.7252 3.814 32.7492 3.766C32.9052 3.442 33.1572 3.076 33.5052 2.668C33.8652 2.26 34.1952 1.966 34.4952 1.786C34.6752 1.666 34.8312 1.594 34.9632 1.57C35.0952 1.546 35.2992 1.528 35.5752 1.516C35.7312 1.612 35.8872 1.744 36.0432 1.912C36.1992 2.068 36.2772 2.212 36.2772 2.344V2.614C36.2772 2.818 36.2472 2.98 36.1872 3.1C36.1992 3.208 36.1692 3.382 36.0972 3.622C36.0492 3.73 36.0132 3.85 35.9892 3.982C35.6892 4.606 35.4192 5.098 35.1792 5.458C34.9392 5.806 34.6752 6.118 34.3872 6.394C34.1112 6.658 33.6552 7.048 33.0192 7.564C33.5352 7.72 33.7992 8.008 33.8112 8.428C33.8112 8.464 33.8052 8.53 33.7932 8.626C33.7932 8.71 33.7992 8.782 33.8112 8.842L33.8472 9.274C33.8472 9.37 33.8592 9.514 33.8832 9.706C33.9192 9.97 33.8952 10.318 33.8112 10.75C33.7992 10.786 33.7812 10.816 33.7572 10.84C33.7452 10.864 33.7392 10.894 33.7392 10.93C33.7392 11.062 33.7152 11.182 33.6672 11.29C33.6312 11.386 33.5772 11.494 33.5052 11.614C33.4452 11.722 33.3912 11.824 33.3432 11.92C33.3192 11.968 33.2712 12.022 33.1992 12.082C33.1272 12.13 33.0732 12.178 33.0372 12.226C32.8932 12.394 32.7492 12.508 32.6052 12.568C32.4612 12.628 32.2752 12.682 32.0472 12.73C31.8792 12.754 31.7592 12.778 31.6872 12.802L31.6512 12.838ZM32.6952 6.52L33.5952 5.782C33.6432 5.758 33.7632 5.614 33.9552 5.35C34.1472 5.086 34.2612 4.918 34.2972 4.846C34.4292 4.738 34.5732 4.51 34.7292 4.162C34.8852 3.802 35.0112 3.436 35.1072 3.064C35.2032 2.68 35.2392 2.398 35.2152 2.218L35.0892 2.272C34.9092 2.5 34.6512 2.806 34.3152 3.19C33.9192 3.634 33.5592 4.138 33.2352 4.702C32.9232 5.266 32.6772 5.836 32.4972 6.412L32.6952 6.52ZM32.0832 11.704C32.3832 11.404 32.5812 11.092 32.6772 10.768C32.7732 10.432 32.8212 10.024 32.8212 9.544V8.914C32.8212 8.878 32.8092 8.824 32.7852 8.752C32.7732 8.68 32.7792 8.62 32.8032 8.572C32.7792 8.5 32.7312 8.368 32.6592 8.176C32.5992 7.984 32.5092 7.828 32.3892 7.708C32.2932 7.756 32.2152 7.81 32.1552 7.87C32.0952 7.93 32.0172 8.032 31.9212 8.176C31.8492 8.32 31.7772 8.626 31.7052 9.094C31.6452 9.55 31.6152 9.994 31.6152 10.426C31.6152 11.086 31.6932 11.512 31.8492 11.704H32.0832ZM37.8627 12.532C37.7187 12.592 37.5687 12.622 37.4127 12.622C37.1607 12.622 36.8547 12.556 36.4947 12.424C36.4347 12.424 36.3387 12.37 36.2067 12.262C36.0747 12.154 35.9787 12.034 35.9187 11.902C35.7507 11.662 35.6667 11.338 35.6667 10.93C35.6667 10.318 35.8407 9.586 36.1887 8.734C36.3207 8.458 36.5367 8.098 36.8367 7.654C37.1487 7.198 37.3587 6.94 37.4667 6.88C37.5027 6.868 37.5867 6.838 37.7187 6.79C37.8507 6.73 38.0007 6.658 38.1687 6.574C38.3367 6.49 38.5347 6.448 38.7627 6.448C38.9907 6.448 39.2427 6.532 39.5187 6.7C39.8067 6.856 40.0347 7.042 40.2027 7.258C40.3707 7.474 40.4307 7.66 40.3827 7.816C40.3707 7.852 40.2987 7.93 40.1667 8.05C40.0467 8.17 39.9507 8.266 39.8787 8.338C39.8187 8.398 39.7467 8.428 39.6627 8.428C39.5547 8.428 39.4587 8.386 39.3747 8.302C39.2907 8.206 39.2427 8.08 39.2307 7.924C39.2067 7.852 39.1287 7.774 38.9967 7.69C38.8767 7.606 38.7927 7.552 38.7447 7.528C38.6487 7.528 38.5107 7.612 38.3307 7.78C38.1627 7.948 37.9947 8.158 37.8267 8.41C37.5507 8.698 37.3167 9.052 37.1247 9.472C36.9327 9.892 36.7947 10.252 36.7107 10.552C36.6867 10.6 36.6747 10.684 36.6747 10.804C36.6747 10.936 36.6867 11.068 36.7107 11.2C36.7467 11.332 36.7827 11.416 36.8187 11.452C36.8427 11.464 36.9027 11.47 36.9987 11.47C37.2747 11.47 37.6647 11.428 38.1687 11.344C38.6847 11.248 39.0807 11.146 39.3567 11.038C39.6327 10.858 39.8967 10.768 40.1487 10.768C40.2327 10.768 40.2927 10.774 40.3287 10.786C40.4847 10.858 40.5627 10.942 40.5627 11.038C40.5627 11.206 40.3887 11.386 40.0407 11.578C39.8367 11.686 39.6627 11.794 39.5187 11.902C39.3747 12.01 39.3027 12.094 39.3027 12.154C39.2787 12.154 39.2307 12.172 39.1587 12.208C39.0867 12.232 39.0387 12.238 39.0147 12.226C38.8827 12.238 38.6787 12.28 38.4027 12.352C38.1267 12.424 37.9467 12.484 37.8627 12.532ZM50.2475 11.434C50.2955 11.47 50.3195 11.524 50.3195 11.596C50.3195 11.68 50.2895 11.764 50.2295 11.848C50.1815 11.92 50.1335 11.956 50.0855 11.956C49.8575 11.956 49.6355 11.896 49.4195 11.776C49.2155 11.644 49.1135 11.44 49.1135 11.164V10.048C49.1135 9.484 49.0715 9.166 48.9875 9.094C48.8075 8.998 48.4955 9.196 48.0515 9.688C47.6195 10.18 47.1995 10.762 46.7915 11.434C46.6595 11.65 46.5515 11.818 46.4675 11.938C46.3835 12.058 46.3175 12.118 46.2695 12.118C46.2335 12.118 46.1735 12.088 46.0895 12.028C45.7175 11.92 45.5315 11.71 45.5315 11.398C45.5315 11.362 45.5435 11.284 45.5675 11.164C45.6875 10.768 45.8075 10.33 45.9275 9.85C46.0475 9.358 46.1435 8.944 46.2155 8.608C46.1795 8.536 46.1195 8.5 46.0355 8.5C45.9155 8.5 45.7775 8.56 45.6215 8.68C45.3215 8.884 44.9375 9.37 44.4695 10.138C43.8815 11.038 43.4735 11.584 43.2455 11.776C43.1615 11.92 43.0835 12.034 43.0115 12.118C42.9515 12.19 42.8915 12.226 42.8315 12.226C42.7835 12.226 42.6935 12.19 42.5615 12.118C42.2135 11.914 42.0395 11.626 42.0395 11.254C42.0395 11.074 42.0935 10.714 42.2015 10.174C42.3095 9.634 42.4295 9.13 42.5615 8.662C42.6695 8.458 42.7655 8.248 42.8495 8.032C42.9455 7.804 42.9935 7.666 42.9935 7.618C43.0415 7.366 43.1015 7.096 43.1735 6.808C43.2455 6.52 43.2995 6.358 43.3355 6.322C43.4195 6.238 43.5155 6.196 43.6235 6.196C43.8035 6.196 43.9355 6.292 44.0195 6.484C44.1515 6.616 44.2175 6.784 44.2175 6.988C44.2175 7.216 44.1515 7.51 44.0195 7.87C43.8155 8.314 43.5935 8.962 43.3535 9.814C43.6055 9.538 43.7855 9.322 43.8935 9.166C44.1815 8.758 44.5535 8.302 45.0095 7.798C45.3815 7.39 45.8015 7.186 46.2695 7.186C46.8215 7.282 47.1395 7.744 47.2235 8.572C47.2235 8.716 47.2115 8.896 47.1875 9.112C47.1635 9.316 47.1455 9.448 47.1335 9.508C47.1815 9.436 47.3015 9.28 47.4935 9.04C47.6975 8.8 47.9435 8.554 48.2315 8.302C48.4955 8.098 48.7415 7.996 48.9695 7.996C49.1615 7.996 49.3295 8.074 49.4735 8.23C49.7255 8.374 49.9055 8.578 50.0135 8.842C50.1215 9.094 50.1755 9.418 50.1755 9.814C50.1755 10.018 50.1695 10.18 50.1575 10.3C50.1335 10.54 50.1215 10.69 50.1215 10.75C50.1215 10.978 50.1635 11.206 50.2475 11.434ZM52.7098 12.838C52.6018 12.742 52.5298 12.682 52.4938 12.658C52.4578 12.634 52.3498 12.598 52.1698 12.55C52.1458 12.466 52.0738 12.31 51.9538 12.082C51.7978 11.866 51.7138 11.68 51.7018 11.524V11.434V11.344C51.7018 11.212 51.6718 11.116 51.6118 11.056C51.6718 11.008 51.6838 10.936 51.6478 10.84C51.6118 10.732 51.6178 10.654 51.6658 10.606L51.6838 10.48C51.6478 10.42 51.6298 10.336 51.6298 10.228C51.6298 10.036 51.6898 9.652 51.8098 9.076C51.9298 8.524 51.9778 8.194 51.9538 8.086L51.6118 7.78C51.6358 7.6 51.6658 7.468 51.7018 7.384C51.7378 7.288 51.8218 7.21 51.9538 7.15L52.0798 7.204C52.1278 7.192 52.1638 7.18 52.1878 7.168C52.2238 7.144 52.2538 7.126 52.2778 7.114C52.4818 6.73 52.6738 6.25 52.8538 5.674C52.9258 5.446 53.0158 5.206 53.1238 4.954C53.2438 4.69 53.3638 4.48 53.4838 4.324C53.5558 4.24 53.6218 4.138 53.6818 4.018C53.7418 3.898 53.7838 3.814 53.8078 3.766C53.9638 3.442 54.2158 3.076 54.5638 2.668C54.9238 2.26 55.2538 1.966 55.5538 1.786C55.7338 1.666 55.8898 1.594 56.0218 1.57C56.1538 1.546 56.3578 1.528 56.6338 1.516C56.7898 1.612 56.9458 1.744 57.1018 1.912C57.2578 2.068 57.3358 2.212 57.3358 2.344V2.614C57.3358 2.818 57.3058 2.98 57.2458 3.1C57.2578 3.208 57.2278 3.382 57.1558 3.622C57.1078 3.73 57.0718 3.85 57.0478 3.982C56.7478 4.606 56.4778 5.098 56.2378 5.458C55.9978 5.806 55.7338 6.118 55.4458 6.394C55.1698 6.658 54.7138 7.048 54.0778 7.564C54.5938 7.72 54.8578 8.008 54.8698 8.428C54.8698 8.464 54.8638 8.53 54.8518 8.626C54.8518 8.71 54.8578 8.782 54.8698 8.842L54.9058 9.274C54.9058 9.37 54.9178 9.514 54.9418 9.706C54.9778 9.97 54.9538 10.318 54.8698 10.75C54.8578 10.786 54.8398 10.816 54.8158 10.84C54.8038 10.864 54.7978 10.894 54.7978 10.93C54.7978 11.062 54.7738 11.182 54.7258 11.29C54.6898 11.386 54.6358 11.494 54.5638 11.614C54.5038 11.722 54.4498 11.824 54.4018 11.92C54.3778 11.968 54.3298 12.022 54.2578 12.082C54.1858 12.13 54.1318 12.178 54.0957 12.226C53.9518 12.394 53.8078 12.508 53.6638 12.568C53.5198 12.628 53.3338 12.682 53.1058 12.73C52.9378 12.754 52.8178 12.778 52.7458 12.802L52.7098 12.838ZM53.7538 6.52L54.6538 5.782C54.7018 5.758 54.8218 5.614 55.0138 5.35C55.2058 5.086 55.3198 4.918 55.3558 4.846C55.4878 4.738 55.6318 4.51 55.7878 4.162C55.9438 3.802 56.0698 3.436 56.1658 3.064C56.2618 2.68 56.2978 2.398 56.2738 2.218L56.1478 2.272C55.9678 2.5 55.7098 2.806 55.3738 3.19C54.9778 3.634 54.6178 4.138 54.2938 4.702C53.9818 5.266 53.7358 5.836 53.5558 6.412L53.7538 6.52ZM53.1418 11.704C53.4418 11.404 53.6398 11.092 53.7358 10.768C53.8318 10.432 53.8798 10.024 53.8798 9.544V8.914C53.8798 8.878 53.8678 8.824 53.8438 8.752C53.8318 8.68 53.8378 8.62 53.8618 8.572C53.8378 8.5 53.7898 8.368 53.7178 8.176C53.6578 7.984 53.5678 7.828 53.4478 7.708C53.3518 7.756 53.2738 7.81 53.2138 7.87C53.1538 7.93 53.0758 8.032 52.9798 8.176C52.9078 8.32 52.8358 8.626 52.7638 9.094C52.7038 9.55 52.6738 9.994 52.6738 10.426C52.6738 11.086 52.7518 11.512 52.9078 11.704H53.1418ZM57.5893 17.14C57.5773 17.164 57.5233 17.14 57.4273 17.068C57.3313 16.996 57.2413 16.906 57.1573 16.798C57.0853 16.69 57.0553 16.606 57.0673 16.546C57.0433 16.45 57.0313 16.366 57.0313 16.294C57.0313 16.006 57.1993 15.52 57.5353 14.836C57.6073 14.704 57.7273 14.452 57.8953 14.08C58.0033 13.804 58.1113 13.564 58.2193 13.36C58.2433 13.312 58.4533 12.94 58.8493 12.244C59.2453 11.548 59.5813 10.846 59.8573 10.138C59.6533 10.354 59.4013 10.636 59.1013 10.984C58.7533 11.416 58.4653 11.734 58.2373 11.938C58.0213 12.13 57.8233 12.22 57.6433 12.208C57.4273 12.16 57.2473 12.094 57.1033 12.01C56.9593 11.926 56.8573 11.794 56.7973 11.614C56.7613 11.41 56.7433 11.188 56.7433 10.948C56.7433 10.408 56.8213 9.676 56.9773 8.752C57.0973 8.236 57.1573 7.858 57.1573 7.618C57.1573 7.474 57.1393 7.36 57.1033 7.276C57.0673 7.192 57.0073 7.108 56.9233 7.024C56.7553 6.88 56.6713 6.748 56.6713 6.628C56.6713 6.532 56.7553 6.436 56.9233 6.34C57.0793 6.292 57.2233 6.268 57.3553 6.268C57.4513 6.268 57.5353 6.292 57.6073 6.34C57.6793 6.376 57.7633 6.454 57.8593 6.574C57.8953 6.634 57.9493 6.724 58.0213 6.844C58.0933 6.952 58.1473 7.078 58.1833 7.222C58.2193 7.354 58.2373 7.522 58.2373 7.726C58.2253 7.822 58.1773 8.2 58.0933 8.86C58.0333 9.136 58.0033 9.322 58.0033 9.418C57.8473 9.994 57.7693 10.468 57.7693 10.84C57.7693 10.984 57.7873 11.056 57.8233 11.056C58.1473 10.792 58.4653 10.468 58.7773 10.084C59.1013 9.7 59.5213 9.16 60.0373 8.464C60.0853 8.38 60.1753 8.218 60.3073 7.978C60.4513 7.726 60.5593 7.492 60.6313 7.276C60.7873 6.928 60.9193 6.748 61.0273 6.736C61.0993 6.712 61.2133 6.736 61.3693 6.808C61.5253 6.88 61.6093 6.934 61.6213 6.97C61.6213 6.982 61.6753 7 61.7833 7.024C61.8913 7.036 61.9453 7.06 61.9453 7.096C61.9453 7.12 61.8793 7.3 61.7473 7.636C61.5433 8.128 61.4473 8.392 61.4593 8.428C61.4953 8.476 61.4293 8.68 61.2613 9.04C61.1053 9.4 61.0153 9.61 60.9913 9.67C60.6913 10.63 60.3673 11.41 60.0193 12.01C59.8993 12.226 59.6113 12.856 59.1553 13.9L59.0113 14.242C58.8913 14.506 58.7593 14.806 58.6153 15.142C58.4713 15.49 58.3453 15.796 58.2373 16.06C58.1653 16.204 58.1113 16.318 58.0753 16.402C58.0513 16.498 58.0273 16.57 58.0033 16.618C57.9793 16.846 57.9253 17.014 57.8413 17.122L57.5893 17.14ZM66.7661 12.964C66.6821 13.012 66.5681 12.994 66.4241 12.91C66.2921 12.826 66.1601 12.7 66.0281 12.532C65.9321 12.376 65.8721 12.214 65.8481 12.046C65.8361 11.878 65.8301 11.53 65.8301 11.002C65.8301 10.882 65.8061 10.822 65.7581 10.822C65.7221 10.822 65.6381 10.882 65.5061 11.002C65.3741 11.11 65.2121 11.26 65.0201 11.452C64.7081 11.752 64.4201 11.986 64.1561 12.154C63.8921 12.322 63.6761 12.4 63.5081 12.388C63.3761 12.388 63.2321 12.298 63.0761 12.118C62.9321 11.938 62.8181 11.728 62.7341 11.488C62.6981 11.344 62.6801 11.176 62.6801 10.984C62.6801 10.48 62.7821 9.868 62.9861 9.148C63.2021 8.428 63.4481 7.81 63.7241 7.294C64.0121 6.766 64.2641 6.502 64.4801 6.502C64.6601 6.502 64.8281 6.7 64.9841 7.096C65.0201 7.168 65.0381 7.228 65.0381 7.276C65.0381 7.36 64.9901 7.444 64.8941 7.528C64.7141 7.756 64.5041 8.164 64.2641 8.752C64.0241 9.34 63.8321 9.886 63.6881 10.39C63.5561 10.894 63.5321 11.146 63.6161 11.146C63.7841 11.146 63.9821 11.08 64.2101 10.948C64.4381 10.816 64.6661 10.642 64.8941 10.426C65.1221 10.198 65.3261 9.958 65.5061 9.706C65.6861 9.442 65.9081 9.088 66.1721 8.644C66.6761 7.84 66.9521 7.372 67.0001 7.24C67.1801 6.904 67.3061 6.688 67.3781 6.592C67.4621 6.484 67.5641 6.412 67.6841 6.376H67.9361C68.0081 6.388 68.0921 6.442 68.1881 6.538C68.2721 6.574 68.3201 6.616 68.3321 6.664C68.3561 6.7 68.3681 6.754 68.3681 6.826L68.0801 7.492L67.9181 7.87C67.9061 7.918 67.8401 8.056 67.7201 8.284C67.4441 8.896 67.2341 9.388 67.0901 9.76C66.9461 10.132 66.8381 10.516 66.7661 10.912C66.7541 10.972 66.7481 11.074 66.7481 11.218C66.7481 11.578 66.7841 11.83 66.8561 11.974C66.9641 12.19 67.0721 12.346 67.1801 12.442C67.2401 12.49 67.2701 12.538 67.2701 12.586C67.2701 12.67 67.1981 12.754 67.0541 12.838C66.9221 12.922 66.8261 12.964 66.7661 12.964ZM66.5321 5.494C65.8001 5.578 65.2961 5.08 65.0201 4C64.9961 3.904 64.9841 3.838 64.9841 3.802C64.9841 3.718 65.0081 3.628 65.0561 3.532C65.0801 3.484 65.1281 3.448 65.2001 3.424C65.2721 3.4 65.3321 3.394 65.3801 3.406C65.5361 3.466 65.6561 3.544 65.7401 3.64C65.8241 3.724 65.8781 3.832 65.9021 3.964C65.9381 4.048 65.9561 4.132 65.9561 4.216C66.0521 4.516 66.1841 4.666 66.3521 4.666C66.3881 4.666 66.4781 4.642 66.6221 4.594C67.1261 4.39 67.5041 4.162 67.7561 3.91C67.7561 3.91 68.0081 3.676 68.5121 3.208L68.5301 3.19C68.5781 3.166 68.6201 3.154 68.6561 3.154C68.7401 3.154 68.8001 3.172 68.8361 3.208C68.8961 3.28 68.9321 3.346 68.9441 3.406C68.9561 3.466 68.9621 3.526 68.9621 3.586C68.9621 3.646 68.9621 3.694 68.9621 3.73L68.9441 3.766C68.9681 3.838 68.9081 3.982 68.7641 4.198C68.6201 4.402 68.4581 4.57 68.2781 4.702C68.0501 4.882 67.6721 5.104 67.1441 5.368C67.0601 5.416 66.9521 5.446 66.8201 5.458C66.6881 5.47 66.5921 5.482 66.5321 5.494ZM73.4833 17.05C73.3873 17.05 73.3093 16.996 73.2493 16.888C73.1893 16.804 73.1593 16.702 73.1593 16.582C73.1593 16.498 73.1893 16.294 73.2493 15.97C73.3813 15.466 73.4473 15.118 73.4473 14.926C73.4473 14.866 73.4593 14.776 73.4833 14.656C73.5073 14.548 73.5253 14.446 73.5373 14.35C73.5853 14.266 73.6273 14.134 73.6633 13.954C73.7113 13.786 73.7353 13.636 73.7353 13.504C73.7353 13.444 73.7533 13.372 73.7893 13.288C73.8373 13.216 73.8913 13.156 73.9513 13.108C73.9513 13.036 73.9693 12.928 74.0053 12.784C74.0413 12.628 74.0653 12.52 74.0773 12.46C74.1373 12.136 74.3713 11.368 74.7793 10.156C75.1873 8.944 75.5353 7.966 75.8233 7.222C75.9553 6.922 76.0513 6.646 76.1113 6.394C76.1713 6.142 76.2013 5.944 76.2013 5.8C76.2013 5.752 76.2133 5.71 76.2373 5.674C76.2733 5.626 76.3273 5.566 76.3993 5.494C76.4833 5.41 76.5613 5.368 76.6333 5.368C76.6933 5.368 76.7593 5.392 76.8313 5.44C76.9033 5.488 76.9753 5.542 77.0473 5.602C77.1193 5.71 77.1733 5.812 77.2093 5.908C77.2573 6.004 77.2813 6.106 77.2813 6.214C77.2813 6.25 77.2693 6.364 77.2453 6.556C77.2453 6.808 77.1913 7.018 77.0833 7.186C76.9753 7.342 76.9333 7.414 76.9573 7.402C77.4973 7.15 77.9773 7.024 78.3973 7.024C78.9013 7.024 79.2913 7.186 79.5673 7.51C79.8553 7.834 79.9993 8.254 79.9993 8.77C79.9993 8.986 79.9333 9.25 79.8013 9.562C79.6813 9.862 79.5613 10.066 79.4413 10.174C79.3693 10.174 79.2733 10.3 79.1533 10.552C78.9973 10.744 78.7393 10.948 78.3793 11.164C78.0193 11.368 77.7673 11.446 77.6233 11.398C77.6113 11.398 77.5933 11.404 77.5693 11.416C77.5453 11.428 77.5333 11.458 77.5333 11.506C77.5333 11.554 77.3293 11.644 76.9213 11.776C76.5133 11.908 76.1773 11.974 75.9133 11.974C75.7693 11.974 75.6613 11.968 75.5893 11.956C75.5173 11.932 75.4453 11.89 75.3733 11.83C75.2893 11.914 75.2473 11.992 75.2473 12.064C75.2473 12.196 75.1873 12.436 75.0673 12.784C74.9473 13.132 74.8513 13.306 74.7793 13.306C74.7673 13.318 74.7493 13.342 74.7253 13.378C74.7133 13.414 74.7313 13.456 74.7793 13.504C74.7793 13.54 74.7733 13.624 74.7613 13.756C74.7493 13.888 74.7193 13.99 74.6713 14.062C74.6713 14.17 74.6533 14.314 74.6173 14.494C74.5813 14.686 74.5393 14.83 74.4913 14.926C74.4913 15.07 74.4673 15.208 74.4193 15.34C74.3833 15.484 74.3413 15.556 74.2933 15.556C74.2213 15.58 74.1853 15.754 74.1853 16.078C74.1733 16.378 74.1133 16.612 74.0053 16.78C73.8973 16.948 73.7713 17.032 73.6273 17.032L73.4833 17.05ZM75.8053 11.02C75.9853 11.02 76.3453 10.93 76.8853 10.75C77.4373 10.558 77.8213 10.372 78.0373 10.192C78.2893 9.976 78.4933 9.748 78.6493 9.508C78.8053 9.256 78.8833 9.004 78.8833 8.752C78.8833 8.56 78.8293 8.386 78.7213 8.23C78.6373 8.098 78.4933 8.032 78.2893 8.032C78.0493 8.032 77.7613 8.116 77.4253 8.284C77.1013 8.452 76.8013 8.674 76.5253 8.95C76.3093 9.166 76.1173 9.478 75.9493 9.886C75.7813 10.282 75.6973 10.594 75.6973 10.822C75.6973 10.954 75.7333 11.02 75.8053 11.02ZM81.258 12.352C81.222 12.28 81.162 12.208 81.078 12.136C81.006 12.052 80.97 11.998 80.97 11.974C80.97 11.842 80.94 11.74 80.88 11.668C80.856 11.644 80.844 11.59 80.844 11.506C80.844 11.314 80.934 10.99 81.114 10.534C81.306 10.066 81.552 9.562 81.852 9.022C81.924 8.95 82.014 8.824 82.122 8.644C82.242 8.464 82.32 8.362 82.356 8.338C82.356 8.29 82.374 8.248 82.41 8.212C82.446 8.164 82.488 8.14 82.536 8.14V8.032C82.536 7.924 82.734 7.666 83.13 7.258C83.526 6.838 83.85 6.55 84.102 6.394C84.402 6.19 84.708 6.088 85.02 6.088C85.236 6.088 85.422 6.148 85.578 6.268C85.638 6.34 85.914 6.598 86.406 7.042L87.072 7.636L86.748 8.536C86.64 8.86 86.586 9.154 86.586 9.418C86.586 9.874 86.718 10.312 86.982 10.732C87.042 10.864 87.162 10.99 87.342 11.11C87.522 11.23 87.702 11.302 87.882 11.326C88.146 11.374 88.278 11.506 88.278 11.722C88.278 11.962 88.17 12.106 87.954 12.154C87.906 12.166 87.834 12.172 87.738 12.172C87.03 12.172 86.418 11.674 85.902 10.678C85.854 10.606 85.788 10.474 85.704 10.282C85.632 10.09 85.59 9.958 85.578 9.886C85.506 9.982 85.416 10.096 85.308 10.228C85.2 10.36 85.098 10.474 85.002 10.57C83.694 11.878 82.662 12.532 81.906 12.532C81.666 12.532 81.45 12.472 81.258 12.352ZM81.906 11.344C81.906 11.404 81.966 11.422 82.086 11.398C82.218 11.374 82.374 11.314 82.554 11.218C82.746 11.122 82.938 10.996 83.13 10.84C84.162 9.952 84.906 9.178 85.362 8.518L85.758 7.87C85.638 7.618 85.512 7.438 85.38 7.33C85.248 7.21 85.128 7.15 85.02 7.15C84.768 7.15 84.372 7.468 83.832 8.104C83.292 8.728 82.8 9.466 82.356 10.318C82.248 10.522 82.152 10.732 82.068 10.948C81.984 11.152 81.93 11.284 81.906 11.344ZM90.8795 12.586C90.5075 12.586 90.2615 12.568 90.1415 12.532C90.0215 12.484 89.8835 12.388 89.7275 12.244C89.6075 12.004 89.4875 11.824 89.3675 11.704C89.3195 11.572 89.2955 11.374 89.2955 11.11C89.2955 10.81 89.3315 10.486 89.4035 10.138C89.4755 9.778 89.5715 9.442 89.6915 9.13C89.7395 9.034 89.7755 8.944 89.7995 8.86C89.8355 8.776 89.8595 8.722 89.8715 8.698C89.8715 8.614 90.0215 8.356 90.3215 7.924C90.6335 7.48 90.8795 7.174 91.0595 7.006C91.1435 6.91 91.2695 6.808 91.4375 6.7C91.6175 6.592 91.7735 6.514 91.9055 6.466C92.2415 6.346 92.5355 6.286 92.7875 6.286C93.1355 6.286 93.4295 6.448 93.6695 6.772C93.9335 7.036 94.0655 7.33 94.0655 7.654C94.0655 7.774 94.0475 7.906 94.0115 8.05C93.8915 8.53 93.7175 8.77 93.4895 8.77C93.3335 8.77 93.1835 8.68 93.0395 8.5C92.9915 8.38 92.9675 8.302 92.9675 8.266C92.9675 8.23 92.9915 8.128 93.0395 7.96C93.0635 7.84 93.0755 7.756 93.0755 7.708C93.0755 7.564 93.0515 7.438 93.0035 7.33C92.9555 7.222 92.8895 7.168 92.8055 7.168C92.5295 7.168 92.1695 7.408 91.7255 7.888C91.5695 8.056 91.3655 8.32 91.1135 8.68C90.8735 9.04 90.6935 9.364 90.5735 9.652C90.4535 10.012 90.3575 10.306 90.2855 10.534C90.2135 10.762 90.1655 10.906 90.1415 10.966C90.1415 10.99 90.1535 11.032 90.1775 11.092C90.2135 11.152 90.2315 11.2 90.2315 11.236C90.2315 11.32 90.2495 11.386 90.2855 11.434C90.3215 11.482 90.3875 11.53 90.4835 11.578C90.6155 11.674 90.7715 11.722 90.9515 11.722C91.1435 11.722 91.3655 11.662 91.6175 11.542C91.7735 11.47 91.9955 11.314 92.2835 11.074L92.7155 10.75C92.7995 10.69 92.8715 10.642 92.9315 10.606C93.0035 10.558 93.0575 10.528 93.0935 10.516C93.1295 10.492 93.1475 10.492 93.1475 10.516C93.1475 10.564 93.1655 10.588 93.2015 10.588C93.2375 10.588 93.2795 10.564 93.3275 10.516C93.4355 10.372 93.5735 10.3 93.7415 10.3C93.8375 10.3 93.8855 10.318 93.8855 10.354L93.8675 10.444C93.8675 10.504 93.8975 10.564 93.9575 10.624C93.9575 10.672 93.9395 10.738 93.9035 10.822C93.8795 10.894 93.8435 10.954 93.7955 11.002C93.7235 11.11 93.5975 11.242 93.4175 11.398C93.2495 11.542 93.1355 11.638 93.0755 11.686H93.0575C92.9975 11.686 92.9135 11.74 92.8055 11.848C92.6255 12.016 92.4695 12.1 92.3375 12.1C92.2895 12.124 92.2355 12.154 92.1755 12.19C92.1155 12.214 92.0855 12.244 92.0855 12.28C91.9655 12.4 91.8215 12.484 91.6535 12.532C91.4855 12.568 91.2275 12.586 90.8795 12.586ZM97.892 12.532C97.748 12.592 97.598 12.622 97.442 12.622C97.19 12.622 96.884 12.556 96.524 12.424C96.464 12.424 96.368 12.37 96.236 12.262C96.104 12.154 96.008 12.034 95.948 11.902C95.78 11.662 95.696 11.338 95.696 10.93C95.696 10.318 95.87 9.586 96.218 8.734C96.35 8.458 96.566 8.098 96.866 7.654C97.178 7.198 97.388 6.94 97.496 6.88C97.532 6.868 97.616 6.838 97.748 6.79C97.88 6.73 98.03 6.658 98.198 6.574C98.366 6.49 98.564 6.448 98.792 6.448C99.02 6.448 99.272 6.532 99.548 6.7C99.836 6.856 100.064 7.042 100.232 7.258C100.4 7.474 100.46 7.66 100.412 7.816C100.4 7.852 100.328 7.93 100.196 8.05C100.076 8.17 99.98 8.266 99.908 8.338C99.848 8.398 99.776 8.428 99.692 8.428C99.584 8.428 99.488 8.386 99.404 8.302C99.32 8.206 99.272 8.08 99.26 7.924C99.236 7.852 99.158 7.774 99.026 7.69C98.906 7.606 98.822 7.552 98.774 7.528C98.678 7.528 98.54 7.612 98.36 7.78C98.192 7.948 98.024 8.158 97.856 8.41C97.58 8.698 97.346 9.052 97.154 9.472C96.962 9.892 96.824 10.252 96.74 10.552C96.716 10.6 96.704 10.684 96.704 10.804C96.704 10.936 96.716 11.068 96.74 11.2C96.776 11.332 96.812 11.416 96.848 11.452C96.872 11.464 96.932 11.47 97.028 11.47C97.304 11.47 97.694 11.428 98.198 11.344C98.714 11.248 99.11 11.146 99.386 11.038C99.662 10.858 99.926 10.768 100.178 10.768C100.262 10.768 100.322 10.774 100.358 10.786C100.514 10.858 100.592 10.942 100.592 11.038C100.592 11.206 100.418 11.386 100.07 11.578C99.866 11.686 99.692 11.794 99.548 11.902C99.404 12.01 99.332 12.094 99.332 12.154C99.308 12.154 99.26 12.172 99.188 12.208C99.116 12.232 99.068 12.238 99.044 12.226C98.912 12.238 98.708 12.28 98.432 12.352C98.156 12.424 97.976 12.484 97.892 12.532ZM101.241 12.928C101.169 12.904 101.067 12.826 100.935 12.694C100.815 12.55 100.731 12.454 100.683 12.406C100.683 12.322 100.707 12.256 100.755 12.208C100.815 12.16 100.857 12.124 100.881 12.1C100.917 12.052 100.995 12.016 101.115 11.992C101.247 11.968 101.331 11.938 101.367 11.902C101.415 11.866 101.535 11.782 101.727 11.65C101.919 11.518 102.087 11.386 102.231 11.254C102.387 11.11 102.513 10.966 102.609 10.822C102.921 10.378 103.251 9.85 103.599 9.238C103.707 9.034 103.845 8.758 104.013 8.41C104.193 8.05 104.295 7.816 104.319 7.708L103.761 7.528C103.737 7.504 103.701 7.456 103.653 7.384C103.605 7.312 103.575 7.252 103.563 7.204C103.563 7.156 103.563 7.102 103.563 7.042C103.563 6.898 103.575 6.796 103.599 6.736C103.635 6.676 103.701 6.64 103.797 6.628C104.169 6.556 104.475 6.502 104.715 6.466C105.075 6.418 105.345 6.37 105.525 6.322C105.669 6.286 105.831 6.268 106.011 6.268C106.323 6.268 106.605 6.322 106.857 6.43C107.037 6.502 107.193 6.646 107.325 6.862C107.493 7.09 107.577 7.318 107.577 7.546C107.577 7.63 107.571 7.714 107.559 7.798C107.547 7.87 107.541 7.948 107.541 8.032C107.541 8.14 107.559 8.248 107.595 8.356C107.439 8.932 107.271 9.46 107.091 9.94C107.055 10.036 107.001 10.198 106.929 10.426C106.857 10.654 106.803 10.852 106.767 11.02C106.731 11.2 106.677 11.368 106.605 11.524C106.509 11.8 106.449 12.022 106.425 12.19C106.401 12.322 106.347 12.424 106.263 12.496C106.191 12.556 106.107 12.61 106.011 12.658C105.927 12.694 105.873 12.718 105.849 12.73C105.801 12.754 105.717 12.742 105.597 12.694C105.477 12.646 105.375 12.58 105.291 12.496C105.267 12.424 105.255 12.328 105.255 12.208C105.255 12.112 105.279 11.98 105.327 11.812C105.543 11.116 105.837 10.108 106.209 8.788L106.407 8.104C106.443 7.996 106.461 7.87 106.461 7.726C106.461 7.618 106.443 7.51 106.407 7.402C106.215 7.33 106.065 7.294 105.957 7.294C105.897 7.294 105.831 7.306 105.759 7.33C105.687 7.354 105.621 7.372 105.561 7.384C105.441 7.468 105.369 7.582 105.345 7.726C105.117 8.326 104.883 8.854 104.643 9.31C104.403 9.766 104.217 10.138 104.085 10.426C104.037 10.546 103.899 10.774 103.671 11.11C103.527 11.326 103.425 11.488 103.365 11.596L103.167 11.848C103.107 11.908 103.005 12.004 102.861 12.136C102.717 12.268 102.615 12.364 102.555 12.424L101.997 12.856C101.925 12.916 101.793 12.946 101.601 12.946C101.421 12.934 101.301 12.928 101.241 12.928ZM109.908 12.478C109.788 12.502 109.68 12.514 109.584 12.514C109.428 12.514 109.284 12.502 109.152 12.478C109.02 12.442 108.954 12.4 108.954 12.352C108.954 12.316 108.948 12.292 108.936 12.28C108.924 12.268 108.9 12.262 108.864 12.262C108.852 12.25 108.816 12.22 108.756 12.172C108.696 12.124 108.624 12.082 108.54 12.046C108.432 11.878 108.378 11.698 108.378 11.506C108.378 11.302 108.432 10.984 108.54 10.552C108.576 10.168 108.756 9.688 109.08 9.112C109.404 8.536 109.782 7.99 110.214 7.474C110.658 6.958 111.054 6.598 111.402 6.394C111.582 6.214 111.81 6.124 112.086 6.124C112.302 6.124 112.506 6.178 112.698 6.286C112.866 6.382 113.04 6.544 113.22 6.772C113.412 7 113.562 7.234 113.67 7.474C113.718 7.654 113.742 7.828 113.742 7.996C113.742 8.176 113.718 8.458 113.67 8.842C113.61 9.058 113.556 9.322 113.508 9.634C113.472 9.946 113.454 10.216 113.454 10.444C113.43 10.612 113.442 10.75 113.49 10.858C113.538 10.954 113.604 11.002 113.688 11.002C113.748 11.002 113.814 10.984 113.886 10.948C114.006 10.888 114.138 10.858 114.282 10.858C114.414 10.858 114.522 10.894 114.606 10.966C114.69 11.038 114.732 11.146 114.732 11.29C114.732 11.506 114.582 11.722 114.282 11.938C113.994 12.154 113.718 12.262 113.454 12.262C113.274 12.262 113.106 12.124 112.95 11.848C112.806 11.56 112.662 11.194 112.518 10.75L112.41 10.336L111.636 11.074L111.222 11.488C111.03 11.68 110.922 11.794 110.898 11.83C110.766 12.058 110.436 12.274 109.908 12.478ZM109.962 11.416C110.25 11.248 110.604 10.954 111.024 10.534C111.444 10.114 111.792 9.712 112.068 9.328C112.44 8.836 112.674 8.35 112.77 7.87C112.722 7.726 112.644 7.582 112.536 7.438C112.428 7.294 112.332 7.216 112.248 7.204C112.008 7.204 111.756 7.342 111.492 7.618C111.228 7.894 110.916 8.278 110.556 8.77L109.962 9.652C109.89 9.748 109.764 10.006 109.584 10.426C109.404 10.834 109.314 11.08 109.314 11.164C109.314 11.428 109.392 11.56 109.548 11.56C109.668 11.56 109.806 11.512 109.962 11.416ZM121.453 2.74C121.405 2.668 121.339 2.572 121.255 2.452C121.183 2.332 121.105 2.248 121.021 2.2C120.937 2.152 120.811 2.122 120.643 2.11C120.379 2.086 120.181 2.074 120.049 2.074C119.929 2.074 119.839 2.08 119.779 2.092C119.587 2.116 119.317 2.164 118.969 2.236C118.633 2.308 118.417 2.362 118.321 2.398C118.213 2.434 118.051 2.5 117.835 2.596L117.331 2.812C117.259 2.824 117.205 2.86 117.169 2.92C117.133 2.968 117.115 3.028 117.115 3.1C117.115 3.16 117.139 3.238 117.187 3.334C117.235 3.418 117.331 3.532 117.475 3.676C117.463 3.652 117.541 3.748 117.709 3.964C117.889 4.204 118.087 4.558 118.303 5.026C118.519 5.482 118.597 5.8 118.537 5.98C118.441 5.956 118.315 5.944 118.159 5.944C118.027 5.944 117.919 5.95 117.835 5.962C117.439 6.19 117.037 6.64 116.629 7.312C116.221 7.972 115.903 8.686 115.675 9.454C115.507 10.018 115.423 10.546 115.423 11.038C115.423 11.854 115.669 12.406 116.161 12.694C116.329 12.79 116.479 12.862 116.611 12.91C116.743 12.958 116.881 12.976 117.025 12.964C117.241 13.048 117.505 12.91 117.817 12.55C118.141 12.19 118.531 11.608 118.987 10.804L119.365 9.67C119.461 9.442 119.527 9.256 119.563 9.112C119.599 8.968 119.617 8.776 119.617 8.536L119.635 8.392C119.647 8.32 119.671 8.224 119.707 8.104C119.755 7.972 119.779 7.864 119.779 7.78L119.743 7.564C119.767 7.492 119.779 7.414 119.779 7.33C119.779 7.162 119.755 6.958 119.707 6.718C119.659 6.478 119.611 6.304 119.563 6.196C119.563 6.028 119.533 5.848 119.473 5.656C119.425 5.464 119.365 5.284 119.293 5.116C119.257 5.092 119.239 5.05 119.239 4.99C119.239 4.93 119.233 4.882 119.221 4.846C119.077 4.594 118.939 4.378 118.807 4.198C118.567 3.838 118.411 3.586 118.339 3.442C118.387 3.394 118.495 3.358 118.663 3.334C118.831 3.298 118.939 3.268 118.987 3.244C119.107 3.184 119.287 3.154 119.527 3.154C119.767 3.154 120.013 3.178 120.265 3.226C120.529 3.274 120.727 3.328 120.859 3.388C120.907 3.412 120.967 3.43 121.039 3.442C121.111 3.442 121.165 3.442 121.201 3.442C121.285 3.394 121.345 3.28 121.381 3.1C121.417 2.908 121.441 2.788 121.453 2.74ZM118.393 6.646C118.597 6.85 118.699 7.204 118.699 7.708C118.699 8.008 118.663 8.314 118.591 8.626C118.531 8.938 118.459 9.19 118.375 9.382C118.291 9.562 118.231 9.754 118.195 9.958C118.099 10.102 117.949 10.366 117.745 10.75C117.649 10.942 117.535 11.146 117.403 11.362C117.283 11.566 117.127 11.782 116.935 12.01L116.575 11.686C116.515 11.458 116.485 11.278 116.485 11.146C116.485 11.11 116.497 10.972 116.521 10.732C116.581 10.264 116.743 9.694 117.007 9.022C117.271 8.35 117.547 7.87 117.835 7.582C117.931 7.486 118.045 7.336 118.177 7.132C118.309 6.916 118.381 6.754 118.393 6.646ZM120.328 12.442C120.268 12.49 120.184 12.514 120.076 12.514C119.908 12.514 119.71 12.472 119.482 12.388L119.356 12.064C119.332 11.896 119.308 11.782 119.284 11.722C119.416 11.59 119.482 11.524 119.482 11.524H119.878C119.914 11.512 119.962 11.476 120.022 11.416C120.082 11.356 120.142 11.326 120.202 11.326C120.622 11.062 121.036 10.57 121.444 9.85C121.864 9.118 122.296 8.266 122.74 7.294L122.902 6.952L122.884 6.862C122.812 6.886 122.716 6.91 122.596 6.934C122.488 6.958 122.398 6.982 122.326 7.006L122.218 7.078C122.134 7.15 122.02 7.186 121.876 7.186C121.744 7.186 121.618 7.156 121.498 7.096C121.39 7.036 121.312 6.958 121.264 6.862C121.18 6.73 121.126 6.646 121.102 6.61C121.15 6.502 121.228 6.4 121.336 6.304C121.444 6.196 121.552 6.13 121.66 6.106C122.26 5.962 122.788 5.89 123.244 5.89C123.688 5.89 124.12 5.968 124.54 6.124C124.576 6.136 124.624 6.148 124.684 6.16C124.744 6.172 124.798 6.196 124.846 6.232C125.038 6.376 125.176 6.49 125.26 6.574C125.416 6.718 125.512 6.892 125.548 7.096C125.584 7.24 125.602 7.39 125.602 7.546C125.602 7.618 125.59 7.726 125.566 7.87C125.518 8.074 125.356 8.656 125.08 9.616L124.954 10.012C124.726 10.768 124.498 11.542 124.27 12.334C124.174 12.358 124.102 12.37 124.054 12.37C123.826 12.37 123.622 12.262 123.442 12.046C123.394 11.902 123.37 11.758 123.37 11.614C123.37 11.446 123.412 11.278 123.496 11.11C123.532 11.038 123.562 10.942 123.586 10.822C123.622 10.702 123.646 10.618 123.658 10.57C123.73 10.198 123.814 9.952 123.91 9.832C123.934 9.784 123.946 9.742 123.946 9.706C123.946 9.586 124.054 9.154 124.27 8.41C124.438 7.822 124.534 7.468 124.558 7.348C124.57 7.324 124.576 7.288 124.576 7.24C124.576 7.192 124.57 7.15 124.558 7.114C124.546 7.066 124.54 7.012 124.54 6.952C124.396 6.88 124.246 6.844 124.09 6.844C123.934 6.844 123.832 6.904 123.784 7.024L123.73 7.186C123.67 7.39 123.568 7.624 123.424 7.888C123.172 8.416 122.998 8.848 122.902 9.184C122.89 9.256 122.86 9.334 122.812 9.418C122.776 9.49 122.752 9.544 122.74 9.58C122.668 9.688 122.614 9.802 122.578 9.922C122.578 9.946 122.572 9.97 122.56 9.994C122.548 10.006 122.536 10.018 122.524 10.03C122.488 10.09 122.344 10.318 122.092 10.714C121.768 11.23 121.18 11.806 120.328 12.442ZM127.515 12.568C127.131 12.412 126.861 12.214 126.705 11.974C126.549 11.722 126.471 11.374 126.471 10.93C126.471 10.714 126.489 10.462 126.525 10.174L126.561 9.526C126.561 9.418 126.549 9.334 126.525 9.274C126.501 9.214 126.447 9.148 126.363 9.076C126.339 9.052 126.279 8.992 126.183 8.896C126.087 8.8 126.045 8.722 126.057 8.662L126.039 8.572C126.039 8.488 126.051 8.41 126.075 8.338C126.111 8.266 126.147 8.23 126.183 8.23C126.219 8.23 126.267 8.224 126.327 8.212C126.387 8.188 126.441 8.182 126.489 8.194C126.657 8.194 126.741 8.23 126.741 8.302C126.789 8.398 126.867 8.41 126.975 8.338C127.095 8.254 127.209 8.098 127.317 7.87C127.485 7.606 127.731 7.33 128.055 7.042C128.391 6.742 128.667 6.532 128.883 6.412C128.967 6.364 129.105 6.322 129.297 6.286C129.489 6.238 129.657 6.214 129.801 6.214C130.017 6.214 130.203 6.262 130.359 6.358C130.527 6.454 130.695 6.592 130.863 6.772C131.091 6.94 131.205 7.204 131.205 7.564C131.205 7.816 131.145 8.074 131.025 8.338C130.977 8.518 130.785 8.746 130.449 9.022C130.125 9.298 129.825 9.49 129.549 9.598C129.213 9.682 128.829 9.724 128.397 9.724C128.109 9.724 127.923 9.7 127.839 9.652C127.695 9.568 127.593 9.892 127.533 10.624C127.521 10.708 127.515 10.822 127.515 10.966C127.515 11.17 127.545 11.332 127.605 11.452C127.617 11.464 127.659 11.512 127.731 11.596C127.803 11.668 127.893 11.734 128.001 11.794C128.109 11.842 128.223 11.866 128.343 11.866C128.451 11.866 128.535 11.854 128.595 11.83C128.727 11.794 128.853 11.728 128.973 11.632C129.093 11.524 129.261 11.362 129.477 11.146C129.669 10.954 129.807 10.822 129.891 10.75C129.951 10.642 130.071 10.588 130.251 10.588C130.299 10.588 130.383 10.6 130.503 10.624C130.611 10.708 130.665 10.798 130.665 10.894C130.665 10.99 130.605 11.17 130.485 11.434C130.425 11.554 130.275 11.722 130.035 11.938C129.807 12.142 129.603 12.304 129.423 12.424C129.051 12.628 128.679 12.73 128.307 12.73C128.079 12.73 127.815 12.676 127.515 12.568ZM128.577 8.914C128.697 8.89 128.871 8.86 129.099 8.824C129.327 8.788 129.513 8.71 129.657 8.59C129.813 8.458 129.993 8.236 130.197 7.924C130.233 7.828 130.251 7.732 130.251 7.636C130.251 7.456 130.215 7.33 130.143 7.258C130.059 7.174 129.963 7.132 129.855 7.132C129.687 7.132 129.513 7.204 129.333 7.348C129.213 7.384 129.033 7.516 128.793 7.744C128.565 7.972 128.367 8.2 128.199 8.428C128.031 8.644 127.977 8.77 128.037 8.806C128.013 8.842 128.073 8.872 128.217 8.896C128.361 8.908 128.481 8.914 128.577 8.914ZM137.473 6.61C137.605 6.538 137.737 6.502 137.869 6.502C138.037 6.502 138.181 6.556 138.301 6.664C138.433 6.76 138.499 6.886 138.499 7.042C138.499 7.066 138.487 7.126 138.463 7.222C138.499 7.066 138.373 7.324 138.085 7.996C137.797 8.668 137.641 9.028 137.617 9.076V9.13C137.785 9.13 137.893 9.184 137.941 9.292C138.001 9.388 138.025 9.52 138.013 9.688C137.905 9.712 137.803 9.754 137.707 9.814C137.611 9.874 137.533 9.904 137.473 9.904C137.437 9.904 137.395 9.922 137.347 9.958C137.299 9.994 137.269 10.036 137.257 10.084C137.233 10.132 137.191 10.318 137.131 10.642L136.807 11.938C136.783 12.022 136.741 12.094 136.681 12.154C136.621 12.214 136.567 12.25 136.519 12.262C136.471 12.25 136.375 12.22 136.231 12.172C136.099 12.112 136.009 12.07 135.961 12.046C135.913 12.01 135.865 11.974 135.817 11.938V11.83C135.817 11.662 135.847 11.488 135.907 11.308C136.003 11.02 136.099 10.618 136.195 10.102C136.099 10.066 135.859 10.084 135.475 10.156C135.091 10.216 134.881 10.246 134.845 10.246C134.773 10.282 134.629 10.3 134.413 10.3C134.065 10.3 133.819 10.27 133.675 10.21L133.567 10.264C133.543 10.372 133.507 10.492 133.459 10.624C133.327 10.996 133.261 11.272 133.261 11.452C133.237 11.62 133.213 11.758 133.189 11.866C133.165 11.986 133.141 12.166 133.117 12.406C133.105 12.742 132.991 12.91 132.775 12.91C132.643 12.91 132.499 12.862 132.343 12.766C132.259 12.718 132.145 12.622 132.001 12.478L132.289 11.092C132.325 10.984 132.361 10.834 132.397 10.642C132.445 10.45 132.493 10.294 132.541 10.174L132.739 9.616C132.883 9.196 133.015 8.854 133.135 8.59C133.135 8.59 133.261 8.236 133.513 7.528C133.549 7.444 133.627 7.216 133.747 6.844C133.879 6.46 133.957 6.238 133.981 6.178C134.029 6.046 134.125 5.98 134.269 5.98C134.461 5.968 134.623 6.016 134.755 6.124C134.899 6.22 134.977 6.34 134.989 6.484C134.989 6.52 134.983 6.58 134.971 6.664C134.959 6.736 134.947 6.79 134.935 6.826L133.999 9.112V9.256C134.047 9.292 134.131 9.31 134.251 9.31C134.347 9.31 134.491 9.292 134.683 9.256C134.887 9.22 135.013 9.202 135.061 9.202C135.169 9.19 135.331 9.178 135.547 9.166C135.763 9.154 135.979 9.148 136.195 9.148C136.363 9.148 136.453 9.154 136.465 9.166L136.663 8.59C136.855 8.002 137.059 7.528 137.275 7.168C137.287 7.132 137.311 7.066 137.347 6.97C137.383 6.862 137.425 6.742 137.473 6.61ZM143.829 12.964C143.541 12.688 143.325 12.28 143.181 11.74C143.157 11.668 143.145 11.542 143.145 11.362C143.145 11.182 143.145 11.056 143.145 10.984C143.073 11.164 142.941 11.326 142.749 11.47C142.473 11.746 142.197 11.95 141.921 12.082C141.501 12.358 141.159 12.496 140.895 12.496C140.655 12.496 140.427 12.364 140.211 12.1C140.055 11.968 139.935 11.836 139.851 11.704C139.779 11.572 139.743 11.41 139.743 11.218C139.743 11.086 139.761 10.942 139.797 10.786C139.821 10.342 139.881 9.916 139.977 9.508C140.085 9.1 140.283 8.578 140.571 7.942C140.955 7.186 141.231 6.682 141.399 6.43C141.459 6.406 141.537 6.394 141.633 6.394C141.753 6.394 141.849 6.43 141.921 6.502C142.005 6.574 142.053 6.67 142.065 6.79C142.101 6.838 142.119 6.904 142.119 6.988C142.119 7.288 141.939 7.78 141.579 8.464C141.111 9.592 140.877 10.372 140.877 10.804C140.877 11.056 140.949 11.206 141.093 11.254C141.153 11.29 141.219 11.308 141.291 11.308C141.591 11.308 141.951 11.104 142.371 10.696C142.791 10.288 143.193 9.634 143.577 8.734C143.745 8.326 143.847 7.906 143.883 7.474C143.871 7.438 143.865 7.384 143.865 7.312C143.865 7.096 143.973 6.922 144.189 6.79C144.237 6.718 144.303 6.664 144.387 6.628C144.471 6.58 144.525 6.58 144.549 6.628L144.837 6.61C144.873 6.598 144.909 6.634 144.945 6.718C144.981 6.79 145.017 6.838 145.053 6.862C145.137 6.934 145.179 7.066 145.179 7.258C145.179 7.654 145.005 8.26 144.657 9.076C144.429 9.556 144.273 9.928 144.189 10.192C144.117 10.444 144.075 10.69 144.063 10.93C144.063 11.386 144.237 11.764 144.585 12.064C144.705 12.148 144.777 12.238 144.801 12.334C144.825 12.43 144.831 12.562 144.819 12.73C144.795 12.838 144.723 12.928 144.603 13C144.495 13.06 144.375 13.09 144.243 13.09C144.087 13.09 143.949 13.048 143.829 12.964ZM147.917 13.054C147.401 13.054 146.975 12.862 146.639 12.478C146.303 12.094 146.135 11.614 146.135 11.038C146.135 10.462 146.261 9.832 146.513 9.148C146.777 8.452 147.113 7.828 147.521 7.276C147.929 6.724 148.343 6.352 148.763 6.16C149.003 6.028 149.273 5.962 149.573 5.962C149.801 5.962 150.059 6.028 150.347 6.16C150.551 6.244 150.707 6.346 150.815 6.466C150.923 6.586 151.019 6.772 151.103 7.024C151.139 7.24 151.157 7.39 151.157 7.474C151.157 7.546 151.127 7.702 151.067 7.942C150.923 8.386 150.731 8.764 150.491 9.076C150.263 9.376 149.963 9.634 149.591 9.85C149.399 9.97 149.159 10.03 148.871 10.03C148.619 10.03 148.379 9.988 148.151 9.904C147.935 9.808 147.767 9.67 147.647 9.49L147.521 9.346L147.467 9.49C147.215 10.138 147.089 10.69 147.089 11.146C147.089 11.458 147.149 11.71 147.269 11.902C147.353 12.034 147.557 12.1 147.881 12.1C148.121 12.1 148.295 12.076 148.403 12.028C148.583 11.968 148.739 11.896 148.871 11.812C149.015 11.716 149.153 11.62 149.285 11.524L149.357 11.488H149.339C149.483 11.416 149.603 11.35 149.699 11.29C149.795 11.23 149.861 11.188 149.897 11.164C149.921 11.164 149.945 11.158 149.969 11.146C149.993 11.134 150.017 11.11 150.041 11.074C150.149 11.026 150.275 11.044 150.419 11.128C150.563 11.212 150.635 11.32 150.635 11.452C150.611 11.548 150.503 11.704 150.311 11.92C150.119 12.136 149.975 12.25 149.879 12.262C149.867 12.262 149.825 12.28 149.753 12.316C149.681 12.352 149.633 12.382 149.609 12.406H149.627C149.519 12.55 149.411 12.622 149.303 12.622H149.159C149.111 12.718 148.949 12.814 148.673 12.91C148.409 13.006 148.157 13.054 147.917 13.054ZM148.727 9.094C149.087 9.094 149.417 8.89 149.717 8.482C150.005 8.098 150.149 7.714 150.149 7.33C150.149 7.126 150.107 6.982 150.023 6.898C149.951 6.862 149.885 6.844 149.825 6.844C149.765 6.844 149.663 6.862 149.519 6.898C149.363 6.934 149.123 7.102 148.799 7.402C148.475 7.69 148.235 7.948 148.079 8.176L147.845 8.554C147.941 8.518 148.031 8.5 148.115 8.5C148.211 8.488 148.265 8.494 148.277 8.518C148.277 8.686 148.319 8.824 148.403 8.932C148.487 9.04 148.595 9.094 148.727 9.094ZM157.968 12.838C157.86 12.742 157.788 12.682 157.752 12.658C157.716 12.634 157.608 12.598 157.428 12.55C157.404 12.466 157.332 12.31 157.212 12.082C157.056 11.866 156.972 11.68 156.96 11.524V11.434V11.344C156.96 11.212 156.93 11.116 156.87 11.056C156.93 11.008 156.942 10.936 156.906 10.84C156.87 10.732 156.876 10.654 156.924 10.606L156.942 10.48C156.906 10.42 156.888 10.336 156.888 10.228C156.888 10.036 156.948 9.652 157.068 9.076C157.188 8.524 157.236 8.194 157.212 8.086L156.87 7.78C156.894 7.6 156.924 7.468 156.96 7.384C156.996 7.288 157.08 7.21 157.212 7.15L157.338 7.204C157.386 7.192 157.422 7.18 157.446 7.168C157.482 7.144 157.512 7.126 157.536 7.114C157.74 6.73 157.932 6.25 158.112 5.674C158.184 5.446 158.274 5.206 158.382 4.954C158.502 4.69 158.622 4.48 158.742 4.324C158.814 4.24 158.88 4.138 158.94 4.018C159 3.898 159.042 3.814 159.066 3.766C159.222 3.442 159.474 3.076 159.822 2.668C160.182 2.26 160.512 1.966 160.812 1.786C160.992 1.666 161.148 1.594 161.28 1.57C161.412 1.546 161.616 1.528 161.892 1.516C162.048 1.612 162.204 1.744 162.36 1.912C162.516 2.068 162.594 2.212 162.594 2.344V2.614C162.594 2.818 162.564 2.98 162.504 3.1C162.516 3.208 162.486 3.382 162.414 3.622C162.366 3.73 162.33 3.85 162.306 3.982C162.006 4.606 161.736 5.098 161.496 5.458C161.256 5.806 160.992 6.118 160.704 6.394C160.428 6.658 159.972 7.048 159.336 7.564C159.852 7.72 160.116 8.008 160.128 8.428C160.128 8.464 160.122 8.53 160.11 8.626C160.11 8.71 160.116 8.782 160.128 8.842L160.164 9.274C160.164 9.37 160.176 9.514 160.2 9.706C160.236 9.97 160.212 10.318 160.128 10.75C160.116 10.786 160.098 10.816 160.074 10.84C160.062 10.864 160.056 10.894 160.056 10.93C160.056 11.062 160.032 11.182 159.984 11.29C159.948 11.386 159.894 11.494 159.822 11.614C159.762 11.722 159.708 11.824 159.66 11.92C159.636 11.968 159.588 12.022 159.516 12.082C159.444 12.13 159.39 12.178 159.354 12.226C159.21 12.394 159.066 12.508 158.922 12.568C158.778 12.628 158.592 12.682 158.364 12.73C158.196 12.754 158.076 12.778 158.004 12.802L157.968 12.838ZM159.012 6.52L159.912 5.782C159.96 5.758 160.08 5.614 160.272 5.35C160.464 5.086 160.578 4.918 160.614 4.846C160.746 4.738 160.89 4.51 161.046 4.162C161.202 3.802 161.328 3.436 161.424 3.064C161.52 2.68 161.556 2.398 161.532 2.218L161.406 2.272C161.226 2.5 160.968 2.806 160.632 3.19C160.236 3.634 159.876 4.138 159.552 4.702C159.24 5.266 158.994 5.836 158.814 6.412L159.012 6.52ZM158.4 11.704C158.7 11.404 158.898 11.092 158.994 10.768C159.09 10.432 159.138 10.024 159.138 9.544V8.914C159.138 8.878 159.126 8.824 159.102 8.752C159.09 8.68 159.096 8.62 159.12 8.572C159.096 8.5 159.048 8.368 158.976 8.176C158.916 7.984 158.826 7.828 158.706 7.708C158.61 7.756 158.532 7.81 158.472 7.87C158.412 7.93 158.334 8.032 158.238 8.176C158.166 8.32 158.094 8.626 158.022 9.094C157.962 9.55 157.932 9.994 157.932 10.426C157.932 11.086 158.01 11.512 158.166 11.704H158.4ZM168.538 12.532C168.394 12.592 168.244 12.622 168.088 12.622C167.836 12.622 167.53 12.556 167.17 12.424C167.11 12.424 167.014 12.37 166.882 12.262C166.75 12.154 166.654 12.034 166.594 11.902C166.426 11.662 166.342 11.338 166.342 10.93C166.342 10.318 166.516 9.586 166.864 8.734C166.996 8.458 167.212 8.098 167.512 7.654C167.824 7.198 168.034 6.94 168.142 6.88C168.178 6.868 168.262 6.838 168.394 6.79C168.526 6.73 168.676 6.658 168.844 6.574C169.012 6.49 169.21 6.448 169.438 6.448C169.666 6.448 169.918 6.532 170.194 6.7C170.482 6.856 170.71 7.042 170.878 7.258C171.046 7.474 171.106 7.66 171.058 7.816C171.046 7.852 170.974 7.93 170.842 8.05C170.722 8.17 170.626 8.266 170.554 8.338C170.494 8.398 170.422 8.428 170.338 8.428C170.23 8.428 170.134 8.386 170.05 8.302C169.966 8.206 169.918 8.08 169.906 7.924C169.882 7.852 169.804 7.774 169.672 7.69C169.552 7.606 169.468 7.552 169.42 7.528C169.324 7.528 169.186 7.612 169.006 7.78C168.838 7.948 168.67 8.158 168.502 8.41C168.226 8.698 167.992 9.052 167.8 9.472C167.608 9.892 167.47 10.252 167.386 10.552C167.362 10.6 167.35 10.684 167.35 10.804C167.35 10.936 167.362 11.068 167.386 11.2C167.422 11.332 167.458 11.416 167.494 11.452C167.518 11.464 167.578 11.47 167.674 11.47C167.95 11.47 168.34 11.428 168.844 11.344C169.36 11.248 169.756 11.146 170.032 11.038C170.308 10.858 170.572 10.768 170.824 10.768C170.908 10.768 170.968 10.774 171.004 10.786C171.16 10.858 171.238 10.942 171.238 11.038C171.238 11.206 171.064 11.386 170.716 11.578C170.512 11.686 170.338 11.794 170.194 11.902C170.05 12.01 169.978 12.094 169.978 12.154C169.954 12.154 169.906 12.172 169.834 12.208C169.762 12.232 169.714 12.238 169.69 12.226C169.558 12.238 169.354 12.28 169.078 12.352C168.802 12.424 168.622 12.484 168.538 12.532ZM174.227 12.946C174.191 12.946 174.071 12.952 173.867 12.964C173.675 12.964 173.489 12.922 173.309 12.838C173.129 12.742 172.979 12.598 172.859 12.406C172.775 12.25 172.703 12.07 172.643 11.866C172.583 11.662 172.553 11.488 172.553 11.344C172.553 11.284 172.565 11.218 172.589 11.146C172.817 9.826 173.003 8.992 173.147 8.644L173.435 7.942C173.495 7.75 173.513 7.534 173.489 7.294V7.222C173.489 7.066 173.549 6.934 173.669 6.826C173.873 6.67 174.035 6.466 174.155 6.214C174.239 6.01 174.371 5.734 174.551 5.386C174.731 5.038 174.863 4.81 174.947 4.702C175.079 4.522 175.199 4.348 175.307 4.18C175.331 4.144 175.415 4.018 175.559 3.802C175.715 3.574 175.889 3.382 176.081 3.226C176.309 2.842 176.759 2.38 177.431 1.84C177.719 1.6 177.899 1.444 177.971 1.372C178.007 1.336 178.115 1.3 178.295 1.264C178.475 1.216 178.589 1.186 178.637 1.174C178.733 1.15 178.895 1.108 179.123 1.048C179.195 1.012 179.327 1.042 179.519 1.138C179.723 1.222 179.873 1.318 179.969 1.426C180.161 1.762 180.257 2.026 180.257 2.218C180.257 2.374 180.221 2.548 180.149 2.74C180.077 2.932 179.939 3.244 179.735 3.676C179.303 4.54 178.517 5.362 177.377 6.142C176.945 6.526 176.459 6.862 175.919 7.15C175.523 7.354 175.199 7.498 174.947 7.582C174.755 7.642 174.617 7.78 174.533 7.996C174.485 8.104 174.443 8.236 174.407 8.392C174.383 8.548 174.347 8.65 174.299 8.698C174.227 8.77 174.107 9.172 173.939 9.904C173.771 10.636 173.687 11.134 173.687 11.398C173.687 11.494 173.699 11.578 173.723 11.65C173.747 11.722 173.801 11.776 173.885 11.812C174.053 11.776 174.185 11.722 174.281 11.65C174.389 11.566 174.521 11.434 174.677 11.254C175.013 10.834 175.253 10.432 175.397 10.048C175.433 9.94 175.469 9.802 175.505 9.634C175.541 9.454 175.583 9.316 175.631 9.22C175.631 8.8 175.625 8.53 175.613 8.41C175.601 8.278 175.559 8.122 175.487 7.942C175.547 7.906 175.595 7.87 175.631 7.834C175.679 7.786 175.739 7.768 175.811 7.78C176.087 7.84 176.369 8.008 176.657 8.284C176.741 8.368 176.765 8.47 176.729 8.59C176.681 8.974 176.657 9.25 176.657 9.418C176.621 9.502 176.561 9.688 176.477 9.976C176.465 10.132 176.429 10.282 176.369 10.426C176.153 10.87 175.997 11.17 175.901 11.326C175.637 11.818 175.277 12.238 174.821 12.586L174.227 12.946ZM175.055 6.304C175.115 6.316 175.187 6.322 175.271 6.322C175.391 6.322 175.493 6.262 175.577 6.142C176.453 5.566 177.191 5.008 177.791 4.468C178.403 3.916 178.781 3.448 178.925 3.064C178.973 2.968 179.039 2.848 179.123 2.704C179.207 2.548 179.261 2.404 179.285 2.272L179.213 1.768C178.865 1.924 178.589 2.074 178.385 2.218C178.193 2.35 177.947 2.566 177.647 2.866C177.347 3.166 176.891 3.706 176.279 4.486C175.679 5.266 175.271 5.872 175.055 6.304ZM179.911 12.892C179.767 12.904 179.647 12.898 179.551 12.874C179.467 12.838 179.341 12.766 179.173 12.658C178.657 12.238 178.405 11.824 178.417 11.416C178.429 11.38 178.435 11.326 178.435 11.254C178.435 11.182 178.429 11.128 178.417 11.092C178.405 11.044 178.399 11.014 178.399 11.002C178.351 10.966 178.321 10.942 178.309 10.93C178.309 10.906 178.315 10.882 178.327 10.858C178.351 10.834 178.369 10.81 178.381 10.786C178.429 10.774 178.453 10.75 178.453 10.714C178.453 10.678 178.441 10.636 178.417 10.588C178.381 10.492 178.399 10.276 178.471 9.94C178.555 9.592 178.663 9.268 178.795 8.968C178.891 8.74 179.041 8.446 179.245 8.086C179.461 7.726 179.659 7.45 179.839 7.258C180.091 6.97 180.319 6.748 180.523 6.592C180.739 6.436 180.985 6.31 181.261 6.214C181.513 6.106 181.687 6.052 181.783 6.052C181.903 6.052 182.053 6.124 182.233 6.268C182.521 6.352 182.737 6.472 182.881 6.628C183.037 6.772 183.157 7 183.241 7.312C183.313 7.564 183.349 7.846 183.349 8.158C183.349 8.83 183.139 9.568 182.719 10.372C182.503 10.804 182.293 11.14 182.089 11.38C181.885 11.608 181.603 11.878 181.243 12.19C180.991 12.394 180.769 12.55 180.577 12.658C180.397 12.766 180.175 12.844 179.911 12.892ZM181.351 10.75C181.603 10.378 181.795 10.042 181.927 9.742C182.059 9.43 182.167 9.046 182.251 8.59C182.263 8.542 182.269 8.446 182.269 8.302C182.269 8.062 182.245 7.834 182.197 7.618C182.149 7.402 182.089 7.288 182.017 7.276C181.921 7.24 181.831 7.222 181.747 7.222C181.471 7.222 181.177 7.384 180.865 7.708C180.577 8.044 180.325 8.452 180.109 8.932C179.905 9.4 179.701 9.976 179.497 10.66C179.437 10.9 179.407 11.092 179.407 11.236C179.407 11.452 179.449 11.626 179.533 11.758C179.617 11.878 179.737 11.938 179.893 11.938C180.085 11.938 180.307 11.842 180.559 11.65C180.811 11.446 181.075 11.146 181.351 10.75ZM187.607 12.37C187.307 12.634 186.947 12.766 186.527 12.766C186.227 12.766 185.939 12.694 185.663 12.55C185.399 12.406 185.177 12.208 184.997 11.956C184.841 11.764 184.727 11.548 184.655 11.308C184.583 11.068 184.547 10.774 184.547 10.426C184.547 10.306 184.559 10.066 184.583 9.706C184.619 9.262 184.763 8.8 185.015 8.32C185.279 7.84 185.603 7.414 185.987 7.042C186.371 6.658 186.749 6.394 187.121 6.25C187.313 6.13 187.487 6.07 187.643 6.07C187.727 6.07 187.811 6.076 187.895 6.088C187.979 6.1 188.069 6.112 188.165 6.124C188.429 6.16 188.627 6.214 188.759 6.286C188.903 6.346 189.023 6.442 189.119 6.574C189.419 6.874 189.569 7.222 189.569 7.618C189.521 7.906 189.335 8.236 189.011 8.608C188.687 8.98 188.297 9.28 187.841 9.508C187.625 9.58 187.379 9.616 187.103 9.616C186.731 9.616 186.431 9.538 186.203 9.382C186.095 9.346 186.011 9.328 185.951 9.328C185.843 9.328 185.759 9.4 185.699 9.544C185.651 9.688 185.603 9.952 185.555 10.336C185.543 10.42 185.537 10.54 185.537 10.696C185.537 11.308 185.741 11.644 186.149 11.704C186.425 11.764 186.623 11.794 186.743 11.794C186.887 11.794 187.049 11.746 187.229 11.65L187.571 11.452C187.643 11.416 187.709 11.368 187.769 11.308C187.829 11.248 187.883 11.194 187.931 11.146C187.955 11.122 187.991 11.086 188.039 11.038C188.087 10.978 188.129 10.942 188.165 10.93C188.213 10.906 188.255 10.894 188.291 10.894C188.339 10.894 188.393 10.924 188.453 10.984C188.513 11.032 188.561 11.068 188.597 11.092C188.705 11.092 188.729 11.17 188.669 11.326C188.609 11.47 188.477 11.644 188.273 11.848C188.081 12.04 187.859 12.214 187.607 12.37ZM187.589 8.554C187.793 8.47 187.997 8.32 188.201 8.104C188.417 7.888 188.525 7.708 188.525 7.564C188.525 7.42 188.471 7.3 188.363 7.204C188.255 7.108 188.105 7.06 187.913 7.06C187.769 7.06 187.661 7.072 187.589 7.096C187.421 7.144 187.223 7.276 186.995 7.492C186.767 7.696 186.569 7.906 186.401 8.122C186.233 8.338 186.167 8.464 186.203 8.5C186.263 8.608 186.497 8.662 186.905 8.662C187.181 8.662 187.409 8.626 187.589 8.554ZM198.752 12.64C198.632 12.664 198.548 12.676 198.5 12.676C198.32 12.676 198.146 12.622 197.978 12.514C197.954 12.466 197.918 12.4 197.87 12.316C197.822 12.22 197.786 12.136 197.762 12.064C197.75 11.98 197.756 11.908 197.78 11.848C197.804 11.788 197.822 11.698 197.834 11.578C197.858 11.446 197.876 11.35 197.888 11.29C197.912 10.942 197.954 10.702 198.014 10.57C198.038 10.522 198.05 10.48 198.05 10.444C198.062 10.336 198.098 10.18 198.158 9.976C198.218 9.76 198.254 9.616 198.266 9.544C198.29 9.412 198.32 9.19 198.356 8.878C198.404 8.566 198.428 8.35 198.428 8.23C198.428 8.194 198.446 8.146 198.482 8.086C198.518 8.026 198.518 7.966 198.482 7.906C198.17 8.206 197.786 8.62 197.33 9.148C196.886 9.664 196.568 10.084 196.376 10.408C196.388 10.384 196.328 10.462 196.196 10.642C196.16 10.69 196.1 10.756 196.016 10.84C195.944 10.912 195.89 10.99 195.854 11.074C195.734 11.194 195.59 11.362 195.422 11.578C195.182 11.866 194.984 12.076 194.828 12.208C194.732 12.232 194.636 12.232 194.54 12.208C194.456 12.184 194.366 12.154 194.27 12.118C194.174 12.07 194.09 12.034 194.018 12.01L193.838 11.632L193.982 10.768C194.054 10.348 194.114 9.916 194.162 9.472C194.222 9.028 194.246 8.704 194.234 8.5L194.216 8.374C194.216 8.326 194.234 8.278 194.27 8.23L194.288 8.104C194.252 8.068 194.234 8.032 194.234 7.996C194.234 7.972 194.24 7.936 194.252 7.888C194.276 7.828 194.276 7.78 194.252 7.744L194.144 7.672C193.988 7.924 193.796 8.194 193.568 8.482C193.34 8.758 193.184 8.944 193.1 9.04L192.398 9.922C192.338 10.018 192.2 10.234 191.984 10.57C191.708 11.074 191.456 11.428 191.228 11.632C191.156 11.704 191.072 11.8 190.976 11.92C190.88 12.028 190.79 12.112 190.706 12.172C190.658 12.34 190.532 12.424 190.328 12.424C190.136 12.424 189.95 12.364 189.77 12.244C189.59 12.112 189.5 11.974 189.5 11.83C189.5 11.734 189.536 11.65 189.608 11.578L189.662 11.452C189.866 11.368 190.076 11.212 190.292 10.984C190.508 10.756 190.772 10.444 191.084 10.048C191.36 9.7 191.54 9.478 191.624 9.382C191.768 9.226 191.912 9.022 192.056 8.77C192.104 8.698 192.152 8.626 192.2 8.554C192.248 8.47 192.308 8.386 192.38 8.302C192.452 8.218 192.662 7.93 193.01 7.438C193.046 7.39 193.172 7.216 193.388 6.916C193.616 6.604 193.838 6.34 194.054 6.124C194.27 6.244 194.456 6.304 194.612 6.304C194.732 6.46 194.852 6.592 194.972 6.7C195.26 6.952 195.404 7.396 195.404 8.032C195.404 8.44 195.338 8.998 195.206 9.706L195.116 10.264L195.134 10.318C195.374 10.102 195.662 9.76 195.998 9.292L196.484 8.68C197.06 8.008 197.444 7.576 197.636 7.384C197.828 7.18 198.014 7.006 198.194 6.862C198.566 6.526 198.83 6.286 198.986 6.142H199.526C199.598 6.202 199.664 6.25 199.724 6.286C199.796 6.31 199.88 6.334 199.976 6.358C199.988 6.406 200.006 6.496 200.03 6.628C200.066 6.76 200.078 6.85 200.066 6.898C200.042 6.958 200.024 7.042 200.012 7.15C200.012 7.246 199.988 7.33 199.94 7.402C199.82 7.594 199.7 7.96 199.58 8.5C199.472 9.028 199.406 9.448 199.382 9.76C199.346 9.952 199.298 10.102 199.238 10.21C199.178 10.318 199.142 10.402 199.13 10.462C199.118 10.51 199.112 10.582 199.112 10.678C199.112 10.834 199.094 10.954 199.058 11.038C199.046 11.05 199.034 11.062 199.022 11.074V11.362C199.022 11.554 198.998 11.692 198.95 11.776C198.962 11.812 198.968 11.872 198.968 11.956V12.1C198.968 12.208 198.98 12.286 199.004 12.334L198.752 12.64ZM213.66 11.434C213.708 11.47 213.732 11.524 213.732 11.596C213.732 11.68 213.702 11.764 213.642 11.848C213.594 11.92 213.546 11.956 213.498 11.956C213.27 11.956 213.048 11.896 212.832 11.776C212.628 11.644 212.526 11.44 212.526 11.164V10.048C212.526 9.484 212.484 9.166 212.4 9.094C212.22 8.998 211.908 9.196 211.464 9.688C211.032 10.18 210.612 10.762 210.204 11.434C210.072 11.65 209.964 11.818 209.88 11.938C209.796 12.058 209.73 12.118 209.682 12.118C209.646 12.118 209.586 12.088 209.502 12.028C209.13 11.92 208.944 11.71 208.944 11.398C208.944 11.362 208.956 11.284 208.98 11.164C209.1 10.768 209.22 10.33 209.34 9.85C209.46 9.358 209.556 8.944 209.628 8.608C209.592 8.536 209.532 8.5 209.448 8.5C209.328 8.5 209.19 8.56 209.034 8.68C208.734 8.884 208.35 9.37 207.882 10.138C207.294 11.038 206.886 11.584 206.658 11.776C206.574 11.92 206.496 12.034 206.424 12.118C206.364 12.19 206.304 12.226 206.244 12.226C206.196 12.226 206.106 12.19 205.974 12.118C205.626 11.914 205.452 11.626 205.452 11.254C205.452 11.074 205.506 10.714 205.614 10.174C205.722 9.634 205.842 9.13 205.974 8.662C206.082 8.458 206.178 8.248 206.262 8.032C206.358 7.804 206.406 7.666 206.406 7.618C206.454 7.366 206.514 7.096 206.586 6.808C206.658 6.52 206.712 6.358 206.748 6.322C206.832 6.238 206.928 6.196 207.036 6.196C207.216 6.196 207.348 6.292 207.432 6.484C207.564 6.616 207.63 6.784 207.63 6.988C207.63 7.216 207.564 7.51 207.432 7.87C207.228 8.314 207.006 8.962 206.766 9.814C207.018 9.538 207.198 9.322 207.306 9.166C207.594 8.758 207.966 8.302 208.422 7.798C208.794 7.39 209.214 7.186 209.682 7.186C210.234 7.282 210.552 7.744 210.636 8.572C210.636 8.716 210.624 8.896 210.6 9.112C210.576 9.316 210.558 9.448 210.546 9.508C210.594 9.436 210.714 9.28 210.906 9.04C211.11 8.8 211.356 8.554 211.644 8.302C211.908 8.098 212.154 7.996 212.382 7.996C212.574 7.996 212.742 8.074 212.886 8.23C213.138 8.374 213.318 8.578 213.426 8.842C213.534 9.094 213.588 9.418 213.588 9.814C213.588 10.018 213.582 10.18 213.57 10.3C213.546 10.54 213.534 10.69 213.534 10.75C213.534 10.978 213.576 11.206 213.66 11.434ZM216.928 13.054C216.412 13.054 215.986 12.862 215.65 12.478C215.314 12.094 215.146 11.614 215.146 11.038C215.146 10.462 215.272 9.832 215.524 9.148C215.788 8.452 216.124 7.828 216.532 7.276C216.94 6.724 217.354 6.352 217.774 6.16C218.014 6.028 218.284 5.962 218.584 5.962C218.812 5.962 219.07 6.028 219.358 6.16C219.562 6.244 219.718 6.346 219.826 6.466C219.934 6.586 220.03 6.772 220.114 7.024C220.15 7.24 220.168 7.39 220.168 7.474C220.168 7.546 220.138 7.702 220.078 7.942C219.934 8.386 219.742 8.764 219.502 9.076C219.274 9.376 218.974 9.634 218.602 9.85C218.41 9.97 218.17 10.03 217.882 10.03C217.63 10.03 217.39 9.988 217.162 9.904C216.946 9.808 216.778 9.67 216.658 9.49L216.532 9.346L216.478 9.49C216.226 10.138 216.1 10.69 216.1 11.146C216.1 11.458 216.16 11.71 216.28 11.902C216.364 12.034 216.568 12.1 216.892 12.1C217.132 12.1 217.306 12.076 217.414 12.028C217.594 11.968 217.75 11.896 217.882 11.812C218.026 11.716 218.164 11.62 218.296 11.524L218.368 11.488H218.35C218.494 11.416 218.614 11.35 218.71 11.29C218.806 11.23 218.872 11.188 218.908 11.164C218.932 11.164 218.956 11.158 218.98 11.146C219.004 11.134 219.028 11.11 219.052 11.074C219.16 11.026 219.286 11.044 219.43 11.128C219.574 11.212 219.646 11.32 219.646 11.452C219.622 11.548 219.514 11.704 219.322 11.92C219.13 12.136 218.986 12.25 218.89 12.262C218.878 12.262 218.836 12.28 218.764 12.316C218.692 12.352 218.644 12.382 218.62 12.406H218.638C218.53 12.55 218.422 12.622 218.314 12.622H218.17C218.122 12.718 217.96 12.814 217.684 12.91C217.42 13.006 217.168 13.054 216.928 13.054ZM217.738 9.094C218.098 9.094 218.428 8.89 218.728 8.482C219.016 8.098 219.16 7.714 219.16 7.33C219.16 7.126 219.118 6.982 219.034 6.898C218.962 6.862 218.896 6.844 218.836 6.844C218.776 6.844 218.674 6.862 218.53 6.898C218.374 6.934 218.134 7.102 217.81 7.402C217.486 7.69 217.246 7.948 217.09 8.176L216.856 8.554C216.952 8.518 217.042 8.5 217.126 8.5C217.222 8.488 217.276 8.494 217.288 8.518C217.288 8.686 217.33 8.824 217.414 8.932C217.498 9.04 217.606 9.094 217.738 9.094ZM220.28 12.928C220.208 12.904 220.106 12.826 219.974 12.694C219.854 12.55 219.77 12.454 219.722 12.406C219.722 12.322 219.746 12.256 219.794 12.208C219.854 12.16 219.896 12.124 219.92 12.1C219.956 12.052 220.034 12.016 220.154 11.992C220.286 11.968 220.37 11.938 220.406 11.902C220.454 11.866 220.574 11.782 220.766 11.65C220.958 11.518 221.126 11.386 221.27 11.254C221.426 11.11 221.552 10.966 221.648 10.822C221.96 10.378 222.29 9.85 222.638 9.238C222.746 9.034 222.884 8.758 223.052 8.41C223.232 8.05 223.334 7.816 223.358 7.708L222.8 7.528C222.776 7.504 222.74 7.456 222.692 7.384C222.644 7.312 222.614 7.252 222.602 7.204C222.602 7.156 222.602 7.102 222.602 7.042C222.602 6.898 222.614 6.796 222.638 6.736C222.674 6.676 222.74 6.64 222.836 6.628C223.208 6.556 223.514 6.502 223.754 6.466C224.114 6.418 224.384 6.37 224.564 6.322C224.708 6.286 224.87 6.268 225.05 6.268C225.362 6.268 225.644 6.322 225.896 6.43C226.076 6.502 226.232 6.646 226.364 6.862C226.532 7.09 226.616 7.318 226.616 7.546C226.616 7.63 226.61 7.714 226.598 7.798C226.586 7.87 226.58 7.948 226.58 8.032C226.58 8.14 226.598 8.248 226.634 8.356C226.478 8.932 226.31 9.46 226.13 9.94C226.094 10.036 226.04 10.198 225.968 10.426C225.896 10.654 225.842 10.852 225.806 11.02C225.77 11.2 225.716 11.368 225.644 11.524C225.548 11.8 225.488 12.022 225.464 12.19C225.44 12.322 225.386 12.424 225.302 12.496C225.23 12.556 225.146 12.61 225.05 12.658C224.966 12.694 224.912 12.718 224.888 12.73C224.84 12.754 224.756 12.742 224.636 12.694C224.516 12.646 224.414 12.58 224.33 12.496C224.306 12.424 224.294 12.328 224.294 12.208C224.294 12.112 224.318 11.98 224.366 11.812C224.582 11.116 224.876 10.108 225.248 8.788L225.446 8.104C225.482 7.996 225.5 7.87 225.5 7.726C225.5 7.618 225.482 7.51 225.446 7.402C225.254 7.33 225.104 7.294 224.996 7.294C224.936 7.294 224.87 7.306 224.798 7.33C224.726 7.354 224.66 7.372 224.6 7.384C224.48 7.468 224.408 7.582 224.384 7.726C224.156 8.326 223.922 8.854 223.682 9.31C223.442 9.766 223.256 10.138 223.124 10.426C223.076 10.546 222.938 10.774 222.71 11.11C222.566 11.326 222.464 11.488 222.404 11.596L222.206 11.848C222.146 11.908 222.044 12.004 221.9 12.136C221.756 12.268 221.654 12.364 221.594 12.424L221.036 12.856C220.964 12.916 220.832 12.946 220.64 12.946C220.46 12.934 220.34 12.928 220.28 12.928ZM228.677 12.568C228.293 12.412 228.023 12.214 227.867 11.974C227.711 11.722 227.633 11.374 227.633 10.93C227.633 10.714 227.651 10.462 227.687 10.174L227.723 9.526C227.723 9.418 227.711 9.334 227.687 9.274C227.663 9.214 227.609 9.148 227.525 9.076C227.501 9.052 227.441 8.992 227.345 8.896C227.249 8.8 227.207 8.722 227.219 8.662L227.201 8.572C227.201 8.488 227.213 8.41 227.237 8.338C227.273 8.266 227.309 8.23 227.345 8.23C227.381 8.23 227.429 8.224 227.489 8.212C227.549 8.188 227.603 8.182 227.651 8.194C227.819 8.194 227.903 8.23 227.903 8.302C227.951 8.398 228.029 8.41 228.137 8.338C228.257 8.254 228.371 8.098 228.479 7.87C228.647 7.606 228.893 7.33 229.217 7.042C229.553 6.742 229.829 6.532 230.045 6.412C230.129 6.364 230.267 6.322 230.459 6.286C230.651 6.238 230.819 6.214 230.963 6.214C231.179 6.214 231.365 6.262 231.521 6.358C231.689 6.454 231.857 6.592 232.025 6.772C232.253 6.94 232.367 7.204 232.367 7.564C232.367 7.816 232.307 8.074 232.187 8.338C232.139 8.518 231.947 8.746 231.611 9.022C231.287 9.298 230.987 9.49 230.711 9.598C230.375 9.682 229.991 9.724 229.559 9.724C229.271 9.724 229.085 9.7 229.001 9.652C228.857 9.568 228.755 9.892 228.695 10.624C228.683 10.708 228.677 10.822 228.677 10.966C228.677 11.17 228.707 11.332 228.767 11.452C228.779 11.464 228.821 11.512 228.893 11.596C228.965 11.668 229.055 11.734 229.163 11.794C229.271 11.842 229.385 11.866 229.505 11.866C229.613 11.866 229.697 11.854 229.757 11.83C229.889 11.794 230.015 11.728 230.135 11.632C230.255 11.524 230.423 11.362 230.639 11.146C230.831 10.954 230.969 10.822 231.053 10.75C231.113 10.642 231.233 10.588 231.413 10.588C231.461 10.588 231.545 10.6 231.665 10.624C231.773 10.708 231.827 10.798 231.827 10.894C231.827 10.99 231.767 11.17 231.647 11.434C231.587 11.554 231.437 11.722 231.197 11.938C230.969 12.142 230.765 12.304 230.585 12.424C230.213 12.628 229.841 12.73 229.469 12.73C229.241 12.73 228.977 12.676 228.677 12.568ZM229.739 8.914C229.859 8.89 230.033 8.86 230.261 8.824C230.489 8.788 230.675 8.71 230.819 8.59C230.975 8.458 231.155 8.236 231.359 7.924C231.395 7.828 231.413 7.732 231.413 7.636C231.413 7.456 231.377 7.33 231.305 7.258C231.221 7.174 231.125 7.132 231.017 7.132C230.849 7.132 230.675 7.204 230.495 7.348C230.375 7.384 230.195 7.516 229.955 7.744C229.727 7.972 229.529 8.2 229.361 8.428C229.193 8.644 229.139 8.77 229.199 8.806C229.175 8.842 229.235 8.872 229.379 8.896C229.523 8.908 229.643 8.914 229.739 8.914Z" fill="#8E80A9"/>
</svg>
