<svg width="310" height="23" viewBox="0 0 310 23" fill="none" xmlns="http://www.w3.org/2000/svg">
<path d="M1.34706 16.9427C0.883057 16.9427 0.587057 16.8787 0.459057 16.7507C0.331057 16.6227 0.267057 16.4467 0.267057 16.2227C0.315057 16.0787 0.379057 15.9187 0.459057 15.7427C0.619057 15.3107 0.723057 14.9987 0.771057 14.8067C0.835057 14.5027 0.939057 14.1187 1.08306 13.6547C1.81906 11.2867 2.31506 9.79069 2.57106 9.16669L3.48306 6.62269L4.32306 4.17469C4.72306 3.31069 5.00306 2.59069 5.16306 2.01469C5.17906 1.98269 5.18706 1.93469 5.18706 1.87069C5.18706 1.82269 5.16306 1.75069 5.11506 1.65469C5.06706 1.54269 5.04306 1.42269 5.04306 1.29469C5.02706 1.10269 5.07506 0.966685 5.18706 0.886685C5.31506 0.790686 5.47506 0.766685 5.66706 0.814685C6.06706 0.926685 6.73906 0.982686 7.68306 0.982686C8.03506 0.982686 8.24306 0.966685 8.30706 0.934685C8.43506 0.870686 9.19506 0.742686 10.5871 0.550685C11.9791 0.358685 13.2911 0.190685 14.5231 0.0466847L14.7391 0.0226851C14.8671 0.0226851 15.0111 0.0386853 15.1711 0.0706859C15.3471 0.102685 15.4671 0.126685 15.5311 0.142685C15.7711 0.190685 15.9791 0.318686 16.1551 0.526686C16.3471 0.718685 16.4191 0.934685 16.3711 1.17469C16.3071 1.36669 16.1311 1.46269 15.8431 1.46269C15.7471 1.46269 15.5071 1.43069 15.1231 1.36668C15.0911 1.36668 15.0351 1.51868 14.9551 1.82268C14.8911 2.12669 14.8191 2.37469 14.7391 2.56669C14.5631 2.79069 14.3311 3.35069 14.0431 4.24669C13.7551 5.14269 13.6111 5.72669 13.6111 5.99869C13.3871 6.33469 13.2031 6.83869 13.0591 7.51069C12.9791 7.84669 12.8991 8.11869 12.8191 8.32669C12.6271 8.98269 12.3231 10.0707 11.9071 11.5907C11.5071 13.1107 11.3151 13.8707 11.3311 13.8707L11.2351 14.7347C11.1711 15.2627 11.1311 15.6307 11.1151 15.8387C11.1311 15.9027 11.1311 15.9587 11.1151 16.0067C11.1151 16.0547 11.0911 16.0867 11.0431 16.1027C10.9311 16.2147 10.7231 16.2707 10.4191 16.2707C10.2911 16.2707 10.1631 16.2547 10.0351 16.2227C9.92306 16.1907 9.85106 16.1507 9.81906 16.1027C9.80306 16.0547 9.75506 15.9667 9.67506 15.8387C9.59506 15.6947 9.57106 15.5507 9.60306 15.4067C9.65106 14.8947 9.77906 14.0147 9.98706 12.7667C10.0671 12.3667 10.1631 11.9987 10.2751 11.6627C10.3871 11.3107 10.4671 11.1187 10.5151 11.0867L10.9711 9.38269C11.1471 8.88669 11.2831 8.36669 11.3791 7.82269C11.3951 7.75869 11.4351 7.59069 11.4991 7.31869C11.5631 7.03069 11.6591 6.71069 11.7871 6.35869C11.9631 5.91069 12.1151 5.43069 12.2431 4.91869C12.3871 4.39069 12.4751 4.06269 12.5071 3.93468C12.5551 3.75869 12.6911 3.35069 12.9151 2.71068C12.9471 2.63068 13.0031 2.46269 13.0831 2.20669C13.1791 1.93469 13.2191 1.71869 13.2031 1.55869L11.6191 1.77469L10.1791 1.96669L8.52306 2.20669C7.65906 2.33469 7.20306 2.39869 7.15506 2.39869C6.88306 2.44669 6.74706 2.54269 6.74706 2.68669C6.36306 3.42269 6.01906 4.15869 5.71506 4.89469C5.41106 5.61469 5.20306 6.21469 5.09106 6.69469C5.02706 6.83869 4.76306 7.54269 4.29906 8.80669C4.01106 9.54269 3.87506 9.89469 3.89106 9.86269C3.57106 10.9347 3.22706 11.9427 2.85906 12.8867C2.77906 13.0627 2.70706 13.2307 2.64306 13.3907C2.59506 13.5507 2.54706 13.7827 2.49906 14.0867C2.37106 14.4227 2.22706 14.9587 2.06706 15.6947C2.00306 15.9027 1.96306 16.0627 1.94706 16.1747C1.94706 16.2707 1.93106 16.3987 1.89906 16.5587C1.77106 16.8147 1.58706 16.9427 1.34706 16.9427ZM16.8394 16.0307C16.6474 16.0307 16.4954 15.9987 16.3834 15.9347C16.2714 15.8707 16.1114 15.7507 15.9034 15.5747C15.3754 15.0147 15.1114 14.5027 15.1114 14.0387C15.1114 13.9267 15.1194 13.8467 15.1354 13.7987C15.1834 13.6867 15.1994 13.5747 15.1834 13.4627C15.1834 13.3507 15.1834 13.2787 15.1834 13.2467C15.1194 13.1827 15.0874 13.1427 15.0874 13.1267C15.0874 13.0947 15.1034 13.0707 15.1354 13.0547C15.1674 13.0227 15.1914 12.9907 15.2074 12.9587C15.3034 12.9587 15.3354 12.8707 15.3034 12.6947C15.2714 12.5667 15.3354 12.2867 15.4954 11.8547C15.6554 11.4067 15.8554 10.9987 16.0954 10.6307C16.2714 10.3427 16.5274 9.98269 16.8634 9.55069C17.2154 9.11869 17.5274 8.79069 17.7994 8.56669C18.1834 8.23069 18.5274 7.98269 18.8314 7.82269C19.1354 7.66269 19.4714 7.54269 19.8394 7.46269C20.1594 7.38269 20.3754 7.34269 20.4874 7.34269C20.5994 7.34269 20.6954 7.37469 20.7754 7.43869C20.8714 7.48669 20.9914 7.58269 21.1354 7.72669C21.5674 7.91869 21.8634 8.16669 22.0234 8.47069C22.1994 8.75869 22.2874 9.21469 22.2874 9.83869C22.2874 10.8787 21.8634 12.0067 21.0154 13.2227C20.6474 13.7507 20.3034 14.1587 19.9834 14.4467C19.6634 14.7187 19.2394 15.0147 18.7114 15.3347C18.3754 15.5747 18.0634 15.7507 17.7754 15.8627C17.5034 15.9587 17.1914 16.0147 16.8394 16.0307ZM19.1434 13.4867C19.5274 13.0547 19.8314 12.6467 20.0554 12.2627C20.2954 11.8787 20.5194 11.3907 20.7274 10.7987C20.8074 10.5267 20.8474 10.1987 20.8474 9.81469C20.8474 9.33469 20.7834 9.06269 20.6554 8.99869C20.4954 8.91869 20.3354 8.87869 20.1754 8.87869C19.8234 8.87869 19.4554 9.03869 19.0714 9.35869C18.6074 9.75869 18.1914 10.2547 17.8234 10.8467C17.4554 11.4227 17.0794 12.1427 16.6954 13.0067C16.5354 13.3427 16.4554 13.6707 16.4554 13.9907C16.4554 14.2307 16.5114 14.4227 16.6234 14.5667C16.7514 14.7107 16.9194 14.7827 17.1274 14.7827C17.6554 14.7827 18.3274 14.3507 19.1434 13.4867ZM27.7004 16.0307C27.3324 15.8707 27.0844 15.6787 26.9564 15.4547C26.8124 15.2467 26.7404 14.9267 26.7404 14.4947C26.7404 14.1907 26.7484 13.9507 26.7644 13.7747C26.7804 13.6787 26.8684 13.3667 27.0284 12.8387C27.2044 12.3107 27.3324 11.9427 27.4124 11.7347C27.2684 11.7667 27.1324 11.8227 27.0044 11.9027C26.8924 11.9827 26.7804 12.0627 26.6684 12.1427C26.5084 12.3027 26.2924 12.4627 26.0204 12.6227C25.7484 12.7827 25.5004 12.9027 25.2764 12.9827C25.2124 13.0147 25.1404 13.0307 25.0604 13.0307C24.8844 13.0307 24.6844 12.9747 24.4604 12.8627C24.2524 12.7347 24.1004 12.5747 24.0044 12.3827C23.9244 12.1907 23.8684 11.9747 23.8364 11.7347C23.8204 11.6547 23.8124 11.5347 23.8124 11.3747C23.8124 10.9747 23.9084 10.5827 24.1004 10.1987L24.7004 8.97469C24.8444 8.70269 25.0444 8.29469 25.3004 7.75069C25.3484 7.65469 25.4204 7.53469 25.5164 7.39069C25.6124 7.24669 25.6764 7.11869 25.7084 7.00669C25.7244 6.94269 25.7724 6.87069 25.8524 6.79069C25.9484 6.69469 26.0364 6.64669 26.1164 6.64669C26.5324 6.67869 26.8284 6.83069 27.0044 7.10269C27.1004 7.21469 27.1484 7.33469 27.1484 7.46269C27.1484 7.62269 27.0844 7.77469 26.9564 7.91869C26.4604 8.59069 25.9484 9.49469 25.4204 10.6307C25.2764 10.8867 25.2044 11.1427 25.2044 11.3987C25.2044 11.4787 25.2124 11.5427 25.2284 11.5907C25.4844 11.5907 25.8524 11.4147 26.3324 11.0627C26.8124 10.7107 27.4284 10.2227 28.1804 9.59869L28.7564 9.11869C29.1244 8.81469 29.4444 8.44669 29.7164 8.01469C29.8604 7.74269 30.1084 7.59869 30.4604 7.58269C30.7004 7.69469 30.8524 7.76669 30.9164 7.79869C30.9804 7.92669 31.0444 8.06269 31.1084 8.20669C31.1884 8.33469 31.2284 8.43869 31.2284 8.51869C31.2284 8.66269 31.1164 8.85469 30.8924 9.09469C30.7804 9.11069 30.5564 9.35869 30.2204 9.83869C29.9004 10.3027 29.6524 10.7027 29.4764 11.0387C29.4284 11.1187 29.3644 11.2067 29.2844 11.3027C29.2204 11.3827 29.1564 11.4787 29.0924 11.5907L28.1804 13.7987C28.1644 13.8627 28.1484 13.9427 28.1324 14.0387C28.1164 14.1347 28.1084 14.2547 28.1084 14.3987C28.1084 14.5267 28.1244 14.6147 28.1564 14.6627C28.2364 14.6627 28.3004 14.6547 28.3484 14.6387C28.4124 14.6227 28.4764 14.6147 28.5404 14.6147C28.6364 14.6147 28.7004 14.6547 28.7324 14.7347C28.8124 15.0067 28.8524 15.1747 28.8524 15.2387C28.8524 15.3987 28.7404 15.5987 28.5164 15.8387C28.3404 16.0147 28.1724 16.1027 28.0124 16.1027C27.9324 16.1027 27.8284 16.0787 27.7004 16.0307ZM38.4542 7.48669C38.5822 7.74269 38.6462 8.02269 38.6462 8.32669C38.6462 8.80669 38.5182 9.23869 38.2622 9.62269C38.1022 9.84669 37.9582 10.1827 37.8302 10.6307C37.7182 11.0787 37.6062 11.6787 37.4942 12.4307C37.3502 13.0387 37.1742 13.9747 36.9662 15.2387C36.7102 15.9107 36.5502 16.4147 36.4862 16.7507C36.4702 16.8467 36.3902 17.0467 36.2462 17.3507C36.1182 17.6547 36.0142 17.8947 35.9342 18.0707C35.3102 19.3667 34.5982 20.3587 33.7982 21.0467C32.9982 21.7347 32.1262 22.1107 31.1822 22.1747C30.9262 22.2067 30.7742 22.2227 30.7262 22.2227C30.5822 22.2227 30.4462 22.1987 30.3182 22.1507C30.2062 22.1027 30.0782 22.0387 29.9342 21.9587C29.8702 21.9267 29.7822 21.8707 29.6702 21.7907C29.5582 21.7107 29.4782 21.6467 29.4302 21.5987C29.3982 21.5667 29.3822 21.5267 29.3822 21.4787C29.3822 21.3987 29.4302 21.3187 29.5262 21.2387C29.6222 21.1587 29.7742 21.1187 29.9822 21.1187C30.0942 21.1827 30.2862 21.2147 30.5582 21.2147C30.8302 21.2147 30.9902 21.1827 31.0382 21.1187C31.0702 21.0867 31.1662 21.0307 31.3262 20.9507C31.4862 20.8867 31.6702 20.8307 31.8782 20.7827C32.3742 20.5427 32.8142 20.2307 33.1982 19.8467C33.5982 19.4787 33.9662 19.0067 34.3022 18.4307C34.7022 17.8227 34.9662 17.2707 35.0942 16.7747C35.2382 16.4387 35.3982 15.9587 35.5742 15.3347C35.7662 14.6947 35.9182 14.1187 36.0302 13.6067L35.7182 13.8947C35.6382 13.9907 35.4382 14.1347 35.1182 14.3267C34.7982 14.5027 34.6062 14.5907 34.5422 14.5907C34.5262 14.5907 34.5022 14.5987 34.4702 14.6147C34.4382 14.6307 34.4222 14.6627 34.4222 14.7107C34.4222 14.7747 34.2142 14.8787 33.7982 15.0227C33.3822 15.1507 33.1182 15.2147 33.0062 15.2147C32.8462 15.2147 32.6702 15.1347 32.4782 14.9747C32.3022 14.7987 32.1742 14.6307 32.0942 14.4707C32.0462 14.3587 31.9822 14.2307 31.9022 14.0867C31.8222 13.9427 31.7582 13.8067 31.7102 13.6787C31.6622 13.5347 31.6382 13.3747 31.6382 13.1987C31.6382 12.9907 31.6542 12.8307 31.6862 12.7187C31.8782 11.9987 32.1982 10.9827 32.6462 9.67069C33.1102 8.35869 33.4622 7.51869 33.7022 7.15069C33.8302 6.97469 33.9822 6.88669 34.1582 6.88669C34.3982 6.88669 34.5902 7.01469 34.7342 7.27069C34.8782 7.46269 34.9502 7.62269 34.9502 7.75069C34.9502 7.84669 34.9102 7.98269 34.8302 8.15869C34.7502 8.33469 34.6462 8.54269 34.5182 8.78269C34.4542 8.95869 34.3742 9.15069 34.2782 9.35869C34.1822 9.56669 34.1342 9.69469 34.1342 9.74269C34.1182 9.80669 34.0702 10.0067 33.9902 10.3427C33.9102 10.6627 33.8382 10.8227 33.7742 10.8227C33.6622 10.9187 33.5422 11.2867 33.4142 11.9267C33.2862 12.5667 33.2222 13.0627 33.2222 13.4147C33.2222 13.5907 33.2462 13.6787 33.2942 13.6787C34.2382 13.6787 35.2622 12.9747 36.3662 11.5667C36.5102 10.8627 36.6382 10.2707 36.7502 9.79069C36.9582 8.97469 37.1182 8.24669 37.2302 7.60669C37.3262 7.38269 37.3982 7.25469 37.4462 7.22269C37.4942 7.17469 37.5982 7.15069 37.7582 7.15069C37.9502 7.15069 38.0862 7.16669 38.1662 7.19869C38.2462 7.23069 38.3422 7.32669 38.4542 7.48669ZM41.8339 16.1747C41.6899 16.0467 41.5939 15.9667 41.5459 15.9347C41.4979 15.9027 41.3539 15.8547 41.1139 15.7907C41.0819 15.6787 40.9859 15.4707 40.8259 15.1667C40.6179 14.8787 40.5059 14.6307 40.4899 14.4227V14.3027V14.1827C40.4899 14.0067 40.4499 13.8787 40.3699 13.7987C40.4499 13.7347 40.4659 13.6387 40.4179 13.5107C40.3699 13.3667 40.3779 13.2627 40.4419 13.1987L40.4659 13.0307C40.4179 12.9507 40.3939 12.8387 40.3939 12.6947C40.3939 12.4387 40.4739 11.9267 40.6339 11.1587C40.7939 10.4227 40.8579 9.98269 40.8259 9.83869L40.3699 9.43069C40.4019 9.19069 40.4419 9.01469 40.4899 8.90269C40.5379 8.77469 40.6499 8.67069 40.8259 8.59069L40.9939 8.66269C41.0579 8.64669 41.1059 8.63069 41.1379 8.61469C41.1859 8.58269 41.2259 8.55869 41.2579 8.54269C41.5299 8.03069 41.7859 7.39069 42.0259 6.62269C42.1219 6.31869 42.2419 5.99869 42.3859 5.66269C42.5459 5.31069 42.7059 5.03069 42.8659 4.82269C42.9619 4.71069 43.0499 4.57469 43.1299 4.41469C43.2099 4.25469 43.2659 4.14269 43.2979 4.07869C43.5059 3.64669 43.8419 3.15869 44.3059 2.61469C44.7859 2.07069 45.2259 1.67869 45.6259 1.43869C45.8659 1.27869 46.0739 1.18269 46.2499 1.15068C46.4259 1.11869 46.6979 1.09469 47.0659 1.07869C47.2739 1.20669 47.4819 1.38268 47.6899 1.60668C47.8979 1.81468 48.0019 2.00669 48.0019 2.18269V2.54269C48.0019 2.81469 47.9619 3.03069 47.8819 3.19069C47.8979 3.33469 47.8579 3.56669 47.7619 3.88669C47.6979 4.03069 47.6499 4.19069 47.6179 4.36668C47.2179 5.19869 46.8579 5.85469 46.5379 6.33469C46.2179 6.79869 45.8659 7.21469 45.4819 7.58269C45.1139 7.93469 44.5059 8.45469 43.6579 9.14269C44.3459 9.35069 44.6979 9.73469 44.7139 10.2947C44.7139 10.3427 44.7059 10.4307 44.6899 10.5587C44.6899 10.6707 44.6979 10.7667 44.7139 10.8467L44.7619 11.4227C44.7619 11.5507 44.7779 11.7427 44.8099 11.9987C44.8579 12.3507 44.8259 12.8147 44.7139 13.3907C44.6979 13.4387 44.6739 13.4787 44.6419 13.5107C44.6259 13.5427 44.6179 13.5827 44.6179 13.6307C44.6179 13.8067 44.5859 13.9667 44.5219 14.1107C44.4739 14.2387 44.4019 14.3827 44.3059 14.5427C44.2259 14.6867 44.1539 14.8227 44.0899 14.9507C44.0579 15.0147 43.9939 15.0867 43.8979 15.1667C43.8019 15.2307 43.7299 15.2947 43.6819 15.3587C43.4899 15.5827 43.2979 15.7347 43.1059 15.8147C42.9139 15.8947 42.6659 15.9667 42.3619 16.0307C42.1379 16.0627 41.9779 16.0947 41.8819 16.1267L41.8339 16.1747ZM43.2259 7.75069L44.4259 6.76669C44.4899 6.73469 44.6499 6.54269 44.9059 6.19069C45.1619 5.83869 45.3139 5.61469 45.3619 5.51869C45.5379 5.37469 45.7299 5.07069 45.9379 4.60669C46.1459 4.12669 46.3139 3.63869 46.4419 3.14268C46.5699 2.63068 46.6179 2.25468 46.5859 2.01469L46.4179 2.08669C46.1779 2.39069 45.8339 2.79869 45.3859 3.31069C44.8579 3.90269 44.3779 4.57469 43.9459 5.32669C43.5299 6.07869 43.2019 6.83869 42.9619 7.60669L43.2259 7.75069ZM42.4099 14.6627C42.8099 14.2627 43.0739 13.8467 43.2019 13.4147C43.3299 12.9667 43.3939 12.4227 43.3939 11.7827V10.9427C43.3939 10.8947 43.3779 10.8227 43.3459 10.7267C43.3299 10.6307 43.3379 10.5507 43.3699 10.4867C43.3379 10.3907 43.2739 10.2147 43.1779 9.95869C43.0979 9.70269 42.9779 9.49469 42.8179 9.33469C42.6899 9.39869 42.5859 9.47069 42.5059 9.55069C42.4259 9.63069 42.3219 9.76669 42.1939 9.95869C42.0979 10.1507 42.0019 10.5587 41.9059 11.1827C41.8259 11.7907 41.7859 12.3827 41.7859 12.9587C41.7859 13.8387 41.8899 14.4067 42.0979 14.6627H42.4099ZM50.116 15.7667C49.924 15.8467 49.724 15.8867 49.516 15.8867C49.18 15.8867 48.772 15.7987 48.292 15.6227C48.212 15.6227 48.084 15.5507 47.908 15.4067C47.732 15.2627 47.604 15.1027 47.524 14.9267C47.3 14.6067 47.188 14.1747 47.188 13.6307C47.188 12.8147 47.42 11.8387 47.884 10.7027C48.06 10.3347 48.348 9.85469 48.748 9.26269C49.164 8.65469 49.444 8.31069 49.588 8.23069C49.636 8.21469 49.748 8.17469 49.924 8.11069C50.1 8.03069 50.3 7.93469 50.524 7.82269C50.748 7.71069 51.012 7.65469 51.316 7.65469C51.62 7.65469 51.956 7.76669 52.324 7.99069C52.708 8.19869 53.012 8.44669 53.236 8.73469C53.46 9.02269 53.54 9.27069 53.476 9.47869C53.46 9.52669 53.364 9.63069 53.188 9.79069C53.028 9.95069 52.9 10.0787 52.804 10.1747C52.724 10.2547 52.628 10.2947 52.516 10.2947C52.372 10.2947 52.244 10.2387 52.132 10.1267C52.02 9.99869 51.956 9.83069 51.94 9.62269C51.908 9.52669 51.804 9.42269 51.628 9.31069C51.468 9.19869 51.356 9.12669 51.292 9.09469C51.164 9.09469 50.98 9.20669 50.74 9.43069C50.516 9.65469 50.292 9.93469 50.068 10.2707C49.7 10.6547 49.388 11.1267 49.132 11.6867C48.876 12.2467 48.692 12.7267 48.58 13.1267C48.548 13.1907 48.532 13.3027 48.532 13.4627C48.532 13.6387 48.548 13.8147 48.58 13.9907C48.628 14.1667 48.676 14.2787 48.724 14.3267C48.756 14.3427 48.836 14.3507 48.964 14.3507C49.332 14.3507 49.852 14.2947 50.524 14.1827C51.212 14.0547 51.74 13.9187 52.108 13.7747C52.476 13.5347 52.828 13.4147 53.164 13.4147C53.276 13.4147 53.356 13.4227 53.404 13.4387C53.612 13.5347 53.716 13.6467 53.716 13.7747C53.716 13.9987 53.484 14.2387 53.02 14.4947C52.748 14.6387 52.516 14.7827 52.324 14.9267C52.132 15.0707 52.036 15.1827 52.036 15.2627C52.004 15.2627 51.94 15.2867 51.844 15.3347C51.748 15.3667 51.684 15.3747 51.652 15.3587C51.476 15.3747 51.204 15.4307 50.836 15.5267C50.468 15.6227 50.228 15.7027 50.116 15.7667ZM66.6291 14.3027C66.6931 14.3507 66.7251 14.4227 66.7251 14.5187C66.7251 14.6307 66.6851 14.7427 66.6051 14.8547C66.5411 14.9507 66.4771 14.9987 66.4131 14.9987C66.1091 14.9987 65.8131 14.9187 65.5251 14.7587C65.2531 14.5827 65.1171 14.3107 65.1171 13.9427V12.4547C65.1171 11.7027 65.0611 11.2787 64.9491 11.1827C64.7091 11.0547 64.2931 11.3187 63.7011 11.9747C63.1251 12.6307 62.5651 13.4067 62.0211 14.3027C61.8451 14.5907 61.7011 14.8147 61.5891 14.9747C61.4771 15.1347 61.3891 15.2147 61.3251 15.2147C61.2771 15.2147 61.1971 15.1747 61.0851 15.0947C60.5891 14.9507 60.3411 14.6707 60.3411 14.2547C60.3411 14.2067 60.3571 14.1027 60.3891 13.9427C60.5491 13.4147 60.7091 12.8307 60.8691 12.1907C61.0291 11.5347 61.1571 10.9827 61.2531 10.5347C61.2051 10.4387 61.1251 10.3907 61.0131 10.3907C60.8531 10.3907 60.6691 10.4707 60.4611 10.6307C60.0611 10.9027 59.5491 11.5507 58.9251 12.5747C58.1411 13.7747 57.5971 14.5027 57.2931 14.7587C57.1811 14.9507 57.0771 15.1027 56.9811 15.2147C56.9011 15.3107 56.8211 15.3587 56.7411 15.3587C56.6771 15.3587 56.5571 15.3107 56.3811 15.2147C55.9171 14.9427 55.6851 14.5587 55.6851 14.0627C55.6851 13.8227 55.7571 13.3427 55.9011 12.6227C56.0451 11.9027 56.2051 11.2307 56.3811 10.6067C56.5251 10.3347 56.6531 10.0547 56.7651 9.76669C56.8931 9.46269 56.9571 9.27869 56.9571 9.21469C57.0211 8.87869 57.1011 8.51869 57.1971 8.13469C57.2931 7.75069 57.3651 7.53469 57.4131 7.48669C57.5251 7.37469 57.6531 7.31869 57.7971 7.31869C58.0371 7.31869 58.2131 7.44669 58.3251 7.70269C58.5011 7.87869 58.5891 8.10269 58.5891 8.37469C58.5891 8.67869 58.5011 9.07069 58.3251 9.55069C58.0531 10.1427 57.7571 11.0067 57.4371 12.1427C57.7731 11.7747 58.0131 11.4867 58.1571 11.2787C58.5411 10.7347 59.0371 10.1267 59.6451 9.45469C60.1411 8.91069 60.7011 8.63869 61.3251 8.63869C62.0611 8.76669 62.4851 9.38269 62.5971 10.4867C62.5971 10.6787 62.5811 10.9187 62.5491 11.2067C62.5171 11.4787 62.4931 11.6547 62.4771 11.7347C62.5411 11.6387 62.7011 11.4307 62.9571 11.1107C63.2291 10.7907 63.5571 10.4627 63.9411 10.1267C64.2931 9.85469 64.6211 9.71869 64.9251 9.71869C65.1811 9.71869 65.4051 9.82269 65.5971 10.0307C65.9331 10.2227 66.1731 10.4947 66.3171 10.8467C66.4611 11.1827 66.5331 11.6147 66.5331 12.1427C66.5331 12.4147 66.5251 12.6307 66.5091 12.7907C66.4771 13.1107 66.4611 13.3107 66.4611 13.3907C66.4611 13.6947 66.5171 13.9987 66.6291 14.3027ZM69.9121 16.1747C69.7681 16.0467 69.6721 15.9667 69.6241 15.9347C69.5761 15.9027 69.4321 15.8547 69.1921 15.7907C69.1601 15.6787 69.0641 15.4707 68.9041 15.1667C68.6961 14.8787 68.5841 14.6307 68.5681 14.4227V14.3027V14.1827C68.5681 14.0067 68.5281 13.8787 68.4481 13.7987C68.5281 13.7347 68.5441 13.6387 68.4961 13.5107C68.4481 13.3667 68.4561 13.2627 68.5201 13.1987L68.5441 13.0307C68.4961 12.9507 68.4721 12.8387 68.4721 12.6947C68.4721 12.4387 68.5521 11.9267 68.7121 11.1587C68.8721 10.4227 68.9361 9.98269 68.9041 9.83869L68.4481 9.43069C68.4801 9.19069 68.5201 9.01469 68.5681 8.90269C68.6161 8.77469 68.7281 8.67069 68.9041 8.59069L69.0721 8.66269C69.1361 8.64669 69.1841 8.63069 69.2161 8.61469C69.2641 8.58269 69.3041 8.55869 69.3361 8.54269C69.6081 8.03069 69.8641 7.39069 70.1041 6.62269C70.2001 6.31869 70.3201 5.99869 70.4641 5.66269C70.6241 5.31069 70.7841 5.03069 70.9441 4.82269C71.0401 4.71069 71.1281 4.57469 71.2081 4.41469C71.2881 4.25469 71.3441 4.14269 71.3761 4.07869C71.5841 3.64669 71.9201 3.15869 72.3841 2.61469C72.8641 2.07069 73.3041 1.67869 73.7041 1.43869C73.9441 1.27869 74.1521 1.18269 74.3281 1.15068C74.5041 1.11869 74.7761 1.09469 75.1441 1.07869C75.3521 1.20669 75.5601 1.38268 75.7681 1.60668C75.9761 1.81468 76.0801 2.00669 76.0801 2.18269V2.54269C76.0801 2.81469 76.0401 3.03069 75.9601 3.19069C75.9761 3.33469 75.9361 3.56669 75.8401 3.88669C75.7761 4.03069 75.7281 4.19069 75.6961 4.36668C75.2961 5.19869 74.9361 5.85469 74.6161 6.33469C74.2961 6.79869 73.9441 7.21469 73.5601 7.58269C73.1921 7.93469 72.5841 8.45469 71.7361 9.14269C72.4241 9.35069 72.7761 9.73469 72.7921 10.2947C72.7921 10.3427 72.7841 10.4307 72.7681 10.5587C72.7681 10.6707 72.7761 10.7667 72.7921 10.8467L72.8401 11.4227C72.8401 11.5507 72.8561 11.7427 72.8881 11.9987C72.9361 12.3507 72.9041 12.8147 72.7921 13.3907C72.7761 13.4387 72.7521 13.4787 72.7201 13.5107C72.7041 13.5427 72.6961 13.5827 72.6961 13.6307C72.6961 13.8067 72.6641 13.9667 72.6001 14.1107C72.5521 14.2387 72.4801 14.3827 72.3841 14.5427C72.3041 14.6867 72.2321 14.8227 72.1681 14.9507C72.1361 15.0147 72.0721 15.0867 71.9761 15.1667C71.8801 15.2307 71.8081 15.2947 71.7601 15.3587C71.5681 15.5827 71.3761 15.7347 71.1841 15.8147C70.9921 15.8947 70.7441 15.9667 70.4401 16.0307C70.2161 16.0627 70.0561 16.0947 69.9601 16.1267L69.9121 16.1747ZM71.3041 7.75069L72.5041 6.76669C72.5681 6.73469 72.7281 6.54269 72.9841 6.19069C73.2401 5.83869 73.3921 5.61469 73.4401 5.51869C73.6161 5.37469 73.8081 5.07069 74.0161 4.60669C74.2241 4.12669 74.3921 3.63869 74.5201 3.14268C74.6481 2.63068 74.6961 2.25468 74.6641 2.01469L74.4961 2.08669C74.2561 2.39069 73.9121 2.79869 73.4641 3.31069C72.9361 3.90269 72.4561 4.57469 72.0241 5.32669C71.6081 6.07869 71.2801 6.83869 71.0401 7.60669L71.3041 7.75069ZM70.4881 14.6627C70.8881 14.2627 71.1521 13.8467 71.2801 13.4147C71.4081 12.9667 71.4721 12.4227 71.4721 11.7827V10.9427C71.4721 10.8947 71.4561 10.8227 71.4241 10.7267C71.4081 10.6307 71.4161 10.5507 71.4481 10.4867C71.4161 10.3907 71.3521 10.2147 71.2561 9.95869C71.1761 9.70269 71.0561 9.49469 70.8961 9.33469C70.7681 9.39869 70.6641 9.47069 70.5841 9.55069C70.5041 9.63069 70.4001 9.76669 70.2721 9.95869C70.1761 10.1507 70.0801 10.5587 69.9841 11.1827C69.9041 11.7907 69.8641 12.3827 69.8641 12.9587C69.8641 13.8387 69.9681 14.4067 70.1761 14.6627H70.4881ZM76.4181 21.9107C76.4021 21.9427 76.3301 21.9107 76.2021 21.8147C76.0741 21.7187 75.9541 21.5987 75.8421 21.4547C75.7461 21.3107 75.7061 21.1987 75.7221 21.1187C75.6901 20.9907 75.6741 20.8787 75.6741 20.7827C75.6741 20.3987 75.8981 19.7507 76.3461 18.8387C76.4421 18.6627 76.6021 18.3267 76.8261 17.8307C76.9701 17.4627 77.1141 17.1427 77.2581 16.8707C77.2901 16.8067 77.5701 16.3107 78.0981 15.3827C78.6261 14.4547 79.0741 13.5187 79.4421 12.5747C79.1701 12.8627 78.8341 13.2387 78.4341 13.7027C77.9701 14.2787 77.5861 14.7027 77.2821 14.9747C76.9941 15.2307 76.7301 15.3507 76.4901 15.3347C76.2021 15.2707 75.9621 15.1827 75.7701 15.0707C75.5781 14.9587 75.4421 14.7827 75.3621 14.5427C75.3141 14.2707 75.2901 13.9747 75.2901 13.6547C75.2901 12.9347 75.3941 11.9587 75.6021 10.7267C75.7621 10.0387 75.8421 9.53469 75.8421 9.21469C75.8421 9.02269 75.8181 8.87069 75.7701 8.75869C75.7221 8.64669 75.6421 8.53469 75.5301 8.42269C75.3061 8.23069 75.1941 8.05469 75.1941 7.89469C75.1941 7.76669 75.3061 7.63869 75.5301 7.51069C75.7381 7.44669 75.9301 7.41469 76.1061 7.41469C76.2341 7.41469 76.3461 7.44669 76.4421 7.51069C76.5381 7.55869 76.6501 7.66269 76.7781 7.82269C76.8261 7.90269 76.8981 8.02269 76.9941 8.18269C77.0901 8.32669 77.1621 8.49469 77.2101 8.68669C77.2581 8.86269 77.2821 9.08669 77.2821 9.35869C77.2661 9.48669 77.2021 9.99069 77.0901 10.8707C77.0101 11.2387 76.9701 11.4867 76.9701 11.6147C76.7621 12.3827 76.6581 13.0147 76.6581 13.5107C76.6581 13.7027 76.6821 13.7987 76.7301 13.7987C77.1621 13.4467 77.5861 13.0147 78.0021 12.5027C78.4341 11.9907 78.9941 11.2707 79.6821 10.3427C79.7461 10.2307 79.8661 10.0147 80.0421 9.69469C80.2341 9.35869 80.3781 9.04669 80.4741 8.75869C80.6821 8.29469 80.8581 8.05469 81.0021 8.03869C81.0981 8.00669 81.2501 8.03869 81.4581 8.13469C81.6661 8.23069 81.7781 8.30269 81.7941 8.35069C81.7941 8.36669 81.8661 8.39069 82.0101 8.42269C82.1541 8.43869 82.2261 8.47069 82.2261 8.51869C82.2261 8.55069 82.1381 8.79069 81.9621 9.23869C81.6901 9.89469 81.5621 10.2467 81.5781 10.2947C81.6261 10.3587 81.5381 10.6307 81.3141 11.1107C81.1061 11.5907 80.9861 11.8707 80.9541 11.9507C80.5541 13.2307 80.1221 14.2707 79.6581 15.0707C79.4981 15.3587 79.1141 16.1987 78.5061 17.5907L78.3141 18.0467C78.1541 18.3987 77.9781 18.7987 77.7861 19.2467C77.5941 19.7107 77.4261 20.1187 77.2821 20.4707C77.1861 20.6627 77.1141 20.8147 77.0661 20.9267C77.0341 21.0547 77.0021 21.1507 76.9701 21.2147C76.9381 21.5187 76.8661 21.7427 76.7541 21.8867L76.4181 21.9107ZM88.6538 16.3427C88.5418 16.4067 88.3898 16.3827 88.1978 16.2707C88.0218 16.1587 87.8458 15.9907 87.6698 15.7667C87.5418 15.5587 87.4618 15.3427 87.4298 15.1187C87.4138 14.8947 87.4058 14.4307 87.4058 13.7267C87.4058 13.5667 87.3738 13.4867 87.3098 13.4867C87.2618 13.4867 87.1498 13.5667 86.9738 13.7267C86.7978 13.8707 86.5818 14.0707 86.3258 14.3267C85.9098 14.7267 85.5258 15.0387 85.1738 15.2627C84.8218 15.4867 84.5338 15.5907 84.3098 15.5747C84.1338 15.5747 83.9418 15.4547 83.7338 15.2147C83.5418 14.9747 83.3898 14.6947 83.2778 14.3747C83.2298 14.1827 83.2058 13.9587 83.2058 13.7027C83.2058 13.0307 83.3418 12.2147 83.6138 11.2547C83.9018 10.2947 84.2298 9.47069 84.5978 8.78269C84.9818 8.07869 85.3178 7.72669 85.6058 7.72669C85.8458 7.72669 86.0698 7.99069 86.2778 8.51869C86.3258 8.61469 86.3498 8.69469 86.3498 8.75869C86.3498 8.87069 86.2858 8.98269 86.1578 9.09469C85.9178 9.39869 85.6378 9.94269 85.3178 10.7267C84.9978 11.5107 84.7418 12.2387 84.5498 12.9107C84.3738 13.5827 84.3418 13.9187 84.4538 13.9187C84.6778 13.9187 84.9418 13.8307 85.2458 13.6547C85.5498 13.4787 85.8538 13.2467 86.1578 12.9587C86.4618 12.6547 86.7338 12.3347 86.9738 11.9987C87.2138 11.6467 87.5098 11.1747 87.8618 10.5827C88.5338 9.51069 88.9018 8.88669 88.9658 8.71069C89.2058 8.26269 89.3738 7.97469 89.4698 7.84669C89.5818 7.70269 89.7178 7.60669 89.8778 7.55869H90.2138C90.3098 7.57469 90.4218 7.64669 90.5498 7.77469C90.6618 7.82269 90.7258 7.87869 90.7418 7.94269C90.7738 7.99069 90.7898 8.06269 90.7898 8.15869L90.4058 9.04669L90.1898 9.55069C90.1738 9.61469 90.0858 9.79869 89.9258 10.1027C89.5578 10.9187 89.2778 11.5747 89.0858 12.0707C88.8938 12.5667 88.7498 13.0787 88.6538 13.6067C88.6378 13.6867 88.6298 13.8227 88.6298 14.0147C88.6298 14.4947 88.6778 14.8307 88.7738 15.0227C88.9178 15.3107 89.0618 15.5187 89.2058 15.6467C89.2858 15.7107 89.3258 15.7747 89.3258 15.8387C89.3258 15.9507 89.2298 16.0627 89.0378 16.1747C88.8618 16.2867 88.7338 16.3427 88.6538 16.3427ZM88.3418 6.38269C87.3658 6.49469 86.6938 5.83069 86.3258 4.39069C86.2938 4.26269 86.2778 4.17469 86.2778 4.12669C86.2778 4.01469 86.3098 3.89469 86.3738 3.76669C86.4058 3.70269 86.4698 3.65469 86.5658 3.62269C86.6618 3.59069 86.7418 3.58268 86.8058 3.59868C87.0138 3.67869 87.1738 3.78269 87.2858 3.91069C87.3978 4.02269 87.4698 4.16669 87.5018 4.34269C87.5498 4.45469 87.5738 4.56669 87.5738 4.67869C87.7018 5.07869 87.8778 5.27869 88.1018 5.27869C88.1498 5.27869 88.2698 5.24669 88.4618 5.18269C89.1338 4.91069 89.6378 4.60669 89.9738 4.27069C89.9738 4.27069 90.3098 3.95869 90.9818 3.33469L91.0058 3.31069C91.0698 3.27869 91.1258 3.26268 91.1738 3.26268C91.2858 3.26268 91.3658 3.28668 91.4138 3.33469C91.4938 3.43069 91.5418 3.51868 91.5578 3.59868C91.5738 3.67869 91.5818 3.75869 91.5818 3.83869C91.5818 3.91869 91.5818 3.98269 91.5818 4.03068L91.5578 4.07869C91.5898 4.17469 91.5098 4.36669 91.3178 4.65469C91.1258 4.92669 90.9098 5.15069 90.6698 5.32669C90.3658 5.56669 89.8618 5.86269 89.1578 6.21469C89.0458 6.27869 88.9018 6.31869 88.7258 6.33469C88.5498 6.35069 88.4218 6.36669 88.3418 6.38269ZM97.6101 21.7907C97.4821 21.7907 97.3781 21.7187 97.2981 21.5747C97.2181 21.4627 97.1781 21.3267 97.1781 21.1667C97.1781 21.0547 97.2181 20.7827 97.2981 20.3507C97.4741 19.6787 97.5621 19.2147 97.5621 18.9587C97.5621 18.8787 97.5781 18.7587 97.6101 18.5987C97.6421 18.4547 97.6661 18.3187 97.6821 18.1907C97.7461 18.0787 97.8021 17.9027 97.8501 17.6627C97.9141 17.4387 97.9461 17.2387 97.9461 17.0627C97.9461 16.9827 97.9701 16.8867 98.0181 16.7747C98.0821 16.6787 98.1541 16.5987 98.2341 16.5347C98.2341 16.4387 98.2581 16.2947 98.3061 16.1027C98.3541 15.8947 98.3861 15.7507 98.4021 15.6707C98.4821 15.2387 98.7941 14.2147 99.3381 12.5987C99.8821 10.9827 100.346 9.67869 100.73 8.68669C100.906 8.28669 101.034 7.91869 101.114 7.58269C101.194 7.24669 101.234 6.98269 101.234 6.79069C101.234 6.72669 101.25 6.67069 101.282 6.62269C101.33 6.55869 101.402 6.47869 101.498 6.38269C101.61 6.27069 101.714 6.21469 101.81 6.21469C101.89 6.21469 101.978 6.24669 102.074 6.31069C102.17 6.37469 102.266 6.44669 102.362 6.52669C102.458 6.67069 102.53 6.80669 102.578 6.93469C102.642 7.06269 102.674 7.19869 102.674 7.34269C102.674 7.39069 102.658 7.54269 102.626 7.79869C102.626 8.13469 102.554 8.41469 102.41 8.63869C102.266 8.84669 102.21 8.94269 102.242 8.92669C102.962 8.59069 103.602 8.42269 104.162 8.42269C104.834 8.42269 105.354 8.63869 105.722 9.07069C106.106 9.50269 106.298 10.0627 106.298 10.7507C106.298 11.0387 106.21 11.3907 106.034 11.8067C105.874 12.2067 105.714 12.4787 105.554 12.6227C105.458 12.6227 105.33 12.7907 105.17 13.1267C104.962 13.3827 104.618 13.6547 104.138 13.9427C103.658 14.2147 103.322 14.3187 103.13 14.2547C103.114 14.2547 103.09 14.2627 103.058 14.2787C103.026 14.2947 103.01 14.3347 103.01 14.3987C103.01 14.4627 102.738 14.5827 102.194 14.7587C101.65 14.9347 101.202 15.0227 100.85 15.0227C100.658 15.0227 100.514 15.0147 100.418 14.9987C100.322 14.9667 100.226 14.9107 100.13 14.8307C100.018 14.9427 99.9621 15.0467 99.9621 15.1427C99.9621 15.3187 99.8821 15.6387 99.7221 16.1027C99.5621 16.5667 99.4341 16.7987 99.3381 16.7987C99.3221 16.8147 99.2981 16.8467 99.2661 16.8947C99.2501 16.9427 99.2741 16.9987 99.3381 17.0627C99.3381 17.1107 99.3301 17.2227 99.3141 17.3987C99.2981 17.5747 99.2581 17.7107 99.1941 17.8067C99.1941 17.9507 99.1701 18.1427 99.1221 18.3827C99.0741 18.6387 99.0181 18.8307 98.9541 18.9587C98.9541 19.1507 98.9221 19.3347 98.8581 19.5107C98.8101 19.7027 98.7541 19.7987 98.6901 19.7987C98.5941 19.8307 98.5461 20.0627 98.5461 20.4947C98.5301 20.8947 98.4501 21.2067 98.3061 21.4307C98.1621 21.6547 97.9941 21.7667 97.8021 21.7667L97.6101 21.7907ZM100.706 13.7507C100.946 13.7507 101.426 13.6307 102.146 13.3907C102.882 13.1347 103.394 12.8867 103.682 12.6467C104.018 12.3587 104.29 12.0547 104.498 11.7347C104.706 11.3987 104.81 11.0627 104.81 10.7267C104.81 10.4707 104.738 10.2387 104.594 10.0307C104.482 9.85469 104.29 9.76669 104.018 9.76669C103.698 9.76669 103.314 9.87869 102.866 10.1027C102.434 10.3267 102.034 10.6227 101.666 10.9907C101.378 11.2787 101.122 11.6947 100.898 12.2387C100.674 12.7667 100.562 13.1827 100.562 13.4867C100.562 13.6627 100.61 13.7507 100.706 13.7507ZM107.976 15.5267C107.928 15.4307 107.848 15.3347 107.736 15.2387C107.64 15.1267 107.592 15.0547 107.592 15.0227C107.592 14.8467 107.552 14.7107 107.472 14.6147C107.44 14.5827 107.424 14.5107 107.424 14.3987C107.424 14.1427 107.544 13.7107 107.784 13.1027C108.04 12.4787 108.368 11.8067 108.768 11.0867C108.864 10.9907 108.984 10.8227 109.128 10.5827C109.288 10.3427 109.392 10.2067 109.44 10.1747C109.44 10.1107 109.464 10.0547 109.512 10.0067C109.56 9.94269 109.616 9.91069 109.68 9.91069V9.76669C109.68 9.62269 109.944 9.27869 110.472 8.73469C111 8.17469 111.432 7.79069 111.768 7.58269C112.168 7.31069 112.576 7.17469 112.992 7.17469C113.28 7.17469 113.528 7.25469 113.736 7.41469C113.816 7.51069 114.184 7.85469 114.84 8.44669L115.728 9.23869L115.296 10.4387C115.152 10.8707 115.08 11.2627 115.08 11.6147C115.08 12.2227 115.256 12.8067 115.608 13.3667C115.688 13.5427 115.848 13.7107 116.088 13.8707C116.328 14.0307 116.568 14.1267 116.808 14.1587C117.16 14.2227 117.336 14.3987 117.336 14.6867C117.336 15.0067 117.192 15.1987 116.904 15.2627C116.84 15.2787 116.744 15.2867 116.616 15.2867C115.672 15.2867 114.856 14.6227 114.168 13.2947C114.104 13.1987 114.016 13.0227 113.904 12.7667C113.808 12.5107 113.752 12.3347 113.736 12.2387C113.64 12.3667 113.52 12.5187 113.376 12.6947C113.232 12.8707 113.096 13.0227 112.968 13.1507C111.224 14.8947 109.848 15.7667 108.84 15.7667C108.52 15.7667 108.232 15.6867 107.976 15.5267ZM108.84 14.1827C108.84 14.2627 108.92 14.2867 109.08 14.2547C109.256 14.2227 109.464 14.1427 109.704 14.0147C109.96 13.8867 110.216 13.7187 110.472 13.5107C111.848 12.3267 112.84 11.2947 113.448 10.4147L113.976 9.55069C113.816 9.21469 113.648 8.97469 113.472 8.83069C113.296 8.67069 113.136 8.59069 112.992 8.59069C112.656 8.59069 112.128 9.01469 111.408 9.86269C110.688 10.6947 110.032 11.6787 109.44 12.8147C109.296 13.0867 109.168 13.3667 109.056 13.6547C108.944 13.9267 108.872 14.1027 108.84 14.1827ZM120.805 15.8387C120.309 15.8387 119.981 15.8147 119.821 15.7667C119.661 15.7027 119.477 15.5747 119.269 15.3827C119.109 15.0627 118.949 14.8227 118.789 14.6627C118.725 14.4867 118.693 14.2227 118.693 13.8707C118.693 13.4707 118.741 13.0387 118.837 12.5747C118.933 12.0947 119.061 11.6467 119.221 11.2307C119.285 11.1027 119.333 10.9827 119.365 10.8707C119.413 10.7587 119.445 10.6867 119.461 10.6547C119.461 10.5427 119.661 10.1987 120.061 9.62269C120.477 9.03069 120.805 8.62269 121.045 8.39869C121.157 8.27069 121.325 8.13469 121.549 7.99069C121.789 7.84669 121.997 7.74269 122.173 7.67869C122.621 7.51869 123.013 7.43869 123.349 7.43869C123.813 7.43869 124.205 7.65469 124.525 8.08669C124.877 8.43869 125.053 8.83069 125.053 9.26269C125.053 9.42269 125.029 9.59869 124.981 9.79069C124.821 10.4307 124.589 10.7507 124.285 10.7507C124.077 10.7507 123.877 10.6307 123.685 10.3907C123.621 10.2307 123.589 10.1267 123.589 10.0787C123.589 10.0307 123.621 9.89469 123.685 9.67069C123.717 9.51069 123.733 9.39869 123.733 9.33469C123.733 9.14269 123.701 8.97469 123.637 8.83069C123.573 8.68669 123.485 8.61469 123.373 8.61469C123.005 8.61469 122.525 8.93469 121.933 9.57469C121.725 9.79869 121.453 10.1507 121.117 10.6307C120.797 11.1107 120.557 11.5427 120.397 11.9267C120.237 12.4067 120.109 12.7987 120.013 13.1027C119.917 13.4067 119.853 13.5987 119.821 13.6787C119.821 13.7107 119.837 13.7667 119.869 13.8467C119.917 13.9267 119.941 13.9907 119.941 14.0387C119.941 14.1507 119.965 14.2387 120.013 14.3027C120.061 14.3667 120.149 14.4307 120.277 14.4947C120.453 14.6227 120.661 14.6867 120.901 14.6867C121.157 14.6867 121.453 14.6067 121.789 14.4467C121.997 14.3507 122.293 14.1427 122.677 13.8227L123.253 13.3907C123.365 13.3107 123.461 13.2467 123.541 13.1987C123.637 13.1347 123.709 13.0947 123.757 13.0787C123.805 13.0467 123.829 13.0467 123.829 13.0787C123.829 13.1427 123.853 13.1747 123.901 13.1747C123.949 13.1747 124.005 13.1427 124.069 13.0787C124.213 12.8867 124.397 12.7907 124.621 12.7907C124.749 12.7907 124.813 12.8147 124.813 12.8627L124.789 12.9827C124.789 13.0627 124.829 13.1427 124.909 13.2227C124.909 13.2867 124.885 13.3747 124.837 13.4867C124.805 13.5827 124.757 13.6627 124.693 13.7267C124.597 13.8707 124.429 14.0467 124.189 14.2547C123.965 14.4467 123.813 14.5747 123.733 14.6387H123.709C123.629 14.6387 123.517 14.7107 123.373 14.8547C123.133 15.0787 122.925 15.1907 122.749 15.1907C122.685 15.2227 122.613 15.2627 122.533 15.3107C122.453 15.3427 122.413 15.3827 122.413 15.4307C122.253 15.5907 122.061 15.7027 121.837 15.7667C121.613 15.8147 121.269 15.8387 120.805 15.8387ZM130.155 15.7667C129.963 15.8467 129.763 15.8867 129.555 15.8867C129.219 15.8867 128.811 15.7987 128.331 15.6227C128.251 15.6227 128.123 15.5507 127.947 15.4067C127.771 15.2627 127.643 15.1027 127.563 14.9267C127.339 14.6067 127.227 14.1747 127.227 13.6307C127.227 12.8147 127.459 11.8387 127.923 10.7027C128.099 10.3347 128.387 9.85469 128.787 9.26269C129.203 8.65469 129.483 8.31069 129.627 8.23069C129.675 8.21469 129.787 8.17469 129.963 8.11069C130.139 8.03069 130.339 7.93469 130.563 7.82269C130.787 7.71069 131.051 7.65469 131.355 7.65469C131.659 7.65469 131.995 7.76669 132.363 7.99069C132.747 8.19869 133.051 8.44669 133.275 8.73469C133.499 9.02269 133.579 9.27069 133.515 9.47869C133.499 9.52669 133.403 9.63069 133.227 9.79069C133.067 9.95069 132.939 10.0787 132.843 10.1747C132.763 10.2547 132.667 10.2947 132.555 10.2947C132.411 10.2947 132.283 10.2387 132.171 10.1267C132.059 9.99869 131.995 9.83069 131.979 9.62269C131.947 9.52669 131.843 9.42269 131.667 9.31069C131.507 9.19869 131.395 9.12669 131.331 9.09469C131.203 9.09469 131.019 9.20669 130.779 9.43069C130.555 9.65469 130.331 9.93469 130.107 10.2707C129.739 10.6547 129.427 11.1267 129.171 11.6867C128.915 12.2467 128.731 12.7267 128.619 13.1267C128.587 13.1907 128.571 13.3027 128.571 13.4627C128.571 13.6387 128.587 13.8147 128.619 13.9907C128.667 14.1667 128.715 14.2787 128.763 14.3267C128.795 14.3427 128.875 14.3507 129.003 14.3507C129.371 14.3507 129.891 14.2947 130.563 14.1827C131.251 14.0547 131.779 13.9187 132.147 13.7747C132.515 13.5347 132.867 13.4147 133.203 13.4147C133.315 13.4147 133.395 13.4227 133.443 13.4387C133.651 13.5347 133.755 13.6467 133.755 13.7747C133.755 13.9987 133.523 14.2387 133.059 14.4947C132.787 14.6387 132.555 14.7827 132.363 14.9267C132.171 15.0707 132.075 15.1827 132.075 15.2627C132.043 15.2627 131.979 15.2867 131.883 15.3347C131.787 15.3667 131.723 15.3747 131.691 15.3587C131.515 15.3747 131.243 15.4307 130.875 15.5267C130.507 15.6227 130.267 15.7027 130.155 15.7667ZM134.62 16.2947C134.524 16.2627 134.388 16.1587 134.212 15.9827C134.052 15.7907 133.94 15.6627 133.876 15.5987C133.876 15.4867 133.908 15.3987 133.972 15.3347C134.052 15.2707 134.108 15.2227 134.14 15.1907C134.188 15.1267 134.292 15.0787 134.452 15.0467C134.628 15.0147 134.74 14.9747 134.788 14.9267C134.852 14.8787 135.012 14.7667 135.268 14.5907C135.524 14.4147 135.748 14.2387 135.94 14.0627C136.148 13.8707 136.316 13.6787 136.444 13.4867C136.86 12.8947 137.3 12.1907 137.764 11.3747C137.908 11.1027 138.092 10.7347 138.316 10.2707C138.556 9.79069 138.692 9.47869 138.724 9.33469L137.98 9.09469C137.948 9.06269 137.9 8.99869 137.836 8.90269C137.772 8.80669 137.732 8.72669 137.716 8.66269C137.716 8.59869 137.716 8.52669 137.716 8.44669C137.716 8.25469 137.732 8.11869 137.764 8.03869C137.812 7.95869 137.9 7.91069 138.028 7.89469C138.524 7.79869 138.932 7.72669 139.252 7.67869C139.732 7.61469 140.092 7.55069 140.332 7.48669C140.524 7.43869 140.74 7.41469 140.98 7.41469C141.396 7.41469 141.772 7.48669 142.108 7.63069C142.348 7.72669 142.556 7.91869 142.732 8.20669C142.956 8.51069 143.068 8.81469 143.068 9.11869C143.068 9.23069 143.06 9.34269 143.044 9.45469C143.028 9.55069 143.02 9.65469 143.02 9.76669C143.02 9.91069 143.044 10.0547 143.092 10.1987C142.884 10.9667 142.66 11.6707 142.42 12.3107C142.372 12.4387 142.3 12.6547 142.204 12.9587C142.108 13.2627 142.036 13.5267 141.988 13.7507C141.94 13.9907 141.868 14.2147 141.772 14.4227C141.644 14.7907 141.564 15.0867 141.532 15.3107C141.5 15.4867 141.428 15.6227 141.316 15.7187C141.22 15.7987 141.108 15.8707 140.98 15.9347C140.868 15.9827 140.796 16.0147 140.764 16.0307C140.7 16.0627 140.588 16.0467 140.428 15.9827C140.268 15.9187 140.132 15.8307 140.02 15.7187C139.988 15.6227 139.972 15.4947 139.972 15.3347C139.972 15.2067 140.004 15.0307 140.068 14.8067C140.356 13.8787 140.748 12.5347 141.244 10.7747L141.508 9.86269C141.556 9.71869 141.58 9.55069 141.58 9.35869C141.58 9.21469 141.556 9.07069 141.508 8.92669C141.252 8.83069 141.052 8.78269 140.908 8.78269C140.828 8.78269 140.74 8.79869 140.644 8.83069C140.548 8.86269 140.46 8.88669 140.38 8.90269C140.22 9.01469 140.124 9.16669 140.092 9.35869C139.788 10.1587 139.476 10.8627 139.156 11.4707C138.836 12.0787 138.588 12.5747 138.412 12.9587C138.348 13.1187 138.164 13.4227 137.86 13.8707C137.668 14.1587 137.532 14.3747 137.452 14.5187L137.188 14.8547C137.108 14.9347 136.972 15.0627 136.78 15.2387C136.588 15.4147 136.452 15.5427 136.372 15.6227L135.628 16.1987C135.532 16.2787 135.356 16.3187 135.1 16.3187C134.86 16.3027 134.7 16.2947 134.62 16.2947ZM146.177 15.6947C146.017 15.7267 145.873 15.7427 145.745 15.7427C145.537 15.7427 145.345 15.7267 145.169 15.6947C144.993 15.6467 144.905 15.5907 144.905 15.5267C144.905 15.4787 144.897 15.4467 144.881 15.4307C144.865 15.4147 144.833 15.4067 144.785 15.4067C144.769 15.3907 144.721 15.3507 144.641 15.2867C144.561 15.2227 144.465 15.1667 144.353 15.1187C144.209 14.8947 144.137 14.6547 144.137 14.3987C144.137 14.1267 144.209 13.7027 144.353 13.1267C144.401 12.6147 144.641 11.9747 145.073 11.2067C145.505 10.4387 146.009 9.71069 146.585 9.02269C147.177 8.33469 147.705 7.85469 148.169 7.58269C148.409 7.34269 148.713 7.22269 149.081 7.22269C149.369 7.22269 149.641 7.29469 149.897 7.43869C150.121 7.56669 150.353 7.78269 150.593 8.08669C150.849 8.39069 151.049 8.70269 151.193 9.02269C151.257 9.26269 151.289 9.49469 151.289 9.71869C151.289 9.95869 151.257 10.3347 151.193 10.8467C151.113 11.1347 151.041 11.4867 150.977 11.9027C150.929 12.3187 150.905 12.6787 150.905 12.9827C150.873 13.2067 150.889 13.3907 150.953 13.5347C151.017 13.6627 151.105 13.7267 151.217 13.7267C151.297 13.7267 151.385 13.7027 151.481 13.6547C151.641 13.5747 151.817 13.5347 152.009 13.5347C152.185 13.5347 152.329 13.5827 152.441 13.6787C152.553 13.7747 152.609 13.9187 152.609 14.1107C152.609 14.3987 152.409 14.6867 152.009 14.9747C151.625 15.2627 151.257 15.4067 150.905 15.4067C150.665 15.4067 150.441 15.2227 150.233 14.8547C150.041 14.4707 149.849 13.9827 149.657 13.3907L149.513 12.8387L148.481 13.8227L147.929 14.3747C147.673 14.6307 147.529 14.7827 147.497 14.8307C147.321 15.1347 146.881 15.4227 146.177 15.6947ZM146.249 14.2787C146.633 14.0547 147.105 13.6627 147.665 13.1027C148.225 12.5427 148.689 12.0067 149.057 11.4947C149.553 10.8387 149.865 10.1907 149.993 9.55069C149.929 9.35869 149.825 9.16669 149.681 8.97469C149.537 8.78269 149.409 8.67869 149.297 8.66269C148.977 8.66269 148.641 8.84669 148.289 9.21469C147.937 9.58269 147.521 10.0947 147.041 10.7507L146.249 11.9267C146.153 12.0547 145.985 12.3987 145.745 12.9587C145.505 13.5027 145.385 13.8307 145.385 13.9427C145.385 14.2947 145.489 14.4707 145.697 14.4707C145.857 14.4707 146.041 14.4067 146.249 14.2787ZM161.569 2.71068C161.505 2.61469 161.417 2.48669 161.305 2.32669C161.209 2.16669 161.105 2.05469 160.993 1.99069C160.881 1.92669 160.713 1.88669 160.489 1.87069C160.137 1.83869 159.873 1.82268 159.697 1.82268C159.537 1.82268 159.417 1.83069 159.337 1.84669C159.081 1.87869 158.721 1.94269 158.257 2.03868C157.809 2.13469 157.521 2.20669 157.393 2.25468C157.249 2.30269 157.033 2.39069 156.745 2.51869L156.073 2.80668C155.977 2.82269 155.905 2.87069 155.857 2.95069C155.809 3.01469 155.785 3.09469 155.785 3.19069C155.785 3.27069 155.817 3.37469 155.881 3.50269C155.945 3.61469 156.073 3.76669 156.265 3.95869C156.249 3.92669 156.353 4.05469 156.577 4.34269C156.817 4.66269 157.081 5.13469 157.369 5.75869C157.657 6.36669 157.761 6.79069 157.681 7.03069C157.553 6.99869 157.385 6.98269 157.177 6.98269C157.001 6.98269 156.857 6.99069 156.745 7.00669C156.217 7.31069 155.681 7.91069 155.137 8.80669C154.593 9.68669 154.169 10.6387 153.865 11.6627C153.641 12.4147 153.529 13.1187 153.529 13.7747C153.529 14.8627 153.857 15.5987 154.513 15.9827C154.737 16.1107 154.937 16.2067 155.113 16.2707C155.289 16.3347 155.473 16.3587 155.665 16.3427C155.953 16.4547 156.305 16.2707 156.721 15.7907C157.153 15.3107 157.673 14.5347 158.281 13.4627L158.785 11.9507C158.913 11.6467 159.001 11.3987 159.049 11.2067C159.097 11.0147 159.121 10.7587 159.121 10.4387L159.145 10.2467C159.161 10.1507 159.193 10.0227 159.241 9.86269C159.305 9.68669 159.337 9.54269 159.337 9.43069L159.289 9.14269C159.321 9.04669 159.337 8.94269 159.337 8.83069C159.337 8.60669 159.305 8.33469 159.241 8.01469C159.177 7.69469 159.113 7.46269 159.049 7.31869C159.049 7.09469 159.009 6.85469 158.929 6.59869C158.865 6.34269 158.785 6.10269 158.689 5.87869C158.641 5.84669 158.617 5.79069 158.617 5.71069C158.617 5.63069 158.609 5.56669 158.593 5.51869C158.401 5.18269 158.217 4.89469 158.041 4.65469C157.721 4.17469 157.513 3.83869 157.417 3.64669C157.481 3.58269 157.625 3.53469 157.849 3.50269C158.073 3.45469 158.217 3.41469 158.281 3.38268C158.441 3.30268 158.681 3.26268 159.001 3.26268C159.321 3.26268 159.649 3.29468 159.985 3.35869C160.337 3.42269 160.601 3.49469 160.777 3.57469C160.841 3.60669 160.921 3.63069 161.017 3.64669C161.113 3.64669 161.185 3.64669 161.233 3.64669C161.345 3.58269 161.425 3.43069 161.473 3.19069C161.521 2.93469 161.553 2.77468 161.569 2.71068ZM157.489 7.91869C157.761 8.19069 157.897 8.66269 157.897 9.33469C157.897 9.73469 157.849 10.1427 157.753 10.5587C157.673 10.9747 157.577 11.3107 157.465 11.5667C157.353 11.8067 157.273 12.0627 157.225 12.3347C157.097 12.5267 156.897 12.8787 156.625 13.3907C156.497 13.6467 156.345 13.9187 156.169 14.2067C156.009 14.4787 155.801 14.7667 155.545 15.0707L155.065 14.6387C154.985 14.3347 154.945 14.0947 154.945 13.9187C154.945 13.8707 154.961 13.6867 154.993 13.3667C155.073 12.7427 155.289 11.9827 155.641 11.0867C155.993 10.1907 156.361 9.55069 156.745 9.16669C156.873 9.03869 157.025 8.83869 157.201 8.56669C157.377 8.27869 157.473 8.06269 157.489 7.91869ZM160.07 15.6467C159.99 15.7107 159.878 15.7427 159.734 15.7427C159.51 15.7427 159.246 15.6867 158.942 15.5747L158.774 15.1427C158.742 14.9187 158.71 14.7667 158.678 14.6867C158.854 14.5107 158.942 14.4227 158.942 14.4227H159.47C159.518 14.4067 159.582 14.3587 159.662 14.2787C159.742 14.1987 159.822 14.1587 159.902 14.1587C160.462 13.8067 161.014 13.1507 161.558 12.1907C162.118 11.2147 162.694 10.0787 163.286 8.78269L163.502 8.32669L163.478 8.20669C163.382 8.23869 163.254 8.27069 163.094 8.30269C162.95 8.33469 162.83 8.36669 162.734 8.39869L162.59 8.49469C162.478 8.59069 162.326 8.63869 162.134 8.63869C161.958 8.63869 161.79 8.59869 161.63 8.51869C161.486 8.43869 161.382 8.33469 161.318 8.20669C161.206 8.03069 161.134 7.91869 161.102 7.87069C161.166 7.72669 161.27 7.59069 161.414 7.46269C161.558 7.31869 161.702 7.23069 161.846 7.19869C162.646 7.00669 163.35 6.91069 163.958 6.91069C164.55 6.91069 165.126 7.01469 165.686 7.22269C165.734 7.23869 165.798 7.25469 165.878 7.27069C165.958 7.28669 166.03 7.31869 166.094 7.36669C166.35 7.55869 166.534 7.71069 166.646 7.82269C166.854 8.01469 166.982 8.24669 167.03 8.51869C167.078 8.71069 167.102 8.91069 167.102 9.11869C167.102 9.21469 167.086 9.35869 167.054 9.55069C166.99 9.82269 166.774 10.5987 166.406 11.8787L166.238 12.4067C165.934 13.4147 165.63 14.4467 165.326 15.5027C165.198 15.5347 165.102 15.5507 165.038 15.5507C164.734 15.5507 164.462 15.4067 164.222 15.1187C164.158 14.9267 164.126 14.7347 164.126 14.5427C164.126 14.3187 164.182 14.0947 164.294 13.8707C164.342 13.7747 164.382 13.6467 164.414 13.4867C164.462 13.3267 164.494 13.2147 164.51 13.1507C164.606 12.6547 164.718 12.3267 164.846 12.1667C164.878 12.1027 164.894 12.0467 164.894 11.9987C164.894 11.8387 165.038 11.2627 165.326 10.2707C165.55 9.48669 165.678 9.01469 165.71 8.85469C165.726 8.82269 165.734 8.77469 165.734 8.71069C165.734 8.64669 165.726 8.59069 165.71 8.54269C165.694 8.47869 165.686 8.40669 165.686 8.32669C165.494 8.23069 165.294 8.18269 165.086 8.18269C164.878 8.18269 164.742 8.26269 164.678 8.42269L164.606 8.63869C164.526 8.91069 164.39 9.22269 164.198 9.57469C163.862 10.2787 163.63 10.8547 163.502 11.3027C163.486 11.3987 163.446 11.5027 163.382 11.6147C163.334 11.7107 163.302 11.7827 163.286 11.8307C163.19 11.9747 163.118 12.1267 163.07 12.2867C163.07 12.3187 163.062 12.3507 163.046 12.3827C163.03 12.3987 163.014 12.4147 162.998 12.4307C162.95 12.5107 162.758 12.8147 162.422 13.3427C161.99 14.0307 161.206 14.7987 160.07 15.6467ZM169.652 15.8147C169.14 15.6067 168.78 15.3427 168.572 15.0227C168.364 14.6867 168.26 14.2227 168.26 13.6307C168.26 13.3427 168.284 13.0067 168.332 12.6227L168.38 11.7587C168.38 11.6147 168.364 11.5027 168.332 11.4227C168.3 11.3427 168.228 11.2547 168.116 11.1587C168.084 11.1267 168.004 11.0467 167.876 10.9187C167.748 10.7907 167.692 10.6867 167.708 10.6067L167.684 10.4867C167.684 10.3747 167.7 10.2707 167.732 10.1747C167.78 10.0787 167.828 10.0307 167.876 10.0307C167.924 10.0307 167.988 10.0227 168.068 10.0067C168.148 9.97469 168.22 9.96669 168.284 9.98269C168.508 9.98269 168.62 10.0307 168.62 10.1267C168.684 10.2547 168.788 10.2707 168.932 10.1747C169.092 10.0627 169.244 9.85469 169.388 9.55069C169.612 9.19869 169.94 8.83069 170.372 8.44669C170.82 8.04669 171.188 7.76669 171.476 7.60669C171.588 7.54269 171.772 7.48669 172.028 7.43869C172.284 7.37469 172.508 7.34269 172.7 7.34269C172.988 7.34269 173.236 7.40669 173.444 7.53469C173.668 7.66269 173.892 7.84669 174.116 8.08669C174.42 8.31069 174.572 8.66269 174.572 9.14269C174.572 9.47869 174.492 9.82269 174.332 10.1747C174.268 10.4147 174.012 10.7187 173.564 11.0867C173.132 11.4547 172.732 11.7107 172.364 11.8547C171.916 11.9667 171.404 12.0227 170.828 12.0227C170.444 12.0227 170.196 11.9907 170.084 11.9267C169.892 11.8147 169.756 12.2467 169.676 13.2227C169.66 13.3347 169.652 13.4867 169.652 13.6787C169.652 13.9507 169.692 14.1667 169.772 14.3267C169.788 14.3427 169.844 14.4067 169.94 14.5187C170.036 14.6147 170.156 14.7027 170.3 14.7827C170.444 14.8467 170.596 14.8787 170.756 14.8787C170.9 14.8787 171.012 14.8627 171.092 14.8307C171.268 14.7827 171.436 14.6947 171.596 14.5667C171.756 14.4227 171.98 14.2067 172.268 13.9187C172.524 13.6627 172.708 13.4867 172.82 13.3907C172.9 13.2467 173.06 13.1747 173.3 13.1747C173.364 13.1747 173.476 13.1907 173.636 13.2227C173.78 13.3347 173.852 13.4547 173.852 13.5827C173.852 13.7107 173.772 13.9507 173.612 14.3027C173.532 14.4627 173.332 14.6867 173.012 14.9747C172.708 15.2467 172.436 15.4627 172.196 15.6227C171.7 15.8947 171.204 16.0307 170.708 16.0307C170.404 16.0307 170.052 15.9587 169.652 15.8147ZM171.068 10.9427C171.228 10.9107 171.46 10.8707 171.764 10.8227C172.068 10.7747 172.316 10.6707 172.508 10.5107C172.716 10.3347 172.956 10.0387 173.228 9.62269C173.276 9.49469 173.3 9.36669 173.3 9.23869C173.3 8.99869 173.252 8.83069 173.156 8.73469C173.044 8.62269 172.916 8.56669 172.772 8.56669C172.548 8.56669 172.316 8.66269 172.076 8.85469C171.916 8.90269 171.676 9.07869 171.356 9.38269C171.052 9.68669 170.788 9.99069 170.564 10.2947C170.34 10.5827 170.268 10.7507 170.348 10.7987C170.316 10.8467 170.396 10.8867 170.588 10.9187C170.78 10.9347 170.94 10.9427 171.068 10.9427ZM182.929 7.87069C183.105 7.77469 183.281 7.72669 183.457 7.72669C183.681 7.72669 183.873 7.79869 184.033 7.94269C184.209 8.07069 184.297 8.23869 184.297 8.44669C184.297 8.47869 184.281 8.55869 184.249 8.68669C184.297 8.47869 184.129 8.82269 183.745 9.71869C183.361 10.6147 183.153 11.0947 183.121 11.1587V11.2307C183.345 11.2307 183.489 11.3027 183.553 11.4467C183.633 11.5747 183.665 11.7507 183.649 11.9747C183.505 12.0067 183.369 12.0627 183.241 12.1427C183.113 12.2227 183.009 12.2627 182.929 12.2627C182.881 12.2627 182.825 12.2867 182.761 12.3347C182.697 12.3827 182.657 12.4387 182.641 12.5027C182.609 12.5667 182.553 12.8147 182.473 13.2467L182.041 14.9747C182.009 15.0867 181.953 15.1827 181.873 15.2627C181.793 15.3427 181.721 15.3907 181.657 15.4067C181.593 15.3907 181.465 15.3507 181.273 15.2867C181.097 15.2067 180.977 15.1507 180.913 15.1187C180.849 15.0707 180.785 15.0227 180.721 14.9747V14.8307C180.721 14.6067 180.761 14.3747 180.841 14.1347C180.969 13.7507 181.097 13.2147 181.225 12.5267C181.097 12.4787 180.777 12.5027 180.265 12.5987C179.753 12.6787 179.473 12.7187 179.425 12.7187C179.329 12.7667 179.137 12.7907 178.849 12.7907C178.385 12.7907 178.057 12.7507 177.865 12.6707L177.721 12.7427C177.689 12.8867 177.641 13.0467 177.577 13.2227C177.401 13.7187 177.313 14.0867 177.313 14.3267C177.281 14.5507 177.249 14.7347 177.217 14.8787C177.185 15.0387 177.153 15.2787 177.121 15.5987C177.105 16.0467 176.953 16.2707 176.665 16.2707C176.489 16.2707 176.297 16.2067 176.089 16.0787C175.977 16.0147 175.825 15.8867 175.633 15.6947L176.017 13.8467C176.065 13.7027 176.113 13.5027 176.161 13.2467C176.225 12.9907 176.289 12.7827 176.353 12.6227L176.617 11.8787C176.809 11.3187 176.985 10.8627 177.145 10.5107C177.145 10.5107 177.313 10.0387 177.649 9.09469C177.697 8.98269 177.801 8.67869 177.961 8.18269C178.137 7.67069 178.241 7.37469 178.273 7.29469C178.337 7.11869 178.465 7.03069 178.657 7.03069C178.913 7.01469 179.129 7.07869 179.305 7.22269C179.497 7.35069 179.601 7.51069 179.617 7.70269C179.617 7.75069 179.609 7.83069 179.593 7.94269C179.577 8.03869 179.561 8.11069 179.545 8.15869L178.297 11.2067V11.3987C178.361 11.4467 178.473 11.4707 178.633 11.4707C178.761 11.4707 178.953 11.4467 179.209 11.3987C179.481 11.3507 179.649 11.3267 179.713 11.3267C179.857 11.3107 180.073 11.2947 180.361 11.2787C180.649 11.2627 180.937 11.2547 181.225 11.2547C181.449 11.2547 181.569 11.2627 181.585 11.2787L181.849 10.5107C182.105 9.72669 182.377 9.09469 182.665 8.61469C182.681 8.56669 182.713 8.47869 182.761 8.35069C182.809 8.20669 182.865 8.04669 182.929 7.87069ZM191.404 16.3427C191.02 15.9747 190.732 15.4307 190.54 14.7107C190.508 14.6147 190.492 14.4467 190.492 14.2067C190.492 13.9667 190.492 13.7987 190.492 13.7027C190.396 13.9427 190.22 14.1587 189.964 14.3507C189.596 14.7187 189.228 14.9907 188.86 15.1667C188.3 15.5347 187.844 15.7187 187.492 15.7187C187.172 15.7187 186.868 15.5427 186.58 15.1907C186.372 15.0147 186.212 14.8387 186.1 14.6627C186.004 14.4867 185.956 14.2707 185.956 14.0147C185.956 13.8387 185.98 13.6467 186.028 13.4387C186.06 12.8467 186.14 12.2787 186.268 11.7347C186.412 11.1907 186.676 10.4947 187.06 9.64669C187.572 8.63869 187.94 7.96669 188.164 7.63069C188.244 7.59869 188.348 7.58269 188.476 7.58269C188.636 7.58269 188.764 7.63069 188.86 7.72669C188.972 7.82269 189.036 7.95069 189.052 8.11069C189.1 8.17469 189.124 8.26269 189.124 8.37469C189.124 8.77469 188.884 9.43069 188.404 10.3427C187.78 11.8467 187.468 12.8867 187.468 13.4627C187.468 13.7987 187.564 13.9987 187.756 14.0627C187.836 14.1107 187.924 14.1347 188.02 14.1347C188.42 14.1347 188.9 13.8627 189.46 13.3187C190.02 12.7747 190.556 11.9027 191.068 10.7027C191.292 10.1587 191.428 9.59869 191.476 9.02269C191.46 8.97469 191.452 8.90269 191.452 8.80669C191.452 8.51869 191.596 8.28669 191.884 8.11069C191.948 8.01469 192.036 7.94269 192.148 7.89469C192.26 7.83069 192.332 7.83069 192.364 7.89469L192.748 7.87069C192.796 7.85469 192.844 7.90269 192.892 8.01469C192.94 8.11069 192.988 8.17469 193.036 8.20669C193.148 8.30269 193.204 8.47869 193.204 8.73469C193.204 9.26269 192.972 10.0707 192.508 11.1587C192.204 11.7987 191.996 12.2947 191.884 12.6467C191.788 12.9827 191.732 13.3107 191.716 13.6307C191.716 14.2387 191.948 14.7427 192.412 15.1427C192.572 15.2547 192.668 15.3747 192.7 15.5027C192.732 15.6307 192.74 15.8067 192.724 16.0307C192.692 16.1747 192.596 16.2947 192.436 16.3907C192.292 16.4707 192.132 16.5107 191.956 16.5107C191.748 16.5107 191.564 16.4547 191.404 16.3427ZM196.855 16.4627C196.167 16.4627 195.599 16.2067 195.151 15.6947C194.703 15.1827 194.479 14.5427 194.479 13.7747C194.479 13.0067 194.647 12.1667 194.983 11.2547C195.335 10.3267 195.783 9.49469 196.327 8.75869C196.871 8.02269 197.423 7.52669 197.983 7.27069C198.303 7.09469 198.663 7.00669 199.063 7.00669C199.367 7.00669 199.711 7.09469 200.095 7.27069C200.367 7.38269 200.575 7.51869 200.719 7.67869C200.863 7.83869 200.991 8.08669 201.103 8.42269C201.151 8.71069 201.175 8.91069 201.175 9.02269C201.175 9.11869 201.135 9.32669 201.055 9.64669C200.863 10.2387 200.607 10.7427 200.287 11.1587C199.983 11.5587 199.583 11.9027 199.087 12.1907C198.831 12.3507 198.511 12.4307 198.127 12.4307C197.791 12.4307 197.471 12.3747 197.167 12.2627C196.879 12.1347 196.655 11.9507 196.495 11.7107L196.327 11.5187L196.255 11.7107C195.919 12.5747 195.751 13.3107 195.751 13.9187C195.751 14.3347 195.831 14.6707 195.991 14.9267C196.103 15.1027 196.375 15.1907 196.807 15.1907C197.127 15.1907 197.359 15.1587 197.503 15.0947C197.743 15.0147 197.951 14.9187 198.127 14.8067C198.319 14.6787 198.503 14.5507 198.679 14.4227L198.775 14.3747H198.751C198.943 14.2787 199.103 14.1907 199.231 14.1107C199.359 14.0307 199.447 13.9747 199.495 13.9427C199.527 13.9427 199.559 13.9347 199.591 13.9187C199.623 13.9027 199.655 13.8707 199.687 13.8227C199.831 13.7587 199.999 13.7827 200.191 13.8947C200.383 14.0067 200.479 14.1507 200.479 14.3267C200.447 14.4547 200.303 14.6627 200.047 14.9507C199.791 15.2387 199.599 15.3907 199.471 15.4067C199.455 15.4067 199.399 15.4307 199.303 15.4787C199.207 15.5267 199.143 15.5667 199.111 15.5987H199.135C198.991 15.7907 198.847 15.8867 198.703 15.8867H198.511C198.447 16.0147 198.231 16.1427 197.863 16.2707C197.511 16.3987 197.175 16.4627 196.855 16.4627ZM197.935 11.1827C198.415 11.1827 198.855 10.9107 199.255 10.3667C199.639 9.85469 199.831 9.34269 199.831 8.83069C199.831 8.55869 199.775 8.36669 199.663 8.25469C199.567 8.20669 199.479 8.18269 199.399 8.18269C199.319 8.18269 199.183 8.20669 198.991 8.25469C198.783 8.30269 198.463 8.52669 198.031 8.92669C197.599 9.31069 197.279 9.65469 197.071 9.95869L196.759 10.4627C196.887 10.4147 197.007 10.3907 197.119 10.3907C197.247 10.3747 197.319 10.3827 197.335 10.4147C197.335 10.6387 197.391 10.8227 197.503 10.9667C197.615 11.1107 197.759 11.1827 197.935 11.1827ZM210.256 16.1747C210.112 16.0467 210.016 15.9667 209.968 15.9347C209.92 15.9027 209.776 15.8547 209.536 15.7907C209.504 15.6787 209.408 15.4707 209.248 15.1667C209.04 14.8787 208.928 14.6307 208.912 14.4227V14.3027V14.1827C208.912 14.0067 208.872 13.8787 208.792 13.7987C208.872 13.7347 208.888 13.6387 208.84 13.5107C208.792 13.3667 208.8 13.2627 208.864 13.1987L208.888 13.0307C208.84 12.9507 208.816 12.8387 208.816 12.6947C208.816 12.4387 208.896 11.9267 209.056 11.1587C209.216 10.4227 209.28 9.98269 209.248 9.83869L208.792 9.43069C208.824 9.19069 208.864 9.01469 208.912 8.90269C208.96 8.77469 209.072 8.67069 209.248 8.59069L209.416 8.66269C209.48 8.64669 209.528 8.63069 209.56 8.61469C209.608 8.58269 209.648 8.55869 209.68 8.54269C209.952 8.03069 210.208 7.39069 210.448 6.62269C210.544 6.31869 210.664 5.99869 210.808 5.66269C210.968 5.31069 211.128 5.03069 211.288 4.82269C211.384 4.71069 211.472 4.57469 211.552 4.41469C211.632 4.25469 211.688 4.14269 211.72 4.07869C211.928 3.64669 212.264 3.15869 212.728 2.61469C213.208 2.07069 213.648 1.67869 214.048 1.43869C214.288 1.27869 214.496 1.18269 214.672 1.15068C214.848 1.11869 215.12 1.09469 215.488 1.07869C215.696 1.20669 215.904 1.38268 216.112 1.60668C216.32 1.81468 216.424 2.00669 216.424 2.18269V2.54269C216.424 2.81469 216.384 3.03069 216.304 3.19069C216.32 3.33469 216.28 3.56669 216.184 3.88669C216.12 4.03069 216.072 4.19069 216.04 4.36668C215.64 5.19869 215.28 5.85469 214.96 6.33469C214.64 6.79869 214.288 7.21469 213.904 7.58269C213.536 7.93469 212.928 8.45469 212.08 9.14269C212.768 9.35069 213.12 9.73469 213.136 10.2947C213.136 10.3427 213.128 10.4307 213.112 10.5587C213.112 10.6707 213.12 10.7667 213.136 10.8467L213.184 11.4227C213.184 11.5507 213.2 11.7427 213.232 11.9987C213.28 12.3507 213.248 12.8147 213.136 13.3907C213.12 13.4387 213.096 13.4787 213.064 13.5107C213.048 13.5427 213.04 13.5827 213.04 13.6307C213.04 13.8067 213.008 13.9667 212.944 14.1107C212.896 14.2387 212.824 14.3827 212.728 14.5427C212.648 14.6867 212.576 14.8227 212.512 14.9507C212.48 15.0147 212.416 15.0867 212.32 15.1667C212.224 15.2307 212.152 15.2947 212.104 15.3587C211.912 15.5827 211.72 15.7347 211.528 15.8147C211.336 15.8947 211.088 15.9667 210.784 16.0307C210.56 16.0627 210.4 16.0947 210.304 16.1267L210.256 16.1747ZM211.648 7.75069L212.848 6.76669C212.912 6.73469 213.072 6.54269 213.328 6.19069C213.584 5.83869 213.736 5.61469 213.784 5.51869C213.96 5.37469 214.152 5.07069 214.36 4.60669C214.568 4.12669 214.736 3.63869 214.864 3.14268C214.992 2.63068 215.04 2.25468 215.008 2.01469L214.84 2.08669C214.6 2.39069 214.256 2.79869 213.808 3.31069C213.28 3.90269 212.8 4.57469 212.368 5.32669C211.952 6.07869 211.624 6.83869 211.384 7.60669L211.648 7.75069ZM210.832 14.6627C211.232 14.2627 211.496 13.8467 211.624 13.4147C211.752 12.9667 211.816 12.4227 211.816 11.7827V10.9427C211.816 10.8947 211.8 10.8227 211.768 10.7267C211.752 10.6307 211.76 10.5507 211.792 10.4867C211.76 10.3907 211.696 10.2147 211.6 9.95869C211.52 9.70269 211.4 9.49469 211.24 9.33469C211.112 9.39869 211.008 9.47069 210.928 9.55069C210.848 9.63069 210.744 9.76669 210.616 9.95869C210.52 10.1507 210.424 10.5587 210.328 11.1827C210.248 11.7907 210.208 12.3827 210.208 12.9587C210.208 13.8387 210.312 14.4067 210.52 14.6627H210.832ZM224.35 15.7667C224.158 15.8467 223.958 15.8867 223.75 15.8867C223.414 15.8867 223.006 15.7987 222.526 15.6227C222.446 15.6227 222.318 15.5507 222.142 15.4067C221.966 15.2627 221.838 15.1027 221.758 14.9267C221.534 14.6067 221.422 14.1747 221.422 13.6307C221.422 12.8147 221.654 11.8387 222.118 10.7027C222.294 10.3347 222.582 9.85469 222.982 9.26269C223.398 8.65469 223.678 8.31069 223.822 8.23069C223.87 8.21469 223.982 8.17469 224.158 8.11069C224.334 8.03069 224.534 7.93469 224.758 7.82269C224.982 7.71069 225.246 7.65469 225.55 7.65469C225.854 7.65469 226.19 7.76669 226.558 7.99069C226.942 8.19869 227.246 8.44669 227.47 8.73469C227.694 9.02269 227.774 9.27069 227.71 9.47869C227.694 9.52669 227.598 9.63069 227.422 9.79069C227.262 9.95069 227.134 10.0787 227.038 10.1747C226.958 10.2547 226.862 10.2947 226.75 10.2947C226.606 10.2947 226.478 10.2387 226.366 10.1267C226.254 9.99869 226.19 9.83069 226.174 9.62269C226.142 9.52669 226.038 9.42269 225.862 9.31069C225.702 9.19869 225.59 9.12669 225.526 9.09469C225.398 9.09469 225.214 9.20669 224.974 9.43069C224.75 9.65469 224.526 9.93469 224.302 10.2707C223.934 10.6547 223.622 11.1267 223.366 11.6867C223.11 12.2467 222.926 12.7267 222.814 13.1267C222.782 13.1907 222.766 13.3027 222.766 13.4627C222.766 13.6387 222.782 13.8147 222.814 13.9907C222.862 14.1667 222.91 14.2787 222.958 14.3267C222.99 14.3427 223.07 14.3507 223.198 14.3507C223.566 14.3507 224.086 14.2947 224.758 14.1827C225.446 14.0547 225.974 13.9187 226.342 13.7747C226.71 13.5347 227.062 13.4147 227.398 13.4147C227.51 13.4147 227.59 13.4227 227.638 13.4387C227.846 13.5347 227.95 13.6467 227.95 13.7747C227.95 13.9987 227.718 14.2387 227.254 14.4947C226.982 14.6387 226.75 14.7827 226.558 14.9267C226.366 15.0707 226.27 15.1827 226.27 15.2627C226.238 15.2627 226.174 15.2867 226.078 15.3347C225.982 15.3667 225.918 15.3747 225.886 15.3587C225.71 15.3747 225.438 15.4307 225.07 15.5267C224.702 15.6227 224.462 15.7027 224.35 15.7667ZM231.935 16.3187C231.887 16.3187 231.727 16.3267 231.455 16.3427C231.199 16.3427 230.951 16.2867 230.711 16.1747C230.471 16.0467 230.271 15.8547 230.111 15.5987C229.999 15.3907 229.903 15.1507 229.823 14.8787C229.743 14.6067 229.703 14.3747 229.703 14.1827C229.703 14.1027 229.719 14.0147 229.751 13.9187C230.055 12.1587 230.303 11.0467 230.495 10.5827L230.879 9.64669C230.959 9.39069 230.983 9.10269 230.951 8.78269V8.68669C230.951 8.47869 231.031 8.30269 231.191 8.15869C231.463 7.95069 231.679 7.67869 231.839 7.34269C231.951 7.07069 232.127 6.70269 232.367 6.23869C232.607 5.77469 232.783 5.47069 232.895 5.32669C233.071 5.08669 233.231 4.85469 233.375 4.63069C233.407 4.58269 233.519 4.41469 233.711 4.12669C233.919 3.82269 234.151 3.56669 234.407 3.35869C234.711 2.84668 235.311 2.23069 236.207 1.51069C236.591 1.19069 236.831 0.982685 236.927 0.886685C236.975 0.838685 237.119 0.790685 237.359 0.742686C237.599 0.678686 237.751 0.638686 237.815 0.622686C237.943 0.590685 238.159 0.534685 238.463 0.454685C238.559 0.406685 238.735 0.446685 238.991 0.574685C239.263 0.686686 239.463 0.814686 239.591 0.958686C239.847 1.40669 239.975 1.75869 239.975 2.01469C239.975 2.22269 239.927 2.45469 239.831 2.71068C239.735 2.96669 239.551 3.38269 239.279 3.95869C238.703 5.11069 237.655 6.20669 236.135 7.24669C235.559 7.75869 234.911 8.20669 234.191 8.59069C233.663 8.86269 233.231 9.05469 232.895 9.16669C232.639 9.24669 232.455 9.43069 232.343 9.71869C232.279 9.86269 232.223 10.0387 232.175 10.2467C232.143 10.4547 232.095 10.5907 232.031 10.6547C231.935 10.7507 231.775 11.2867 231.551 12.2627C231.327 13.2387 231.215 13.9027 231.215 14.2547C231.215 14.3827 231.231 14.4947 231.263 14.5907C231.295 14.6867 231.367 14.7587 231.479 14.8067C231.703 14.7587 231.879 14.6867 232.007 14.5907C232.151 14.4787 232.327 14.3027 232.535 14.0627C232.983 13.5027 233.303 12.9667 233.495 12.4547C233.543 12.3107 233.591 12.1267 233.639 11.9027C233.687 11.6627 233.743 11.4787 233.807 11.3507C233.807 10.7907 233.799 10.4307 233.783 10.2707C233.767 10.0947 233.711 9.88669 233.615 9.64669C233.695 9.59869 233.759 9.55069 233.807 9.50269C233.871 9.43869 233.951 9.41469 234.047 9.43069C234.415 9.51069 234.791 9.73469 235.175 10.1027C235.287 10.2147 235.319 10.3507 235.271 10.5107C235.207 11.0227 235.175 11.3907 235.175 11.6147C235.127 11.7267 235.047 11.9747 234.935 12.3587C234.919 12.5667 234.871 12.7667 234.791 12.9587C234.503 13.5507 234.295 13.9507 234.167 14.1587C233.815 14.8147 233.335 15.3747 232.727 15.8387L231.935 16.3187ZM233.039 7.46269C233.119 7.47869 233.215 7.48669 233.327 7.48669C233.487 7.48669 233.623 7.40669 233.735 7.24669C234.903 6.47869 235.887 5.73469 236.687 5.01469C237.503 4.27869 238.007 3.65469 238.199 3.14268C238.263 3.01469 238.351 2.85469 238.463 2.66269C238.575 2.45469 238.647 2.26269 238.679 2.08669L238.583 1.41469C238.119 1.62269 237.751 1.82269 237.479 2.01469C237.223 2.19069 236.895 2.47869 236.495 2.87869C236.095 3.27869 235.487 3.99869 234.671 5.03869C233.871 6.07869 233.327 6.88669 233.039 7.46269ZM239.514 16.2467C239.322 16.2627 239.162 16.2547 239.034 16.2227C238.922 16.1747 238.754 16.0787 238.53 15.9347C237.842 15.3747 237.506 14.8227 237.522 14.2787C237.538 14.2307 237.546 14.1587 237.546 14.0627C237.546 13.9667 237.538 13.8947 237.522 13.8467C237.506 13.7827 237.498 13.7427 237.498 13.7267C237.434 13.6787 237.394 13.6467 237.378 13.6307C237.378 13.5987 237.386 13.5667 237.402 13.5347C237.434 13.5027 237.458 13.4707 237.474 13.4387C237.538 13.4227 237.57 13.3907 237.57 13.3427C237.57 13.2947 237.554 13.2387 237.522 13.1747C237.474 13.0467 237.498 12.7587 237.594 12.3107C237.706 11.8467 237.85 11.4147 238.026 11.0147C238.154 10.7107 238.354 10.3187 238.626 9.83869C238.914 9.35869 239.178 8.99069 239.418 8.73469C239.754 8.35069 240.058 8.05469 240.33 7.84669C240.618 7.63869 240.946 7.47069 241.314 7.34269C241.65 7.19869 241.882 7.12669 242.01 7.12669C242.17 7.12669 242.37 7.22269 242.61 7.41469C242.994 7.52669 243.282 7.68669 243.474 7.89469C243.682 8.08669 243.842 8.39069 243.954 8.80669C244.05 9.14269 244.098 9.51869 244.098 9.93469C244.098 10.8307 243.818 11.8147 243.258 12.8867C242.97 13.4627 242.69 13.9107 242.418 14.2307C242.146 14.5347 241.77 14.8947 241.29 15.3107C240.954 15.5827 240.658 15.7907 240.402 15.9347C240.162 16.0787 239.866 16.1827 239.514 16.2467ZM241.434 13.3907C241.77 12.8947 242.026 12.4467 242.202 12.0467C242.378 11.6307 242.522 11.1187 242.634 10.5107C242.65 10.4467 242.658 10.3187 242.658 10.1267C242.658 9.80669 242.626 9.50269 242.562 9.21469C242.498 8.92669 242.418 8.77469 242.322 8.75869C242.194 8.71069 242.074 8.68669 241.962 8.68669C241.594 8.68669 241.202 8.90269 240.786 9.33469C240.402 9.78269 240.066 10.3267 239.778 10.9667C239.506 11.5907 239.234 12.3587 238.962 13.2707C238.882 13.5907 238.842 13.8467 238.842 14.0387C238.842 14.3267 238.898 14.5587 239.01 14.7347C239.122 14.8947 239.282 14.9747 239.49 14.9747C239.746 14.9747 240.042 14.8467 240.378 14.5907C240.714 14.3187 241.066 13.9187 241.434 13.3907ZM249.775 15.5507C249.375 15.9027 248.895 16.0787 248.335 16.0787C247.935 16.0787 247.551 15.9827 247.183 15.7907C246.831 15.5987 246.535 15.3347 246.295 14.9987C246.087 14.7427 245.935 14.4547 245.839 14.1347C245.743 13.8147 245.695 13.4227 245.695 12.9587C245.695 12.7987 245.711 12.4787 245.743 11.9987C245.791 11.4067 245.983 10.7907 246.319 10.1507C246.671 9.51069 247.103 8.94269 247.615 8.44669C248.127 7.93469 248.631 7.58269 249.127 7.39069C249.383 7.23069 249.615 7.15069 249.823 7.15069C249.935 7.15069 250.047 7.15869 250.159 7.17469C250.271 7.19069 250.391 7.20669 250.519 7.22269C250.871 7.27069 251.135 7.34269 251.311 7.43869C251.503 7.51869 251.663 7.64669 251.791 7.82269C252.191 8.22269 252.391 8.68669 252.391 9.21469C252.327 9.59869 252.079 10.0387 251.647 10.5347C251.215 11.0307 250.695 11.4307 250.087 11.7347C249.799 11.8307 249.471 11.8787 249.103 11.8787C248.607 11.8787 248.207 11.7747 247.903 11.5667C247.759 11.5187 247.647 11.4947 247.567 11.4947C247.423 11.4947 247.311 11.5907 247.231 11.7827C247.167 11.9747 247.103 12.3267 247.039 12.8387C247.023 12.9507 247.015 13.1107 247.015 13.3187C247.015 14.1347 247.287 14.5827 247.831 14.6627C248.199 14.7427 248.463 14.7827 248.623 14.7827C248.815 14.7827 249.031 14.7187 249.271 14.5907L249.727 14.3267C249.823 14.2787 249.911 14.2147 249.991 14.1347C250.071 14.0547 250.143 13.9827 250.207 13.9187C250.239 13.8867 250.287 13.8387 250.351 13.7747C250.415 13.6947 250.471 13.6467 250.519 13.6307C250.583 13.5987 250.639 13.5827 250.687 13.5827C250.751 13.5827 250.823 13.6227 250.903 13.7027C250.983 13.7667 251.047 13.8147 251.095 13.8467C251.239 13.8467 251.271 13.9507 251.191 14.1587C251.111 14.3507 250.935 14.5827 250.663 14.8547C250.407 15.1107 250.111 15.3427 249.775 15.5507ZM249.751 10.4627C250.023 10.3507 250.295 10.1507 250.567 9.86269C250.855 9.57469 250.999 9.33469 250.999 9.14269C250.999 8.95069 250.927 8.79069 250.783 8.66269C250.639 8.53469 250.439 8.47069 250.183 8.47069C249.991 8.47069 249.847 8.48669 249.751 8.51869C249.527 8.58269 249.263 8.75869 248.959 9.04669C248.655 9.31869 248.391 9.59869 248.167 9.88669C247.943 10.1747 247.855 10.3427 247.903 10.3907C247.983 10.5347 248.295 10.6067 248.839 10.6067C249.207 10.6067 249.511 10.5587 249.751 10.4627ZM264.635 15.9107C264.475 15.9427 264.363 15.9587 264.299 15.9587C264.059 15.9587 263.827 15.8867 263.603 15.7427C263.571 15.6787 263.523 15.5907 263.459 15.4787C263.395 15.3507 263.347 15.2387 263.315 15.1427C263.299 15.0307 263.307 14.9347 263.339 14.8547C263.371 14.7747 263.395 14.6547 263.411 14.4947C263.443 14.3187 263.467 14.1907 263.483 14.1107C263.515 13.6467 263.571 13.3267 263.651 13.1507C263.683 13.0867 263.699 13.0307 263.699 12.9827C263.715 12.8387 263.763 12.6307 263.843 12.3587C263.923 12.0707 263.971 11.8787 263.987 11.7827C264.019 11.6067 264.059 11.3107 264.107 10.8947C264.171 10.4787 264.203 10.1907 264.203 10.0307C264.203 9.98269 264.227 9.91869 264.275 9.83869C264.323 9.75869 264.323 9.67869 264.275 9.59869C263.859 9.99869 263.347 10.5507 262.739 11.2547C262.147 11.9427 261.723 12.5027 261.467 12.9347C261.483 12.9027 261.403 13.0067 261.227 13.2467C261.179 13.3107 261.099 13.3987 260.987 13.5107C260.891 13.6067 260.819 13.7107 260.771 13.8227C260.611 13.9827 260.419 14.2067 260.195 14.4947C259.875 14.8787 259.611 15.1587 259.403 15.3347C259.275 15.3667 259.147 15.3667 259.019 15.3347C258.907 15.3027 258.787 15.2627 258.659 15.2147C258.531 15.1507 258.419 15.1027 258.323 15.0707L258.083 14.5667L258.275 13.4147C258.371 12.8547 258.451 12.2787 258.515 11.6867C258.595 11.0947 258.627 10.6627 258.611 10.3907L258.587 10.2227C258.587 10.1587 258.611 10.0947 258.659 10.0307L258.683 9.86269C258.635 9.81469 258.611 9.76669 258.611 9.71869C258.611 9.68669 258.619 9.63869 258.635 9.57469C258.667 9.49469 258.667 9.43069 258.635 9.38269L258.491 9.28669C258.283 9.62269 258.027 9.98269 257.723 10.3667C257.419 10.7347 257.211 10.9827 257.099 11.1107L256.163 12.2867C256.083 12.4147 255.899 12.7027 255.611 13.1507C255.243 13.8227 254.907 14.2947 254.603 14.5667C254.507 14.6627 254.395 14.7907 254.267 14.9507C254.139 15.0947 254.019 15.2067 253.907 15.2867C253.843 15.5107 253.675 15.6227 253.403 15.6227C253.147 15.6227 252.899 15.5427 252.659 15.3827C252.419 15.2067 252.299 15.0227 252.299 14.8307C252.299 14.7027 252.347 14.5907 252.443 14.4947L252.515 14.3267C252.787 14.2147 253.067 14.0067 253.355 13.7027C253.643 13.3987 253.995 12.9827 254.411 12.4547C254.779 11.9907 255.019 11.6947 255.131 11.5667C255.323 11.3587 255.515 11.0867 255.707 10.7507C255.771 10.6547 255.835 10.5587 255.899 10.4627C255.963 10.3507 256.043 10.2387 256.139 10.1267C256.235 10.0147 256.515 9.63069 256.979 8.97469C257.027 8.91069 257.195 8.67869 257.483 8.27869C257.787 7.86269 258.083 7.51069 258.371 7.22269C258.659 7.38269 258.907 7.46269 259.115 7.46269C259.275 7.67069 259.435 7.84669 259.595 7.99069C259.979 8.32669 260.171 8.91869 260.171 9.76669C260.171 10.3107 260.083 11.0547 259.907 11.9987L259.787 12.7427L259.811 12.8147C260.131 12.5267 260.515 12.0707 260.963 11.4467L261.611 10.6307C262.379 9.73469 262.891 9.15869 263.147 8.90269C263.403 8.63069 263.651 8.39869 263.891 8.20669C264.387 7.75869 264.739 7.43869 264.947 7.24669H265.667C265.763 7.32669 265.851 7.39069 265.931 7.43869C266.027 7.47069 266.139 7.50269 266.267 7.53469C266.283 7.59869 266.307 7.71869 266.339 7.89469C266.387 8.07069 266.403 8.19069 266.387 8.25469C266.355 8.33469 266.331 8.44669 266.315 8.59069C266.315 8.71869 266.283 8.83069 266.219 8.92669C266.059 9.18269 265.899 9.67069 265.739 10.3907C265.595 11.0947 265.507 11.6547 265.475 12.0707C265.427 12.3267 265.363 12.5267 265.283 12.6707C265.203 12.8147 265.155 12.9267 265.139 13.0067C265.123 13.0707 265.115 13.1667 265.115 13.2947C265.115 13.5027 265.091 13.6627 265.043 13.7747C265.027 13.7907 265.011 13.8067 264.995 13.8227V14.2067C264.995 14.4627 264.963 14.6467 264.899 14.7587C264.915 14.8067 264.923 14.8867 264.923 14.9987V15.1907C264.923 15.3347 264.939 15.4387 264.971 15.5027L264.635 15.9107ZM284.513 14.3027C284.577 14.3507 284.609 14.4227 284.609 14.5187C284.609 14.6307 284.569 14.7427 284.489 14.8547C284.425 14.9507 284.361 14.9987 284.297 14.9987C283.993 14.9987 283.697 14.9187 283.409 14.7587C283.137 14.5827 283.001 14.3107 283.001 13.9427V12.4547C283.001 11.7027 282.945 11.2787 282.833 11.1827C282.593 11.0547 282.177 11.3187 281.585 11.9747C281.009 12.6307 280.449 13.4067 279.905 14.3027C279.729 14.5907 279.585 14.8147 279.473 14.9747C279.361 15.1347 279.273 15.2147 279.209 15.2147C279.161 15.2147 279.081 15.1747 278.969 15.0947C278.473 14.9507 278.225 14.6707 278.225 14.2547C278.225 14.2067 278.241 14.1027 278.273 13.9427C278.433 13.4147 278.593 12.8307 278.753 12.1907C278.913 11.5347 279.041 10.9827 279.137 10.5347C279.089 10.4387 279.009 10.3907 278.897 10.3907C278.737 10.3907 278.553 10.4707 278.345 10.6307C277.945 10.9027 277.433 11.5507 276.809 12.5747C276.025 13.7747 275.481 14.5027 275.177 14.7587C275.065 14.9507 274.961 15.1027 274.865 15.2147C274.785 15.3107 274.705 15.3587 274.625 15.3587C274.561 15.3587 274.441 15.3107 274.265 15.2147C273.801 14.9427 273.569 14.5587 273.569 14.0627C273.569 13.8227 273.641 13.3427 273.785 12.6227C273.929 11.9027 274.089 11.2307 274.265 10.6067C274.409 10.3347 274.537 10.0547 274.649 9.76669C274.777 9.46269 274.841 9.27869 274.841 9.21469C274.905 8.87869 274.985 8.51869 275.081 8.13469C275.177 7.75069 275.249 7.53469 275.297 7.48669C275.409 7.37469 275.537 7.31869 275.681 7.31869C275.921 7.31869 276.097 7.44669 276.209 7.70269C276.385 7.87869 276.473 8.10269 276.473 8.37469C276.473 8.67869 276.385 9.07069 276.209 9.55069C275.937 10.1427 275.641 11.0067 275.321 12.1427C275.657 11.7747 275.897 11.4867 276.041 11.2787C276.425 10.7347 276.921 10.1267 277.529 9.45469C278.025 8.91069 278.585 8.63869 279.209 8.63869C279.945 8.76669 280.369 9.38269 280.481 10.4867C280.481 10.6787 280.465 10.9187 280.433 11.2067C280.401 11.4787 280.377 11.6547 280.361 11.7347C280.425 11.6387 280.585 11.4307 280.841 11.1107C281.113 10.7907 281.441 10.4627 281.825 10.1267C282.177 9.85469 282.505 9.71869 282.809 9.71869C283.065 9.71869 283.289 9.82269 283.481 10.0307C283.817 10.2227 284.057 10.4947 284.201 10.8467C284.345 11.1827 284.417 11.6147 284.417 12.1427C284.417 12.4147 284.409 12.6307 284.393 12.7907C284.361 13.1107 284.345 13.3107 284.345 13.3907C284.345 13.6947 284.401 13.9987 284.513 14.3027ZM288.87 16.4627C288.182 16.4627 287.614 16.2067 287.166 15.6947C286.718 15.1827 286.494 14.5427 286.494 13.7747C286.494 13.0067 286.662 12.1667 286.998 11.2547C287.35 10.3267 287.798 9.49469 288.342 8.75869C288.886 8.02269 289.438 7.52669 289.998 7.27069C290.318 7.09469 290.678 7.00669 291.078 7.00669C291.382 7.00669 291.726 7.09469 292.11 7.27069C292.382 7.38269 292.59 7.51869 292.734 7.67869C292.878 7.83869 293.006 8.08669 293.118 8.42269C293.166 8.71069 293.19 8.91069 293.19 9.02269C293.19 9.11869 293.15 9.32669 293.07 9.64669C292.878 10.2387 292.622 10.7427 292.302 11.1587C291.998 11.5587 291.598 11.9027 291.102 12.1907C290.846 12.3507 290.526 12.4307 290.142 12.4307C289.806 12.4307 289.486 12.3747 289.182 12.2627C288.894 12.1347 288.67 11.9507 288.51 11.7107L288.342 11.5187L288.27 11.7107C287.934 12.5747 287.766 13.3107 287.766 13.9187C287.766 14.3347 287.846 14.6707 288.006 14.9267C288.118 15.1027 288.39 15.1907 288.822 15.1907C289.142 15.1907 289.374 15.1587 289.518 15.0947C289.758 15.0147 289.966 14.9187 290.142 14.8067C290.334 14.6787 290.518 14.5507 290.694 14.4227L290.79 14.3747H290.766C290.958 14.2787 291.118 14.1907 291.246 14.1107C291.374 14.0307 291.462 13.9747 291.51 13.9427C291.542 13.9427 291.574 13.9347 291.606 13.9187C291.638 13.9027 291.67 13.8707 291.702 13.8227C291.846 13.7587 292.014 13.7827 292.206 13.8947C292.398 14.0067 292.494 14.1507 292.494 14.3267C292.462 14.4547 292.318 14.6627 292.062 14.9507C291.806 15.2387 291.614 15.3907 291.486 15.4067C291.47 15.4067 291.414 15.4307 291.318 15.4787C291.222 15.5267 291.158 15.5667 291.126 15.5987H291.15C291.006 15.7907 290.862 15.8867 290.718 15.8867H290.526C290.462 16.0147 290.246 16.1427 289.878 16.2707C289.526 16.3987 289.19 16.4627 288.87 16.4627ZM289.95 11.1827C290.43 11.1827 290.87 10.9107 291.27 10.3667C291.654 9.85469 291.846 9.34269 291.846 8.83069C291.846 8.55869 291.79 8.36669 291.678 8.25469C291.582 8.20669 291.494 8.18269 291.414 8.18269C291.334 8.18269 291.198 8.20669 291.006 8.25469C290.798 8.30269 290.478 8.52669 290.046 8.92669C289.614 9.31069 289.294 9.65469 289.086 9.95869L288.774 10.4627C288.902 10.4147 289.022 10.3907 289.134 10.3907C289.262 10.3747 289.334 10.3827 289.35 10.4147C289.35 10.6387 289.406 10.8227 289.518 10.9667C289.63 11.1107 289.774 11.1827 289.95 11.1827ZM293.339 16.2947C293.243 16.2627 293.107 16.1587 292.931 15.9827C292.771 15.7907 292.659 15.6627 292.595 15.5987C292.595 15.4867 292.627 15.3987 292.691 15.3347C292.771 15.2707 292.827 15.2227 292.859 15.1907C292.907 15.1267 293.011 15.0787 293.171 15.0467C293.347 15.0147 293.459 14.9747 293.507 14.9267C293.571 14.8787 293.731 14.7667 293.987 14.5907C294.243 14.4147 294.467 14.2387 294.659 14.0627C294.867 13.8707 295.035 13.6787 295.163 13.4867C295.579 12.8947 296.019 12.1907 296.483 11.3747C296.627 11.1027 296.811 10.7347 297.035 10.2707C297.275 9.79069 297.411 9.47869 297.443 9.33469L296.699 9.09469C296.667 9.06269 296.619 8.99869 296.555 8.90269C296.491 8.80669 296.451 8.72669 296.435 8.66269C296.435 8.59869 296.435 8.52669 296.435 8.44669C296.435 8.25469 296.451 8.11869 296.483 8.03869C296.531 7.95869 296.619 7.91069 296.747 7.89469C297.243 7.79869 297.651 7.72669 297.971 7.67869C298.451 7.61469 298.811 7.55069 299.051 7.48669C299.243 7.43869 299.459 7.41469 299.699 7.41469C300.115 7.41469 300.491 7.48669 300.827 7.63069C301.067 7.72669 301.275 7.91869 301.451 8.20669C301.675 8.51069 301.787 8.81469 301.787 9.11869C301.787 9.23069 301.779 9.34269 301.763 9.45469C301.747 9.55069 301.739 9.65469 301.739 9.76669C301.739 9.91069 301.763 10.0547 301.811 10.1987C301.603 10.9667 301.379 11.6707 301.139 12.3107C301.091 12.4387 301.019 12.6547 300.923 12.9587C300.827 13.2627 300.755 13.5267 300.707 13.7507C300.659 13.9907 300.587 14.2147 300.491 14.4227C300.363 14.7907 300.283 15.0867 300.251 15.3107C300.219 15.4867 300.147 15.6227 300.035 15.7187C299.939 15.7987 299.827 15.8707 299.699 15.9347C299.587 15.9827 299.515 16.0147 299.483 16.0307C299.419 16.0627 299.307 16.0467 299.147 15.9827C298.987 15.9187 298.851 15.8307 298.739 15.7187C298.707 15.6227 298.691 15.4947 298.691 15.3347C298.691 15.2067 298.723 15.0307 298.787 14.8067C299.075 13.8787 299.467 12.5347 299.963 10.7747L300.227 9.86269C300.275 9.71869 300.299 9.55069 300.299 9.35869C300.299 9.21469 300.275 9.07069 300.227 8.92669C299.971 8.83069 299.771 8.78269 299.627 8.78269C299.547 8.78269 299.459 8.79869 299.363 8.83069C299.267 8.86269 299.179 8.88669 299.099 8.90269C298.939 9.01469 298.843 9.16669 298.811 9.35869C298.507 10.1587 298.195 10.8627 297.875 11.4707C297.555 12.0787 297.307 12.5747 297.131 12.9587C297.067 13.1187 296.883 13.4227 296.579 13.8707C296.387 14.1587 296.251 14.3747 296.171 14.5187L295.907 14.8547C295.827 14.9347 295.691 15.0627 295.499 15.2387C295.307 15.4147 295.171 15.5427 295.091 15.6227L294.347 16.1987C294.251 16.2787 294.075 16.3187 293.819 16.3187C293.579 16.3027 293.419 16.2947 293.339 16.2947ZM304.535 15.8147C304.023 15.6067 303.663 15.3427 303.455 15.0227C303.247 14.6867 303.143 14.2227 303.143 13.6307C303.143 13.3427 303.167 13.0067 303.215 12.6227L303.263 11.7587C303.263 11.6147 303.247 11.5027 303.215 11.4227C303.183 11.3427 303.111 11.2547 302.999 11.1587C302.967 11.1267 302.887 11.0467 302.759 10.9187C302.631 10.7907 302.575 10.6867 302.591 10.6067L302.567 10.4867C302.567 10.3747 302.583 10.2707 302.615 10.1747C302.663 10.0787 302.711 10.0307 302.759 10.0307C302.807 10.0307 302.871 10.0227 302.951 10.0067C303.031 9.97469 303.103 9.96669 303.167 9.98269C303.391 9.98269 303.503 10.0307 303.503 10.1267C303.567 10.2547 303.671 10.2707 303.815 10.1747C303.975 10.0627 304.127 9.85469 304.271 9.55069C304.495 9.19869 304.823 8.83069 305.255 8.44669C305.703 8.04669 306.071 7.76669 306.359 7.60669C306.471 7.54269 306.655 7.48669 306.911 7.43869C307.167 7.37469 307.391 7.34269 307.583 7.34269C307.871 7.34269 308.119 7.40669 308.327 7.53469C308.551 7.66269 308.775 7.84669 308.999 8.08669C309.303 8.31069 309.455 8.66269 309.455 9.14269C309.455 9.47869 309.375 9.82269 309.215 10.1747C309.151 10.4147 308.895 10.7187 308.447 11.0867C308.015 11.4547 307.615 11.7107 307.247 11.8547C306.799 11.9667 306.287 12.0227 305.711 12.0227C305.327 12.0227 305.079 11.9907 304.967 11.9267C304.775 11.8147 304.639 12.2467 304.559 13.2227C304.543 13.3347 304.535 13.4867 304.535 13.6787C304.535 13.9507 304.575 14.1667 304.655 14.3267C304.671 14.3427 304.727 14.4067 304.823 14.5187C304.919 14.6147 305.039 14.7027 305.183 14.7827C305.327 14.8467 305.479 14.8787 305.639 14.8787C305.783 14.8787 305.895 14.8627 305.975 14.8307C306.151 14.7827 306.319 14.6947 306.479 14.5667C306.639 14.4227 306.863 14.2067 307.151 13.9187C307.407 13.6627 307.591 13.4867 307.703 13.3907C307.783 13.2467 307.943 13.1747 308.183 13.1747C308.247 13.1747 308.359 13.1907 308.519 13.2227C308.663 13.3347 308.735 13.4547 308.735 13.5827C308.735 13.7107 308.655 13.9507 308.495 14.3027C308.415 14.4627 308.215 14.6867 307.895 14.9747C307.591 15.2467 307.319 15.4627 307.079 15.6227C306.583 15.8947 306.087 16.0307 305.591 16.0307C305.287 16.0307 304.935 15.9587 304.535 15.8147ZM305.951 10.9427C306.111 10.9107 306.343 10.8707 306.647 10.8227C306.951 10.7747 307.199 10.6707 307.391 10.5107C307.599 10.3347 307.839 10.0387 308.111 9.62269C308.159 9.49469 308.183 9.36669 308.183 9.23869C308.183 8.99869 308.135 8.83069 308.039 8.73469C307.927 8.62269 307.799 8.56669 307.655 8.56669C307.431 8.56669 307.199 8.66269 306.959 8.85469C306.799 8.90269 306.559 9.07869 306.239 9.38269C305.935 9.68669 305.671 9.99069 305.447 10.2947C305.223 10.5827 305.151 10.7507 305.231 10.7987C305.199 10.8467 305.279 10.8867 305.471 10.9187C305.663 10.9347 305.823 10.9427 305.951 10.9427Z" fill="#8E80A9"/>
</svg>
