<svg width="18" height="12" fill="none" xmlns="http://www.w3.org/2000/svg"><path d="M15.96 5.335c1.011-.08 1.697-.525 1.961-1.129-.364.217-1.497.453-2.122.228a7.337 7.337 0 00-.098-.399c-.477-1.693-2.108-3.056-3.817-2.892.139-.054.279-.104.419-.15C12.49.93 13.594.756 13.42.379c-.147-.332-1.495.25-1.75.327.336-.122.89-.332.95-.705a2.716 2.716 0 00-1.407.645.925.925 0 00.27-.517c-1.37.846-2.17 2.553-2.817 4.21-.509-.478-.96-.853-1.364-1.062-1.134-.588-2.49-1.202-4.618-1.967-.065.682.348 1.588 1.54 2.19-.258-.033-.73.042-1.108.13.154.78.656 1.423 2.016 1.734-.621.04-.943.177-1.234.472.283.543.974 1.182 2.216 1.05-1.38.577-.563 1.643.561 1.484-1.917 1.917-4.94 1.776-6.676.173 4.532 5.976 14.384 3.534 15.852-2.222 1.1.01 1.747-.369 2.148-.785-.634.104-1.552-.004-2.04-.2z" fill="#8B7EAC" fill-opacity=".65"/></svg>