<svg width="16" height="10" viewBox="0 0 16 10" fill="none" xmlns="http://www.w3.org/2000/svg">
<path d="M15.8574 8.91937C15.8144 8.8405 15.5484 8.20732 14.2683 6.90591C12.9282 5.54315 13.1082 5.76443 14.7223 3.40809C15.7054 1.97303 16.0984 1.09665 15.9754 0.722004C15.8584 0.364883 15.1353 0.459093 15.1353 0.459093L12.7312 0.474429C12.7312 0.474429 12.5531 0.448138 12.4201 0.53468C12.2911 0.620126 12.2081 0.81731 12.2081 0.81731C12.2081 0.81731 11.8271 1.92811 11.3191 2.8724C10.248 4.86505 9.81894 4.97022 9.64393 4.84643C9.2369 4.55832 9.33891 3.68743 9.33891 3.06959C9.33891 1.13828 9.60593 0.333114 8.81787 0.124976C8.55585 0.0559615 8.36384 0.00995199 7.69479 0.00228373C6.83673 -0.00757546 6.10967 0.00557012 5.69864 0.225759C5.42462 0.372551 5.21361 0.700095 5.34262 0.718718C5.50163 0.741723 5.86165 0.824978 6.05267 1.1098C6.29969 1.47678 6.29068 2.30276 6.29068 2.30276C6.29068 2.30276 6.4327 4.57585 5.95966 4.85848C5.63464 5.05238 5.1896 4.65692 4.23453 2.8483C3.7455 1.92263 3.37547 0.898375 3.37547 0.898375C3.37547 0.898375 3.30447 0.707763 3.17746 0.605885C3.02345 0.482098 2.80743 0.442661 2.80743 0.442661L0.521262 0.457997C0.521262 0.457997 0.178236 0.468952 0.0522271 0.632177C-0.0597811 0.777873 0.0432264 1.07803 0.0432264 1.07803C0.0432264 1.07803 1.83336 5.66474 3.85951 7.97727C5.71864 10.097 7.8288 9.95787 7.8288 9.95787H8.78487C8.78487 9.95787 9.07389 9.92282 9.2209 9.74864C9.35691 9.5887 9.35191 9.28854 9.35191 9.28854C9.35191 9.28854 9.33291 7.88306 9.92895 7.67602C10.516 7.47226 11.2701 9.03439 12.0691 9.6358C12.6732 10.0904 13.1322 9.99073 13.1322 9.99073L15.2693 9.95787C15.2693 9.95787 16.3874 9.88228 15.8574 8.91937Z" fill="#8B7EAC" fill-opacity="0.65"/>
</svg>
