<svg width="9" height="6" viewBox="0 0 9 6" fill="none" xmlns="http://www.w3.org/2000/svg">
<path d="M8.89456 5.38239C8.87225 5.34209 8.73421 5.01858 8.06994 4.35365C7.37455 3.65737 7.46796 3.77043 8.30555 2.5665C8.81568 1.83328 9.01963 1.38551 8.9558 1.19409C8.89508 1.01163 8.51988 1.05976 8.51988 1.05976L7.27231 1.0676C7.27231 1.0676 7.17994 1.05416 7.11092 1.09838C7.04397 1.14204 7.0009 1.24279 7.0009 1.24279C7.0009 1.24279 6.80318 1.81033 6.53955 2.2928C5.98375 3.31091 5.76112 3.36464 5.6703 3.30139C5.45909 3.15419 5.51202 2.70922 5.51202 2.39355C5.51202 1.40678 5.65058 0.995394 5.24164 0.88905C5.10568 0.853788 5.00604 0.83028 4.65886 0.826362C4.2136 0.821325 3.83632 0.828041 3.62303 0.940543C3.48083 1.01554 3.37133 1.1829 3.43828 1.19241C3.52079 1.20417 3.70762 1.2467 3.80674 1.39223C3.93492 1.57973 3.93025 2.00175 3.93025 2.00175C3.93025 2.00175 4.00394 3.16315 3.75847 3.30755C3.58981 3.40662 3.35888 3.20457 2.86328 2.28049C2.60951 1.80753 2.4175 1.2842 2.4175 1.2842C2.4175 1.2842 2.38065 1.18681 2.31474 1.13476C2.23482 1.07151 2.12273 1.05137 2.12273 1.05137L0.9364 1.0592C0.9364 1.0592 0.758399 1.0648 0.69301 1.14819C0.634887 1.22264 0.68834 1.376 0.68834 1.376C0.68834 1.376 1.61727 3.7195 2.66867 4.90104C3.6334 5.98408 4.7284 5.913 4.7284 5.913H5.22452C5.22452 5.913 5.3745 5.89509 5.45078 5.80609C5.52136 5.72437 5.51877 5.57101 5.51877 5.57101C5.51877 5.57101 5.50891 4.85291 5.8182 4.74712C6.12283 4.64302 6.51412 5.44116 6.92876 5.74844C7.24221 5.98072 7.48041 5.92979 7.48041 5.92979L8.58942 5.913C8.58942 5.913 9.16961 5.87438 8.89456 5.38239Z" fill="#8B7EAC" fill-opacity="0.65"/>
</svg>
