<svg width="11" height="7" fill="none" xmlns="http://www.w3.org/2000/svg"><path d="M9.537 3.137c.54-.044.908-.29 1.049-.624-.195.12-.801.25-1.136.126a4.134 4.134 0 00-.052-.22C9.143 1.481 8.27.727 7.355.818c.074-.03.149-.058.224-.083.1-.036.691-.132.598-.34-.078-.184-.8.138-.936.18.18-.067.476-.183.508-.39a1.433 1.433 0 00-.753.357.518.518 0 00.144-.286C6.407.725 5.98 1.67 5.633 2.585c-.273-.263-.514-.471-.73-.586C4.296 1.673 3.57 1.334 2.43.91c-.035.377.186.878.824 1.211-.138-.018-.39.023-.593.071.083.432.351.788 1.08.96-.333.022-.505.097-.661.26.151.3.521.654 1.186.582-.74.318-.301.908.3.82a2.555 2.555 0 01-3.573.096c2.427 3.306 7.7 1.956 8.486-1.228.588.005.935-.204 1.15-.434-.34.057-.832-.002-1.092-.11z" fill="#8B7EAC" fill-opacity=".65"/></svg>