<svg width="16" height="10" fill="none" xmlns="http://www.w3.org/2000/svg"><path d="M15.857 8.92c-.043-.08-.309-.713-1.589-2.014-1.34-1.363-1.16-1.142.454-3.498.983-1.435 1.376-2.311 1.253-2.686-.117-.357-.84-.263-.84-.263l-2.404.015s-.178-.026-.31.06c-.13.086-.213.283-.213.283s-.38 1.111-.889 2.055c-1.071 1.993-1.5 2.098-1.675 1.974-.407-.288-.305-1.159-.305-1.776 0-1.932.267-2.737-.521-2.945C8.556.056 8.364.01 7.695.002c-.858-.01-1.585.004-1.996.224-.274.147-.485.474-.356.493.159.023.519.106.71.39.247.368.238 1.194.238 1.194s.142 2.273-.331 2.555c-.325.194-.77-.201-1.725-2.01-.49-.925-.86-1.95-.86-1.95s-.07-.19-.198-.292a.94.94 0 00-.37-.163L.521.458S.178.469.052.632c-.112.146-.009.446-.009.446s1.79 4.587 3.817 6.9c1.859 2.119 3.969 1.98 3.969 1.98h.956s.289-.035.436-.21c.136-.16.13-.46.13-.46s-.018-1.405.578-1.612c.587-.204 1.341 1.358 2.14 1.96.604.454 1.063.355 1.063.355l2.137-.033s1.118-.076.588-1.039z" fill="#8B7EAC" fill-opacity=".65"/></svg>