<svg width="9" height="6" fill="none" xmlns="http://www.w3.org/2000/svg"><path d="M8.895 5.382c-.023-.04-.16-.363-.825-1.028-.695-.697-.602-.584.236-1.788.51-.733.714-1.18.65-1.372-.06-.182-.436-.134-.436-.134l-1.248.008s-.092-.014-.161.03c-.067.044-.11.145-.11.145s-.198.567-.461 1.05C5.984 3.31 5.76 3.365 5.67 3.3c-.21-.147-.158-.592-.158-.907 0-.987.139-1.399-.27-1.505C5.106.854 5.006.83 4.659.826c-.445-.005-.823.002-1.036.115-.142.075-.252.242-.185.251.083.012.27.055.369.2.128.188.123.61.123.61s.074 1.161-.172 1.306c-.168.099-.4-.103-.895-1.028a8.934 8.934 0 01-.446-.996s-.036-.097-.102-.15c-.08-.062-.192-.083-.192-.083L.936 1.06s-.178.006-.243.09c-.058.074-.005.227-.005.227s.93 2.344 1.98 3.525c.965 1.083 2.06 1.012 2.06 1.012h.497s.15-.018.226-.107c.07-.082.068-.235.068-.235s-.01-.718.3-.824c.304-.104.695.694 1.11 1.001.313.233.551.182.551.182l1.11-.017s.58-.039.305-.53z" fill="#8B7EAC" fill-opacity=".65"/></svg>